<?xml version="1.0" encoding="utf-8" standalone="no"?>
<!DOCTYPE svg PUBLIC "-//W3C//DTD SVG 1.1//EN"
  "http://www.w3.org/Graphics/SVG/1.1/DTD/svg11.dtd">
<svg xmlns:xlink="http://www.w3.org/1999/xlink" width="830.430262pt" height="512.364625pt" viewBox="0 0 830.430262 512.364625" xmlns="http://www.w3.org/2000/svg" version="1.1">
 <metadata>
  <rdf:RDF xmlns:dc="http://purl.org/dc/elements/1.1/" xmlns:cc="http://creativecommons.org/ns#" xmlns:rdf="http://www.w3.org/1999/02/22-rdf-syntax-ns#">
   <cc:Work>
    <dc:type rdf:resource="http://purl.org/dc/dcmitype/StillImage"/>
    <dc:date>2025-03-19T11:36:57.520957</dc:date>
    <dc:format>image/svg+xml</dc:format>
    <dc:creator>
     <cc:Agent>
      <dc:title>Matplotlib v3.10.0, https://matplotlib.org/</dc:title>
     </cc:Agent>
    </dc:creator>
   </cc:Work>
  </rdf:RDF>
 </metadata>
 <defs>
  <style type="text/css">*{stroke-linejoin: round; stroke-linecap: butt}</style>
 </defs>
 <g id="figure_1">
  <g id="patch_1">
   <path d="M 0 512.364625 
L 830.430262 512.364625 
L 830.430262 0 
L 0 0 
z
" style="fill: #ffffff"/>
  </g>
  <g id="axes_1">
   <g id="patch_2">
    <path d="M 51.585313 475.244 
L 700.119312 475.244 
L 700.119312 7.2 
L 51.585313 7.2 
z
" style="fill: #ffffff"/>
   </g>
   <g id="matplotlib.axis_1">
    <g id="xtick_1">
     <g id="text_1">
      <!-- 0 -->
      <g style="fill: #262626" transform="translate(45.323281 501.421187) scale(0.18 -0.18)">
       <defs>
        <path id="DejaVuSans-Bold-30" d="M 2944 2338 
Q 2944 3213 2780 3570 
Q 2616 3928 2228 3928 
Q 1841 3928 1675 3570 
Q 1509 3213 1509 2338 
Q 1509 1453 1675 1090 
Q 1841 728 2228 728 
Q 2613 728 2778 1090 
Q 2944 1453 2944 2338 
z
M 4147 2328 
Q 4147 1169 3647 539 
Q 3147 -91 2228 -91 
Q 1306 -91 806 539 
Q 306 1169 306 2328 
Q 306 3491 806 4120 
Q 1306 4750 2228 4750 
Q 3147 4750 3647 4120 
Q 4147 3491 4147 2328 
z
" transform="scale(0.015625)"/>
       </defs>
       <use xlink:href="#DejaVuSans-Bold-30"/>
      </g>
     </g>
    </g>
    <g id="xtick_2">
     <g id="text_2">
      <!-- 20 -->
      <g style="fill: #262626" transform="translate(162.650388 501.421187) scale(0.18 -0.18)">
       <defs>
        <path id="DejaVuSans-Bold-32" d="M 1844 884 
L 3897 884 
L 3897 0 
L 506 0 
L 506 884 
L 2209 2388 
Q 2438 2594 2547 2791 
Q 2656 2988 2656 3200 
Q 2656 3528 2436 3728 
Q 2216 3928 1850 3928 
Q 1569 3928 1234 3808 
Q 900 3688 519 3450 
L 519 4475 
Q 925 4609 1322 4679 
Q 1719 4750 2100 4750 
Q 2938 4750 3402 4381 
Q 3866 4013 3866 3353 
Q 3866 2972 3669 2642 
Q 3472 2313 2841 1759 
L 1844 884 
z
" transform="scale(0.015625)"/>
       </defs>
       <use xlink:href="#DejaVuSans-Bold-32"/>
       <use xlink:href="#DejaVuSans-Bold-30" transform="translate(69.580078 0)"/>
      </g>
     </g>
    </g>
    <g id="xtick_3">
     <g id="text_3">
      <!-- 40 -->
      <g style="fill: #262626" transform="translate(286.239525 501.421187) scale(0.18 -0.18)">
       <defs>
        <path id="DejaVuSans-Bold-34" d="M 2356 3675 
L 1038 1722 
L 2356 1722 
L 2356 3675 
z
M 2156 4666 
L 3494 4666 
L 3494 1722 
L 4159 1722 
L 4159 850 
L 3494 850 
L 3494 0 
L 2356 0 
L 2356 850 
L 288 850 
L 288 1881 
L 2156 4666 
z
" transform="scale(0.015625)"/>
       </defs>
       <use xlink:href="#DejaVuSans-Bold-34"/>
       <use xlink:href="#DejaVuSans-Bold-30" transform="translate(69.580078 0)"/>
      </g>
     </g>
    </g>
    <g id="xtick_4">
     <g id="text_4">
      <!-- 60 -->
      <g style="fill: #262626" transform="translate(409.828663 501.421187) scale(0.18 -0.18)">
       <defs>
        <path id="DejaVuSans-Bold-36" d="M 2316 2303 
Q 2000 2303 1842 2098 
Q 1684 1894 1684 1484 
Q 1684 1075 1842 870 
Q 2000 666 2316 666 
Q 2634 666 2792 870 
Q 2950 1075 2950 1484 
Q 2950 1894 2792 2098 
Q 2634 2303 2316 2303 
z
M 3803 4544 
L 3803 3681 
Q 3506 3822 3243 3889 
Q 2981 3956 2731 3956 
Q 2194 3956 1894 3657 
Q 1594 3359 1544 2772 
Q 1750 2925 1990 3001 
Q 2231 3078 2516 3078 
Q 3231 3078 3670 2659 
Q 4109 2241 4109 1563 
Q 4109 813 3618 361 
Q 3128 -91 2303 -91 
Q 1394 -91 895 523 
Q 397 1138 397 2266 
Q 397 3422 980 4083 
Q 1563 4744 2578 4744 
Q 2900 4744 3203 4694 
Q 3506 4644 3803 4544 
z
" transform="scale(0.015625)"/>
       </defs>
       <use xlink:href="#DejaVuSans-Bold-36"/>
       <use xlink:href="#DejaVuSans-Bold-30" transform="translate(69.580078 0)"/>
      </g>
     </g>
    </g>
    <g id="xtick_5">
     <g id="text_5">
      <!-- 80 -->
      <g style="fill: #262626" transform="translate(533.417801 501.421187) scale(0.18 -0.18)">
       <defs>
        <path id="DejaVuSans-Bold-38" d="M 2228 2088 
Q 1891 2088 1709 1903 
Q 1528 1719 1528 1375 
Q 1528 1031 1709 848 
Q 1891 666 2228 666 
Q 2563 666 2741 848 
Q 2919 1031 2919 1375 
Q 2919 1722 2741 1905 
Q 2563 2088 2228 2088 
z
M 1350 2484 
Q 925 2613 709 2878 
Q 494 3144 494 3541 
Q 494 4131 934 4440 
Q 1375 4750 2228 4750 
Q 3075 4750 3515 4442 
Q 3956 4134 3956 3541 
Q 3956 3144 3739 2878 
Q 3522 2613 3097 2484 
Q 3572 2353 3814 2058 
Q 4056 1763 4056 1313 
Q 4056 619 3595 264 
Q 3134 -91 2228 -91 
Q 1319 -91 855 264 
Q 391 619 391 1313 
Q 391 1763 633 2058 
Q 875 2353 1350 2484 
z
M 1631 3419 
Q 1631 3141 1786 2991 
Q 1941 2841 2228 2841 
Q 2509 2841 2662 2991 
Q 2816 3141 2816 3419 
Q 2816 3697 2662 3845 
Q 2509 3994 2228 3994 
Q 1941 3994 1786 3844 
Q 1631 3694 1631 3419 
z
" transform="scale(0.015625)"/>
       </defs>
       <use xlink:href="#DejaVuSans-Bold-38"/>
       <use xlink:href="#DejaVuSans-Bold-30" transform="translate(69.580078 0)"/>
      </g>
     </g>
    </g>
    <g id="xtick_6">
     <g id="text_6">
      <!-- 100 -->
      <g style="fill: #262626" transform="translate(650.744907 501.421187) scale(0.18 -0.18)">
       <defs>
        <path id="DejaVuSans-Bold-31" d="M 750 831 
L 1813 831 
L 1813 3847 
L 722 3622 
L 722 4441 
L 1806 4666 
L 2950 4666 
L 2950 831 
L 4013 831 
L 4013 0 
L 750 0 
L 750 831 
z
" transform="scale(0.015625)"/>
       </defs>
       <use xlink:href="#DejaVuSans-Bold-31"/>
       <use xlink:href="#DejaVuSans-Bold-30" transform="translate(69.580078 0)"/>
       <use xlink:href="#DejaVuSans-Bold-30" transform="translate(139.160156 0)"/>
      </g>
     </g>
    </g>
   </g>
   <g id="matplotlib.axis_2">
    <g id="ytick_1">
     <g id="text_7">
      <!-- 0.0 -->
      <g style="fill: #262626" transform="translate(7.2 482.082594) scale(0.18 -0.18)">
       <defs>
        <path id="DejaVuSans-Bold-2e" d="M 653 1209 
L 1778 1209 
L 1778 0 
L 653 0 
L 653 1209 
z
" transform="scale(0.015625)"/>
       </defs>
       <use xlink:href="#DejaVuSans-Bold-30"/>
       <use xlink:href="#DejaVuSans-Bold-2e" transform="translate(69.580078 0)"/>
       <use xlink:href="#DejaVuSans-Bold-30" transform="translate(107.568359 0)"/>
      </g>
     </g>
    </g>
    <g id="ytick_2">
     <g id="text_8">
      <!-- 0.1 -->
      <g style="fill: #262626" transform="translate(7.2 428.986281) scale(0.18 -0.18)">
       <use xlink:href="#DejaVuSans-Bold-30"/>
       <use xlink:href="#DejaVuSans-Bold-2e" transform="translate(69.580078 0)"/>
       <use xlink:href="#DejaVuSans-Bold-31" transform="translate(107.568359 0)"/>
      </g>
     </g>
    </g>
    <g id="ytick_3">
     <g id="text_9">
      <!-- 0.2 -->
      <g style="fill: #262626" transform="translate(7.2 375.889968) scale(0.18 -0.18)">
       <use xlink:href="#DejaVuSans-Bold-30"/>
       <use xlink:href="#DejaVuSans-Bold-2e" transform="translate(69.580078 0)"/>
       <use xlink:href="#DejaVuSans-Bold-32" transform="translate(107.568359 0)"/>
      </g>
     </g>
    </g>
    <g id="ytick_4">
     <g id="text_10">
      <!-- 0.3 -->
      <g style="fill: #262626" transform="translate(7.2 322.793654) scale(0.18 -0.18)">
       <defs>
        <path id="DejaVuSans-Bold-33" d="M 2981 2516 
Q 3453 2394 3698 2092 
Q 3944 1791 3944 1325 
Q 3944 631 3412 270 
Q 2881 -91 1863 -91 
Q 1503 -91 1142 -33 
Q 781 25 428 141 
L 428 1069 
Q 766 900 1098 814 
Q 1431 728 1753 728 
Q 2231 728 2486 893 
Q 2741 1059 2741 1369 
Q 2741 1688 2480 1852 
Q 2219 2016 1709 2016 
L 1228 2016 
L 1228 2791 
L 1734 2791 
Q 2188 2791 2409 2933 
Q 2631 3075 2631 3366 
Q 2631 3634 2415 3781 
Q 2200 3928 1806 3928 
Q 1516 3928 1219 3862 
Q 922 3797 628 3669 
L 628 4550 
Q 984 4650 1334 4700 
Q 1684 4750 2022 4750 
Q 2931 4750 3382 4451 
Q 3834 4153 3834 3553 
Q 3834 3144 3618 2883 
Q 3403 2622 2981 2516 
z
" transform="scale(0.015625)"/>
       </defs>
       <use xlink:href="#DejaVuSans-Bold-30"/>
       <use xlink:href="#DejaVuSans-Bold-2e" transform="translate(69.580078 0)"/>
       <use xlink:href="#DejaVuSans-Bold-33" transform="translate(107.568359 0)"/>
      </g>
     </g>
    </g>
    <g id="ytick_5">
     <g id="text_11">
      <!-- 0.4 -->
      <g style="fill: #262626" transform="translate(7.2 269.697341) scale(0.18 -0.18)">
       <use xlink:href="#DejaVuSans-Bold-30"/>
       <use xlink:href="#DejaVuSans-Bold-2e" transform="translate(69.580078 0)"/>
       <use xlink:href="#DejaVuSans-Bold-34" transform="translate(107.568359 0)"/>
      </g>
     </g>
    </g>
    <g id="ytick_6">
     <g id="text_12">
      <!-- 0.5 -->
      <g style="fill: #262626" transform="translate(7.2 216.601028) scale(0.18 -0.18)">
       <defs>
        <path id="DejaVuSans-Bold-35" d="M 678 4666 
L 3669 4666 
L 3669 3781 
L 1638 3781 
L 1638 3059 
Q 1775 3097 1914 3117 
Q 2053 3138 2203 3138 
Q 3056 3138 3531 2711 
Q 4006 2284 4006 1522 
Q 4006 766 3489 337 
Q 2972 -91 2053 -91 
Q 1656 -91 1267 -14 
Q 878 63 494 219 
L 494 1166 
Q 875 947 1217 837 
Q 1559 728 1863 728 
Q 2300 728 2551 942 
Q 2803 1156 2803 1522 
Q 2803 1891 2551 2103 
Q 2300 2316 1863 2316 
Q 1603 2316 1309 2248 
Q 1016 2181 678 2041 
L 678 4666 
z
" transform="scale(0.015625)"/>
       </defs>
       <use xlink:href="#DejaVuSans-Bold-30"/>
       <use xlink:href="#DejaVuSans-Bold-2e" transform="translate(69.580078 0)"/>
       <use xlink:href="#DejaVuSans-Bold-35" transform="translate(107.568359 0)"/>
      </g>
     </g>
    </g>
    <g id="ytick_7">
     <g id="text_13">
      <!-- 0.6 -->
      <g style="fill: #262626" transform="translate(7.2 163.504715) scale(0.18 -0.18)">
       <use xlink:href="#DejaVuSans-Bold-30"/>
       <use xlink:href="#DejaVuSans-Bold-2e" transform="translate(69.580078 0)"/>
       <use xlink:href="#DejaVuSans-Bold-36" transform="translate(107.568359 0)"/>
      </g>
     </g>
    </g>
    <g id="ytick_8">
     <g id="text_14">
      <!-- 0.7 -->
      <g style="fill: #262626" transform="translate(7.2 110.408402) scale(0.18 -0.18)">
       <defs>
        <path id="DejaVuSans-Bold-37" d="M 428 4666 
L 3944 4666 
L 3944 3988 
L 2125 0 
L 953 0 
L 2675 3781 
L 428 3781 
L 428 4666 
z
" transform="scale(0.015625)"/>
       </defs>
       <use xlink:href="#DejaVuSans-Bold-30"/>
       <use xlink:href="#DejaVuSans-Bold-2e" transform="translate(69.580078 0)"/>
       <use xlink:href="#DejaVuSans-Bold-37" transform="translate(107.568359 0)"/>
      </g>
     </g>
    </g>
    <g id="ytick_9">
     <g id="text_15">
      <!-- 0.8 -->
      <g style="fill: #262626" transform="translate(7.2 57.312089) scale(0.18 -0.18)">
       <use xlink:href="#DejaVuSans-Bold-30"/>
       <use xlink:href="#DejaVuSans-Bold-2e" transform="translate(69.580078 0)"/>
       <use xlink:href="#DejaVuSans-Bold-38" transform="translate(107.568359 0)"/>
      </g>
     </g>
    </g>
   </g>
   <g id="FillBetweenPolyCollection_1"/>
   <g id="FillBetweenPolyCollection_2"/>
   <g id="FillBetweenPolyCollection_3"/>
   <g id="FillBetweenPolyCollection_4"/>
   <g id="FillBetweenPolyCollection_5"/>
   <g id="FillBetweenPolyCollection_6"/>
   <g id="FillBetweenPolyCollection_7"/>
   <g id="FillBetweenPolyCollection_8"/>
   <g id="FillBetweenPolyCollection_9"/>
   <g id="FillBetweenPolyCollection_10"/>
   <g id="FillBetweenPolyCollection_11"/>
   <g id="FillBetweenPolyCollection_12"/>
   <g id="FillBetweenPolyCollection_13"/>
   <g id="FillBetweenPolyCollection_14"/>
   <g id="FillBetweenPolyCollection_15"/>
   <g id="FillBetweenPolyCollection_16"/>
   <g id="FillBetweenPolyCollection_17"/>
   <g id="FillBetweenPolyCollection_18"/>
   <g id="FillBetweenPolyCollection_19"/>
   <g id="FillBetweenPolyCollection_20"/>
   <g id="FillBetweenPolyCollection_21"/>
   <g id="FillBetweenPolyCollection_22"/>
   <g id="FillBetweenPolyCollection_23"/>
   <g id="FillBetweenPolyCollection_24"/>
   <g id="FillBetweenPolyCollection_25"/>
   <g id="line2d_1">
    <path d="M 57.764769 464.624737 
L 63.944226 464.624737 
L 70.123683 438.076581 
L 76.30314 384.980268 
L 82.482597 369.051374 
L 88.662054 369.051374 
L 94.841511 363.741742 
L 101.020968 353.12248 
L 107.200424 358.432111 
L 113.379881 331.883955 
L 119.559338 305.335798 
L 125.738795 289.406904 
L 131.918252 268.168379 
L 138.097709 241.620222 
L 144.277166 220.381697 
L 150.456623 204.452803 
L 156.63608 193.833541 
L 162.815536 188.523909 
L 168.994993 183.214278 
L 175.17445 183.214278 
L 181.353907 183.214278 
L 187.533364 167.285384 
L 193.712821 183.214278 
L 199.892278 199.143172 
L 206.071735 199.143172 
L 212.251191 183.214278 
L 218.430648 167.285384 
L 224.610105 151.35649 
L 230.789562 151.35649 
L 236.969019 146.046859 
L 243.148476 146.046859 
L 249.327933 140.737227 
L 255.50739 140.737227 
L 261.686847 140.737227 
L 267.866303 140.737227 
L 274.04576 130.117965 
L 280.225217 130.117965 
L 286.404674 124.808334 
L 292.584131 124.808334 
L 298.763588 124.808334 
L 304.943045 119.498702 
L 311.122502 124.808334 
L 317.301959 119.498702 
L 323.481415 119.498702 
L 329.660872 130.117965 
L 335.840329 119.498702 
L 342.019786 119.498702 
L 348.199243 119.498702 
L 354.3787 119.498702 
L 360.558157 124.808334 
L 366.737614 119.498702 
L 372.91707 119.498702 
L 379.096527 124.808334 
L 385.275984 130.117965 
L 391.455441 135.427596 
L 397.634898 140.737227 
L 403.814355 140.737227 
L 409.993812 146.046859 
L 416.173269 146.046859 
L 422.352726 140.737227 
L 428.532182 140.737227 
L 434.711639 151.35649 
L 440.891096 151.35649 
L 447.070553 156.666121 
L 453.25001 161.975753 
L 459.429467 156.666121 
L 465.608924 156.666121 
L 471.788381 151.35649 
L 477.967838 146.046859 
L 484.147294 146.046859 
L 490.326751 146.046859 
L 496.506208 151.35649 
L 502.685665 135.427596 
L 508.865122 124.808334 
L 515.044579 119.498702 
L 521.224036 119.498702 
L 527.403493 108.87944 
L 533.582949 98.260177 
L 539.762406 98.260177 
L 545.941863 103.569808 
L 552.12132 108.87944 
L 558.300777 114.189071 
L 564.480234 108.87944 
L 570.659691 108.87944 
L 576.839148 98.260177 
L 583.018605 103.569808 
L 589.198061 108.87944 
L 595.377518 108.87944 
L 601.556975 108.87944 
L 607.736432 103.569808 
L 613.915889 98.260177 
L 620.095346 103.569808 
L 626.274803 92.950546 
L 632.45426 98.260177 
L 638.633717 87.640914 
L 644.813173 92.950546 
L 650.99263 92.950546 
L 657.172087 92.950546 
L 663.351544 108.87944 
L 669.531001 103.569808 
" clip-path="url(#pc4e821e7b1)" style="fill: none; stroke: #a6cee3; stroke-opacity: 0.99; stroke-width: 0.8; stroke-linecap: round"/>
   </g>
   <g id="line2d_2">
    <path d="M 57.764769 459.315106 
L 63.944226 443.386212 
L 70.123683 427.457318 
L 76.30314 406.218793 
L 82.482597 379.670636 
L 88.662054 363.741742 
L 94.841511 353.12248 
L 101.020968 331.883955 
L 107.200424 289.406904 
L 113.379881 284.097273 
L 119.559338 257.549116 
L 125.738795 246.929854 
L 131.918252 246.929854 
L 138.097709 241.620222 
L 144.277166 241.620222 
L 150.456623 241.620222 
L 156.63608 241.620222 
L 162.815536 236.310591 
L 168.994993 236.310591 
L 175.17445 225.691328 
L 181.353907 231.00096 
L 187.533364 225.691328 
L 193.712821 225.691328 
L 199.892278 220.381697 
L 206.071735 215.072066 
L 212.251191 215.072066 
L 218.430648 204.452803 
L 224.610105 204.452803 
L 230.789562 193.833541 
L 236.969019 193.833541 
L 243.148476 188.523909 
L 249.327933 188.523909 
L 255.50739 183.214278 
L 261.686847 177.904647 
L 267.866303 172.595015 
L 274.04576 172.595015 
L 280.225217 167.285384 
L 286.404674 177.904647 
L 292.584131 167.285384 
L 298.763588 156.666121 
L 304.943045 161.975753 
L 311.122502 161.975753 
L 317.301959 167.285384 
L 323.481415 156.666121 
L 329.660872 151.35649 
L 335.840329 146.046859 
L 342.019786 151.35649 
L 348.199243 151.35649 
L 354.3787 146.046859 
L 360.558157 146.046859 
L 366.737614 146.046859 
L 372.91707 146.046859 
L 379.096527 151.35649 
L 385.275984 146.046859 
L 391.455441 146.046859 
L 397.634898 151.35649 
" clip-path="url(#pc4e821e7b1)" style="fill: none; stroke: #1f78b4; stroke-opacity: 0.99; stroke-width: 0.8; stroke-linecap: round"/>
   </g>
   <g id="line2d_3">
    <path d="M 57.764769 459.315106 
L 63.944226 438.076581 
L 70.123683 395.59953 
L 76.30314 369.051374 
L 82.482597 353.12248 
L 88.662054 347.812849 
L 94.841511 331.883955 
L 101.020968 326.574323 
L 107.200424 310.645429 
L 113.379881 294.716535 
L 119.559338 284.097273 
L 125.738795 294.716535 
L 131.918252 289.406904 
L 138.097709 278.787642 
L 144.277166 278.787642 
L 150.456623 284.097273 
L 156.63608 273.47801 
L 162.815536 262.858748 
L 168.994993 262.858748 
L 175.17445 246.929854 
L 181.353907 252.239485 
L 187.533364 241.620222 
L 193.712821 241.620222 
L 199.892278 225.691328 
L 206.071735 225.691328 
L 212.251191 215.072066 
L 218.430648 209.762434 
L 224.610105 204.452803 
L 230.789562 209.762434 
L 236.969019 199.143172 
L 243.148476 188.523909 
L 249.327933 204.452803 
L 255.50739 209.762434 
L 261.686847 209.762434 
L 267.866303 209.762434 
L 274.04576 209.762434 
L 280.225217 220.381697 
L 286.404674 204.452803 
L 292.584131 204.452803 
L 298.763588 209.762434 
L 304.943045 209.762434 
L 311.122502 209.762434 
L 317.301959 209.762434 
L 323.481415 204.452803 
L 329.660872 215.072066 
L 335.840329 215.072066 
L 342.019786 204.452803 
L 348.199243 199.143172 
L 354.3787 199.143172 
L 360.558157 199.143172 
L 366.737614 188.523909 
L 372.91707 204.452803 
L 379.096527 199.143172 
L 385.275984 209.762434 
L 391.455441 209.762434 
L 397.634898 204.452803 
L 403.814355 209.762434 
L 409.993812 209.762434 
L 416.173269 193.833541 
L 422.352726 209.762434 
L 428.532182 199.143172 
L 434.711639 204.452803 
L 440.891096 204.452803 
L 447.070553 204.452803 
L 453.25001 204.452803 
L 459.429467 209.762434 
L 465.608924 215.072066 
L 471.788381 199.143172 
L 477.967838 199.143172 
L 484.147294 193.833541 
L 490.326751 193.833541 
L 496.506208 193.833541 
L 502.685665 193.833541 
L 508.865122 188.523909 
L 515.044579 183.214278 
L 521.224036 193.833541 
L 527.403493 183.214278 
L 533.582949 177.904647 
L 539.762406 183.214278 
L 545.941863 177.904647 
L 552.12132 188.523909 
L 558.300777 183.214278 
L 564.480234 177.904647 
L 570.659691 172.595015 
L 576.839148 172.595015 
L 583.018605 172.595015 
L 589.198061 172.595015 
L 595.377518 172.595015 
L 601.556975 167.285384 
L 607.736432 146.046859 
L 613.915889 151.35649 
L 620.095346 167.285384 
L 626.274803 161.975753 
L 632.45426 172.595015 
L 638.633717 161.975753 
L 644.813173 151.35649 
L 650.99263 151.35649 
L 657.172087 140.737227 
L 663.351544 161.975753 
L 669.531001 167.285384 
" clip-path="url(#pc4e821e7b1)" style="fill: none; stroke: #b2df8a; stroke-opacity: 0.99; stroke-width: 0.8; stroke-linecap: round"/>
   </g>
   <g id="line2d_4">
    <path d="M 57.764769 454.005475 
L 63.944226 454.005475 
L 70.123683 400.909162 
L 76.30314 384.980268 
L 82.482597 374.361005 
L 88.662054 358.432111 
L 94.841511 331.883955 
L 101.020968 310.645429 
L 107.200424 289.406904 
L 113.379881 289.406904 
L 119.559338 273.47801 
L 125.738795 252.239485 
L 131.918252 241.620222 
L 138.097709 225.691328 
L 144.277166 220.381697 
L 150.456623 220.381697 
L 156.63608 220.381697 
L 162.815536 209.762434 
L 168.994993 209.762434 
L 175.17445 199.143172 
L 181.353907 209.762434 
L 187.533364 199.143172 
L 193.712821 193.833541 
L 199.892278 199.143172 
L 206.071735 199.143172 
L 212.251191 188.523909 
L 218.430648 193.833541 
L 224.610105 183.214278 
L 230.789562 183.214278 
L 236.969019 177.904647 
L 243.148476 167.285384 
L 249.327933 177.904647 
L 255.50739 167.285384 
L 261.686847 177.904647 
L 267.866303 177.904647 
L 274.04576 172.595015 
L 280.225217 172.595015 
L 286.404674 167.285384 
L 292.584131 167.285384 
L 298.763588 161.975753 
L 304.943045 161.975753 
L 311.122502 161.975753 
L 317.301959 167.285384 
L 323.481415 161.975753 
L 329.660872 167.285384 
L 335.840329 161.975753 
L 342.019786 156.666121 
L 348.199243 161.975753 
L 354.3787 167.285384 
L 360.558157 167.285384 
L 366.737614 167.285384 
L 372.91707 167.285384 
L 379.096527 167.285384 
L 385.275984 177.904647 
" clip-path="url(#pc4e821e7b1)" style="fill: none; stroke: #33a02c; stroke-opacity: 0.99; stroke-width: 0.8; stroke-linecap: round"/>
   </g>
   <g id="line2d_5">
    <path d="M 57.764769 459.315106 
L 63.944226 459.315106 
L 70.123683 422.147687 
L 76.30314 395.59953 
L 82.482597 369.051374 
L 88.662054 353.12248 
L 94.841511 342.503217 
L 101.020968 305.335798 
L 107.200424 310.645429 
L 113.379881 310.645429 
L 119.559338 305.335798 
L 125.738795 300.026167 
L 131.918252 289.406904 
L 138.097709 284.097273 
L 144.277166 284.097273 
L 150.456623 273.47801 
L 156.63608 273.47801 
L 162.815536 268.168379 
L 168.994993 268.168379 
L 175.17445 268.168379 
L 181.353907 268.168379 
L 187.533364 268.168379 
L 193.712821 268.168379 
L 199.892278 273.47801 
L 206.071735 262.858748 
L 212.251191 262.858748 
L 218.430648 262.858748 
L 224.610105 257.549116 
L 230.789562 252.239485 
L 236.969019 257.549116 
L 243.148476 252.239485 
L 249.327933 252.239485 
L 255.50739 252.239485 
L 261.686847 246.929854 
L 267.866303 241.620222 
L 274.04576 241.620222 
L 280.225217 241.620222 
L 286.404674 246.929854 
L 292.584131 246.929854 
L 298.763588 236.310591 
L 304.943045 246.929854 
L 311.122502 246.929854 
L 317.301959 236.310591 
L 323.481415 231.00096 
L 329.660872 231.00096 
L 335.840329 199.143172 
L 342.019786 204.452803 
L 348.199243 199.143172 
L 354.3787 204.452803 
L 360.558157 215.072066 
L 366.737614 215.072066 
L 372.91707 209.762434 
L 379.096527 209.762434 
L 385.275984 204.452803 
L 391.455441 215.072066 
L 397.634898 225.691328 
L 403.814355 225.691328 
L 409.993812 220.381697 
L 416.173269 220.381697 
L 422.352726 220.381697 
L 428.532182 231.00096 
L 434.711639 231.00096 
L 440.891096 231.00096 
L 447.070553 225.691328 
L 453.25001 225.691328 
L 459.429467 225.691328 
L 465.608924 225.691328 
L 471.788381 220.381697 
L 477.967838 225.691328 
L 484.147294 225.691328 
L 490.326751 225.691328 
L 496.506208 225.691328 
L 502.685665 225.691328 
L 508.865122 209.762434 
L 515.044579 220.381697 
L 521.224036 220.381697 
L 527.403493 220.381697 
L 533.582949 220.381697 
L 539.762406 220.381697 
L 545.941863 225.691328 
" clip-path="url(#pc4e821e7b1)" style="fill: none; stroke: #fb9a99; stroke-opacity: 0.99; stroke-width: 0.8; stroke-linecap: round"/>
   </g>
   <g id="line2d_6">
    <path d="M 57.764769 464.624737 
L 63.944226 464.624737 
L 70.123683 427.457318 
L 76.30314 390.289899 
L 82.482597 390.289899 
L 88.662054 395.59953 
L 94.841511 390.289899 
L 101.020968 390.289899 
L 107.200424 384.980268 
L 113.379881 379.670636 
L 119.559338 384.980268 
L 125.738795 374.361005 
L 131.918252 369.051374 
L 138.097709 353.12248 
L 144.277166 331.883955 
L 150.456623 310.645429 
L 156.63608 305.335798 
L 162.815536 305.335798 
L 168.994993 305.335798 
L 175.17445 315.955061 
L 181.353907 315.955061 
L 187.533364 315.955061 
L 193.712821 315.955061 
L 199.892278 315.955061 
L 206.071735 315.955061 
" clip-path="url(#pc4e821e7b1)" style="fill: none; stroke: #e31a1c; stroke-opacity: 0.99; stroke-width: 0.8; stroke-linecap: round"/>
   </g>
   <g id="line2d_7">
    <path d="M 57.764769 464.624737 
L 63.944226 464.624737 
L 70.123683 422.147687 
L 76.30314 406.218793 
L 82.482597 384.980268 
L 88.662054 374.361005 
L 94.841511 363.741742 
L 101.020968 347.812849 
L 107.200424 305.335798 
L 113.379881 294.716535 
L 119.559338 278.787642 
L 125.738795 268.168379 
L 131.918252 225.691328 
L 138.097709 215.072066 
L 144.277166 204.452803 
L 150.456623 188.523909 
L 156.63608 188.523909 
L 162.815536 167.285384 
L 168.994993 177.904647 
L 175.17445 161.975753 
L 181.353907 161.975753 
L 187.533364 156.666121 
L 193.712821 177.904647 
L 199.892278 167.285384 
L 206.071735 172.595015 
L 212.251191 183.214278 
L 218.430648 172.595015 
L 224.610105 177.904647 
L 230.789562 156.666121 
L 236.969019 156.666121 
L 243.148476 177.904647 
L 249.327933 151.35649 
L 255.50739 167.285384 
L 261.686847 167.285384 
L 267.866303 151.35649 
L 274.04576 151.35649 
L 280.225217 146.046859 
L 286.404674 140.737227 
L 292.584131 140.737227 
L 298.763588 140.737227 
L 304.943045 130.117965 
L 311.122502 135.427596 
L 317.301959 135.427596 
L 323.481415 135.427596 
L 329.660872 124.808334 
L 335.840329 130.117965 
L 342.019786 124.808334 
L 348.199243 130.117965 
L 354.3787 130.117965 
L 360.558157 124.808334 
L 366.737614 124.808334 
L 372.91707 135.427596 
L 379.096527 135.427596 
L 385.275984 130.117965 
L 391.455441 135.427596 
L 397.634898 130.117965 
L 403.814355 135.427596 
L 409.993812 119.498702 
L 416.173269 124.808334 
L 422.352726 130.117965 
L 428.532182 124.808334 
L 434.711639 124.808334 
L 440.891096 140.737227 
L 447.070553 124.808334 
L 453.25001 140.737227 
L 459.429467 135.427596 
L 465.608924 124.808334 
L 471.788381 119.498702 
L 477.967838 124.808334 
L 484.147294 124.808334 
L 490.326751 124.808334 
L 496.506208 119.498702 
L 502.685665 119.498702 
L 508.865122 114.189071 
L 515.044579 114.189071 
L 521.224036 119.498702 
L 527.403493 108.87944 
L 533.582949 103.569808 
L 539.762406 103.569808 
L 545.941863 103.569808 
L 552.12132 98.260177 
L 558.300777 92.950546 
L 564.480234 103.569808 
L 570.659691 103.569808 
L 576.839148 92.950546 
L 583.018605 92.950546 
L 589.198061 92.950546 
L 595.377518 87.640914 
L 601.556975 108.87944 
L 607.736432 98.260177 
L 613.915889 114.189071 
L 620.095346 98.260177 
L 626.274803 108.87944 
L 632.45426 114.189071 
L 638.633717 119.498702 
L 644.813173 108.87944 
L 650.99263 114.189071 
L 657.172087 114.189071 
L 663.351544 114.189071 
L 669.531001 114.189071 
" clip-path="url(#pc4e821e7b1)" style="fill: none; stroke: #fdbf6f; stroke-opacity: 0.99; stroke-width: 0.8; stroke-linecap: round"/>
   </g>
   <g id="line2d_8">
    <path d="M 57.764769 459.315106 
L 63.944226 432.76695 
L 70.123683 427.457318 
L 76.30314 390.289899 
L 82.482597 374.361005 
L 88.662054 369.051374 
L 94.841511 363.741742 
L 101.020968 337.193586 
L 107.200424 294.716535 
L 113.379881 289.406904 
L 119.559338 257.549116 
L 125.738795 215.072066 
L 131.918252 193.833541 
L 138.097709 193.833541 
L 144.277166 188.523909 
L 150.456623 177.904647 
L 156.63608 183.214278 
L 162.815536 172.595015 
L 168.994993 167.285384 
L 175.17445 167.285384 
L 181.353907 172.595015 
L 187.533364 161.975753 
L 193.712821 161.975753 
L 199.892278 156.666121 
L 206.071735 156.666121 
L 212.251191 151.35649 
L 218.430648 151.35649 
L 224.610105 140.737227 
L 230.789562 130.117965 
L 236.969019 130.117965 
L 243.148476 130.117965 
L 249.327933 135.427596 
L 255.50739 135.427596 
L 261.686847 130.117965 
" clip-path="url(#pc4e821e7b1)" style="fill: none; stroke: #ff7f00; stroke-opacity: 0.99; stroke-width: 0.8; stroke-linecap: round"/>
   </g>
   <g id="line2d_9">
    <path d="M 57.764769 464.624737 
L 63.944226 464.624737 
L 70.123683 411.528424 
L 76.30314 369.051374 
L 82.482597 363.741742 
L 88.662054 363.741742 
L 94.841511 342.503217 
L 101.020968 331.883955 
L 107.200424 321.264692 
L 113.379881 315.955061 
L 119.559338 310.645429 
L 125.738795 305.335798 
L 131.918252 289.406904 
L 138.097709 278.787642 
L 144.277166 278.787642 
L 150.456623 257.549116 
L 156.63608 252.239485 
L 162.815536 241.620222 
L 168.994993 236.310591 
L 175.17445 231.00096 
L 181.353907 225.691328 
L 187.533364 225.691328 
L 193.712821 209.762434 
L 199.892278 220.381697 
L 206.071735 204.452803 
L 212.251191 204.452803 
L 218.430648 204.452803 
L 224.610105 193.833541 
L 230.789562 188.523909 
L 236.969019 177.904647 
L 243.148476 177.904647 
L 249.327933 172.595015 
L 255.50739 172.595015 
L 261.686847 172.595015 
L 267.866303 177.904647 
L 274.04576 167.285384 
L 280.225217 167.285384 
L 286.404674 156.666121 
L 292.584131 156.666121 
L 298.763588 161.975753 
L 304.943045 151.35649 
L 311.122502 156.666121 
L 317.301959 156.666121 
L 323.481415 161.975753 
L 329.660872 156.666121 
L 335.840329 156.666121 
L 342.019786 156.666121 
L 348.199243 151.35649 
L 354.3787 167.285384 
L 360.558157 167.285384 
L 366.737614 167.285384 
L 372.91707 161.975753 
L 379.096527 167.285384 
L 385.275984 161.975753 
L 391.455441 167.285384 
L 397.634898 167.285384 
L 403.814355 167.285384 
L 409.993812 161.975753 
L 416.173269 161.975753 
L 422.352726 167.285384 
L 428.532182 161.975753 
L 434.711639 161.975753 
L 440.891096 156.666121 
L 447.070553 156.666121 
L 453.25001 161.975753 
L 459.429467 156.666121 
L 465.608924 156.666121 
L 471.788381 140.737227 
L 477.967838 140.737227 
L 484.147294 140.737227 
L 490.326751 146.046859 
L 496.506208 140.737227 
L 502.685665 135.427596 
L 508.865122 135.427596 
L 515.044579 135.427596 
L 521.224036 135.427596 
L 527.403493 140.737227 
L 533.582949 140.737227 
L 539.762406 140.737227 
L 545.941863 135.427596 
L 552.12132 130.117965 
L 558.300777 140.737227 
L 564.480234 140.737227 
L 570.659691 124.808334 
L 576.839148 130.117965 
L 583.018605 135.427596 
L 589.198061 130.117965 
L 595.377518 140.737227 
L 601.556975 135.427596 
L 607.736432 135.427596 
L 613.915889 135.427596 
L 620.095346 140.737227 
L 626.274803 130.117965 
L 632.45426 135.427596 
L 638.633717 140.737227 
L 644.813173 135.427596 
L 650.99263 124.808334 
L 657.172087 130.117965 
L 663.351544 130.117965 
L 669.531001 135.427596 
" clip-path="url(#pc4e821e7b1)" style="fill: none; stroke: #cab2d6; stroke-opacity: 0.99; stroke-width: 0.8; stroke-linecap: round"/>
   </g>
   <g id="line2d_10">
    <path d="M 57.764769 464.624737 
L 63.944226 464.624737 
L 70.123683 454.005475 
L 76.30314 422.147687 
L 82.482597 390.289899 
L 88.662054 390.289899 
L 94.841511 379.670636 
L 101.020968 379.670636 
L 107.200424 369.051374 
L 113.379881 353.12248 
L 119.559338 342.503217 
L 125.738795 337.193586 
L 131.918252 342.503217 
L 138.097709 326.574323 
L 144.277166 326.574323 
L 150.456623 310.645429 
L 156.63608 300.026167 
L 162.815536 300.026167 
L 168.994993 305.335798 
L 175.17445 315.955061 
L 181.353907 310.645429 
L 187.533364 310.645429 
L 193.712821 305.335798 
L 199.892278 315.955061 
L 206.071735 305.335798 
L 212.251191 300.026167 
L 218.430648 289.406904 
L 224.610105 310.645429 
L 230.789562 284.097273 
L 236.969019 294.716535 
L 243.148476 284.097273 
L 249.327933 289.406904 
L 255.50739 284.097273 
L 261.686847 284.097273 
L 267.866303 273.47801 
L 274.04576 278.787642 
L 280.225217 273.47801 
L 286.404674 262.858748 
L 292.584131 252.239485 
L 298.763588 262.858748 
L 304.943045 252.239485 
L 311.122502 252.239485 
L 317.301959 246.929854 
L 323.481415 252.239485 
L 329.660872 262.858748 
L 335.840329 241.620222 
L 342.019786 241.620222 
L 348.199243 246.929854 
L 354.3787 231.00096 
L 360.558157 236.310591 
L 366.737614 241.620222 
L 372.91707 236.310591 
L 379.096527 220.381697 
L 385.275984 231.00096 
L 391.455441 241.620222 
L 397.634898 241.620222 
L 403.814355 252.239485 
L 409.993812 246.929854 
L 416.173269 241.620222 
L 422.352726 246.929854 
L 428.532182 231.00096 
L 434.711639 231.00096 
L 440.891096 231.00096 
L 447.070553 236.310591 
L 453.25001 225.691328 
L 459.429467 231.00096 
L 465.608924 209.762434 
L 471.788381 215.072066 
L 477.967838 209.762434 
L 484.147294 215.072066 
L 490.326751 215.072066 
L 496.506208 209.762434 
L 502.685665 215.072066 
L 508.865122 199.143172 
L 515.044579 204.452803 
L 521.224036 199.143172 
L 527.403493 193.833541 
L 533.582949 204.452803 
L 539.762406 199.143172 
L 545.941863 193.833541 
L 552.12132 193.833541 
L 558.300777 183.214278 
L 564.480234 204.452803 
L 570.659691 215.072066 
L 576.839148 193.833541 
L 583.018605 199.143172 
L 589.198061 204.452803 
L 595.377518 204.452803 
L 601.556975 188.523909 
L 607.736432 209.762434 
L 613.915889 204.452803 
L 620.095346 215.072066 
L 626.274803 204.452803 
L 632.45426 209.762434 
L 638.633717 215.072066 
L 644.813173 209.762434 
L 650.99263 199.143172 
L 657.172087 204.452803 
L 663.351544 204.452803 
L 669.531001 199.143172 
" clip-path="url(#pc4e821e7b1)" style="fill: none; stroke: #6a3d9a; stroke-opacity: 0.99; stroke-width: 0.8; stroke-linecap: round"/>
   </g>
   <g id="line2d_11">
    <path d="M 57.764769 443.386212 
L 63.944226 443.386212 
L 70.123683 427.457318 
L 76.30314 337.193586 
L 82.482597 321.264692 
L 88.662054 321.264692 
L 94.841511 315.955061 
L 101.020968 315.955061 
L 107.200424 305.335798 
L 113.379881 310.645429 
L 119.559338 310.645429 
L 125.738795 294.716535 
L 131.918252 273.47801 
L 138.097709 278.787642 
L 144.277166 273.47801 
L 150.456623 257.549116 
L 156.63608 273.47801 
L 162.815536 241.620222 
L 168.994993 246.929854 
L 175.17445 246.929854 
L 181.353907 252.239485 
L 187.533364 257.549116 
L 193.712821 252.239485 
L 199.892278 252.239485 
L 206.071735 252.239485 
L 212.251191 257.549116 
L 218.430648 252.239485 
L 224.610105 268.168379 
" clip-path="url(#pc4e821e7b1)" style="fill: none; stroke: #ffff99; stroke-opacity: 0.99; stroke-width: 0.8; stroke-linecap: round"/>
   </g>
   <g id="line2d_12">
    <path d="M 57.764769 464.624737 
L 63.944226 464.624737 
L 70.123683 422.147687 
L 76.30314 379.670636 
L 82.482597 369.051374 
L 88.662054 369.051374 
L 94.841511 363.741742 
L 101.020968 315.955061 
L 107.200424 310.645429 
L 113.379881 289.406904 
L 119.559338 257.549116 
L 125.738795 241.620222 
L 131.918252 236.310591 
L 138.097709 220.381697 
L 144.277166 204.452803 
L 150.456623 220.381697 
L 156.63608 215.072066 
L 162.815536 204.452803 
L 168.994993 220.381697 
L 175.17445 220.381697 
L 181.353907 220.381697 
L 187.533364 209.762434 
L 193.712821 209.762434 
L 199.892278 215.072066 
L 206.071735 215.072066 
L 212.251191 209.762434 
L 218.430648 204.452803 
L 224.610105 199.143172 
L 230.789562 177.904647 
L 236.969019 177.904647 
L 243.148476 183.214278 
L 249.327933 172.595015 
L 255.50739 172.595015 
L 261.686847 161.975753 
L 267.866303 156.666121 
L 274.04576 146.046859 
L 280.225217 156.666121 
L 286.404674 140.737227 
L 292.584131 140.737227 
L 298.763588 130.117965 
L 304.943045 135.427596 
L 311.122502 124.808334 
L 317.301959 124.808334 
L 323.481415 140.737227 
L 329.660872 151.35649 
L 335.840329 114.189071 
L 342.019786 130.117965 
L 348.199243 124.808334 
L 354.3787 119.498702 
L 360.558157 119.498702 
L 366.737614 124.808334 
L 372.91707 119.498702 
L 379.096527 114.189071 
L 385.275984 114.189071 
L 391.455441 119.498702 
L 397.634898 108.87944 
L 403.814355 108.87944 
L 409.993812 103.569808 
L 416.173269 103.569808 
L 422.352726 98.260177 
L 428.532182 98.260177 
L 434.711639 98.260177 
L 440.891096 98.260177 
L 447.070553 98.260177 
L 453.25001 92.950546 
L 459.429467 92.950546 
L 465.608924 98.260177 
L 471.788381 92.950546 
L 477.967838 71.71202 
L 484.147294 66.402389 
L 490.326751 71.71202 
L 496.506208 77.021652 
L 502.685665 71.71202 
L 508.865122 66.402389 
L 515.044579 71.71202 
L 521.224036 66.402389 
L 527.403493 66.402389 
L 533.582949 61.092758 
L 539.762406 66.402389 
L 545.941863 61.092758 
L 552.12132 71.71202 
L 558.300777 71.71202 
L 564.480234 66.402389 
L 570.659691 71.71202 
L 576.839148 77.021652 
L 583.018605 71.71202 
L 589.198061 71.71202 
L 595.377518 71.71202 
L 601.556975 71.71202 
L 607.736432 71.71202 
L 613.915889 71.71202 
L 620.095346 71.71202 
L 626.274803 71.71202 
L 632.45426 82.331283 
L 638.633717 82.331283 
L 644.813173 77.021652 
L 650.99263 77.021652 
L 657.172087 71.71202 
L 663.351544 77.021652 
L 669.531001 77.021652 
" clip-path="url(#pc4e821e7b1)" style="fill: none; stroke: #b15928; stroke-opacity: 0.99; stroke-width: 0.8; stroke-linecap: round"/>
   </g>
   <g id="line2d_13">
    <path d="M 57.764769 459.315106 
L 63.944226 459.315106 
L 70.123683 411.528424 
L 76.30314 384.980268 
L 82.482597 374.361005 
L 88.662054 363.741742 
L 94.841511 337.193586 
L 101.020968 315.955061 
L 107.200424 300.026167 
L 113.379881 294.716535 
L 119.559338 284.097273 
L 125.738795 284.097273 
L 131.918252 262.858748 
L 138.097709 257.549116 
L 144.277166 241.620222 
L 150.456623 225.691328 
L 156.63608 220.381697 
L 162.815536 220.381697 
L 168.994993 220.381697 
L 175.17445 204.452803 
L 181.353907 215.072066 
L 187.533364 209.762434 
L 193.712821 204.452803 
L 199.892278 204.452803 
L 206.071735 209.762434 
L 212.251191 215.072066 
L 218.430648 204.452803 
L 224.610105 215.072066 
L 230.789562 199.143172 
L 236.969019 204.452803 
L 243.148476 209.762434 
L 249.327933 204.452803 
L 255.50739 204.452803 
L 261.686847 193.833541 
L 267.866303 188.523909 
L 274.04576 199.143172 
L 280.225217 188.523909 
L 286.404674 188.523909 
L 292.584131 193.833541 
L 298.763588 183.214278 
L 304.943045 183.214278 
L 311.122502 172.595015 
L 317.301959 183.214278 
L 323.481415 183.214278 
L 329.660872 177.904647 
L 335.840329 172.595015 
L 342.019786 183.214278 
L 348.199243 177.904647 
L 354.3787 167.285384 
L 360.558157 167.285384 
L 366.737614 177.904647 
L 372.91707 167.285384 
L 379.096527 156.666121 
L 385.275984 156.666121 
L 391.455441 156.666121 
L 397.634898 151.35649 
L 403.814355 146.046859 
L 409.993812 146.046859 
L 416.173269 146.046859 
L 422.352726 140.737227 
L 428.532182 140.737227 
L 434.711639 135.427596 
L 440.891096 140.737227 
L 447.070553 140.737227 
L 453.25001 140.737227 
L 459.429467 146.046859 
L 465.608924 140.737227 
L 471.788381 135.427596 
L 477.967838 135.427596 
L 484.147294 130.117965 
L 490.326751 135.427596 
L 496.506208 135.427596 
L 502.685665 135.427596 
L 508.865122 146.046859 
L 515.044579 140.737227 
L 521.224036 140.737227 
L 527.403493 130.117965 
L 533.582949 135.427596 
L 539.762406 135.427596 
L 545.941863 130.117965 
L 552.12132 135.427596 
L 558.300777 124.808334 
L 564.480234 124.808334 
L 570.659691 130.117965 
L 576.839148 130.117965 
L 583.018605 130.117965 
L 589.198061 130.117965 
L 595.377518 135.427596 
L 601.556975 135.427596 
L 607.736432 135.427596 
L 613.915889 130.117965 
L 620.095346 135.427596 
L 626.274803 130.117965 
L 632.45426 135.427596 
L 638.633717 130.117965 
L 644.813173 135.427596 
L 650.99263 130.117965 
L 657.172087 130.117965 
L 663.351544 135.427596 
L 669.531001 130.117965 
" clip-path="url(#pc4e821e7b1)" style="fill: none; stroke: #a6cee3; stroke-opacity: 0.99; stroke-width: 0.8; stroke-linecap: round"/>
   </g>
   <g id="line2d_14">
    <path d="M 57.764769 454.005475 
L 63.944226 427.457318 
L 70.123683 395.59953 
L 76.30314 400.909162 
L 82.482597 358.432111 
L 88.662054 358.432111 
L 94.841511 342.503217 
L 101.020968 321.264692 
L 107.200424 305.335798 
L 113.379881 289.406904 
L 119.559338 268.168379 
L 125.738795 252.239485 
L 131.918252 236.310591 
L 138.097709 220.381697 
L 144.277166 209.762434 
L 150.456623 215.072066 
L 156.63608 193.833541 
L 162.815536 177.904647 
L 168.994993 193.833541 
L 175.17445 193.833541 
L 181.353907 199.143172 
L 187.533364 193.833541 
L 193.712821 193.833541 
L 199.892278 193.833541 
L 206.071735 193.833541 
L 212.251191 188.523909 
L 218.430648 167.285384 
L 224.610105 172.595015 
L 230.789562 161.975753 
L 236.969019 156.666121 
L 243.148476 146.046859 
L 249.327933 151.35649 
L 255.50739 146.046859 
L 261.686847 161.975753 
L 267.866303 161.975753 
L 274.04576 146.046859 
L 280.225217 146.046859 
L 286.404674 146.046859 
L 292.584131 151.35649 
L 298.763588 151.35649 
L 304.943045 135.427596 
L 311.122502 140.737227 
L 317.301959 135.427596 
L 323.481415 135.427596 
L 329.660872 135.427596 
L 335.840329 124.808334 
L 342.019786 124.808334 
L 348.199243 119.498702 
L 354.3787 130.117965 
L 360.558157 124.808334 
L 366.737614 124.808334 
L 372.91707 119.498702 
L 379.096527 119.498702 
L 385.275984 114.189071 
L 391.455441 119.498702 
L 397.634898 114.189071 
L 403.814355 119.498702 
L 409.993812 103.569808 
L 416.173269 108.87944 
L 422.352726 108.87944 
L 428.532182 124.808334 
L 434.711639 114.189071 
L 440.891096 98.260177 
L 447.070553 119.498702 
L 453.25001 108.87944 
L 459.429467 108.87944 
L 465.608924 103.569808 
L 471.788381 114.189071 
L 477.967838 92.950546 
L 484.147294 108.87944 
L 490.326751 108.87944 
L 496.506208 103.569808 
L 502.685665 98.260177 
L 508.865122 87.640914 
L 515.044579 77.021652 
L 521.224036 77.021652 
L 527.403493 82.331283 
L 533.582949 77.021652 
L 539.762406 71.71202 
L 545.941863 82.331283 
L 552.12132 82.331283 
L 558.300777 77.021652 
L 564.480234 82.331283 
L 570.659691 87.640914 
L 576.839148 71.71202 
L 583.018605 92.950546 
L 589.198061 87.640914 
L 595.377518 87.640914 
L 601.556975 77.021652 
L 607.736432 77.021652 
L 613.915889 77.021652 
L 620.095346 77.021652 
L 626.274803 77.021652 
L 632.45426 82.331283 
L 638.633717 71.71202 
L 644.813173 71.71202 
L 650.99263 77.021652 
L 657.172087 77.021652 
L 663.351544 77.021652 
L 669.531001 77.021652 
" clip-path="url(#pc4e821e7b1)" style="fill: none; stroke: #1f78b4; stroke-opacity: 0.99; stroke-width: 0.8; stroke-linecap: round"/>
   </g>
   <g id="line2d_15">
    <path d="M 57.764769 459.315106 
L 63.944226 459.315106 
L 70.123683 406.218793 
L 76.30314 369.051374 
L 82.482597 369.051374 
L 88.662054 342.503217 
L 94.841511 337.193586 
L 101.020968 310.645429 
L 107.200424 268.168379 
L 113.379881 257.549116 
L 119.559338 262.858748 
L 125.738795 252.239485 
L 131.918252 257.549116 
L 138.097709 236.310591 
L 144.277166 241.620222 
L 150.456623 236.310591 
L 156.63608 231.00096 
L 162.815536 231.00096 
L 168.994993 215.072066 
L 175.17445 204.452803 
L 181.353907 199.143172 
L 187.533364 204.452803 
L 193.712821 193.833541 
L 199.892278 188.523909 
L 206.071735 188.523909 
L 212.251191 188.523909 
L 218.430648 183.214278 
L 224.610105 156.666121 
L 230.789562 156.666121 
L 236.969019 156.666121 
L 243.148476 161.975753 
L 249.327933 161.975753 
L 255.50739 167.285384 
L 261.686847 172.595015 
L 267.866303 172.595015 
L 274.04576 172.595015 
L 280.225217 177.904647 
L 286.404674 167.285384 
L 292.584131 172.595015 
L 298.763588 177.904647 
L 304.943045 172.595015 
L 311.122502 172.595015 
L 317.301959 172.595015 
L 323.481415 172.595015 
L 329.660872 177.904647 
L 335.840329 167.285384 
L 342.019786 156.666121 
L 348.199243 156.666121 
L 354.3787 172.595015 
L 360.558157 172.595015 
L 366.737614 172.595015 
L 372.91707 167.285384 
L 379.096527 172.595015 
L 385.275984 167.285384 
L 391.455441 167.285384 
L 397.634898 167.285384 
L 403.814355 172.595015 
L 409.993812 161.975753 
L 416.173269 161.975753 
L 422.352726 161.975753 
L 428.532182 172.595015 
L 434.711639 156.666121 
L 440.891096 161.975753 
L 447.070553 167.285384 
L 453.25001 161.975753 
L 459.429467 161.975753 
L 465.608924 161.975753 
L 471.788381 156.666121 
" clip-path="url(#pc4e821e7b1)" style="fill: none; stroke: #b2df8a; stroke-opacity: 0.99; stroke-width: 0.8; stroke-linecap: round"/>
   </g>
   <g id="line2d_16">
    <path d="M 57.764769 459.315106 
L 63.944226 459.315106 
L 70.123683 395.59953 
L 76.30314 358.432111 
L 82.482597 347.812849 
L 88.662054 353.12248 
L 94.841511 353.12248 
L 101.020968 342.503217 
L 107.200424 342.503217 
L 113.379881 337.193586 
L 119.559338 337.193586 
L 125.738795 321.264692 
L 131.918252 310.645429 
L 138.097709 294.716535 
L 144.277166 273.47801 
L 150.456623 236.310591 
L 156.63608 215.072066 
L 162.815536 209.762434 
L 168.994993 209.762434 
L 175.17445 204.452803 
L 181.353907 193.833541 
L 187.533364 183.214278 
L 193.712821 177.904647 
L 199.892278 177.904647 
L 206.071735 183.214278 
L 212.251191 183.214278 
L 218.430648 183.214278 
" clip-path="url(#pc4e821e7b1)" style="fill: none; stroke: #33a02c; stroke-opacity: 0.99; stroke-width: 0.8; stroke-linecap: round"/>
   </g>
   <g id="line2d_17">
    <path d="M 57.764769 454.005475 
L 63.944226 448.695843 
L 70.123683 411.528424 
L 76.30314 379.670636 
L 82.482597 353.12248 
L 88.662054 331.883955 
L 94.841511 321.264692 
L 101.020968 310.645429 
L 107.200424 284.097273 
L 113.379881 284.097273 
L 119.559338 284.097273 
L 125.738795 278.787642 
L 131.918252 257.549116 
L 138.097709 246.929854 
L 144.277166 246.929854 
L 150.456623 246.929854 
L 156.63608 246.929854 
L 162.815536 236.310591 
L 168.994993 231.00096 
L 175.17445 220.381697 
L 181.353907 215.072066 
L 187.533364 199.143172 
L 193.712821 199.143172 
L 199.892278 188.523909 
L 206.071735 183.214278 
L 212.251191 188.523909 
L 218.430648 172.595015 
L 224.610105 161.975753 
L 230.789562 156.666121 
L 236.969019 151.35649 
L 243.148476 140.737227 
L 249.327933 135.427596 
L 255.50739 124.808334 
L 261.686847 124.808334 
L 267.866303 124.808334 
L 274.04576 130.117965 
L 280.225217 124.808334 
L 286.404674 114.189071 
L 292.584131 108.87944 
L 298.763588 114.189071 
L 304.943045 103.569808 
L 311.122502 98.260177 
L 317.301959 108.87944 
L 323.481415 124.808334 
L 329.660872 119.498702 
L 335.840329 103.569808 
L 342.019786 108.87944 
L 348.199243 108.87944 
L 354.3787 114.189071 
L 360.558157 108.87944 
L 366.737614 114.189071 
L 372.91707 98.260177 
L 379.096527 98.260177 
L 385.275984 98.260177 
L 391.455441 98.260177 
L 397.634898 108.87944 
L 403.814355 108.87944 
L 409.993812 92.950546 
L 416.173269 103.569808 
L 422.352726 103.569808 
L 428.532182 103.569808 
L 434.711639 98.260177 
L 440.891096 103.569808 
L 447.070553 98.260177 
L 453.25001 98.260177 
L 459.429467 103.569808 
L 465.608924 98.260177 
L 471.788381 103.569808 
L 477.967838 92.950546 
L 484.147294 87.640914 
L 490.326751 92.950546 
L 496.506208 77.021652 
L 502.685665 77.021652 
L 508.865122 71.71202 
L 515.044579 66.402389 
L 521.224036 71.71202 
L 527.403493 71.71202 
L 533.582949 61.092758 
L 539.762406 66.402389 
L 545.941863 66.402389 
L 552.12132 71.71202 
L 558.300777 55.783126 
L 564.480234 55.783126 
L 570.659691 71.71202 
L 576.839148 61.092758 
L 583.018605 61.092758 
L 589.198061 55.783126 
L 595.377518 66.402389 
L 601.556975 66.402389 
L 607.736432 61.092758 
L 613.915889 55.783126 
L 620.095346 66.402389 
L 626.274803 61.092758 
L 632.45426 66.402389 
L 638.633717 61.092758 
L 644.813173 61.092758 
L 650.99263 61.092758 
L 657.172087 61.092758 
L 663.351544 61.092758 
L 669.531001 61.092758 
" clip-path="url(#pc4e821e7b1)" style="fill: none; stroke: #fb9a99; stroke-opacity: 0.99; stroke-width: 0.8; stroke-linecap: round"/>
   </g>
   <g id="line2d_18">
    <path d="M 57.764769 459.315106 
L 63.944226 459.315106 
L 70.123683 432.76695 
L 76.30314 337.193586 
L 82.482597 342.503217 
L 88.662054 331.883955 
L 94.841511 300.026167 
L 101.020968 294.716535 
L 107.200424 262.858748 
L 113.379881 257.549116 
L 119.559338 241.620222 
L 125.738795 252.239485 
L 131.918252 241.620222 
L 138.097709 236.310591 
L 144.277166 231.00096 
L 150.456623 241.620222 
L 156.63608 236.310591 
L 162.815536 225.691328 
L 168.994993 236.310591 
L 175.17445 225.691328 
L 181.353907 220.381697 
L 187.533364 204.452803 
L 193.712821 204.452803 
L 199.892278 209.762434 
L 206.071735 204.452803 
L 212.251191 183.214278 
L 218.430648 183.214278 
L 224.610105 172.595015 
L 230.789562 156.666121 
L 236.969019 161.975753 
L 243.148476 156.666121 
L 249.327933 130.117965 
L 255.50739 135.427596 
L 261.686847 135.427596 
L 267.866303 135.427596 
L 274.04576 130.117965 
L 280.225217 119.498702 
L 286.404674 103.569808 
L 292.584131 103.569808 
L 298.763588 103.569808 
L 304.943045 92.950546 
L 311.122502 87.640914 
L 317.301959 82.331283 
L 323.481415 87.640914 
L 329.660872 98.260177 
L 335.840329 82.331283 
L 342.019786 82.331283 
L 348.199243 77.021652 
L 354.3787 77.021652 
L 360.558157 77.021652 
L 366.737614 71.71202 
L 372.91707 71.71202 
L 379.096527 71.71202 
L 385.275984 71.71202 
L 391.455441 71.71202 
L 397.634898 71.71202 
L 403.814355 82.331283 
L 409.993812 71.71202 
L 416.173269 71.71202 
L 422.352726 71.71202 
L 428.532182 77.021652 
L 434.711639 77.021652 
L 440.891096 71.71202 
L 447.070553 82.331283 
L 453.25001 82.331283 
L 459.429467 87.640914 
L 465.608924 82.331283 
L 471.788381 82.331283 
L 477.967838 71.71202 
L 484.147294 71.71202 
L 490.326751 71.71202 
L 496.506208 71.71202 
L 502.685665 77.021652 
L 508.865122 66.402389 
" clip-path="url(#pc4e821e7b1)" style="fill: none; stroke: #e31a1c; stroke-opacity: 0.99; stroke-width: 0.8; stroke-linecap: round"/>
   </g>
   <g id="line2d_19">
    <path d="M 57.764769 464.624737 
L 63.944226 459.315106 
L 70.123683 411.528424 
L 76.30314 390.289899 
L 82.482597 374.361005 
L 88.662054 358.432111 
L 94.841511 337.193586 
L 101.020968 278.787642 
L 107.200424 246.929854 
L 113.379881 231.00096 
L 119.559338 225.691328 
L 125.738795 220.381697 
L 131.918252 215.072066 
L 138.097709 204.452803 
L 144.277166 193.833541 
L 150.456623 199.143172 
L 156.63608 193.833541 
L 162.815536 188.523909 
L 168.994993 161.975753 
L 175.17445 156.666121 
L 181.353907 146.046859 
L 187.533364 151.35649 
L 193.712821 146.046859 
L 199.892278 156.666121 
L 206.071735 156.666121 
L 212.251191 140.737227 
L 218.430648 146.046859 
L 224.610105 140.737227 
L 230.789562 146.046859 
L 236.969019 135.427596 
L 243.148476 135.427596 
L 249.327933 135.427596 
L 255.50739 124.808334 
L 261.686847 124.808334 
L 267.866303 124.808334 
L 274.04576 119.498702 
L 280.225217 124.808334 
L 286.404674 114.189071 
L 292.584131 124.808334 
L 298.763588 119.498702 
L 304.943045 114.189071 
L 311.122502 108.87944 
L 317.301959 108.87944 
L 323.481415 108.87944 
L 329.660872 108.87944 
L 335.840329 103.569808 
L 342.019786 98.260177 
L 348.199243 98.260177 
L 354.3787 98.260177 
L 360.558157 92.950546 
L 366.737614 92.950546 
L 372.91707 98.260177 
L 379.096527 92.950546 
L 385.275984 87.640914 
L 391.455441 98.260177 
L 397.634898 92.950546 
L 403.814355 98.260177 
L 409.993812 92.950546 
L 416.173269 103.569808 
L 422.352726 98.260177 
L 428.532182 98.260177 
L 434.711639 82.331283 
L 440.891096 92.950546 
L 447.070553 103.569808 
L 453.25001 98.260177 
L 459.429467 103.569808 
L 465.608924 92.950546 
L 471.788381 87.640914 
L 477.967838 82.331283 
L 484.147294 82.331283 
L 490.326751 82.331283 
L 496.506208 71.71202 
L 502.685665 77.021652 
L 508.865122 71.71202 
L 515.044579 71.71202 
L 521.224036 71.71202 
L 527.403493 71.71202 
L 533.582949 77.021652 
L 539.762406 77.021652 
L 545.941863 71.71202 
L 552.12132 71.71202 
L 558.300777 66.402389 
L 564.480234 71.71202 
L 570.659691 71.71202 
L 576.839148 71.71202 
L 583.018605 77.021652 
L 589.198061 71.71202 
L 595.377518 77.021652 
L 601.556975 77.021652 
L 607.736432 77.021652 
L 613.915889 77.021652 
L 620.095346 77.021652 
L 626.274803 87.640914 
" clip-path="url(#pc4e821e7b1)" style="fill: none; stroke: #fdbf6f; stroke-opacity: 0.99; stroke-width: 0.8; stroke-linecap: round"/>
   </g>
   <g id="line2d_20">
    <path d="M 57.764769 454.005475 
L 63.944226 443.386212 
L 70.123683 422.147687 
L 76.30314 390.289899 
L 82.482597 374.361005 
L 88.662054 353.12248 
L 94.841511 321.264692 
L 101.020968 305.335798 
L 107.200424 300.026167 
L 113.379881 300.026167 
L 119.559338 294.716535 
L 125.738795 289.406904 
L 131.918252 268.168379 
L 138.097709 262.858748 
L 144.277166 246.929854 
L 150.456623 241.620222 
L 156.63608 225.691328 
L 162.815536 209.762434 
L 168.994993 215.072066 
L 175.17445 193.833541 
L 181.353907 209.762434 
L 187.533364 188.523909 
L 193.712821 177.904647 
L 199.892278 183.214278 
L 206.071735 172.595015 
L 212.251191 177.904647 
L 218.430648 161.975753 
L 224.610105 156.666121 
L 230.789562 146.046859 
L 236.969019 140.737227 
L 243.148476 135.427596 
L 249.327933 130.117965 
L 255.50739 124.808334 
L 261.686847 135.427596 
L 267.866303 135.427596 
L 274.04576 124.808334 
L 280.225217 119.498702 
L 286.404674 114.189071 
L 292.584131 119.498702 
L 298.763588 98.260177 
L 304.943045 92.950546 
L 311.122502 92.950546 
L 317.301959 87.640914 
L 323.481415 98.260177 
L 329.660872 98.260177 
L 335.840329 87.640914 
L 342.019786 103.569808 
L 348.199243 98.260177 
L 354.3787 92.950546 
L 360.558157 92.950546 
L 366.737614 98.260177 
L 372.91707 92.950546 
L 379.096527 87.640914 
L 385.275984 87.640914 
L 391.455441 92.950546 
L 397.634898 98.260177 
L 403.814355 87.640914 
L 409.993812 77.021652 
L 416.173269 87.640914 
L 422.352726 87.640914 
L 428.532182 82.331283 
L 434.711639 87.640914 
L 440.891096 82.331283 
L 447.070553 77.021652 
L 453.25001 87.640914 
L 459.429467 92.950546 
L 465.608924 87.640914 
L 471.788381 77.021652 
L 477.967838 82.331283 
L 484.147294 87.640914 
L 490.326751 87.640914 
L 496.506208 92.950546 
L 502.685665 87.640914 
L 508.865122 87.640914 
L 515.044579 87.640914 
L 521.224036 82.331283 
L 527.403493 77.021652 
L 533.582949 82.331283 
L 539.762406 82.331283 
L 545.941863 82.331283 
L 552.12132 92.950546 
L 558.300777 82.331283 
L 564.480234 82.331283 
L 570.659691 87.640914 
L 576.839148 82.331283 
L 583.018605 87.640914 
L 589.198061 92.950546 
L 595.377518 92.950546 
L 601.556975 87.640914 
L 607.736432 103.569808 
L 613.915889 92.950546 
L 620.095346 92.950546 
L 626.274803 103.569808 
L 632.45426 108.87944 
L 638.633717 103.569808 
L 644.813173 92.950546 
L 650.99263 103.569808 
L 657.172087 108.87944 
L 663.351544 108.87944 
L 669.531001 98.260177 
" clip-path="url(#pc4e821e7b1)" style="fill: none; stroke: #ff7f00; stroke-opacity: 0.99; stroke-width: 0.8; stroke-linecap: round"/>
   </g>
   <g id="line2d_21">
    <path d="M 57.764769 459.315106 
L 63.944226 459.315106 
L 70.123683 438.076581 
L 76.30314 374.361005 
L 82.482597 353.12248 
L 88.662054 358.432111 
L 94.841511 342.503217 
L 101.020968 326.574323 
L 107.200424 321.264692 
L 113.379881 310.645429 
L 119.559338 310.645429 
L 125.738795 300.026167 
L 131.918252 289.406904 
L 138.097709 278.787642 
L 144.277166 278.787642 
L 150.456623 268.168379 
L 156.63608 252.239485 
L 162.815536 246.929854 
L 168.994993 236.310591 
L 175.17445 236.310591 
L 181.353907 241.620222 
L 187.533364 225.691328 
L 193.712821 225.691328 
L 199.892278 225.691328 
L 206.071735 220.381697 
L 212.251191 225.691328 
L 218.430648 215.072066 
L 224.610105 220.381697 
L 230.789562 220.381697 
L 236.969019 225.691328 
L 243.148476 209.762434 
L 249.327933 220.381697 
L 255.50739 231.00096 
L 261.686847 225.691328 
L 267.866303 209.762434 
L 274.04576 220.381697 
L 280.225217 204.452803 
L 286.404674 193.833541 
L 292.584131 193.833541 
L 298.763588 204.452803 
L 304.943045 193.833541 
L 311.122502 193.833541 
L 317.301959 204.452803 
L 323.481415 188.523909 
L 329.660872 193.833541 
L 335.840329 193.833541 
L 342.019786 193.833541 
L 348.199243 183.214278 
L 354.3787 188.523909 
L 360.558157 193.833541 
L 366.737614 188.523909 
L 372.91707 188.523909 
L 379.096527 177.904647 
L 385.275984 183.214278 
L 391.455441 183.214278 
L 397.634898 193.833541 
L 403.814355 188.523909 
L 409.993812 177.904647 
L 416.173269 183.214278 
L 422.352726 188.523909 
L 428.532182 183.214278 
L 434.711639 172.595015 
L 440.891096 183.214278 
L 447.070553 183.214278 
L 453.25001 177.904647 
L 459.429467 183.214278 
L 465.608924 188.523909 
L 471.788381 161.975753 
L 477.967838 151.35649 
L 484.147294 188.523909 
L 490.326751 183.214278 
L 496.506208 172.595015 
L 502.685665 172.595015 
L 508.865122 172.595015 
L 515.044579 183.214278 
L 521.224036 183.214278 
L 527.403493 177.904647 
L 533.582949 167.285384 
L 539.762406 172.595015 
L 545.941863 151.35649 
L 552.12132 167.285384 
L 558.300777 161.975753 
L 564.480234 156.666121 
L 570.659691 167.285384 
L 576.839148 161.975753 
L 583.018605 156.666121 
L 589.198061 177.904647 
L 595.377518 161.975753 
L 601.556975 177.904647 
L 607.736432 167.285384 
L 613.915889 177.904647 
L 620.095346 172.595015 
L 626.274803 177.904647 
L 632.45426 172.595015 
L 638.633717 172.595015 
L 644.813173 161.975753 
L 650.99263 167.285384 
L 657.172087 172.595015 
L 663.351544 177.904647 
L 669.531001 177.904647 
" clip-path="url(#pc4e821e7b1)" style="fill: none; stroke: #cab2d6; stroke-opacity: 0.99; stroke-width: 0.8; stroke-linecap: round"/>
   </g>
   <g id="line2d_22">
    <path d="M 57.764769 464.624737 
L 63.944226 464.624737 
L 70.123683 400.909162 
L 76.30314 358.432111 
L 82.482597 337.193586 
L 88.662054 337.193586 
L 94.841511 331.883955 
L 101.020968 305.335798 
L 107.200424 289.406904 
L 113.379881 273.47801 
L 119.559338 246.929854 
L 125.738795 209.762434 
L 131.918252 199.143172 
L 138.097709 177.904647 
L 144.277166 177.904647 
L 150.456623 183.214278 
L 156.63608 177.904647 
L 162.815536 172.595015 
L 168.994993 177.904647 
L 175.17445 167.285384 
L 181.353907 156.666121 
L 187.533364 146.046859 
L 193.712821 156.666121 
L 199.892278 146.046859 
L 206.071735 146.046859 
L 212.251191 140.737227 
L 218.430648 140.737227 
L 224.610105 140.737227 
L 230.789562 146.046859 
L 236.969019 140.737227 
L 243.148476 130.117965 
L 249.327933 140.737227 
L 255.50739 130.117965 
L 261.686847 124.808334 
L 267.866303 124.808334 
L 274.04576 124.808334 
L 280.225217 119.498702 
L 286.404674 114.189071 
L 292.584131 124.808334 
L 298.763588 119.498702 
L 304.943045 114.189071 
L 311.122502 124.808334 
L 317.301959 114.189071 
L 323.481415 114.189071 
L 329.660872 119.498702 
L 335.840329 108.87944 
L 342.019786 108.87944 
L 348.199243 108.87944 
L 354.3787 103.569808 
L 360.558157 103.569808 
L 366.737614 108.87944 
L 372.91707 108.87944 
L 379.096527 103.569808 
L 385.275984 103.569808 
L 391.455441 114.189071 
L 397.634898 119.498702 
L 403.814355 119.498702 
L 409.993812 114.189071 
L 416.173269 114.189071 
L 422.352726 119.498702 
L 428.532182 108.87944 
L 434.711639 108.87944 
L 440.891096 103.569808 
L 447.070553 119.498702 
L 453.25001 98.260177 
L 459.429467 103.569808 
L 465.608924 98.260177 
L 471.788381 82.331283 
L 477.967838 77.021652 
L 484.147294 71.71202 
L 490.326751 82.331283 
L 496.506208 71.71202 
L 502.685665 71.71202 
L 508.865122 50.473495 
L 515.044579 50.473495 
L 521.224036 61.092758 
L 527.403493 50.473495 
L 533.582949 50.473495 
L 539.762406 55.783126 
L 545.941863 50.473495 
L 552.12132 55.783126 
L 558.300777 45.163864 
L 564.480234 55.783126 
L 570.659691 45.163864 
L 576.839148 45.163864 
L 583.018605 61.092758 
L 589.198061 61.092758 
L 595.377518 55.783126 
L 601.556975 61.092758 
L 607.736432 50.473495 
L 613.915889 50.473495 
L 620.095346 39.854233 
L 626.274803 45.163864 
L 632.45426 39.854233 
L 638.633717 39.854233 
L 644.813173 39.854233 
L 650.99263 29.23497 
L 657.172087 29.23497 
L 663.351544 39.854233 
L 669.531001 29.23497 
" clip-path="url(#pc4e821e7b1)" style="fill: none; stroke: #6a3d9a; stroke-opacity: 0.99; stroke-width: 0.8; stroke-linecap: round"/>
   </g>
   <g id="line2d_23">
    <path d="M 57.764769 469.934369 
L 63.944226 469.934369 
L 70.123683 416.838056 
L 76.30314 363.741742 
L 82.482597 353.12248 
L 88.662054 347.812849 
L 94.841511 347.812849 
L 101.020968 300.026167 
L 107.200424 284.097273 
L 113.379881 278.787642 
L 119.559338 278.787642 
L 125.738795 262.858748 
L 131.918252 252.239485 
L 138.097709 236.310591 
L 144.277166 231.00096 
L 150.456623 236.310591 
L 156.63608 231.00096 
L 162.815536 215.072066 
L 168.994993 209.762434 
L 175.17445 209.762434 
L 181.353907 215.072066 
L 187.533364 209.762434 
L 193.712821 204.452803 
L 199.892278 199.143172 
L 206.071735 193.833541 
L 212.251191 193.833541 
L 218.430648 199.143172 
L 224.610105 193.833541 
L 230.789562 188.523909 
L 236.969019 188.523909 
L 243.148476 177.904647 
L 249.327933 177.904647 
L 255.50739 172.595015 
L 261.686847 183.214278 
L 267.866303 172.595015 
L 274.04576 177.904647 
L 280.225217 177.904647 
L 286.404674 172.595015 
L 292.584131 172.595015 
L 298.763588 172.595015 
L 304.943045 172.595015 
L 311.122502 172.595015 
L 317.301959 172.595015 
L 323.481415 167.285384 
L 329.660872 167.285384 
L 335.840329 161.975753 
L 342.019786 161.975753 
L 348.199243 151.35649 
L 354.3787 156.666121 
L 360.558157 161.975753 
L 366.737614 146.046859 
L 372.91707 156.666121 
L 379.096527 151.35649 
L 385.275984 151.35649 
L 391.455441 156.666121 
L 397.634898 161.975753 
L 403.814355 156.666121 
L 409.993812 146.046859 
L 416.173269 151.35649 
L 422.352726 151.35649 
L 428.532182 151.35649 
L 434.711639 135.427596 
L 440.891096 146.046859 
L 447.070553 140.737227 
L 453.25001 146.046859 
L 459.429467 140.737227 
L 465.608924 135.427596 
L 471.788381 135.427596 
L 477.967838 130.117965 
L 484.147294 135.427596 
L 490.326751 124.808334 
L 496.506208 130.117965 
L 502.685665 119.498702 
L 508.865122 114.189071 
L 515.044579 119.498702 
L 521.224036 119.498702 
L 527.403493 114.189071 
L 533.582949 119.498702 
L 539.762406 114.189071 
L 545.941863 108.87944 
L 552.12132 114.189071 
L 558.300777 108.87944 
L 564.480234 103.569808 
L 570.659691 114.189071 
L 576.839148 103.569808 
L 583.018605 114.189071 
L 589.198061 114.189071 
L 595.377518 119.498702 
L 601.556975 119.498702 
L 607.736432 114.189071 
L 613.915889 114.189071 
L 620.095346 119.498702 
L 626.274803 114.189071 
L 632.45426 119.498702 
L 638.633717 130.117965 
L 644.813173 140.737227 
L 650.99263 140.737227 
L 657.172087 130.117965 
L 663.351544 135.427596 
L 669.531001 146.046859 
" clip-path="url(#pc4e821e7b1)" style="fill: none; stroke: #ffff99; stroke-opacity: 0.99; stroke-width: 0.8; stroke-linecap: round"/>
   </g>
   <g id="line2d_24">
    <path d="M 57.764769 459.315106 
L 63.944226 459.315106 
L 70.123683 411.528424 
L 76.30314 390.289899 
L 82.482597 369.051374 
L 88.662054 363.741742 
L 94.841511 337.193586 
L 101.020968 331.883955 
L 107.200424 310.645429 
L 113.379881 294.716535 
L 119.559338 273.47801 
L 125.738795 273.47801 
L 131.918252 252.239485 
L 138.097709 236.310591 
L 144.277166 204.452803 
L 150.456623 193.833541 
L 156.63608 188.523909 
L 162.815536 177.904647 
L 168.994993 183.214278 
L 175.17445 177.904647 
L 181.353907 177.904647 
L 187.533364 167.285384 
L 193.712821 161.975753 
L 199.892278 156.666121 
L 206.071735 146.046859 
L 212.251191 146.046859 
L 218.430648 146.046859 
L 224.610105 140.737227 
L 230.789562 130.117965 
L 236.969019 135.427596 
L 243.148476 135.427596 
L 249.327933 130.117965 
L 255.50739 124.808334 
L 261.686847 130.117965 
L 267.866303 146.046859 
L 274.04576 130.117965 
L 280.225217 130.117965 
L 286.404674 119.498702 
L 292.584131 124.808334 
L 298.763588 130.117965 
L 304.943045 124.808334 
L 311.122502 124.808334 
L 317.301959 124.808334 
L 323.481415 135.427596 
L 329.660872 124.808334 
L 335.840329 119.498702 
L 342.019786 103.569808 
L 348.199243 92.950546 
L 354.3787 92.950546 
L 360.558157 103.569808 
L 366.737614 114.189071 
L 372.91707 82.331283 
L 379.096527 87.640914 
L 385.275984 98.260177 
L 391.455441 92.950546 
L 397.634898 103.569808 
L 403.814355 98.260177 
L 409.993812 98.260177 
L 416.173269 103.569808 
L 422.352726 103.569808 
L 428.532182 103.569808 
L 434.711639 98.260177 
L 440.891096 98.260177 
L 447.070553 98.260177 
L 453.25001 98.260177 
L 459.429467 103.569808 
L 465.608924 98.260177 
L 471.788381 92.950546 
L 477.967838 87.640914 
L 484.147294 77.021652 
L 490.326751 92.950546 
L 496.506208 92.950546 
L 502.685665 92.950546 
L 508.865122 77.021652 
L 515.044579 77.021652 
L 521.224036 71.71202 
L 527.403493 77.021652 
L 533.582949 66.402389 
L 539.762406 66.402389 
L 545.941863 66.402389 
L 552.12132 61.092758 
L 558.300777 55.783126 
L 564.480234 66.402389 
L 570.659691 66.402389 
L 576.839148 55.783126 
L 583.018605 61.092758 
L 589.198061 61.092758 
L 595.377518 66.402389 
L 601.556975 55.783126 
L 607.736432 66.402389 
L 613.915889 55.783126 
L 620.095346 55.783126 
L 626.274803 55.783126 
L 632.45426 55.783126 
L 638.633717 50.473495 
L 644.813173 66.402389 
L 650.99263 77.021652 
L 657.172087 61.092758 
L 663.351544 50.473495 
L 669.531001 61.092758 
" clip-path="url(#pc4e821e7b1)" style="fill: none; stroke: #b15928; stroke-opacity: 0.99; stroke-width: 0.8; stroke-linecap: round"/>
   </g>
   <g id="line2d_25"/>
   <g id="line2d_26"/>
   <g id="line2d_27"/>
   <g id="line2d_28"/>
   <g id="line2d_29"/>
   <g id="line2d_30"/>
   <g id="line2d_31"/>
   <g id="line2d_32"/>
   <g id="line2d_33"/>
   <g id="line2d_34"/>
   <g id="line2d_35"/>
   <g id="line2d_36"/>
   <g id="line2d_37"/>
   <g id="line2d_38"/>
   <g id="line2d_39"/>
   <g id="line2d_40"/>
   <g id="line2d_41"/>
   <g id="line2d_42"/>
   <g id="line2d_43"/>
   <g id="line2d_44"/>
   <g id="line2d_45"/>
   <g id="line2d_46"/>
   <g id="line2d_47"/>
   <g id="line2d_48"/>
   <g id="line2d_49">
    <path d="M 57.764769 459.97881 
L 63.944226 455.332883 
L 70.123683 417.944229 
L 76.30314 380.555575 
L 82.482597 364.405446 
L 88.662054 357.325938 
L 94.841511 343.830625 
L 101.020968 324.583212 
L 107.200424 306.884441 
L 113.379881 298.035055 
L 119.559338 286.530854 
L 125.738795 275.690357 
L 131.918252 262.858748 
L 138.097709 251.133312 
L 144.277166 242.94763 
L 150.456623 236.310591 
L 156.63608 230.55849 
L 162.815536 221.266636 
L 168.994993 221.266636 
L 175.17445 215.73577 
L 181.353907 216.399474 
L 187.533364 209.319965 
L 193.712821 207.992557 
L 199.892278 207.992557 
L 206.071735 205.116507 
L 212.251191 202.682926 
L 218.430648 197.15206 
L 224.610105 194.054775 
L 230.789562 187.196501 
L 236.969019 186.090328 
L 243.148476 182.993043 
L 249.327933 181.88687 
L 255.50739 180.780697 
L 261.686847 181.001932 
L 267.866303 179.232054 
L 274.04576 176.577239 
L 280.225217 175.028596 
L 286.404674 169.276496 
L 292.584131 169.276496 
L 298.763588 168.391557 
L 304.943045 164.188099 
L 311.122502 163.524395 
L 317.301959 163.303161 
L 323.481415 164.188099 
L 329.660872 165.957976 
L 335.840329 156.887356 
L 342.019786 157.55106 
L 348.199243 154.453775 
L 354.3787 156.002417 
L 360.558157 156.223652 
L 366.737614 157.108591 
L 372.91707 154.453775 
L 379.096527 153.126367 
L 385.275984 154.011306 
L 391.455441 156.444887 
L 397.634898 157.772295 
L 403.814355 157.772295 
L 409.993812 150.692786 
L 416.173269 153.126367 
L 422.352726 154.011306 
L 428.532182 153.568836 
L 434.711639 150.029082 
L 440.891096 151.135255 
L 447.070553 152.683898 
L 453.25001 151.798959 
L 459.429467 152.683898 
L 465.608924 150.250317 
L 471.788381 144.719451 
L 477.967838 141.179697 
L 484.147294 141.843401 
L 490.326751 143.834512 
L 496.506208 143.392043 
L 502.685665 141.622166 
L 508.865122 135.648831 
L 515.044579 134.321423 
L 521.224036 134.100188 
L 527.403493 131.887842 
L 533.582949 129.675496 
L 539.762406 129.675496 
L 545.941863 127.684384 
L 552.12132 131.666607 
L 558.300777 128.126853 
L 564.480234 130.339199 
L 570.659691 131.224138 
L 576.839148 126.356976 
L 583.018605 130.560434 
L 589.198061 132.551546 
L 595.377518 133.878954 
L 601.556975 132.77278 
L 607.736432 131.666607 
L 613.915889 132.77278 
L 620.095346 132.109077 
L 626.274803 132.330311 
L 632.45426 134.763892 
L 638.633717 133.657719 
L 644.813173 133.21525 
L 650.99263 131.224138 
L 657.172087 130.781669 
L 663.351544 133.436484 
L 669.531001 131.887842 
" clip-path="url(#pc4e821e7b1)" style="fill: none; stroke-dasharray: 3.7,1.6; stroke-dashoffset: 0; stroke: #000000"/>
   </g>
   <g id="line2d_50">
    <defs>
     <path id="m93d02439b2" d="M 0 -3.5 
L -3.5 3.5 
L 3.5 3.5 
z
" style="stroke: #1f78b4; stroke-opacity: 0.8; stroke-linejoin: miter"/>
    </defs>
    <g clip-path="url(#pc4e821e7b1)">
     <use xlink:href="#m93d02439b2" x="397.634898" y="151.35649" style="fill: #1f78b4; fill-opacity: 0.8; stroke: #1f78b4; stroke-opacity: 0.8; stroke-linejoin: miter"/>
    </g>
   </g>
   <g id="line2d_51">
    <defs>
     <path id="md9efe25db3" d="M 0 -3.5 
L -3.5 3.5 
L 3.5 3.5 
z
" style="stroke: #33a02c; stroke-opacity: 0.8; stroke-linejoin: miter"/>
    </defs>
    <g clip-path="url(#pc4e821e7b1)">
     <use xlink:href="#md9efe25db3" x="385.275984" y="177.904647" style="fill: #33a02c; fill-opacity: 0.8; stroke: #33a02c; stroke-opacity: 0.8; stroke-linejoin: miter"/>
    </g>
   </g>
   <g id="line2d_52">
    <defs>
     <path id="m6b3e7d6571" d="M 0 -3.5 
L -3.5 3.5 
L 3.5 3.5 
z
" style="stroke: #fb9a99; stroke-opacity: 0.8; stroke-linejoin: miter"/>
    </defs>
    <g clip-path="url(#pc4e821e7b1)">
     <use xlink:href="#m6b3e7d6571" x="545.941863" y="225.691328" style="fill: #fb9a99; fill-opacity: 0.8; stroke: #fb9a99; stroke-opacity: 0.8; stroke-linejoin: miter"/>
    </g>
   </g>
   <g id="line2d_53">
    <defs>
     <path id="m79a906b5cc" d="M 0 -3.5 
L -3.5 3.5 
L 3.5 3.5 
z
" style="stroke: #e31a1c; stroke-opacity: 0.8; stroke-linejoin: miter"/>
    </defs>
    <g clip-path="url(#pc4e821e7b1)">
     <use xlink:href="#m79a906b5cc" x="206.071735" y="315.955061" style="fill: #e31a1c; fill-opacity: 0.8; stroke: #e31a1c; stroke-opacity: 0.8; stroke-linejoin: miter"/>
    </g>
   </g>
   <g id="line2d_54">
    <defs>
     <path id="m04b701d026" d="M 0 -3.5 
L -3.5 3.5 
L 3.5 3.5 
z
" style="stroke: #ff7f00; stroke-opacity: 0.8; stroke-linejoin: miter"/>
    </defs>
    <g clip-path="url(#pc4e821e7b1)">
     <use xlink:href="#m04b701d026" x="261.686847" y="130.117965" style="fill: #ff7f00; fill-opacity: 0.8; stroke: #ff7f00; stroke-opacity: 0.8; stroke-linejoin: miter"/>
    </g>
   </g>
   <g id="line2d_55">
    <defs>
     <path id="m1ddba86ba2" d="M 0 -3.5 
L -3.5 3.5 
L 3.5 3.5 
z
" style="stroke: #ffff99; stroke-opacity: 0.8; stroke-linejoin: miter"/>
    </defs>
    <g clip-path="url(#pc4e821e7b1)">
     <use xlink:href="#m1ddba86ba2" x="224.610105" y="268.168379" style="fill: #ffff99; fill-opacity: 0.8; stroke: #ffff99; stroke-opacity: 0.8; stroke-linejoin: miter"/>
    </g>
   </g>
   <g id="line2d_56">
    <defs>
     <path id="ma2c9794b99" d="M 0 -3.5 
L -3.5 3.5 
L 3.5 3.5 
z
" style="stroke: #b2df8a; stroke-opacity: 0.8; stroke-linejoin: miter"/>
    </defs>
    <g clip-path="url(#pc4e821e7b1)">
     <use xlink:href="#ma2c9794b99" x="471.788381" y="156.666121" style="fill: #b2df8a; fill-opacity: 0.8; stroke: #b2df8a; stroke-opacity: 0.8; stroke-linejoin: miter"/>
    </g>
   </g>
   <g id="line2d_57">
    <g clip-path="url(#pc4e821e7b1)">
     <use xlink:href="#md9efe25db3" x="218.430648" y="183.214278" style="fill: #33a02c; fill-opacity: 0.8; stroke: #33a02c; stroke-opacity: 0.8; stroke-linejoin: miter"/>
    </g>
   </g>
   <g id="line2d_58">
    <g clip-path="url(#pc4e821e7b1)">
     <use xlink:href="#m79a906b5cc" x="508.865122" y="66.402389" style="fill: #e31a1c; fill-opacity: 0.8; stroke: #e31a1c; stroke-opacity: 0.8; stroke-linejoin: miter"/>
    </g>
   </g>
   <g id="line2d_59">
    <defs>
     <path id="mb6486b21ed" d="M 0 -3.5 
L -3.5 3.5 
L 3.5 3.5 
z
" style="stroke: #fdbf6f; stroke-opacity: 0.8; stroke-linejoin: miter"/>
    </defs>
    <g clip-path="url(#pc4e821e7b1)">
     <use xlink:href="#mb6486b21ed" x="626.274803" y="87.640914" style="fill: #fdbf6f; fill-opacity: 0.8; stroke: #fdbf6f; stroke-opacity: 0.8; stroke-linejoin: miter"/>
    </g>
   </g>
   <g id="patch_3">
    <path d="M 51.585313 475.244 
L 51.585313 7.2 
" style="fill: none; stroke: #262626; stroke-width: 1.875; stroke-linejoin: miter; stroke-linecap: square"/>
   </g>
   <g id="patch_4">
    <path d="M 700.119312 475.244 
L 700.119312 7.2 
" style="fill: none; stroke: #262626; stroke-width: 1.875; stroke-linejoin: miter; stroke-linecap: square"/>
   </g>
   <g id="patch_5">
    <path d="M 51.585313 475.244 
L 700.119312 475.244 
" style="fill: none; stroke: #262626; stroke-width: 1.875; stroke-linejoin: miter; stroke-linecap: square"/>
   </g>
   <g id="patch_6">
    <path d="M 51.585313 7.2 
L 700.119312 7.2 
" style="fill: none; stroke: #262626; stroke-width: 1.875; stroke-linejoin: miter; stroke-linecap: square"/>
   </g>
   <g id="legend_1">
    <g id="patch_7">
     <path d="M 741.646012 502.96225 
L 820.630262 502.96225 
Q 823.230262 502.96225 823.230262 500.36225 
L 823.230262 16.3 
Q 823.230262 13.7 820.630262 13.7 
L 741.646012 13.7 
Q 739.046012 13.7 739.046012 16.3 
L 739.046012 500.36225 
Q 739.046012 502.96225 741.646012 502.96225 
z
" style="fill: #ffffff; opacity: 0.8; stroke: #cccccc; stroke-width: 1.5; stroke-linejoin: miter"/>
    </g>
    <g id="text_16">
     <!-- Clients -->
     <g style="fill: #262626" transform="translate(744.246012 35.312625) scale(0.216 -0.216)">
      <defs>
       <path id="DejaVuSans-43" d="M 4122 4306 
L 4122 3641 
Q 3803 3938 3442 4084 
Q 3081 4231 2675 4231 
Q 1875 4231 1450 3742 
Q 1025 3253 1025 2328 
Q 1025 1406 1450 917 
Q 1875 428 2675 428 
Q 3081 428 3442 575 
Q 3803 722 4122 1019 
L 4122 359 
Q 3791 134 3420 21 
Q 3050 -91 2638 -91 
Q 1578 -91 968 557 
Q 359 1206 359 2328 
Q 359 3453 968 4101 
Q 1578 4750 2638 4750 
Q 3056 4750 3426 4639 
Q 3797 4528 4122 4306 
z
" transform="scale(0.015625)"/>
       <path id="DejaVuSans-6c" d="M 603 4863 
L 1178 4863 
L 1178 0 
L 603 0 
L 603 4863 
z
" transform="scale(0.015625)"/>
       <path id="DejaVuSans-69" d="M 603 3500 
L 1178 3500 
L 1178 0 
L 603 0 
L 603 3500 
z
M 603 4863 
L 1178 4863 
L 1178 4134 
L 603 4134 
L 603 4863 
z
" transform="scale(0.015625)"/>
       <path id="DejaVuSans-65" d="M 3597 1894 
L 3597 1613 
L 953 1613 
Q 991 1019 1311 708 
Q 1631 397 2203 397 
Q 2534 397 2845 478 
Q 3156 559 3463 722 
L 3463 178 
Q 3153 47 2828 -22 
Q 2503 -91 2169 -91 
Q 1331 -91 842 396 
Q 353 884 353 1716 
Q 353 2575 817 3079 
Q 1281 3584 2069 3584 
Q 2775 3584 3186 3129 
Q 3597 2675 3597 1894 
z
M 3022 2063 
Q 3016 2534 2758 2815 
Q 2500 3097 2075 3097 
Q 1594 3097 1305 2825 
Q 1016 2553 972 2059 
L 3022 2063 
z
" transform="scale(0.015625)"/>
       <path id="DejaVuSans-6e" d="M 3513 2113 
L 3513 0 
L 2938 0 
L 2938 2094 
Q 2938 2591 2744 2837 
Q 2550 3084 2163 3084 
Q 1697 3084 1428 2787 
Q 1159 2491 1159 1978 
L 1159 0 
L 581 0 
L 581 3500 
L 1159 3500 
L 1159 2956 
Q 1366 3272 1645 3428 
Q 1925 3584 2291 3584 
Q 2894 3584 3203 3211 
Q 3513 2838 3513 2113 
z
" transform="scale(0.015625)"/>
       <path id="DejaVuSans-74" d="M 1172 4494 
L 1172 3500 
L 2356 3500 
L 2356 3053 
L 1172 3053 
L 1172 1153 
Q 1172 725 1289 603 
Q 1406 481 1766 481 
L 2356 481 
L 2356 0 
L 1766 0 
Q 1100 0 847 248 
Q 594 497 594 1153 
L 594 3053 
L 172 3053 
L 172 3500 
L 594 3500 
L 594 4494 
L 1172 4494 
z
" transform="scale(0.015625)"/>
       <path id="DejaVuSans-73" d="M 2834 3397 
L 2834 2853 
Q 2591 2978 2328 3040 
Q 2066 3103 1784 3103 
Q 1356 3103 1142 2972 
Q 928 2841 928 2578 
Q 928 2378 1081 2264 
Q 1234 2150 1697 2047 
L 1894 2003 
Q 2506 1872 2764 1633 
Q 3022 1394 3022 966 
Q 3022 478 2636 193 
Q 2250 -91 1575 -91 
Q 1294 -91 989 -36 
Q 684 19 347 128 
L 347 722 
Q 666 556 975 473 
Q 1284 391 1588 391 
Q 1994 391 2212 530 
Q 2431 669 2431 922 
Q 2431 1156 2273 1281 
Q 2116 1406 1581 1522 
L 1381 1569 
Q 847 1681 609 1914 
Q 372 2147 372 2553 
Q 372 3047 722 3315 
Q 1072 3584 1716 3584 
Q 2034 3584 2315 3537 
Q 2597 3491 2834 3397 
z
" transform="scale(0.015625)"/>
      </defs>
      <use xlink:href="#DejaVuSans-43"/>
      <use xlink:href="#DejaVuSans-6c" transform="translate(69.824219 0)"/>
      <use xlink:href="#DejaVuSans-69" transform="translate(97.607422 0)"/>
      <use xlink:href="#DejaVuSans-65" transform="translate(125.390625 0)"/>
      <use xlink:href="#DejaVuSans-6e" transform="translate(186.914062 0)"/>
      <use xlink:href="#DejaVuSans-74" transform="translate(250.292969 0)"/>
      <use xlink:href="#DejaVuSans-73" transform="translate(289.501953 0)"/>
     </g>
    </g>
    <g id="line2d_60">
     <path d="M 753.892981 51.632719 
L 766.892981 51.632719 
L 779.892981 51.632719 
" style="fill: none; stroke: #a6cee3; stroke-opacity: 0.99; stroke-width: 0.8; stroke-linecap: round"/>
    </g>
    <g id="text_17">
     <!-- 0 -->
     <g style="fill: #262626" transform="translate(790.292981 56.182719) scale(0.13 -0.13)">
      <use xlink:href="#DejaVuSans-Bold-30"/>
     </g>
    </g>
    <g id="line2d_61">
     <path d="M 753.892981 70.714281 
L 766.892981 70.714281 
L 779.892981 70.714281 
" style="fill: none; stroke: #1f78b4; stroke-opacity: 0.99; stroke-width: 0.8; stroke-linecap: round"/>
    </g>
    <g id="text_18">
     <!-- 1 -->
     <g style="fill: #262626" transform="translate(790.292981 75.264281) scale(0.13 -0.13)">
      <use xlink:href="#DejaVuSans-Bold-31"/>
     </g>
    </g>
    <g id="line2d_62">
     <path d="M 753.892981 89.795844 
L 766.892981 89.795844 
L 779.892981 89.795844 
" style="fill: none; stroke: #b2df8a; stroke-opacity: 0.99; stroke-width: 0.8; stroke-linecap: round"/>
    </g>
    <g id="text_19">
     <!-- 2 -->
     <g style="fill: #262626" transform="translate(790.292981 94.345844) scale(0.13 -0.13)">
      <use xlink:href="#DejaVuSans-Bold-32"/>
     </g>
    </g>
    <g id="line2d_63">
     <path d="M 753.892981 108.877406 
L 766.892981 108.877406 
L 779.892981 108.877406 
" style="fill: none; stroke: #33a02c; stroke-opacity: 0.99; stroke-width: 0.8; stroke-linecap: round"/>
    </g>
    <g id="text_20">
     <!-- 3 -->
     <g style="fill: #262626" transform="translate(790.292981 113.427406) scale(0.13 -0.13)">
      <use xlink:href="#DejaVuSans-Bold-33"/>
     </g>
    </g>
    <g id="line2d_64">
     <path d="M 753.892981 127.958969 
L 766.892981 127.958969 
L 779.892981 127.958969 
" style="fill: none; stroke: #fb9a99; stroke-opacity: 0.99; stroke-width: 0.8; stroke-linecap: round"/>
    </g>
    <g id="text_21">
     <!-- 4 -->
     <g style="fill: #262626" transform="translate(790.292981 132.508969) scale(0.13 -0.13)">
      <use xlink:href="#DejaVuSans-Bold-34"/>
     </g>
    </g>
    <g id="line2d_65">
     <path d="M 753.892981 147.040531 
L 766.892981 147.040531 
L 779.892981 147.040531 
" style="fill: none; stroke: #e31a1c; stroke-opacity: 0.99; stroke-width: 0.8; stroke-linecap: round"/>
    </g>
    <g id="text_22">
     <!-- 5 -->
     <g style="fill: #262626" transform="translate(790.292981 151.590531) scale(0.13 -0.13)">
      <use xlink:href="#DejaVuSans-Bold-35"/>
     </g>
    </g>
    <g id="line2d_66">
     <path d="M 753.892981 166.122094 
L 766.892981 166.122094 
L 779.892981 166.122094 
" style="fill: none; stroke: #fdbf6f; stroke-opacity: 0.99; stroke-width: 0.8; stroke-linecap: round"/>
    </g>
    <g id="text_23">
     <!-- 6 -->
     <g style="fill: #262626" transform="translate(790.292981 170.672094) scale(0.13 -0.13)">
      <use xlink:href="#DejaVuSans-Bold-36"/>
     </g>
    </g>
    <g id="line2d_67">
     <path d="M 753.892981 185.203656 
L 766.892981 185.203656 
L 779.892981 185.203656 
" style="fill: none; stroke: #ff7f00; stroke-opacity: 0.99; stroke-width: 0.8; stroke-linecap: round"/>
    </g>
    <g id="text_24">
     <!-- 7 -->
     <g style="fill: #262626" transform="translate(790.292981 189.753656) scale(0.13 -0.13)">
      <use xlink:href="#DejaVuSans-Bold-37"/>
     </g>
    </g>
    <g id="line2d_68">
     <path d="M 753.892981 204.285219 
L 766.892981 204.285219 
L 779.892981 204.285219 
" style="fill: none; stroke: #cab2d6; stroke-opacity: 0.99; stroke-width: 0.8; stroke-linecap: round"/>
    </g>
    <g id="text_25">
     <!-- 8 -->
     <g style="fill: #262626" transform="translate(790.292981 208.835219) scale(0.13 -0.13)">
      <use xlink:href="#DejaVuSans-Bold-38"/>
     </g>
    </g>
    <g id="line2d_69">
     <path d="M 753.892981 223.366781 
L 766.892981 223.366781 
L 779.892981 223.366781 
" style="fill: none; stroke: #6a3d9a; stroke-opacity: 0.99; stroke-width: 0.8; stroke-linecap: round"/>
    </g>
    <g id="text_26">
     <!-- 9 -->
     <g style="fill: #262626" transform="translate(790.292981 227.916781) scale(0.13 -0.13)">
      <defs>
       <path id="DejaVuSans-Bold-39" d="M 641 103 
L 641 966 
Q 928 831 1190 764 
Q 1453 697 1709 697 
Q 2247 697 2547 995 
Q 2847 1294 2900 1881 
Q 2688 1725 2447 1647 
Q 2206 1569 1925 1569 
Q 1209 1569 770 1986 
Q 331 2403 331 3084 
Q 331 3838 820 4291 
Q 1309 4744 2131 4744 
Q 3044 4744 3544 4128 
Q 4044 3513 4044 2388 
Q 4044 1231 3459 570 
Q 2875 -91 1856 -91 
Q 1528 -91 1228 -42 
Q 928 6 641 103 
z
M 2125 2350 
Q 2441 2350 2600 2554 
Q 2759 2759 2759 3169 
Q 2759 3575 2600 3781 
Q 2441 3988 2125 3988 
Q 1809 3988 1650 3781 
Q 1491 3575 1491 3169 
Q 1491 2759 1650 2554 
Q 1809 2350 2125 2350 
z
" transform="scale(0.015625)"/>
      </defs>
      <use xlink:href="#DejaVuSans-Bold-39"/>
     </g>
    </g>
    <g id="line2d_70">
     <path d="M 753.892981 242.448344 
L 766.892981 242.448344 
L 779.892981 242.448344 
" style="fill: none; stroke: #ffff99; stroke-opacity: 0.99; stroke-width: 0.8; stroke-linecap: round"/>
    </g>
    <g id="text_27">
     <!-- 10 -->
     <g style="fill: #262626" transform="translate(790.292981 246.998344) scale(0.13 -0.13)">
      <use xlink:href="#DejaVuSans-Bold-31"/>
      <use xlink:href="#DejaVuSans-Bold-30" transform="translate(69.580078 0)"/>
     </g>
    </g>
    <g id="line2d_71">
     <path d="M 753.892981 261.529906 
L 766.892981 261.529906 
L 779.892981 261.529906 
" style="fill: none; stroke: #b15928; stroke-opacity: 0.99; stroke-width: 0.8; stroke-linecap: round"/>
    </g>
    <g id="text_28">
     <!-- 11 -->
     <g style="fill: #262626" transform="translate(790.292981 266.079906) scale(0.13 -0.13)">
      <use xlink:href="#DejaVuSans-Bold-31"/>
      <use xlink:href="#DejaVuSans-Bold-31" transform="translate(69.580078 0)"/>
     </g>
    </g>
    <g id="line2d_72">
     <path d="M 753.892981 280.611469 
L 766.892981 280.611469 
L 779.892981 280.611469 
" style="fill: none; stroke: #a6cee3; stroke-opacity: 0.99; stroke-width: 0.8; stroke-linecap: round"/>
    </g>
    <g id="text_29">
     <!-- 12 -->
     <g style="fill: #262626" transform="translate(790.292981 285.161469) scale(0.13 -0.13)">
      <use xlink:href="#DejaVuSans-Bold-31"/>
      <use xlink:href="#DejaVuSans-Bold-32" transform="translate(69.580078 0)"/>
     </g>
    </g>
    <g id="line2d_73">
     <path d="M 753.892981 299.693031 
L 766.892981 299.693031 
L 779.892981 299.693031 
" style="fill: none; stroke: #1f78b4; stroke-opacity: 0.99; stroke-width: 0.8; stroke-linecap: round"/>
    </g>
    <g id="text_30">
     <!-- 13 -->
     <g style="fill: #262626" transform="translate(790.292981 304.243031) scale(0.13 -0.13)">
      <use xlink:href="#DejaVuSans-Bold-31"/>
      <use xlink:href="#DejaVuSans-Bold-33" transform="translate(69.580078 0)"/>
     </g>
    </g>
    <g id="line2d_74">
     <path d="M 753.892981 318.774594 
L 766.892981 318.774594 
L 779.892981 318.774594 
" style="fill: none; stroke: #b2df8a; stroke-opacity: 0.99; stroke-width: 0.8; stroke-linecap: round"/>
    </g>
    <g id="text_31">
     <!-- 14 -->
     <g style="fill: #262626" transform="translate(790.292981 323.324594) scale(0.13 -0.13)">
      <use xlink:href="#DejaVuSans-Bold-31"/>
      <use xlink:href="#DejaVuSans-Bold-34" transform="translate(69.580078 0)"/>
     </g>
    </g>
    <g id="line2d_75">
     <path d="M 753.892981 337.856156 
L 766.892981 337.856156 
L 779.892981 337.856156 
" style="fill: none; stroke: #33a02c; stroke-opacity: 0.99; stroke-width: 0.8; stroke-linecap: round"/>
    </g>
    <g id="text_32">
     <!-- 15 -->
     <g style="fill: #262626" transform="translate(790.292981 342.406156) scale(0.13 -0.13)">
      <use xlink:href="#DejaVuSans-Bold-31"/>
      <use xlink:href="#DejaVuSans-Bold-35" transform="translate(69.580078 0)"/>
     </g>
    </g>
    <g id="line2d_76">
     <path d="M 753.892981 356.937719 
L 766.892981 356.937719 
L 779.892981 356.937719 
" style="fill: none; stroke: #fb9a99; stroke-opacity: 0.99; stroke-width: 0.8; stroke-linecap: round"/>
    </g>
    <g id="text_33">
     <!-- 16 -->
     <g style="fill: #262626" transform="translate(790.292981 361.487719) scale(0.13 -0.13)">
      <use xlink:href="#DejaVuSans-Bold-31"/>
      <use xlink:href="#DejaVuSans-Bold-36" transform="translate(69.580078 0)"/>
     </g>
    </g>
    <g id="line2d_77">
     <path d="M 753.892981 376.019281 
L 766.892981 376.019281 
L 779.892981 376.019281 
" style="fill: none; stroke: #e31a1c; stroke-opacity: 0.99; stroke-width: 0.8; stroke-linecap: round"/>
    </g>
    <g id="text_34">
     <!-- 17 -->
     <g style="fill: #262626" transform="translate(790.292981 380.569281) scale(0.13 -0.13)">
      <use xlink:href="#DejaVuSans-Bold-31"/>
      <use xlink:href="#DejaVuSans-Bold-37" transform="translate(69.580078 0)"/>
     </g>
    </g>
    <g id="line2d_78">
     <path d="M 753.892981 395.100844 
L 766.892981 395.100844 
L 779.892981 395.100844 
" style="fill: none; stroke: #fdbf6f; stroke-opacity: 0.99; stroke-width: 0.8; stroke-linecap: round"/>
    </g>
    <g id="text_35">
     <!-- 18 -->
     <g style="fill: #262626" transform="translate(790.292981 399.650844) scale(0.13 -0.13)">
      <use xlink:href="#DejaVuSans-Bold-31"/>
      <use xlink:href="#DejaVuSans-Bold-38" transform="translate(69.580078 0)"/>
     </g>
    </g>
    <g id="line2d_79">
     <path d="M 753.892981 414.182406 
L 766.892981 414.182406 
L 779.892981 414.182406 
" style="fill: none; stroke: #ff7f00; stroke-opacity: 0.99; stroke-width: 0.8; stroke-linecap: round"/>
    </g>
    <g id="text_36">
     <!-- 19 -->
     <g style="fill: #262626" transform="translate(790.292981 418.732406) scale(0.13 -0.13)">
      <use xlink:href="#DejaVuSans-Bold-31"/>
      <use xlink:href="#DejaVuSans-Bold-39" transform="translate(69.580078 0)"/>
     </g>
    </g>
    <g id="line2d_80">
     <path d="M 753.892981 433.263969 
L 766.892981 433.263969 
L 779.892981 433.263969 
" style="fill: none; stroke: #cab2d6; stroke-opacity: 0.99; stroke-width: 0.8; stroke-linecap: round"/>
    </g>
    <g id="text_37">
     <!-- 20 -->
     <g style="fill: #262626" transform="translate(790.292981 437.813969) scale(0.13 -0.13)">
      <use xlink:href="#DejaVuSans-Bold-32"/>
      <use xlink:href="#DejaVuSans-Bold-30" transform="translate(69.580078 0)"/>
     </g>
    </g>
    <g id="line2d_81">
     <path d="M 753.892981 452.345531 
L 766.892981 452.345531 
L 779.892981 452.345531 
" style="fill: none; stroke: #6a3d9a; stroke-opacity: 0.99; stroke-width: 0.8; stroke-linecap: round"/>
    </g>
    <g id="text_38">
     <!-- 21 -->
     <g style="fill: #262626" transform="translate(790.292981 456.895531) scale(0.13 -0.13)">
      <use xlink:href="#DejaVuSans-Bold-32"/>
      <use xlink:href="#DejaVuSans-Bold-31" transform="translate(69.580078 0)"/>
     </g>
    </g>
    <g id="line2d_82">
     <path d="M 753.892981 471.427094 
L 766.892981 471.427094 
L 779.892981 471.427094 
" style="fill: none; stroke: #ffff99; stroke-opacity: 0.99; stroke-width: 0.8; stroke-linecap: round"/>
    </g>
    <g id="text_39">
     <!-- 22 -->
     <g style="fill: #262626" transform="translate(790.292981 475.977094) scale(0.13 -0.13)">
      <use xlink:href="#DejaVuSans-Bold-32"/>
      <use xlink:href="#DejaVuSans-Bold-32" transform="translate(69.580078 0)"/>
     </g>
    </g>
    <g id="line2d_83">
     <path d="M 753.892981 490.508656 
L 766.892981 490.508656 
L 779.892981 490.508656 
" style="fill: none; stroke: #b15928; stroke-opacity: 0.99; stroke-width: 0.8; stroke-linecap: round"/>
    </g>
    <g id="text_40">
     <!-- 23 -->
     <g style="fill: #262626" transform="translate(790.292981 495.058656) scale(0.13 -0.13)">
      <use xlink:href="#DejaVuSans-Bold-32"/>
      <use xlink:href="#DejaVuSans-Bold-33" transform="translate(69.580078 0)"/>
     </g>
    </g>
   </g>
  </g>
 </g>
 <defs>
  <clipPath id="pc4e821e7b1">
   <rect x="51.585313" y="7.2" width="648.534" height="468.044"/>
  </clipPath>
 </defs>
</svg>
