<?xml version="1.0" encoding="utf-8" standalone="no"?>
<!DOCTYPE svg PUBLIC "-//W3C//DTD SVG 1.1//EN"
  "http://www.w3.org/Graphics/SVG/1.1/DTD/svg11.dtd">
<svg xmlns:xlink="http://www.w3.org/1999/xlink" width="852.414844pt" height="563.271484pt" viewBox="0 0 852.414844 563.271484" xmlns="http://www.w3.org/2000/svg" version="1.1">
 <metadata>
  <rdf:RDF xmlns:dc="http://purl.org/dc/elements/1.1/" xmlns:cc="http://creativecommons.org/ns#" xmlns:rdf="http://www.w3.org/1999/02/22-rdf-syntax-ns#">
   <cc:Work>
    <dc:type rdf:resource="http://purl.org/dc/dcmitype/StillImage"/>
    <dc:date>2025-03-19T11:36:10.167077</dc:date>
    <dc:format>image/svg+xml</dc:format>
    <dc:creator>
     <cc:Agent>
      <dc:title>Matplotlib v3.10.0, https://matplotlib.org/</dc:title>
     </cc:Agent>
    </dc:creator>
   </cc:Work>
  </rdf:RDF>
 </metadata>
 <defs>
  <style type="text/css">*{stroke-linejoin: round; stroke-linecap: butt}</style>
 </defs>
 <g id="figure_1">
  <g id="patch_1">
   <path d="M 0 563.271484 
L 852.414844 563.271484 
L 852.414844 0 
L 0 0 
z
" style="fill: #ffffff"/>
  </g>
  <g id="axes_1">
   <g id="patch_2">
    <path d="M 52.184844 530.118672 
L 845.214844 530.118672 
L 845.214844 13.658672 
L 52.184844 13.658672 
z
" style="fill: #ffffff"/>
   </g>
   <g id="matplotlib.axis_1">
    <g id="xtick_1">
     <g id="line2d_1">
      <path d="M 97.396107 530.118672 
L 97.396107 13.658672 
" clip-path="url(#paef032b130)" style="fill: none; stroke: #cccccc; stroke-linecap: round"/>
     </g>
     <g id="text_1">
      <!-- 0 -->
      <g style="fill: #262626" transform="translate(91.481967 552.536016) scale(0.17 -0.17)">
       <defs>
        <path id="DejaVuSans-Bold-30" d="M 2944 2338 
Q 2944 3213 2780 3570 
Q 2616 3928 2228 3928 
Q 1841 3928 1675 3570 
Q 1509 3213 1509 2338 
Q 1509 1453 1675 1090 
Q 1841 728 2228 728 
Q 2613 728 2778 1090 
Q 2944 1453 2944 2338 
z
M 4147 2328 
Q 4147 1169 3647 539 
Q 3147 -91 2228 -91 
Q 1306 -91 806 539 
Q 306 1169 306 2328 
Q 306 3491 806 4120 
Q 1306 4750 2228 4750 
Q 3147 4750 3647 4120 
Q 4147 3491 4147 2328 
z
" transform="scale(0.015625)"/>
       </defs>
       <use xlink:href="#DejaVuSans-Bold-30"/>
      </g>
     </g>
    </g>
    <g id="xtick_2">
     <g id="line2d_2">
      <path d="M 127.944258 530.118672 
L 127.944258 13.658672 
" clip-path="url(#paef032b130)" style="fill: none; stroke: #cccccc; stroke-linecap: round"/>
     </g>
     <g id="text_2">
      <!-- 1 -->
      <g style="fill: #262626" transform="translate(122.030118 552.536016) scale(0.17 -0.17)">
       <defs>
        <path id="DejaVuSans-Bold-31" d="M 750 831 
L 1813 831 
L 1813 3847 
L 722 3622 
L 722 4441 
L 1806 4666 
L 2950 4666 
L 2950 831 
L 4013 831 
L 4013 0 
L 750 0 
L 750 831 
z
" transform="scale(0.015625)"/>
       </defs>
       <use xlink:href="#DejaVuSans-Bold-31"/>
      </g>
     </g>
    </g>
    <g id="xtick_3">
     <g id="line2d_3">
      <path d="M 158.492409 530.118672 
L 158.492409 13.658672 
" clip-path="url(#paef032b130)" style="fill: none; stroke: #cccccc; stroke-linecap: round"/>
     </g>
     <g id="text_3">
      <!-- 2 -->
      <g style="fill: #262626" transform="translate(152.578269 552.536016) scale(0.17 -0.17)">
       <defs>
        <path id="DejaVuSans-Bold-32" d="M 1844 884 
L 3897 884 
L 3897 0 
L 506 0 
L 506 884 
L 2209 2388 
Q 2438 2594 2547 2791 
Q 2656 2988 2656 3200 
Q 2656 3528 2436 3728 
Q 2216 3928 1850 3928 
Q 1569 3928 1234 3808 
Q 900 3688 519 3450 
L 519 4475 
Q 925 4609 1322 4679 
Q 1719 4750 2100 4750 
Q 2938 4750 3402 4381 
Q 3866 4013 3866 3353 
Q 3866 2972 3669 2642 
Q 3472 2313 2841 1759 
L 1844 884 
z
" transform="scale(0.015625)"/>
       </defs>
       <use xlink:href="#DejaVuSans-Bold-32"/>
      </g>
     </g>
    </g>
    <g id="xtick_4">
     <g id="line2d_4">
      <path d="M 189.04056 530.118672 
L 189.04056 13.658672 
" clip-path="url(#paef032b130)" style="fill: none; stroke: #cccccc; stroke-linecap: round"/>
     </g>
     <g id="text_4">
      <!-- 3 -->
      <g style="fill: #262626" transform="translate(183.12642 552.536016) scale(0.17 -0.17)">
       <defs>
        <path id="DejaVuSans-Bold-33" d="M 2981 2516 
Q 3453 2394 3698 2092 
Q 3944 1791 3944 1325 
Q 3944 631 3412 270 
Q 2881 -91 1863 -91 
Q 1503 -91 1142 -33 
Q 781 25 428 141 
L 428 1069 
Q 766 900 1098 814 
Q 1431 728 1753 728 
Q 2231 728 2486 893 
Q 2741 1059 2741 1369 
Q 2741 1688 2480 1852 
Q 2219 2016 1709 2016 
L 1228 2016 
L 1228 2791 
L 1734 2791 
Q 2188 2791 2409 2933 
Q 2631 3075 2631 3366 
Q 2631 3634 2415 3781 
Q 2200 3928 1806 3928 
Q 1516 3928 1219 3862 
Q 922 3797 628 3669 
L 628 4550 
Q 984 4650 1334 4700 
Q 1684 4750 2022 4750 
Q 2931 4750 3382 4451 
Q 3834 4153 3834 3553 
Q 3834 3144 3618 2883 
Q 3403 2622 2981 2516 
z
" transform="scale(0.015625)"/>
       </defs>
       <use xlink:href="#DejaVuSans-Bold-33"/>
      </g>
     </g>
    </g>
    <g id="xtick_5">
     <g id="line2d_5">
      <path d="M 219.588711 530.118672 
L 219.588711 13.658672 
" clip-path="url(#paef032b130)" style="fill: none; stroke: #cccccc; stroke-linecap: round"/>
     </g>
     <g id="text_5">
      <!-- 4 -->
      <g style="fill: #262626" transform="translate(213.674571 552.536016) scale(0.17 -0.17)">
       <defs>
        <path id="DejaVuSans-Bold-34" d="M 2356 3675 
L 1038 1722 
L 2356 1722 
L 2356 3675 
z
M 2156 4666 
L 3494 4666 
L 3494 1722 
L 4159 1722 
L 4159 850 
L 3494 850 
L 3494 0 
L 2356 0 
L 2356 850 
L 288 850 
L 288 1881 
L 2156 4666 
z
" transform="scale(0.015625)"/>
       </defs>
       <use xlink:href="#DejaVuSans-Bold-34"/>
      </g>
     </g>
    </g>
    <g id="xtick_6">
     <g id="line2d_6">
      <path d="M 250.136862 530.118672 
L 250.136862 13.658672 
" clip-path="url(#paef032b130)" style="fill: none; stroke: #cccccc; stroke-linecap: round"/>
     </g>
     <g id="text_6">
      <!-- 5 -->
      <g style="fill: #262626" transform="translate(244.222722 552.536016) scale(0.17 -0.17)">
       <defs>
        <path id="DejaVuSans-Bold-35" d="M 678 4666 
L 3669 4666 
L 3669 3781 
L 1638 3781 
L 1638 3059 
Q 1775 3097 1914 3117 
Q 2053 3138 2203 3138 
Q 3056 3138 3531 2711 
Q 4006 2284 4006 1522 
Q 4006 766 3489 337 
Q 2972 -91 2053 -91 
Q 1656 -91 1267 -14 
Q 878 63 494 219 
L 494 1166 
Q 875 947 1217 837 
Q 1559 728 1863 728 
Q 2300 728 2551 942 
Q 2803 1156 2803 1522 
Q 2803 1891 2551 2103 
Q 2300 2316 1863 2316 
Q 1603 2316 1309 2248 
Q 1016 2181 678 2041 
L 678 4666 
z
" transform="scale(0.015625)"/>
       </defs>
       <use xlink:href="#DejaVuSans-Bold-35"/>
      </g>
     </g>
    </g>
    <g id="xtick_7">
     <g id="line2d_7">
      <path d="M 280.685013 530.118672 
L 280.685013 13.658672 
" clip-path="url(#paef032b130)" style="fill: none; stroke: #cccccc; stroke-linecap: round"/>
     </g>
     <g id="text_7">
      <!-- 6 -->
      <g style="fill: #262626" transform="translate(274.770873 552.536016) scale(0.17 -0.17)">
       <defs>
        <path id="DejaVuSans-Bold-36" d="M 2316 2303 
Q 2000 2303 1842 2098 
Q 1684 1894 1684 1484 
Q 1684 1075 1842 870 
Q 2000 666 2316 666 
Q 2634 666 2792 870 
Q 2950 1075 2950 1484 
Q 2950 1894 2792 2098 
Q 2634 2303 2316 2303 
z
M 3803 4544 
L 3803 3681 
Q 3506 3822 3243 3889 
Q 2981 3956 2731 3956 
Q 2194 3956 1894 3657 
Q 1594 3359 1544 2772 
Q 1750 2925 1990 3001 
Q 2231 3078 2516 3078 
Q 3231 3078 3670 2659 
Q 4109 2241 4109 1563 
Q 4109 813 3618 361 
Q 3128 -91 2303 -91 
Q 1394 -91 895 523 
Q 397 1138 397 2266 
Q 397 3422 980 4083 
Q 1563 4744 2578 4744 
Q 2900 4744 3203 4694 
Q 3506 4644 3803 4544 
z
" transform="scale(0.015625)"/>
       </defs>
       <use xlink:href="#DejaVuSans-Bold-36"/>
      </g>
     </g>
    </g>
    <g id="xtick_8">
     <g id="line2d_8">
      <path d="M 311.233164 530.118672 
L 311.233164 13.658672 
" clip-path="url(#paef032b130)" style="fill: none; stroke: #cccccc; stroke-linecap: round"/>
     </g>
     <g id="text_8">
      <!-- 7 -->
      <g style="fill: #262626" transform="translate(305.319024 552.536016) scale(0.17 -0.17)">
       <defs>
        <path id="DejaVuSans-Bold-37" d="M 428 4666 
L 3944 4666 
L 3944 3988 
L 2125 0 
L 953 0 
L 2675 3781 
L 428 3781 
L 428 4666 
z
" transform="scale(0.015625)"/>
       </defs>
       <use xlink:href="#DejaVuSans-Bold-37"/>
      </g>
     </g>
    </g>
    <g id="xtick_9">
     <g id="line2d_9">
      <path d="M 341.781315 530.118672 
L 341.781315 13.658672 
" clip-path="url(#paef032b130)" style="fill: none; stroke: #cccccc; stroke-linecap: round"/>
     </g>
     <g id="text_9">
      <!-- 8 -->
      <g style="fill: #262626" transform="translate(335.867175 552.536016) scale(0.17 -0.17)">
       <defs>
        <path id="DejaVuSans-Bold-38" d="M 2228 2088 
Q 1891 2088 1709 1903 
Q 1528 1719 1528 1375 
Q 1528 1031 1709 848 
Q 1891 666 2228 666 
Q 2563 666 2741 848 
Q 2919 1031 2919 1375 
Q 2919 1722 2741 1905 
Q 2563 2088 2228 2088 
z
M 1350 2484 
Q 925 2613 709 2878 
Q 494 3144 494 3541 
Q 494 4131 934 4440 
Q 1375 4750 2228 4750 
Q 3075 4750 3515 4442 
Q 3956 4134 3956 3541 
Q 3956 3144 3739 2878 
Q 3522 2613 3097 2484 
Q 3572 2353 3814 2058 
Q 4056 1763 4056 1313 
Q 4056 619 3595 264 
Q 3134 -91 2228 -91 
Q 1319 -91 855 264 
Q 391 619 391 1313 
Q 391 1763 633 2058 
Q 875 2353 1350 2484 
z
M 1631 3419 
Q 1631 3141 1786 2991 
Q 1941 2841 2228 2841 
Q 2509 2841 2662 2991 
Q 2816 3141 2816 3419 
Q 2816 3697 2662 3845 
Q 2509 3994 2228 3994 
Q 1941 3994 1786 3844 
Q 1631 3694 1631 3419 
z
" transform="scale(0.015625)"/>
       </defs>
       <use xlink:href="#DejaVuSans-Bold-38"/>
      </g>
     </g>
    </g>
    <g id="xtick_10">
     <g id="line2d_10">
      <path d="M 372.329466 530.118672 
L 372.329466 13.658672 
" clip-path="url(#paef032b130)" style="fill: none; stroke: #cccccc; stroke-linecap: round"/>
     </g>
     <g id="text_10">
      <!-- 9 -->
      <g style="fill: #262626" transform="translate(366.415326 552.536016) scale(0.17 -0.17)">
       <defs>
        <path id="DejaVuSans-Bold-39" d="M 641 103 
L 641 966 
Q 928 831 1190 764 
Q 1453 697 1709 697 
Q 2247 697 2547 995 
Q 2847 1294 2900 1881 
Q 2688 1725 2447 1647 
Q 2206 1569 1925 1569 
Q 1209 1569 770 1986 
Q 331 2403 331 3084 
Q 331 3838 820 4291 
Q 1309 4744 2131 4744 
Q 3044 4744 3544 4128 
Q 4044 3513 4044 2388 
Q 4044 1231 3459 570 
Q 2875 -91 1856 -91 
Q 1528 -91 1228 -42 
Q 928 6 641 103 
z
M 2125 2350 
Q 2441 2350 2600 2554 
Q 2759 2759 2759 3169 
Q 2759 3575 2600 3781 
Q 2441 3988 2125 3988 
Q 1809 3988 1650 3781 
Q 1491 3575 1491 3169 
Q 1491 2759 1650 2554 
Q 1809 2350 2125 2350 
z
" transform="scale(0.015625)"/>
       </defs>
       <use xlink:href="#DejaVuSans-Bold-39"/>
      </g>
     </g>
    </g>
    <g id="xtick_11">
     <g id="line2d_11">
      <path d="M 402.877617 530.118672 
L 402.877617 13.658672 
" clip-path="url(#paef032b130)" style="fill: none; stroke: #cccccc; stroke-linecap: round"/>
     </g>
     <g id="text_11">
      <!-- 10 -->
      <g style="fill: #262626" transform="translate(391.049336 552.536016) scale(0.17 -0.17)">
       <use xlink:href="#DejaVuSans-Bold-31"/>
       <use xlink:href="#DejaVuSans-Bold-30" transform="translate(69.580078 0)"/>
      </g>
     </g>
    </g>
    <g id="xtick_12">
     <g id="line2d_12">
      <path d="M 433.425768 530.118672 
L 433.425768 13.658672 
" clip-path="url(#paef032b130)" style="fill: none; stroke: #cccccc; stroke-linecap: round"/>
     </g>
     <g id="text_12">
      <!-- 11 -->
      <g style="fill: #262626" transform="translate(421.597487 552.536016) scale(0.17 -0.17)">
       <use xlink:href="#DejaVuSans-Bold-31"/>
       <use xlink:href="#DejaVuSans-Bold-31" transform="translate(69.580078 0)"/>
      </g>
     </g>
    </g>
    <g id="xtick_13">
     <g id="line2d_13">
      <path d="M 463.973919 530.118672 
L 463.973919 13.658672 
" clip-path="url(#paef032b130)" style="fill: none; stroke: #cccccc; stroke-linecap: round"/>
     </g>
     <g id="text_13">
      <!-- 12 -->
      <g style="fill: #262626" transform="translate(452.145638 552.536016) scale(0.17 -0.17)">
       <use xlink:href="#DejaVuSans-Bold-31"/>
       <use xlink:href="#DejaVuSans-Bold-32" transform="translate(69.580078 0)"/>
      </g>
     </g>
    </g>
    <g id="xtick_14">
     <g id="line2d_14">
      <path d="M 494.52207 530.118672 
L 494.52207 13.658672 
" clip-path="url(#paef032b130)" style="fill: none; stroke: #cccccc; stroke-linecap: round"/>
     </g>
     <g id="text_14">
      <!-- 13 -->
      <g style="fill: #262626" transform="translate(482.693789 552.536016) scale(0.17 -0.17)">
       <use xlink:href="#DejaVuSans-Bold-31"/>
       <use xlink:href="#DejaVuSans-Bold-33" transform="translate(69.580078 0)"/>
      </g>
     </g>
    </g>
    <g id="xtick_15">
     <g id="line2d_15">
      <path d="M 525.070221 530.118672 
L 525.070221 13.658672 
" clip-path="url(#paef032b130)" style="fill: none; stroke: #cccccc; stroke-linecap: round"/>
     </g>
     <g id="text_15">
      <!-- 14 -->
      <g style="fill: #262626" transform="translate(513.24194 552.536016) scale(0.17 -0.17)">
       <use xlink:href="#DejaVuSans-Bold-31"/>
       <use xlink:href="#DejaVuSans-Bold-34" transform="translate(69.580078 0)"/>
      </g>
     </g>
    </g>
    <g id="xtick_16">
     <g id="line2d_16">
      <path d="M 555.618372 530.118672 
L 555.618372 13.658672 
" clip-path="url(#paef032b130)" style="fill: none; stroke: #cccccc; stroke-linecap: round"/>
     </g>
     <g id="text_16">
      <!-- 15 -->
      <g style="fill: #262626" transform="translate(543.790091 552.536016) scale(0.17 -0.17)">
       <use xlink:href="#DejaVuSans-Bold-31"/>
       <use xlink:href="#DejaVuSans-Bold-35" transform="translate(69.580078 0)"/>
      </g>
     </g>
    </g>
    <g id="xtick_17">
     <g id="line2d_17">
      <path d="M 586.166523 530.118672 
L 586.166523 13.658672 
" clip-path="url(#paef032b130)" style="fill: none; stroke: #cccccc; stroke-linecap: round"/>
     </g>
     <g id="text_17">
      <!-- 16 -->
      <g style="fill: #262626" transform="translate(574.338242 552.536016) scale(0.17 -0.17)">
       <use xlink:href="#DejaVuSans-Bold-31"/>
       <use xlink:href="#DejaVuSans-Bold-36" transform="translate(69.580078 0)"/>
      </g>
     </g>
    </g>
    <g id="xtick_18">
     <g id="line2d_18">
      <path d="M 616.714674 530.118672 
L 616.714674 13.658672 
" clip-path="url(#paef032b130)" style="fill: none; stroke: #cccccc; stroke-linecap: round"/>
     </g>
     <g id="text_18">
      <!-- 17 -->
      <g style="fill: #262626" transform="translate(604.886393 552.536016) scale(0.17 -0.17)">
       <use xlink:href="#DejaVuSans-Bold-31"/>
       <use xlink:href="#DejaVuSans-Bold-37" transform="translate(69.580078 0)"/>
      </g>
     </g>
    </g>
    <g id="xtick_19">
     <g id="line2d_19">
      <path d="M 647.262825 530.118672 
L 647.262825 13.658672 
" clip-path="url(#paef032b130)" style="fill: none; stroke: #cccccc; stroke-linecap: round"/>
     </g>
     <g id="text_19">
      <!-- 18 -->
      <g style="fill: #262626" transform="translate(635.434544 552.536016) scale(0.17 -0.17)">
       <use xlink:href="#DejaVuSans-Bold-31"/>
       <use xlink:href="#DejaVuSans-Bold-38" transform="translate(69.580078 0)"/>
      </g>
     </g>
    </g>
    <g id="xtick_20">
     <g id="line2d_20">
      <path d="M 677.810976 530.118672 
L 677.810976 13.658672 
" clip-path="url(#paef032b130)" style="fill: none; stroke: #cccccc; stroke-linecap: round"/>
     </g>
     <g id="text_20">
      <!-- 19 -->
      <g style="fill: #262626" transform="translate(665.982695 552.536016) scale(0.17 -0.17)">
       <use xlink:href="#DejaVuSans-Bold-31"/>
       <use xlink:href="#DejaVuSans-Bold-39" transform="translate(69.580078 0)"/>
      </g>
     </g>
    </g>
    <g id="xtick_21">
     <g id="line2d_21">
      <path d="M 708.359127 530.118672 
L 708.359127 13.658672 
" clip-path="url(#paef032b130)" style="fill: none; stroke: #cccccc; stroke-linecap: round"/>
     </g>
     <g id="text_21">
      <!-- 20 -->
      <g style="fill: #262626" transform="translate(696.530846 552.536016) scale(0.17 -0.17)">
       <use xlink:href="#DejaVuSans-Bold-32"/>
       <use xlink:href="#DejaVuSans-Bold-30" transform="translate(69.580078 0)"/>
      </g>
     </g>
    </g>
    <g id="xtick_22">
     <g id="line2d_22">
      <path d="M 738.907278 530.118672 
L 738.907278 13.658672 
" clip-path="url(#paef032b130)" style="fill: none; stroke: #cccccc; stroke-linecap: round"/>
     </g>
     <g id="text_22">
      <!-- 21 -->
      <g style="fill: #262626" transform="translate(727.078997 552.536016) scale(0.17 -0.17)">
       <use xlink:href="#DejaVuSans-Bold-32"/>
       <use xlink:href="#DejaVuSans-Bold-31" transform="translate(69.580078 0)"/>
      </g>
     </g>
    </g>
    <g id="xtick_23">
     <g id="line2d_23">
      <path d="M 769.455429 530.118672 
L 769.455429 13.658672 
" clip-path="url(#paef032b130)" style="fill: none; stroke: #cccccc; stroke-linecap: round"/>
     </g>
     <g id="text_23">
      <!-- 22 -->
      <g style="fill: #262626" transform="translate(757.627148 552.536016) scale(0.17 -0.17)">
       <use xlink:href="#DejaVuSans-Bold-32"/>
       <use xlink:href="#DejaVuSans-Bold-32" transform="translate(69.580078 0)"/>
      </g>
     </g>
    </g>
    <g id="xtick_24">
     <g id="line2d_24">
      <path d="M 800.00358 530.118672 
L 800.00358 13.658672 
" clip-path="url(#paef032b130)" style="fill: none; stroke: #cccccc; stroke-linecap: round"/>
     </g>
     <g id="text_24">
      <!-- 23 -->
      <g style="fill: #262626" transform="translate(788.175299 552.536016) scale(0.17 -0.17)">
       <use xlink:href="#DejaVuSans-Bold-32"/>
       <use xlink:href="#DejaVuSans-Bold-33" transform="translate(69.580078 0)"/>
      </g>
     </g>
    </g>
   </g>
   <g id="matplotlib.axis_2">
    <g id="ytick_1">
     <g id="line2d_25">
      <path d="M 52.184844 530.118672 
L 845.214844 530.118672 
" clip-path="url(#paef032b130)" style="fill: none; stroke: #cccccc; stroke-linecap: round"/>
     </g>
     <g id="text_25">
      <!-- 0 -->
      <g style="fill: #262626" transform="translate(30.856563 536.577344) scale(0.17 -0.17)">
       <use xlink:href="#DejaVuSans-Bold-30"/>
      </g>
     </g>
    </g>
    <g id="ytick_2">
     <g id="line2d_26">
      <path d="M 52.184844 426.826672 
L 845.214844 426.826672 
" clip-path="url(#paef032b130)" style="fill: none; stroke: #cccccc; stroke-linecap: round"/>
     </g>
     <g id="text_26">
      <!-- 20 -->
      <g style="fill: #262626" transform="translate(19.028281 433.285344) scale(0.17 -0.17)">
       <use xlink:href="#DejaVuSans-Bold-32"/>
       <use xlink:href="#DejaVuSans-Bold-30" transform="translate(69.580078 0)"/>
      </g>
     </g>
    </g>
    <g id="ytick_3">
     <g id="line2d_27">
      <path d="M 52.184844 323.534672 
L 845.214844 323.534672 
" clip-path="url(#paef032b130)" style="fill: none; stroke: #cccccc; stroke-linecap: round"/>
     </g>
     <g id="text_27">
      <!-- 40 -->
      <g style="fill: #262626" transform="translate(19.028281 329.993344) scale(0.17 -0.17)">
       <use xlink:href="#DejaVuSans-Bold-34"/>
       <use xlink:href="#DejaVuSans-Bold-30" transform="translate(69.580078 0)"/>
      </g>
     </g>
    </g>
    <g id="ytick_4">
     <g id="line2d_28">
      <path d="M 52.184844 220.242672 
L 845.214844 220.242672 
" clip-path="url(#paef032b130)" style="fill: none; stroke: #cccccc; stroke-linecap: round"/>
     </g>
     <g id="text_28">
      <!-- 60 -->
      <g style="fill: #262626" transform="translate(19.028281 226.701344) scale(0.17 -0.17)">
       <use xlink:href="#DejaVuSans-Bold-36"/>
       <use xlink:href="#DejaVuSans-Bold-30" transform="translate(69.580078 0)"/>
      </g>
     </g>
    </g>
    <g id="ytick_5">
     <g id="line2d_29">
      <path d="M 52.184844 116.950672 
L 845.214844 116.950672 
" clip-path="url(#paef032b130)" style="fill: none; stroke: #cccccc; stroke-linecap: round"/>
     </g>
     <g id="text_29">
      <!-- 80 -->
      <g style="fill: #262626" transform="translate(19.028281 123.409344) scale(0.17 -0.17)">
       <use xlink:href="#DejaVuSans-Bold-38"/>
       <use xlink:href="#DejaVuSans-Bold-30" transform="translate(69.580078 0)"/>
      </g>
     </g>
    </g>
    <g id="ytick_6">
     <g id="line2d_30">
      <path d="M 52.184844 13.658672 
L 845.214844 13.658672 
" clip-path="url(#paef032b130)" style="fill: none; stroke: #cccccc; stroke-linecap: round"/>
     </g>
     <g id="text_30">
      <!-- 100 -->
      <g style="fill: #262626" transform="translate(7.2 20.117344) scale(0.17 -0.17)">
       <use xlink:href="#DejaVuSans-Bold-31"/>
       <use xlink:href="#DejaVuSans-Bold-30" transform="translate(69.580078 0)"/>
       <use xlink:href="#DejaVuSans-Bold-30" transform="translate(139.160156 0)"/>
      </g>
     </g>
    </g>
   </g>
   <g id="patch_3">
    <path d="M 88.231662 530.118672 
L 106.560553 530.118672 
L 106.560553 13.658672 
L 88.231662 13.658672 
z
" clip-path="url(#paef032b130)" style="fill: #cd5c5c; stroke: #ffffff; stroke-linejoin: miter"/>
   </g>
   <g id="patch_4">
    <path d="M 88.231662 13.658672 
L 106.560553 13.658672 
L 106.560553 13.658672 
L 88.231662 13.658672 
z
" clip-path="url(#paef032b130)" style="fill: #228b22; stroke: #ffffff; stroke-linejoin: miter"/>
   </g>
   <g id="patch_5">
    <path d="M 118.779813 530.118672 
L 137.108704 530.118672 
L 137.108704 240.901072 
L 118.779813 240.901072 
z
" clip-path="url(#paef032b130)" style="fill: #cd5c5c; stroke: #ffffff; stroke-linejoin: miter"/>
   </g>
   <g id="patch_6">
    <path d="M 118.779813 240.901072 
L 137.108704 240.901072 
L 137.108704 13.658672 
L 118.779813 13.658672 
z
" clip-path="url(#paef032b130)" style="fill: #228b22; stroke: #ffffff; stroke-linejoin: miter"/>
   </g>
   <g id="patch_7">
    <path d="M 149.327964 530.118672 
L 167.656855 530.118672 
L 167.656855 13.658672 
L 149.327964 13.658672 
z
" clip-path="url(#paef032b130)" style="fill: #cd5c5c; stroke: #ffffff; stroke-linejoin: miter"/>
   </g>
   <g id="patch_8">
    <path d="M 149.327964 13.658672 
L 167.656855 13.658672 
L 167.656855 13.658672 
L 149.327964 13.658672 
z
" clip-path="url(#paef032b130)" style="fill: #228b22; stroke: #ffffff; stroke-linejoin: miter"/>
   </g>
   <g id="patch_9">
    <path d="M 179.876115 530.118672 
L 198.205006 530.118672 
L 198.205006 251.230272 
L 179.876115 251.230272 
z
" clip-path="url(#paef032b130)" style="fill: #cd5c5c; stroke: #ffffff; stroke-linejoin: miter"/>
   </g>
   <g id="patch_10">
    <path d="M 179.876115 251.230272 
L 198.205006 251.230272 
L 198.205006 13.658672 
L 179.876115 13.658672 
z
" clip-path="url(#paef032b130)" style="fill: #228b22; stroke: #ffffff; stroke-linejoin: miter"/>
   </g>
   <g id="patch_11">
    <path d="M 210.424266 530.118672 
L 228.753157 530.118672 
L 228.753157 116.950672 
L 210.424266 116.950672 
z
" clip-path="url(#paef032b130)" style="fill: #cd5c5c; stroke: #ffffff; stroke-linejoin: miter"/>
   </g>
   <g id="patch_12">
    <path d="M 210.424266 116.950672 
L 228.753157 116.950672 
L 228.753157 13.658672 
L 210.424266 13.658672 
z
" clip-path="url(#paef032b130)" style="fill: #228b22; stroke: #ffffff; stroke-linejoin: miter"/>
   </g>
   <g id="patch_13">
    <path d="M 240.972417 530.118672 
L 259.301308 530.118672 
L 259.301308 401.003672 
L 240.972417 401.003672 
z
" clip-path="url(#paef032b130)" style="fill: #cd5c5c; stroke: #ffffff; stroke-linejoin: miter"/>
   </g>
   <g id="patch_14">
    <path d="M 240.972417 401.003672 
L 259.301308 401.003672 
L 259.301308 13.658672 
L 240.972417 13.658672 
z
" clip-path="url(#paef032b130)" style="fill: #228b22; stroke: #ffffff; stroke-linejoin: miter"/>
   </g>
   <g id="patch_15">
    <path d="M 271.520568 530.118672 
L 289.849459 530.118672 
L 289.849459 13.658672 
L 271.520568 13.658672 
z
" clip-path="url(#paef032b130)" style="fill: #cd5c5c; stroke: #ffffff; stroke-linejoin: miter"/>
   </g>
   <g id="patch_16">
    <path d="M 271.520568 13.658672 
L 289.849459 13.658672 
L 289.849459 13.658672 
L 271.520568 13.658672 
z
" clip-path="url(#paef032b130)" style="fill: #228b22; stroke: #ffffff; stroke-linejoin: miter"/>
   </g>
   <g id="patch_17">
    <path d="M 302.068719 530.118672 
L 320.39761 530.118672 
L 320.39761 354.522272 
L 302.068719 354.522272 
z
" clip-path="url(#paef032b130)" style="fill: #cd5c5c; stroke: #ffffff; stroke-linejoin: miter"/>
   </g>
   <g id="patch_18">
    <path d="M 302.068719 354.522272 
L 320.39761 354.522272 
L 320.39761 13.658672 
L 302.068719 13.658672 
z
" clip-path="url(#paef032b130)" style="fill: #228b22; stroke: #ffffff; stroke-linejoin: miter"/>
   </g>
   <g id="patch_19">
    <path d="M 332.61687 530.118672 
L 350.945761 530.118672 
L 350.945761 13.658672 
L 332.61687 13.658672 
z
" clip-path="url(#paef032b130)" style="fill: #cd5c5c; stroke: #ffffff; stroke-linejoin: miter"/>
   </g>
   <g id="patch_20">
    <path d="M 332.61687 13.658672 
L 350.945761 13.658672 
L 350.945761 13.658672 
L 332.61687 13.658672 
z
" clip-path="url(#paef032b130)" style="fill: #228b22; stroke: #ffffff; stroke-linejoin: miter"/>
   </g>
   <g id="patch_21">
    <path d="M 363.165021 530.118672 
L 381.493912 530.118672 
L 381.493912 13.658672 
L 363.165021 13.658672 
z
" clip-path="url(#paef032b130)" style="fill: #cd5c5c; stroke: #ffffff; stroke-linejoin: miter"/>
   </g>
   <g id="patch_22">
    <path d="M 363.165021 13.658672 
L 381.493912 13.658672 
L 381.493912 13.658672 
L 363.165021 13.658672 
z
" clip-path="url(#paef032b130)" style="fill: #228b22; stroke: #ffffff; stroke-linejoin: miter"/>
   </g>
   <g id="patch_23">
    <path d="M 393.713172 530.118672 
L 412.042063 530.118672 
L 412.042063 385.509872 
L 393.713172 385.509872 
z
" clip-path="url(#paef032b130)" style="fill: #cd5c5c; stroke: #ffffff; stroke-linejoin: miter"/>
   </g>
   <g id="patch_24">
    <path d="M 393.713172 385.509872 
L 412.042063 385.509872 
L 412.042063 13.658672 
L 393.713172 13.658672 
z
" clip-path="url(#paef032b130)" style="fill: #228b22; stroke: #ffffff; stroke-linejoin: miter"/>
   </g>
   <g id="patch_25">
    <path d="M 424.261323 530.118672 
L 442.590214 530.118672 
L 442.590214 13.658672 
L 424.261323 13.658672 
z
" clip-path="url(#paef032b130)" style="fill: #cd5c5c; stroke: #ffffff; stroke-linejoin: miter"/>
   </g>
   <g id="patch_26">
    <path d="M 424.261323 13.658672 
L 442.590214 13.658672 
L 442.590214 13.658672 
L 424.261323 13.658672 
z
" clip-path="url(#paef032b130)" style="fill: #228b22; stroke: #ffffff; stroke-linejoin: miter"/>
   </g>
   <g id="patch_27">
    <path d="M 454.809474 530.118672 
L 473.138365 530.118672 
L 473.138365 13.658672 
L 454.809474 13.658672 
z
" clip-path="url(#paef032b130)" style="fill: #cd5c5c; stroke: #ffffff; stroke-linejoin: miter"/>
   </g>
   <g id="patch_28">
    <path d="M 454.809474 13.658672 
L 473.138365 13.658672 
L 473.138365 13.658672 
L 454.809474 13.658672 
z
" clip-path="url(#paef032b130)" style="fill: #228b22; stroke: #ffffff; stroke-linejoin: miter"/>
   </g>
   <g id="patch_29">
    <path d="M 485.357625 530.118672 
L 503.686516 530.118672 
L 503.686516 13.658672 
L 485.357625 13.658672 
z
" clip-path="url(#paef032b130)" style="fill: #cd5c5c; stroke: #ffffff; stroke-linejoin: miter"/>
   </g>
   <g id="patch_30">
    <path d="M 485.357625 13.658672 
L 503.686516 13.658672 
L 503.686516 13.658672 
L 485.357625 13.658672 
z
" clip-path="url(#paef032b130)" style="fill: #228b22; stroke: #ffffff; stroke-linejoin: miter"/>
   </g>
   <g id="patch_31">
    <path d="M 515.905776 530.118672 
L 534.234667 530.118672 
L 534.234667 178.925872 
L 515.905776 178.925872 
z
" clip-path="url(#paef032b130)" style="fill: #cd5c5c; stroke: #ffffff; stroke-linejoin: miter"/>
   </g>
   <g id="patch_32">
    <path d="M 515.905776 178.925872 
L 534.234667 178.925872 
L 534.234667 13.658672 
L 515.905776 13.658672 
z
" clip-path="url(#paef032b130)" style="fill: #228b22; stroke: #ffffff; stroke-linejoin: miter"/>
   </g>
   <g id="patch_33">
    <path d="M 546.453927 530.118672 
L 564.782818 530.118672 
L 564.782818 390.674472 
L 546.453927 390.674472 
z
" clip-path="url(#paef032b130)" style="fill: #cd5c5c; stroke: #ffffff; stroke-linejoin: miter"/>
   </g>
   <g id="patch_34">
    <path d="M 546.453927 390.674472 
L 564.782818 390.674472 
L 564.782818 13.658672 
L 546.453927 13.658672 
z
" clip-path="url(#paef032b130)" style="fill: #228b22; stroke: #ffffff; stroke-linejoin: miter"/>
   </g>
   <g id="patch_35">
    <path d="M 577.002078 530.118672 
L 595.330969 530.118672 
L 595.330969 13.658672 
L 577.002078 13.658672 
z
" clip-path="url(#paef032b130)" style="fill: #cd5c5c; stroke: #ffffff; stroke-linejoin: miter"/>
   </g>
   <g id="patch_36">
    <path d="M 577.002078 13.658672 
L 595.330969 13.658672 
L 595.330969 13.658672 
L 577.002078 13.658672 
z
" clip-path="url(#paef032b130)" style="fill: #228b22; stroke: #ffffff; stroke-linejoin: miter"/>
   </g>
   <g id="patch_37">
    <path d="M 607.550229 530.118672 
L 625.87912 530.118672 
L 625.87912 147.938272 
L 607.550229 147.938272 
z
" clip-path="url(#paef032b130)" style="fill: #cd5c5c; stroke: #ffffff; stroke-linejoin: miter"/>
   </g>
   <g id="patch_38">
    <path d="M 607.550229 147.938272 
L 625.87912 147.938272 
L 625.87912 13.658672 
L 607.550229 13.658672 
z
" clip-path="url(#paef032b130)" style="fill: #228b22; stroke: #ffffff; stroke-linejoin: miter"/>
   </g>
   <g id="patch_39">
    <path d="M 638.09838 530.118672 
L 656.427271 530.118672 
L 656.427271 49.810872 
L 638.09838 49.810872 
z
" clip-path="url(#paef032b130)" style="fill: #cd5c5c; stroke: #ffffff; stroke-linejoin: miter"/>
   </g>
   <g id="patch_40">
    <path d="M 638.09838 49.810872 
L 656.427271 49.810872 
L 656.427271 13.658672 
L 638.09838 13.658672 
z
" clip-path="url(#paef032b130)" style="fill: #228b22; stroke: #ffffff; stroke-linejoin: miter"/>
   </g>
   <g id="patch_41">
    <path d="M 668.646531 530.118672 
L 686.975422 530.118672 
L 686.975422 13.658672 
L 668.646531 13.658672 
z
" clip-path="url(#paef032b130)" style="fill: #cd5c5c; stroke: #ffffff; stroke-linejoin: miter"/>
   </g>
   <g id="patch_42">
    <path d="M 668.646531 13.658672 
L 686.975422 13.658672 
L 686.975422 13.658672 
L 668.646531 13.658672 
z
" clip-path="url(#paef032b130)" style="fill: #228b22; stroke: #ffffff; stroke-linejoin: miter"/>
   </g>
   <g id="patch_43">
    <path d="M 699.194682 530.118672 
L 717.523573 530.118672 
L 717.523573 13.658672 
L 699.194682 13.658672 
z
" clip-path="url(#paef032b130)" style="fill: #cd5c5c; stroke: #ffffff; stroke-linejoin: miter"/>
   </g>
   <g id="patch_44">
    <path d="M 699.194682 13.658672 
L 717.523573 13.658672 
L 717.523573 13.658672 
L 699.194682 13.658672 
z
" clip-path="url(#paef032b130)" style="fill: #228b22; stroke: #ffffff; stroke-linejoin: miter"/>
   </g>
   <g id="patch_45">
    <path d="M 729.742833 530.118672 
L 748.071724 530.118672 
L 748.071724 13.658672 
L 729.742833 13.658672 
z
" clip-path="url(#paef032b130)" style="fill: #cd5c5c; stroke: #ffffff; stroke-linejoin: miter"/>
   </g>
   <g id="patch_46">
    <path d="M 729.742833 13.658672 
L 748.071724 13.658672 
L 748.071724 13.658672 
L 729.742833 13.658672 
z
" clip-path="url(#paef032b130)" style="fill: #228b22; stroke: #ffffff; stroke-linejoin: miter"/>
   </g>
   <g id="patch_47">
    <path d="M 760.290984 530.118672 
L 778.619875 530.118672 
L 778.619875 13.658672 
L 760.290984 13.658672 
z
" clip-path="url(#paef032b130)" style="fill: #cd5c5c; stroke: #ffffff; stroke-linejoin: miter"/>
   </g>
   <g id="patch_48">
    <path d="M 760.290984 13.658672 
L 778.619875 13.658672 
L 778.619875 13.658672 
L 760.290984 13.658672 
z
" clip-path="url(#paef032b130)" style="fill: #228b22; stroke: #ffffff; stroke-linejoin: miter"/>
   </g>
   <g id="patch_49">
    <path d="M 790.839135 530.118672 
L 809.168026 530.118672 
L 809.168026 13.658672 
L 790.839135 13.658672 
z
" clip-path="url(#paef032b130)" style="fill: #cd5c5c; stroke: #ffffff; stroke-linejoin: miter"/>
   </g>
   <g id="patch_50">
    <path d="M 790.839135 13.658672 
L 809.168026 13.658672 
L 809.168026 13.658672 
L 790.839135 13.658672 
z
" clip-path="url(#paef032b130)" style="fill: #228b22; stroke: #ffffff; stroke-linejoin: miter"/>
   </g>
   <g id="patch_51">
    <path d="M 52.184844 530.118672 
L 52.184844 13.658672 
" style="fill: none; stroke: #cccccc; stroke-width: 1.25; stroke-linejoin: miter; stroke-linecap: square"/>
   </g>
   <g id="patch_52">
    <path d="M 845.214844 530.118672 
L 845.214844 13.658672 
" style="fill: none; stroke: #cccccc; stroke-width: 1.25; stroke-linejoin: miter; stroke-linecap: square"/>
   </g>
   <g id="patch_53">
    <path d="M 52.184844 530.118672 
L 845.214844 530.118672 
" style="fill: none; stroke: #cccccc; stroke-width: 1.25; stroke-linejoin: miter; stroke-linecap: square"/>
   </g>
   <g id="patch_54">
    <path d="M 52.184844 13.658672 
L 845.214844 13.658672 
" style="fill: none; stroke: #cccccc; stroke-width: 1.25; stroke-linejoin: miter; stroke-linecap: square"/>
   </g>
   <g id="line2d_31">
    <path d="M 52.184844 116.950672 
L 845.214844 116.950672 
" clip-path="url(#paef032b130)" style="fill: none; stroke-dasharray: 5.55,2.4; stroke-dashoffset: 0; stroke: #000000; stroke-opacity: 0.9; stroke-width: 1.5"/>
   </g>
  </g>
 </g>
 <defs>
  <clipPath id="paef032b130">
   <rect x="52.184844" y="13.658672" width="793.03" height="516.46"/>
  </clipPath>
 </defs>
</svg>
