<?xml version="1.0" encoding="UTF-8"?>
<svg id="Ebene_1" data-name="Ebene 1" xmlns="http://www.w3.org/2000/svg" viewBox="0 0 1024 1024">
  <defs>
    <style>
      .cls-1 {
        fill: #f5c537;
        stroke-width: 0px;
      }
    </style>
  </defs>
  <path class="cls-1" d="m480.26,238.6l-34.23,34.23v61.68l34.68,34.26,98.37-1.19,33.72-33.28,1.53-60.54-34.28-35.16h-99.78Zm94.6,79.27l-11.71,11.56-66.89.81-11.89-11.75v-29.78l11.77-11.77h67.74l11.71,12.01-.73,28.92Z"/>
  <rect class="cls-1" x="547.97" y="611.94" width="92.01" height="38.34"/>
  <path class="cls-1" d="m741.35,291.21l-21.3-74.65-36.26-9.26-2.06-36.6-60.09-37.7-34.24,9.04-22.84-26.02h-71.81l-20.47,26.01-34.62-13.74-58.05,25.28-12.74,35.71-44.55,2.23-35.24,76.77,22.5,37.11-20.84,31.67,9.59,66.99,41.35,13.68.4,42.97,64.05,36.91,30.03-9.37,21.8,26.93v164.06h-35.25v-19.09h-72.84v38.34h72.55v19.09h35.54v116.04h-173.34v38.34h77.96v36.03h229.1v-36.03h74.78v-38.34h-170.16v-152.59h53.68v-30.61h-53.68v-135.19h42.53l25.13-24.4,27.75,11.09,69.38-25.05,6.74-40.83,41.85-4.26,27.43-67.44-17.74-38.51,23.96-34.6Zm-48.05,74.06l-12.46,30.64-48.09,4.9-7.85,47.58-34.48,12.45-37.31-14.91-31.83,30.9h-46.95l-26.71-32.99-38.87,12.13-30.48-17.56-.45-48.49-44.85-14.83-4.16-29.06,26.17-39.78-24.51-40.44,17.03-37.11,46.92-2.35,15.77-44.22,28.16-12.26,46.39,18.41,26.65-33.87h35.79l27.05,30.81,41.11-10.86,29.18,18.3,2.52,44.86,42.14,10.76,10.27,35.99-26.1,37.69,19.95,43.3Z"/>
</svg>