<?xml version="1.0" encoding="utf-8" standalone="no"?>
<!DOCTYPE svg PUBLIC "-//W3C//DTD SVG 1.1//EN"
  "http://www.w3.org/Graphics/SVG/1.1/DTD/svg11.dtd">
<svg xmlns:xlink="http://www.w3.org/1999/xlink" width="828.603887pt" height="525.833875pt" viewBox="0 0 828.603887 525.833875" xmlns="http://www.w3.org/2000/svg" version="1.1">
 <metadata>
  <rdf:RDF xmlns:dc="http://purl.org/dc/elements/1.1/" xmlns:cc="http://creativecommons.org/ns#" xmlns:rdf="http://www.w3.org/1999/02/22-rdf-syntax-ns#">
   <cc:Work>
    <dc:type rdf:resource="http://purl.org/dc/dcmitype/StillImage"/>
    <dc:date>2025-06-19T18:43:15.856402</dc:date>
    <dc:format>image/svg+xml</dc:format>
    <dc:creator>
     <cc:Agent>
      <dc:title>Matplotlib v3.10.0, https://matplotlib.org/</dc:title>
     </cc:Agent>
    </dc:creator>
   </cc:Work>
  </rdf:RDF>
 </metadata>
 <defs>
  <style type="text/css">*{stroke-linejoin: round; stroke-linecap: butt}</style>
 </defs>
 <g id="figure_1">
  <g id="patch_1">
   <path d="M 0 525.833875 
L 828.603887 525.833875 
L 828.603887 0 
L 0 0 
z
" style="fill: #ffffff"/>
  </g>
  <g id="axes_1">
   <g id="patch_2">
    <path d="M 81.335313 469.421813 
L 690.689313 469.421813 
L 690.689313 23.837812 
L 81.335313 23.837812 
z
" style="fill: #ffffff"/>
   </g>
   <g id="matplotlib.axis_1">
    <g id="xtick_1">
     <g id="line2d_1">
      <defs>
       <path id="mc4b5475bb1" d="M 0 0 
L 0 9 
" style="stroke: #262626; stroke-width: 1.875"/>
      </defs>
      <g>
       <use xlink:href="#mc4b5475bb1" x="164.42904" y="469.421813" style="fill: #262626; stroke: #262626; stroke-width: 1.875"/>
      </g>
     </g>
     <g id="text_1">
      <!-- 0.96 -->
      <g style="fill: #262626" transform="translate(142.386071 496.966719) scale(0.198 -0.198)">
       <defs>
        <path id="DejaVuSans-30" d="M 2034 4250 
Q 1547 4250 1301 3770 
Q 1056 3291 1056 2328 
Q 1056 1369 1301 889 
Q 1547 409 2034 409 
Q 2525 409 2770 889 
Q 3016 1369 3016 2328 
Q 3016 3291 2770 3770 
Q 2525 4250 2034 4250 
z
M 2034 4750 
Q 2819 4750 3233 4129 
Q 3647 3509 3647 2328 
Q 3647 1150 3233 529 
Q 2819 -91 2034 -91 
Q 1250 -91 836 529 
Q 422 1150 422 2328 
Q 422 3509 836 4129 
Q 1250 4750 2034 4750 
z
" transform="scale(0.015625)"/>
        <path id="DejaVuSans-2e" d="M 684 794 
L 1344 794 
L 1344 0 
L 684 0 
L 684 794 
z
" transform="scale(0.015625)"/>
        <path id="DejaVuSans-39" d="M 703 97 
L 703 672 
Q 941 559 1184 500 
Q 1428 441 1663 441 
Q 2288 441 2617 861 
Q 2947 1281 2994 2138 
Q 2813 1869 2534 1725 
Q 2256 1581 1919 1581 
Q 1219 1581 811 2004 
Q 403 2428 403 3163 
Q 403 3881 828 4315 
Q 1253 4750 1959 4750 
Q 2769 4750 3195 4129 
Q 3622 3509 3622 2328 
Q 3622 1225 3098 567 
Q 2575 -91 1691 -91 
Q 1453 -91 1209 -44 
Q 966 3 703 97 
z
M 1959 2075 
Q 2384 2075 2632 2365 
Q 2881 2656 2881 3163 
Q 2881 3666 2632 3958 
Q 2384 4250 1959 4250 
Q 1534 4250 1286 3958 
Q 1038 3666 1038 3163 
Q 1038 2656 1286 2365 
Q 1534 2075 1959 2075 
z
" transform="scale(0.015625)"/>
        <path id="DejaVuSans-36" d="M 2113 2584 
Q 1688 2584 1439 2293 
Q 1191 2003 1191 1497 
Q 1191 994 1439 701 
Q 1688 409 2113 409 
Q 2538 409 2786 701 
Q 3034 994 3034 1497 
Q 3034 2003 2786 2293 
Q 2538 2584 2113 2584 
z
M 3366 4563 
L 3366 3988 
Q 3128 4100 2886 4159 
Q 2644 4219 2406 4219 
Q 1781 4219 1451 3797 
Q 1122 3375 1075 2522 
Q 1259 2794 1537 2939 
Q 1816 3084 2150 3084 
Q 2853 3084 3261 2657 
Q 3669 2231 3669 1497 
Q 3669 778 3244 343 
Q 2819 -91 2113 -91 
Q 1303 -91 875 529 
Q 447 1150 447 2328 
Q 447 3434 972 4092 
Q 1497 4750 2381 4750 
Q 2619 4750 2861 4703 
Q 3103 4656 3366 4563 
z
" transform="scale(0.015625)"/>
       </defs>
       <use xlink:href="#DejaVuSans-30"/>
       <use xlink:href="#DejaVuSans-2e" transform="translate(63.623047 0)"/>
       <use xlink:href="#DejaVuSans-39" transform="translate(95.410156 0)"/>
       <use xlink:href="#DejaVuSans-36" transform="translate(159.033203 0)"/>
      </g>
     </g>
    </g>
    <g id="xtick_2">
     <g id="line2d_2">
      <g>
       <use xlink:href="#mc4b5475bb1" x="275.220676" y="469.421813" style="fill: #262626; stroke: #262626; stroke-width: 1.875"/>
      </g>
     </g>
     <g id="text_2">
      <!-- 0.98 -->
      <g style="fill: #262626" transform="translate(253.177707 496.966719) scale(0.198 -0.198)">
       <defs>
        <path id="DejaVuSans-38" d="M 2034 2216 
Q 1584 2216 1326 1975 
Q 1069 1734 1069 1313 
Q 1069 891 1326 650 
Q 1584 409 2034 409 
Q 2484 409 2743 651 
Q 3003 894 3003 1313 
Q 3003 1734 2745 1975 
Q 2488 2216 2034 2216 
z
M 1403 2484 
Q 997 2584 770 2862 
Q 544 3141 544 3541 
Q 544 4100 942 4425 
Q 1341 4750 2034 4750 
Q 2731 4750 3128 4425 
Q 3525 4100 3525 3541 
Q 3525 3141 3298 2862 
Q 3072 2584 2669 2484 
Q 3125 2378 3379 2068 
Q 3634 1759 3634 1313 
Q 3634 634 3220 271 
Q 2806 -91 2034 -91 
Q 1263 -91 848 271 
Q 434 634 434 1313 
Q 434 1759 690 2068 
Q 947 2378 1403 2484 
z
M 1172 3481 
Q 1172 3119 1398 2916 
Q 1625 2713 2034 2713 
Q 2441 2713 2670 2916 
Q 2900 3119 2900 3481 
Q 2900 3844 2670 4047 
Q 2441 4250 2034 4250 
Q 1625 4250 1398 4047 
Q 1172 3844 1172 3481 
z
" transform="scale(0.015625)"/>
       </defs>
       <use xlink:href="#DejaVuSans-30"/>
       <use xlink:href="#DejaVuSans-2e" transform="translate(63.623047 0)"/>
       <use xlink:href="#DejaVuSans-39" transform="translate(95.410156 0)"/>
       <use xlink:href="#DejaVuSans-38" transform="translate(159.033203 0)"/>
      </g>
     </g>
    </g>
    <g id="xtick_3">
     <g id="line2d_3">
      <g>
       <use xlink:href="#mc4b5475bb1" x="386.012313" y="469.421813" style="fill: #262626; stroke: #262626; stroke-width: 1.875"/>
      </g>
     </g>
     <g id="text_3">
      <!-- 1.00 -->
      <g style="fill: #262626" transform="translate(363.969344 496.966719) scale(0.198 -0.198)">
       <defs>
        <path id="DejaVuSans-31" d="M 794 531 
L 1825 531 
L 1825 4091 
L 703 3866 
L 703 4441 
L 1819 4666 
L 2450 4666 
L 2450 531 
L 3481 531 
L 3481 0 
L 794 0 
L 794 531 
z
" transform="scale(0.015625)"/>
       </defs>
       <use xlink:href="#DejaVuSans-31"/>
       <use xlink:href="#DejaVuSans-2e" transform="translate(63.623047 0)"/>
       <use xlink:href="#DejaVuSans-30" transform="translate(95.410156 0)"/>
       <use xlink:href="#DejaVuSans-30" transform="translate(159.033203 0)"/>
      </g>
     </g>
    </g>
    <g id="xtick_4">
     <g id="line2d_4">
      <g>
       <use xlink:href="#mc4b5475bb1" x="496.803949" y="469.421813" style="fill: #262626; stroke: #262626; stroke-width: 1.875"/>
      </g>
     </g>
     <g id="text_4">
      <!-- 1.02 -->
      <g style="fill: #262626" transform="translate(474.76098 496.966719) scale(0.198 -0.198)">
       <defs>
        <path id="DejaVuSans-32" d="M 1228 531 
L 3431 531 
L 3431 0 
L 469 0 
L 469 531 
Q 828 903 1448 1529 
Q 2069 2156 2228 2338 
Q 2531 2678 2651 2914 
Q 2772 3150 2772 3378 
Q 2772 3750 2511 3984 
Q 2250 4219 1831 4219 
Q 1534 4219 1204 4116 
Q 875 4013 500 3803 
L 500 4441 
Q 881 4594 1212 4672 
Q 1544 4750 1819 4750 
Q 2544 4750 2975 4387 
Q 3406 4025 3406 3419 
Q 3406 3131 3298 2873 
Q 3191 2616 2906 2266 
Q 2828 2175 2409 1742 
Q 1991 1309 1228 531 
z
" transform="scale(0.015625)"/>
       </defs>
       <use xlink:href="#DejaVuSans-31"/>
       <use xlink:href="#DejaVuSans-2e" transform="translate(63.623047 0)"/>
       <use xlink:href="#DejaVuSans-30" transform="translate(95.410156 0)"/>
       <use xlink:href="#DejaVuSans-32" transform="translate(159.033203 0)"/>
      </g>
     </g>
    </g>
    <g id="xtick_5">
     <g id="line2d_5">
      <g>
       <use xlink:href="#mc4b5475bb1" x="607.595585" y="469.421813" style="fill: #262626; stroke: #262626; stroke-width: 1.875"/>
      </g>
     </g>
     <g id="text_5">
      <!-- 1.04 -->
      <g style="fill: #262626" transform="translate(585.552616 496.966719) scale(0.198 -0.198)">
       <defs>
        <path id="DejaVuSans-34" d="M 2419 4116 
L 825 1625 
L 2419 1625 
L 2419 4116 
z
M 2253 4666 
L 3047 4666 
L 3047 1625 
L 3713 1625 
L 3713 1100 
L 3047 1100 
L 3047 0 
L 2419 0 
L 2419 1100 
L 313 1100 
L 313 1709 
L 2253 4666 
z
" transform="scale(0.015625)"/>
       </defs>
       <use xlink:href="#DejaVuSans-31"/>
       <use xlink:href="#DejaVuSans-2e" transform="translate(63.623047 0)"/>
       <use xlink:href="#DejaVuSans-30" transform="translate(95.410156 0)"/>
       <use xlink:href="#DejaVuSans-34" transform="translate(159.033203 0)"/>
      </g>
     </g>
    </g>
    <g id="text_6">
     <!-- Server Round -->
     <g style="fill: #262626" transform="translate(332.395594 515.722313) scale(0.14 -0.14)">
      <defs>
       <path id="DejaVuSans-Bold-53" d="M 3834 4519 
L 3834 3531 
Q 3450 3703 3084 3790 
Q 2719 3878 2394 3878 
Q 1963 3878 1756 3759 
Q 1550 3641 1550 3391 
Q 1550 3203 1689 3098 
Q 1828 2994 2194 2919 
L 2706 2816 
Q 3484 2659 3812 2340 
Q 4141 2022 4141 1434 
Q 4141 663 3683 286 
Q 3225 -91 2284 -91 
Q 1841 -91 1394 -6 
Q 947 78 500 244 
L 500 1259 
Q 947 1022 1364 901 
Q 1781 781 2169 781 
Q 2563 781 2772 912 
Q 2981 1044 2981 1288 
Q 2981 1506 2839 1625 
Q 2697 1744 2272 1838 
L 1806 1941 
Q 1106 2091 782 2419 
Q 459 2747 459 3303 
Q 459 4000 909 4375 
Q 1359 4750 2203 4750 
Q 2588 4750 2994 4692 
Q 3400 4634 3834 4519 
z
" transform="scale(0.015625)"/>
       <path id="DejaVuSans-Bold-65" d="M 4031 1759 
L 4031 1441 
L 1416 1441 
Q 1456 1047 1700 850 
Q 1944 653 2381 653 
Q 2734 653 3104 758 
Q 3475 863 3866 1075 
L 3866 213 
Q 3469 63 3072 -14 
Q 2675 -91 2278 -91 
Q 1328 -91 801 392 
Q 275 875 275 1747 
Q 275 2603 792 3093 
Q 1309 3584 2216 3584 
Q 3041 3584 3536 3087 
Q 4031 2591 4031 1759 
z
M 2881 2131 
Q 2881 2450 2695 2645 
Q 2509 2841 2209 2841 
Q 1884 2841 1681 2658 
Q 1478 2475 1428 2131 
L 2881 2131 
z
" transform="scale(0.015625)"/>
       <path id="DejaVuSans-Bold-72" d="M 3138 2547 
Q 2991 2616 2845 2648 
Q 2700 2681 2553 2681 
Q 2122 2681 1889 2404 
Q 1656 2128 1656 1613 
L 1656 0 
L 538 0 
L 538 3500 
L 1656 3500 
L 1656 2925 
Q 1872 3269 2151 3426 
Q 2431 3584 2822 3584 
Q 2878 3584 2943 3579 
Q 3009 3575 3134 3559 
L 3138 2547 
z
" transform="scale(0.015625)"/>
       <path id="DejaVuSans-Bold-76" d="M 97 3500 
L 1216 3500 
L 2088 1081 
L 2956 3500 
L 4078 3500 
L 2700 0 
L 1472 0 
L 97 3500 
z
" transform="scale(0.015625)"/>
       <path id="DejaVuSans-Bold-20" transform="scale(0.015625)"/>
       <path id="DejaVuSans-Bold-52" d="M 2297 2597 
Q 2675 2597 2839 2737 
Q 3003 2878 3003 3200 
Q 3003 3519 2839 3656 
Q 2675 3794 2297 3794 
L 1791 3794 
L 1791 2597 
L 2297 2597 
z
M 1791 1766 
L 1791 0 
L 588 0 
L 588 4666 
L 2425 4666 
Q 3347 4666 3776 4356 
Q 4206 4047 4206 3378 
Q 4206 2916 3982 2619 
Q 3759 2322 3309 2181 
Q 3556 2125 3751 1926 
Q 3947 1728 4147 1325 
L 4800 0 
L 3519 0 
L 2950 1159 
Q 2778 1509 2601 1637 
Q 2425 1766 2131 1766 
L 1791 1766 
z
" transform="scale(0.015625)"/>
       <path id="DejaVuSans-Bold-6f" d="M 2203 2784 
Q 1831 2784 1636 2517 
Q 1441 2250 1441 1747 
Q 1441 1244 1636 976 
Q 1831 709 2203 709 
Q 2569 709 2762 976 
Q 2956 1244 2956 1747 
Q 2956 2250 2762 2517 
Q 2569 2784 2203 2784 
z
M 2203 3584 
Q 3106 3584 3614 3096 
Q 4122 2609 4122 1747 
Q 4122 884 3614 396 
Q 3106 -91 2203 -91 
Q 1297 -91 786 396 
Q 275 884 275 1747 
Q 275 2609 786 3096 
Q 1297 3584 2203 3584 
z
" transform="scale(0.015625)"/>
       <path id="DejaVuSans-Bold-75" d="M 500 1363 
L 500 3500 
L 1625 3500 
L 1625 3150 
Q 1625 2866 1622 2436 
Q 1619 2006 1619 1863 
Q 1619 1441 1641 1255 
Q 1663 1069 1716 984 
Q 1784 875 1895 815 
Q 2006 756 2150 756 
Q 2500 756 2700 1025 
Q 2900 1294 2900 1772 
L 2900 3500 
L 4019 3500 
L 4019 0 
L 2900 0 
L 2900 506 
Q 2647 200 2364 54 
Q 2081 -91 1741 -91 
Q 1134 -91 817 281 
Q 500 653 500 1363 
z
" transform="scale(0.015625)"/>
       <path id="DejaVuSans-Bold-6e" d="M 4056 2131 
L 4056 0 
L 2931 0 
L 2931 347 
L 2931 1631 
Q 2931 2084 2911 2256 
Q 2891 2428 2841 2509 
Q 2775 2619 2662 2680 
Q 2550 2741 2406 2741 
Q 2056 2741 1856 2470 
Q 1656 2200 1656 1722 
L 1656 0 
L 538 0 
L 538 3500 
L 1656 3500 
L 1656 2988 
Q 1909 3294 2193 3439 
Q 2478 3584 2822 3584 
Q 3428 3584 3742 3212 
Q 4056 2841 4056 2131 
z
" transform="scale(0.015625)"/>
       <path id="DejaVuSans-Bold-64" d="M 2919 2988 
L 2919 4863 
L 4044 4863 
L 4044 0 
L 2919 0 
L 2919 506 
Q 2688 197 2409 53 
Q 2131 -91 1766 -91 
Q 1119 -91 703 423 
Q 288 938 288 1747 
Q 288 2556 703 3070 
Q 1119 3584 1766 3584 
Q 2128 3584 2408 3439 
Q 2688 3294 2919 2988 
z
M 2181 722 
Q 2541 722 2730 984 
Q 2919 1247 2919 1747 
Q 2919 2247 2730 2509 
Q 2541 2772 2181 2772 
Q 1825 2772 1636 2509 
Q 1447 2247 1447 1747 
Q 1447 1247 1636 984 
Q 1825 722 2181 722 
z
" transform="scale(0.015625)"/>
      </defs>
      <use xlink:href="#DejaVuSans-Bold-53"/>
      <use xlink:href="#DejaVuSans-Bold-65" transform="translate(72.021484 0)"/>
      <use xlink:href="#DejaVuSans-Bold-72" transform="translate(139.84375 0)"/>
      <use xlink:href="#DejaVuSans-Bold-76" transform="translate(189.160156 0)"/>
      <use xlink:href="#DejaVuSans-Bold-65" transform="translate(254.345703 0)"/>
      <use xlink:href="#DejaVuSans-Bold-72" transform="translate(322.167969 0)"/>
      <use xlink:href="#DejaVuSans-Bold-20" transform="translate(371.484375 0)"/>
      <use xlink:href="#DejaVuSans-Bold-52" transform="translate(406.298828 0)"/>
      <use xlink:href="#DejaVuSans-Bold-6f" transform="translate(483.300781 0)"/>
      <use xlink:href="#DejaVuSans-Bold-75" transform="translate(552.001953 0)"/>
      <use xlink:href="#DejaVuSans-Bold-6e" transform="translate(623.193359 0)"/>
      <use xlink:href="#DejaVuSans-Bold-64" transform="translate(694.384766 0)"/>
     </g>
    </g>
   </g>
   <g id="matplotlib.axis_2">
    <g id="ytick_1">
     <g id="line2d_6">
      <defs>
       <path id="ma82c0a261e" d="M 0 0 
L -9 0 
" style="stroke: #262626; stroke-width: 1.875"/>
      </defs>
      <g>
       <use xlink:href="#ma82c0a261e" x="81.335313" y="449.167994" style="fill: #262626; stroke: #262626; stroke-width: 1.875"/>
      </g>
     </g>
     <g id="text_7">
      <!-- 0.01 -->
      <g style="fill: #262626" transform="translate(24.749375 456.690447) scale(0.198 -0.198)">
       <use xlink:href="#DejaVuSans-30"/>
       <use xlink:href="#DejaVuSans-2e" transform="translate(63.623047 0)"/>
       <use xlink:href="#DejaVuSans-30" transform="translate(95.410156 0)"/>
       <use xlink:href="#DejaVuSans-31" transform="translate(159.033203 0)"/>
      </g>
     </g>
    </g>
    <g id="ytick_2">
     <g id="line2d_7">
      <g>
       <use xlink:href="#ma82c0a261e" x="81.335313" y="368.152722" style="fill: #262626; stroke: #262626; stroke-width: 1.875"/>
      </g>
     </g>
     <g id="text_8">
      <!-- 0.02 -->
      <g style="fill: #262626" transform="translate(24.749375 375.675175) scale(0.198 -0.198)">
       <use xlink:href="#DejaVuSans-30"/>
       <use xlink:href="#DejaVuSans-2e" transform="translate(63.623047 0)"/>
       <use xlink:href="#DejaVuSans-30" transform="translate(95.410156 0)"/>
       <use xlink:href="#DejaVuSans-32" transform="translate(159.033203 0)"/>
      </g>
     </g>
    </g>
    <g id="ytick_3">
     <g id="line2d_8">
      <g>
       <use xlink:href="#ma82c0a261e" x="81.335313" y="287.137449" style="fill: #262626; stroke: #262626; stroke-width: 1.875"/>
      </g>
     </g>
     <g id="text_9">
      <!-- 0.03 -->
      <g style="fill: #262626" transform="translate(24.749375 294.659902) scale(0.198 -0.198)">
       <defs>
        <path id="DejaVuSans-33" d="M 2597 2516 
Q 3050 2419 3304 2112 
Q 3559 1806 3559 1356 
Q 3559 666 3084 287 
Q 2609 -91 1734 -91 
Q 1441 -91 1130 -33 
Q 819 25 488 141 
L 488 750 
Q 750 597 1062 519 
Q 1375 441 1716 441 
Q 2309 441 2620 675 
Q 2931 909 2931 1356 
Q 2931 1769 2642 2001 
Q 2353 2234 1838 2234 
L 1294 2234 
L 1294 2753 
L 1863 2753 
Q 2328 2753 2575 2939 
Q 2822 3125 2822 3475 
Q 2822 3834 2567 4026 
Q 2313 4219 1838 4219 
Q 1578 4219 1281 4162 
Q 984 4106 628 3988 
L 628 4550 
Q 988 4650 1302 4700 
Q 1616 4750 1894 4750 
Q 2613 4750 3031 4423 
Q 3450 4097 3450 3541 
Q 3450 3153 3228 2886 
Q 3006 2619 2597 2516 
z
" transform="scale(0.015625)"/>
       </defs>
       <use xlink:href="#DejaVuSans-30"/>
       <use xlink:href="#DejaVuSans-2e" transform="translate(63.623047 0)"/>
       <use xlink:href="#DejaVuSans-30" transform="translate(95.410156 0)"/>
       <use xlink:href="#DejaVuSans-33" transform="translate(159.033203 0)"/>
      </g>
     </g>
    </g>
    <g id="ytick_4">
     <g id="line2d_9">
      <g>
       <use xlink:href="#ma82c0a261e" x="81.335313" y="206.122176" style="fill: #262626; stroke: #262626; stroke-width: 1.875"/>
      </g>
     </g>
     <g id="text_10">
      <!-- 0.04 -->
      <g style="fill: #262626" transform="translate(24.749375 213.644629) scale(0.198 -0.198)">
       <use xlink:href="#DejaVuSans-30"/>
       <use xlink:href="#DejaVuSans-2e" transform="translate(63.623047 0)"/>
       <use xlink:href="#DejaVuSans-30" transform="translate(95.410156 0)"/>
       <use xlink:href="#DejaVuSans-34" transform="translate(159.033203 0)"/>
      </g>
     </g>
    </g>
    <g id="ytick_5">
     <g id="line2d_10">
      <g>
       <use xlink:href="#ma82c0a261e" x="81.335313" y="125.106903" style="fill: #262626; stroke: #262626; stroke-width: 1.875"/>
      </g>
     </g>
     <g id="text_11">
      <!-- 0.05 -->
      <g style="fill: #262626" transform="translate(24.749375 132.629357) scale(0.198 -0.198)">
       <defs>
        <path id="DejaVuSans-35" d="M 691 4666 
L 3169 4666 
L 3169 4134 
L 1269 4134 
L 1269 2991 
Q 1406 3038 1543 3061 
Q 1681 3084 1819 3084 
Q 2600 3084 3056 2656 
Q 3513 2228 3513 1497 
Q 3513 744 3044 326 
Q 2575 -91 1722 -91 
Q 1428 -91 1123 -41 
Q 819 9 494 109 
L 494 744 
Q 775 591 1075 516 
Q 1375 441 1709 441 
Q 2250 441 2565 725 
Q 2881 1009 2881 1497 
Q 2881 1984 2565 2268 
Q 2250 2553 1709 2553 
Q 1456 2553 1204 2497 
Q 953 2441 691 2322 
L 691 4666 
z
" transform="scale(0.015625)"/>
       </defs>
       <use xlink:href="#DejaVuSans-30"/>
       <use xlink:href="#DejaVuSans-2e" transform="translate(63.623047 0)"/>
       <use xlink:href="#DejaVuSans-30" transform="translate(95.410156 0)"/>
       <use xlink:href="#DejaVuSans-35" transform="translate(159.033203 0)"/>
      </g>
     </g>
    </g>
    <g id="ytick_6">
     <g id="line2d_11">
      <g>
       <use xlink:href="#ma82c0a261e" x="81.335313" y="44.091631" style="fill: #262626; stroke: #262626; stroke-width: 1.875"/>
      </g>
     </g>
     <g id="text_12">
      <!-- 0.06 -->
      <g style="fill: #262626" transform="translate(24.749375 51.614084) scale(0.198 -0.198)">
       <use xlink:href="#DejaVuSans-30"/>
       <use xlink:href="#DejaVuSans-2e" transform="translate(63.623047 0)"/>
       <use xlink:href="#DejaVuSans-30" transform="translate(95.410156 0)"/>
       <use xlink:href="#DejaVuSans-36" transform="translate(159.033203 0)"/>
      </g>
     </g>
    </g>
    <g id="text_13">
     <!-- F1 Score -->
     <g style="fill: #262626" transform="translate(17.837812 280.918875) rotate(-90) scale(0.14 -0.14)">
      <defs>
       <path id="DejaVuSans-Bold-46" d="M 588 4666 
L 3834 4666 
L 3834 3756 
L 1791 3756 
L 1791 2888 
L 3713 2888 
L 3713 1978 
L 1791 1978 
L 1791 0 
L 588 0 
L 588 4666 
z
" transform="scale(0.015625)"/>
       <path id="DejaVuSans-Bold-31" d="M 750 831 
L 1813 831 
L 1813 3847 
L 722 3622 
L 722 4441 
L 1806 4666 
L 2950 4666 
L 2950 831 
L 4013 831 
L 4013 0 
L 750 0 
L 750 831 
z
" transform="scale(0.015625)"/>
       <path id="DejaVuSans-Bold-63" d="M 3366 3391 
L 3366 2478 
Q 3138 2634 2908 2709 
Q 2678 2784 2431 2784 
Q 1963 2784 1702 2511 
Q 1441 2238 1441 1747 
Q 1441 1256 1702 982 
Q 1963 709 2431 709 
Q 2694 709 2930 787 
Q 3166 866 3366 1019 
L 3366 103 
Q 3103 6 2833 -42 
Q 2563 -91 2291 -91 
Q 1344 -91 809 395 
Q 275 881 275 1747 
Q 275 2613 809 3098 
Q 1344 3584 2291 3584 
Q 2566 3584 2833 3536 
Q 3100 3488 3366 3391 
z
" transform="scale(0.015625)"/>
      </defs>
      <use xlink:href="#DejaVuSans-Bold-46"/>
      <use xlink:href="#DejaVuSans-Bold-31" transform="translate(68.310547 0)"/>
      <use xlink:href="#DejaVuSans-Bold-20" transform="translate(137.890625 0)"/>
      <use xlink:href="#DejaVuSans-Bold-53" transform="translate(172.705078 0)"/>
      <use xlink:href="#DejaVuSans-Bold-63" transform="translate(244.726562 0)"/>
      <use xlink:href="#DejaVuSans-Bold-6f" transform="translate(304.003906 0)"/>
      <use xlink:href="#DejaVuSans-Bold-72" transform="translate(372.705078 0)"/>
      <use xlink:href="#DejaVuSans-Bold-65" transform="translate(422.021484 0)"/>
     </g>
    </g>
   </g>
   <g id="FillBetweenPolyCollection_1"/>
   <g id="FillBetweenPolyCollection_2"/>
   <g id="FillBetweenPolyCollection_3"/>
   <g id="FillBetweenPolyCollection_4"/>
   <g id="FillBetweenPolyCollection_5"/>
   <g id="FillBetweenPolyCollection_6"/>
   <g id="FillBetweenPolyCollection_7"/>
   <g id="FillBetweenPolyCollection_8"/>
   <g id="FillBetweenPolyCollection_9"/>
   <g id="FillBetweenPolyCollection_10"/>
   <g id="FillBetweenPolyCollection_11"/>
   <g id="FillBetweenPolyCollection_12"/>
   <g id="FillBetweenPolyCollection_13"/>
   <g id="FillBetweenPolyCollection_14"/>
   <g id="FillBetweenPolyCollection_15"/>
   <g id="FillBetweenPolyCollection_16"/>
   <g id="FillBetweenPolyCollection_17"/>
   <g id="FillBetweenPolyCollection_18"/>
   <g id="FillBetweenPolyCollection_19"/>
   <g id="FillBetweenPolyCollection_20"/>
   <g id="FillBetweenPolyCollection_21"/>
   <g id="FillBetweenPolyCollection_22"/>
   <g id="FillBetweenPolyCollection_23"/>
   <g id="FillBetweenPolyCollection_24"/>
   <g id="FillBetweenPolyCollection_25"/>
   <g id="line2d_12">
    <path d="M 386.012313 368.152722 
" clip-path="url(#p5b8eb72484)" style="fill: none; stroke: #a6cee3; stroke-opacity: 0.9; stroke-width: 0.7; stroke-linecap: round"/>
    <defs>
     <path id="m849184cb32" d="M 0 1.5 
C 0.397805 1.5 0.77937 1.341951 1.06066 1.06066 
C 1.341951 0.77937 1.5 0.397805 1.5 0 
C 1.5 -0.397805 1.341951 -0.77937 1.06066 -1.06066 
C 0.77937 -1.341951 0.397805 -1.5 0 -1.5 
C -0.397805 -1.5 -0.77937 -1.341951 -1.06066 -1.06066 
C -1.341951 -0.77937 -1.5 -0.397805 -1.5 0 
C -1.5 0.397805 -1.341951 0.77937 -1.06066 1.06066 
C -0.77937 1.341951 -0.397805 1.5 0 1.5 
z
" style="stroke: #ffffff; stroke-opacity: 0.9; stroke-width: 0.75"/>
    </defs>
    <g clip-path="url(#p5b8eb72484)">
     <use xlink:href="#m849184cb32" x="386.012313" y="368.152722" style="fill: #a6cee3; fill-opacity: 0.9; stroke: #ffffff; stroke-opacity: 0.9; stroke-width: 0.75"/>
    </g>
   </g>
   <g id="line2d_13">
    <path d="M 386.012313 287.137449 
" clip-path="url(#p5b8eb72484)" style="fill: none; stroke: #1f78b4; stroke-opacity: 0.9; stroke-width: 0.7; stroke-linecap: round"/>
    <defs>
     <path id="m4bf51a5fce" d="M 0 1.5 
C 0.397805 1.5 0.77937 1.341951 1.06066 1.06066 
C 1.341951 0.77937 1.5 0.397805 1.5 0 
C 1.5 -0.397805 1.341951 -0.77937 1.06066 -1.06066 
C 0.77937 -1.341951 0.397805 -1.5 0 -1.5 
C -0.397805 -1.5 -0.77937 -1.341951 -1.06066 -1.06066 
C -1.341951 -0.77937 -1.5 -0.397805 -1.5 0 
C -1.5 0.397805 -1.341951 0.77937 -1.06066 1.06066 
C -0.77937 1.341951 -0.397805 1.5 0 1.5 
z
" style="stroke: #ffffff; stroke-opacity: 0.9; stroke-width: 0.75"/>
    </defs>
    <g clip-path="url(#p5b8eb72484)">
     <use xlink:href="#m4bf51a5fce" x="386.012313" y="287.137449" style="fill: #1f78b4; fill-opacity: 0.9; stroke: #ffffff; stroke-opacity: 0.9; stroke-width: 0.75"/>
    </g>
   </g>
   <g id="line2d_14">
    <path d="M 386.012313 287.137449 
" clip-path="url(#p5b8eb72484)" style="fill: none; stroke: #b2df8a; stroke-opacity: 0.9; stroke-width: 0.7; stroke-linecap: round"/>
    <defs>
     <path id="m512a95096a" d="M 0 1.5 
C 0.397805 1.5 0.77937 1.341951 1.06066 1.06066 
C 1.341951 0.77937 1.5 0.397805 1.5 0 
C 1.5 -0.397805 1.341951 -0.77937 1.06066 -1.06066 
C 0.77937 -1.341951 0.397805 -1.5 0 -1.5 
C -0.397805 -1.5 -0.77937 -1.341951 -1.06066 -1.06066 
C -1.341951 -0.77937 -1.5 -0.397805 -1.5 0 
C -1.5 0.397805 -1.341951 0.77937 -1.06066 1.06066 
C -0.77937 1.341951 -0.397805 1.5 0 1.5 
z
" style="stroke: #ffffff; stroke-opacity: 0.9; stroke-width: 0.75"/>
    </defs>
    <g clip-path="url(#p5b8eb72484)">
     <use xlink:href="#m512a95096a" x="386.012313" y="287.137449" style="fill: #b2df8a; fill-opacity: 0.9; stroke: #ffffff; stroke-opacity: 0.9; stroke-width: 0.75"/>
    </g>
   </g>
   <g id="line2d_15">
    <path d="M 386.012313 206.122176 
" clip-path="url(#p5b8eb72484)" style="fill: none; stroke: #33a02c; stroke-opacity: 0.9; stroke-width: 0.7; stroke-linecap: round"/>
    <defs>
     <path id="mf94642d735" d="M 0 1.5 
C 0.397805 1.5 0.77937 1.341951 1.06066 1.06066 
C 1.341951 0.77937 1.5 0.397805 1.5 0 
C 1.5 -0.397805 1.341951 -0.77937 1.06066 -1.06066 
C 0.77937 -1.341951 0.397805 -1.5 0 -1.5 
C -0.397805 -1.5 -0.77937 -1.341951 -1.06066 -1.06066 
C -1.341951 -0.77937 -1.5 -0.397805 -1.5 0 
C -1.5 0.397805 -1.341951 0.77937 -1.06066 1.06066 
C -0.77937 1.341951 -0.397805 1.5 0 1.5 
z
" style="stroke: #ffffff; stroke-opacity: 0.9; stroke-width: 0.75"/>
    </defs>
    <g clip-path="url(#p5b8eb72484)">
     <use xlink:href="#mf94642d735" x="386.012313" y="206.122176" style="fill: #33a02c; fill-opacity: 0.9; stroke: #ffffff; stroke-opacity: 0.9; stroke-width: 0.75"/>
    </g>
   </g>
   <g id="line2d_16">
    <path d="M 386.012313 206.122176 
" clip-path="url(#p5b8eb72484)" style="fill: none; stroke: #fb9a99; stroke-opacity: 0.9; stroke-width: 0.7; stroke-linecap: round"/>
    <defs>
     <path id="mf594a98cef" d="M 0 1.5 
C 0.397805 1.5 0.77937 1.341951 1.06066 1.06066 
C 1.341951 0.77937 1.5 0.397805 1.5 0 
C 1.5 -0.397805 1.341951 -0.77937 1.06066 -1.06066 
C 0.77937 -1.341951 0.397805 -1.5 0 -1.5 
C -0.397805 -1.5 -0.77937 -1.341951 -1.06066 -1.06066 
C -1.341951 -0.77937 -1.5 -0.397805 -1.5 0 
C -1.5 0.397805 -1.341951 0.77937 -1.06066 1.06066 
C -0.77937 1.341951 -0.397805 1.5 0 1.5 
z
" style="stroke: #ffffff; stroke-opacity: 0.9; stroke-width: 0.75"/>
    </defs>
    <g clip-path="url(#p5b8eb72484)">
     <use xlink:href="#mf594a98cef" x="386.012313" y="206.122176" style="fill: #fb9a99; fill-opacity: 0.9; stroke: #ffffff; stroke-opacity: 0.9; stroke-width: 0.75"/>
    </g>
   </g>
   <g id="line2d_17">
    <path d="M 386.012313 368.152722 
" clip-path="url(#p5b8eb72484)" style="fill: none; stroke: #e31a1c; stroke-opacity: 0.9; stroke-width: 0.7; stroke-linecap: round"/>
    <defs>
     <path id="mb0e711babf" d="M 0 1.5 
C 0.397805 1.5 0.77937 1.341951 1.06066 1.06066 
C 1.341951 0.77937 1.5 0.397805 1.5 0 
C 1.5 -0.397805 1.341951 -0.77937 1.06066 -1.06066 
C 0.77937 -1.341951 0.397805 -1.5 0 -1.5 
C -0.397805 -1.5 -0.77937 -1.341951 -1.06066 -1.06066 
C -1.341951 -0.77937 -1.5 -0.397805 -1.5 0 
C -1.5 0.397805 -1.341951 0.77937 -1.06066 1.06066 
C -0.77937 1.341951 -0.397805 1.5 0 1.5 
z
" style="stroke: #ffffff; stroke-opacity: 0.9; stroke-width: 0.75"/>
    </defs>
    <g clip-path="url(#p5b8eb72484)">
     <use xlink:href="#mb0e711babf" x="386.012313" y="368.152722" style="fill: #e31a1c; fill-opacity: 0.9; stroke: #ffffff; stroke-opacity: 0.9; stroke-width: 0.75"/>
    </g>
   </g>
   <g id="line2d_18">
    <path d="M 386.012313 368.152722 
" clip-path="url(#p5b8eb72484)" style="fill: none; stroke: #fdbf6f; stroke-opacity: 0.9; stroke-width: 0.7; stroke-linecap: round"/>
    <defs>
     <path id="m14af24dec1" d="M 0 1.5 
C 0.397805 1.5 0.77937 1.341951 1.06066 1.06066 
C 1.341951 0.77937 1.5 0.397805 1.5 0 
C 1.5 -0.397805 1.341951 -0.77937 1.06066 -1.06066 
C 0.77937 -1.341951 0.397805 -1.5 0 -1.5 
C -0.397805 -1.5 -0.77937 -1.341951 -1.06066 -1.06066 
C -1.341951 -0.77937 -1.5 -0.397805 -1.5 0 
C -1.5 0.397805 -1.341951 0.77937 -1.06066 1.06066 
C -0.77937 1.341951 -0.397805 1.5 0 1.5 
z
" style="stroke: #ffffff; stroke-opacity: 0.9; stroke-width: 0.75"/>
    </defs>
    <g clip-path="url(#p5b8eb72484)">
     <use xlink:href="#m14af24dec1" x="386.012313" y="368.152722" style="fill: #fdbf6f; fill-opacity: 0.9; stroke: #ffffff; stroke-opacity: 0.9; stroke-width: 0.75"/>
    </g>
   </g>
   <g id="line2d_19">
    <path d="M 386.012313 287.137449 
" clip-path="url(#p5b8eb72484)" style="fill: none; stroke: #ff7f00; stroke-opacity: 0.9; stroke-width: 0.7; stroke-linecap: round"/>
    <defs>
     <path id="me4f62c8bb1" d="M 0 1.5 
C 0.397805 1.5 0.77937 1.341951 1.06066 1.06066 
C 1.341951 0.77937 1.5 0.397805 1.5 0 
C 1.5 -0.397805 1.341951 -0.77937 1.06066 -1.06066 
C 0.77937 -1.341951 0.397805 -1.5 0 -1.5 
C -0.397805 -1.5 -0.77937 -1.341951 -1.06066 -1.06066 
C -1.341951 -0.77937 -1.5 -0.397805 -1.5 0 
C -1.5 0.397805 -1.341951 0.77937 -1.06066 1.06066 
C -0.77937 1.341951 -0.397805 1.5 0 1.5 
z
" style="stroke: #ffffff; stroke-opacity: 0.9; stroke-width: 0.75"/>
    </defs>
    <g clip-path="url(#p5b8eb72484)">
     <use xlink:href="#me4f62c8bb1" x="386.012313" y="287.137449" style="fill: #ff7f00; fill-opacity: 0.9; stroke: #ffffff; stroke-opacity: 0.9; stroke-width: 0.75"/>
    </g>
   </g>
   <g id="line2d_20">
    <path d="M 386.012313 368.152722 
" clip-path="url(#p5b8eb72484)" style="fill: none; stroke: #cab2d6; stroke-opacity: 0.9; stroke-width: 0.7; stroke-linecap: round"/>
    <defs>
     <path id="mdd58d391aa" d="M 0 1.5 
C 0.397805 1.5 0.77937 1.341951 1.06066 1.06066 
C 1.341951 0.77937 1.5 0.397805 1.5 0 
C 1.5 -0.397805 1.341951 -0.77937 1.06066 -1.06066 
C 0.77937 -1.341951 0.397805 -1.5 0 -1.5 
C -0.397805 -1.5 -0.77937 -1.341951 -1.06066 -1.06066 
C -1.341951 -0.77937 -1.5 -0.397805 -1.5 0 
C -1.5 0.397805 -1.341951 0.77937 -1.06066 1.06066 
C -0.77937 1.341951 -0.397805 1.5 0 1.5 
z
" style="stroke: #ffffff; stroke-opacity: 0.9; stroke-width: 0.75"/>
    </defs>
    <g clip-path="url(#p5b8eb72484)">
     <use xlink:href="#mdd58d391aa" x="386.012313" y="368.152722" style="fill: #cab2d6; fill-opacity: 0.9; stroke: #ffffff; stroke-opacity: 0.9; stroke-width: 0.75"/>
    </g>
   </g>
   <g id="line2d_21">
    <path d="M 386.012313 368.152722 
" clip-path="url(#p5b8eb72484)" style="fill: none; stroke: #6a3d9a; stroke-opacity: 0.9; stroke-width: 0.7; stroke-linecap: round"/>
    <defs>
     <path id="m4623e3c5cc" d="M 0 1.5 
C 0.397805 1.5 0.77937 1.341951 1.06066 1.06066 
C 1.341951 0.77937 1.5 0.397805 1.5 0 
C 1.5 -0.397805 1.341951 -0.77937 1.06066 -1.06066 
C 0.77937 -1.341951 0.397805 -1.5 0 -1.5 
C -0.397805 -1.5 -0.77937 -1.341951 -1.06066 -1.06066 
C -1.341951 -0.77937 -1.5 -0.397805 -1.5 0 
C -1.5 0.397805 -1.341951 0.77937 -1.06066 1.06066 
C -0.77937 1.341951 -0.397805 1.5 0 1.5 
z
" style="stroke: #ffffff; stroke-opacity: 0.9; stroke-width: 0.75"/>
    </defs>
    <g clip-path="url(#p5b8eb72484)">
     <use xlink:href="#m4623e3c5cc" x="386.012313" y="368.152722" style="fill: #6a3d9a; fill-opacity: 0.9; stroke: #ffffff; stroke-opacity: 0.9; stroke-width: 0.75"/>
    </g>
   </g>
   <g id="line2d_22">
    <path d="M 386.012313 44.091631 
" clip-path="url(#p5b8eb72484)" style="fill: none; stroke: #ffff99; stroke-opacity: 0.9; stroke-width: 0.7; stroke-linecap: round"/>
    <defs>
     <path id="m29e09fc5a0" d="M 0 1.5 
C 0.397805 1.5 0.77937 1.341951 1.06066 1.06066 
C 1.341951 0.77937 1.5 0.397805 1.5 0 
C 1.5 -0.397805 1.341951 -0.77937 1.06066 -1.06066 
C 0.77937 -1.341951 0.397805 -1.5 0 -1.5 
C -0.397805 -1.5 -0.77937 -1.341951 -1.06066 -1.06066 
C -1.341951 -0.77937 -1.5 -0.397805 -1.5 0 
C -1.5 0.397805 -1.341951 0.77937 -1.06066 1.06066 
C -0.77937 1.341951 -0.397805 1.5 0 1.5 
z
" style="stroke: #ffffff; stroke-opacity: 0.9; stroke-width: 0.75"/>
    </defs>
    <g clip-path="url(#p5b8eb72484)">
     <use xlink:href="#m29e09fc5a0" x="386.012313" y="44.091631" style="fill: #ffff99; fill-opacity: 0.9; stroke: #ffffff; stroke-opacity: 0.9; stroke-width: 0.75"/>
    </g>
   </g>
   <g id="line2d_23">
    <path d="M 386.012313 368.152722 
" clip-path="url(#p5b8eb72484)" style="fill: none; stroke: #b15928; stroke-opacity: 0.9; stroke-width: 0.7; stroke-linecap: round"/>
    <defs>
     <path id="m3c616e95c9" d="M 0 1.5 
C 0.397805 1.5 0.77937 1.341951 1.06066 1.06066 
C 1.341951 0.77937 1.5 0.397805 1.5 0 
C 1.5 -0.397805 1.341951 -0.77937 1.06066 -1.06066 
C 0.77937 -1.341951 0.397805 -1.5 0 -1.5 
C -0.397805 -1.5 -0.77937 -1.341951 -1.06066 -1.06066 
C -1.341951 -0.77937 -1.5 -0.397805 -1.5 0 
C -1.5 0.397805 -1.341951 0.77937 -1.06066 1.06066 
C -0.77937 1.341951 -0.397805 1.5 0 1.5 
z
" style="stroke: #ffffff; stroke-opacity: 0.9; stroke-width: 0.75"/>
    </defs>
    <g clip-path="url(#p5b8eb72484)">
     <use xlink:href="#m3c616e95c9" x="386.012313" y="368.152722" style="fill: #b15928; fill-opacity: 0.9; stroke: #ffffff; stroke-opacity: 0.9; stroke-width: 0.75"/>
    </g>
   </g>
   <g id="line2d_24">
    <path d="M 386.012313 287.137449 
" clip-path="url(#p5b8eb72484)" style="fill: none; stroke: #a6cee3; stroke-opacity: 0.9; stroke-width: 0.7; stroke-linecap: round"/>
    <g clip-path="url(#p5b8eb72484)">
     <use xlink:href="#m849184cb32" x="386.012313" y="287.137449" style="fill: #a6cee3; fill-opacity: 0.9; stroke: #ffffff; stroke-opacity: 0.9; stroke-width: 0.75"/>
    </g>
   </g>
   <g id="line2d_25">
    <path d="M 386.012313 206.122176 
" clip-path="url(#p5b8eb72484)" style="fill: none; stroke: #1f78b4; stroke-opacity: 0.9; stroke-width: 0.7; stroke-linecap: round"/>
    <g clip-path="url(#p5b8eb72484)">
     <use xlink:href="#m4bf51a5fce" x="386.012313" y="206.122176" style="fill: #1f78b4; fill-opacity: 0.9; stroke: #ffffff; stroke-opacity: 0.9; stroke-width: 0.75"/>
    </g>
   </g>
   <g id="line2d_26">
    <path d="M 386.012313 287.137449 
" clip-path="url(#p5b8eb72484)" style="fill: none; stroke: #b2df8a; stroke-opacity: 0.9; stroke-width: 0.7; stroke-linecap: round"/>
    <g clip-path="url(#p5b8eb72484)">
     <use xlink:href="#m512a95096a" x="386.012313" y="287.137449" style="fill: #b2df8a; fill-opacity: 0.9; stroke: #ffffff; stroke-opacity: 0.9; stroke-width: 0.75"/>
    </g>
   </g>
   <g id="line2d_27">
    <path d="M 386.012313 287.137449 
" clip-path="url(#p5b8eb72484)" style="fill: none; stroke: #33a02c; stroke-opacity: 0.9; stroke-width: 0.7; stroke-linecap: round"/>
    <g clip-path="url(#p5b8eb72484)">
     <use xlink:href="#mf94642d735" x="386.012313" y="287.137449" style="fill: #33a02c; fill-opacity: 0.9; stroke: #ffffff; stroke-opacity: 0.9; stroke-width: 0.75"/>
    </g>
   </g>
   <g id="line2d_28">
    <path d="M 386.012313 206.122176 
" clip-path="url(#p5b8eb72484)" style="fill: none; stroke: #fb9a99; stroke-opacity: 0.9; stroke-width: 0.7; stroke-linecap: round"/>
    <g clip-path="url(#p5b8eb72484)">
     <use xlink:href="#mf594a98cef" x="386.012313" y="206.122176" style="fill: #fb9a99; fill-opacity: 0.9; stroke: #ffffff; stroke-opacity: 0.9; stroke-width: 0.75"/>
    </g>
   </g>
   <g id="line2d_29">
    <path d="M 386.012313 287.137449 
" clip-path="url(#p5b8eb72484)" style="fill: none; stroke: #e31a1c; stroke-opacity: 0.9; stroke-width: 0.7; stroke-linecap: round"/>
    <g clip-path="url(#p5b8eb72484)">
     <use xlink:href="#mb0e711babf" x="386.012313" y="287.137449" style="fill: #e31a1c; fill-opacity: 0.9; stroke: #ffffff; stroke-opacity: 0.9; stroke-width: 0.75"/>
    </g>
   </g>
   <g id="line2d_30">
    <path d="M 386.012313 368.152722 
" clip-path="url(#p5b8eb72484)" style="fill: none; stroke: #fdbf6f; stroke-opacity: 0.9; stroke-width: 0.7; stroke-linecap: round"/>
    <g clip-path="url(#p5b8eb72484)">
     <use xlink:href="#m14af24dec1" x="386.012313" y="368.152722" style="fill: #fdbf6f; fill-opacity: 0.9; stroke: #ffffff; stroke-opacity: 0.9; stroke-width: 0.75"/>
    </g>
   </g>
   <g id="line2d_31">
    <path d="M 386.012313 206.122176 
" clip-path="url(#p5b8eb72484)" style="fill: none; stroke: #ff7f00; stroke-opacity: 0.9; stroke-width: 0.7; stroke-linecap: round"/>
    <g clip-path="url(#p5b8eb72484)">
     <use xlink:href="#me4f62c8bb1" x="386.012313" y="206.122176" style="fill: #ff7f00; fill-opacity: 0.9; stroke: #ffffff; stroke-opacity: 0.9; stroke-width: 0.75"/>
    </g>
   </g>
   <g id="line2d_32">
    <path d="M 386.012313 287.137449 
" clip-path="url(#p5b8eb72484)" style="fill: none; stroke: #cab2d6; stroke-opacity: 0.9; stroke-width: 0.7; stroke-linecap: round"/>
    <g clip-path="url(#p5b8eb72484)">
     <use xlink:href="#mdd58d391aa" x="386.012313" y="287.137449" style="fill: #cab2d6; fill-opacity: 0.9; stroke: #ffffff; stroke-opacity: 0.9; stroke-width: 0.75"/>
    </g>
   </g>
   <g id="line2d_33">
    <path d="M 386.012313 368.152722 
" clip-path="url(#p5b8eb72484)" style="fill: none; stroke: #6a3d9a; stroke-opacity: 0.9; stroke-width: 0.7; stroke-linecap: round"/>
    <g clip-path="url(#p5b8eb72484)">
     <use xlink:href="#m4623e3c5cc" x="386.012313" y="368.152722" style="fill: #6a3d9a; fill-opacity: 0.9; stroke: #ffffff; stroke-opacity: 0.9; stroke-width: 0.75"/>
    </g>
   </g>
   <g id="line2d_34">
    <path d="M 386.012313 449.167994 
" clip-path="url(#p5b8eb72484)" style="fill: none; stroke: #ffff99; stroke-opacity: 0.9; stroke-width: 0.7; stroke-linecap: round"/>
    <g clip-path="url(#p5b8eb72484)">
     <use xlink:href="#m29e09fc5a0" x="386.012313" y="449.167994" style="fill: #ffff99; fill-opacity: 0.9; stroke: #ffffff; stroke-opacity: 0.9; stroke-width: 0.75"/>
    </g>
   </g>
   <g id="line2d_35">
    <path d="M 386.012313 287.137449 
" clip-path="url(#p5b8eb72484)" style="fill: none; stroke: #b15928; stroke-opacity: 0.9; stroke-width: 0.7; stroke-linecap: round"/>
    <g clip-path="url(#p5b8eb72484)">
     <use xlink:href="#m3c616e95c9" x="386.012313" y="287.137449" style="fill: #b15928; fill-opacity: 0.9; stroke: #ffffff; stroke-opacity: 0.9; stroke-width: 0.75"/>
    </g>
   </g>
   <g id="line2d_36"/>
   <g id="line2d_37"/>
   <g id="line2d_38"/>
   <g id="line2d_39"/>
   <g id="line2d_40"/>
   <g id="line2d_41"/>
   <g id="line2d_42"/>
   <g id="line2d_43"/>
   <g id="line2d_44"/>
   <g id="line2d_45"/>
   <g id="line2d_46"/>
   <g id="line2d_47"/>
   <g id="line2d_48"/>
   <g id="line2d_49"/>
   <g id="line2d_50"/>
   <g id="line2d_51"/>
   <g id="line2d_52"/>
   <g id="line2d_53"/>
   <g id="line2d_54"/>
   <g id="line2d_55"/>
   <g id="line2d_56"/>
   <g id="line2d_57"/>
   <g id="line2d_58"/>
   <g id="line2d_59"/>
   <g id="line2d_60">
    <path d="M 386.012313 293.888722 
" clip-path="url(#p5b8eb72484)" style="fill: none; stroke-dasharray: 5.18,2.24; stroke-dashoffset: 0; stroke: #000000; stroke-width: 1.4"/>
    <defs>
     <path id="m95ce63f2f7" d="M 0 -2.5 
L -2.5 2.5 
L 2.5 2.5 
z
" style="stroke: #ffffff; stroke-width: 0.75; stroke-linejoin: miter"/>
    </defs>
    <g clip-path="url(#p5b8eb72484)">
     <use xlink:href="#m95ce63f2f7" x="386.012313" y="293.888722" style="stroke: #ffffff; stroke-width: 0.75; stroke-linejoin: miter"/>
    </g>
   </g>
   <g id="patch_3">
    <path d="M 81.335313 469.421813 
L 81.335313 23.837812 
" style="fill: none; stroke: #262626; stroke-width: 1.875; stroke-linejoin: miter; stroke-linecap: square"/>
   </g>
   <g id="patch_4">
    <path d="M 690.689313 469.421813 
L 690.689313 23.837812 
" style="fill: none; stroke: #262626; stroke-width: 1.875; stroke-linejoin: miter; stroke-linecap: square"/>
   </g>
   <g id="patch_5">
    <path d="M 81.335313 469.421813 
L 690.689313 469.421813 
" style="fill: none; stroke: #262626; stroke-width: 1.875; stroke-linejoin: miter; stroke-linecap: square"/>
   </g>
   <g id="patch_6">
    <path d="M 81.335313 23.837812 
L 690.689313 23.837812 
" style="fill: none; stroke: #262626; stroke-width: 1.875; stroke-linejoin: miter; stroke-linecap: square"/>
   </g>
   <g id="text_14">
    <!-- F1 Score Convergence for 24 Clients Across 100 Global Rounds -->
    <g style="fill: #262626" transform="translate(137.467469 17.837812) scale(0.14 -0.14)">
     <defs>
      <path id="DejaVuSans-Bold-43" d="M 4288 256 
Q 3956 84 3597 -3 
Q 3238 -91 2847 -91 
Q 1681 -91 1000 561 
Q 319 1213 319 2328 
Q 319 3447 1000 4098 
Q 1681 4750 2847 4750 
Q 3238 4750 3597 4662 
Q 3956 4575 4288 4403 
L 4288 3438 
Q 3953 3666 3628 3772 
Q 3303 3878 2944 3878 
Q 2300 3878 1931 3465 
Q 1563 3053 1563 2328 
Q 1563 1606 1931 1193 
Q 2300 781 2944 781 
Q 3303 781 3628 887 
Q 3953 994 4288 1222 
L 4288 256 
z
" transform="scale(0.015625)"/>
      <path id="DejaVuSans-Bold-67" d="M 2919 594 
Q 2688 288 2409 144 
Q 2131 0 1766 0 
Q 1125 0 706 504 
Q 288 1009 288 1791 
Q 288 2575 706 3076 
Q 1125 3578 1766 3578 
Q 2131 3578 2409 3434 
Q 2688 3291 2919 2981 
L 2919 3500 
L 4044 3500 
L 4044 353 
Q 4044 -491 3511 -936 
Q 2978 -1381 1966 -1381 
Q 1638 -1381 1331 -1331 
Q 1025 -1281 716 -1178 
L 716 -306 
Q 1009 -475 1290 -558 
Q 1572 -641 1856 -641 
Q 2406 -641 2662 -400 
Q 2919 -159 2919 353 
L 2919 594 
z
M 2181 2772 
Q 1834 2772 1640 2515 
Q 1447 2259 1447 1791 
Q 1447 1309 1634 1061 
Q 1822 813 2181 813 
Q 2531 813 2725 1069 
Q 2919 1325 2919 1791 
Q 2919 2259 2725 2515 
Q 2531 2772 2181 2772 
z
" transform="scale(0.015625)"/>
      <path id="DejaVuSans-Bold-66" d="M 2841 4863 
L 2841 4128 
L 2222 4128 
Q 1984 4128 1890 4042 
Q 1797 3956 1797 3744 
L 1797 3500 
L 2753 3500 
L 2753 2700 
L 1797 2700 
L 1797 0 
L 678 0 
L 678 2700 
L 122 2700 
L 122 3500 
L 678 3500 
L 678 3744 
Q 678 4316 997 4589 
Q 1316 4863 1984 4863 
L 2841 4863 
z
" transform="scale(0.015625)"/>
      <path id="DejaVuSans-Bold-32" d="M 1844 884 
L 3897 884 
L 3897 0 
L 506 0 
L 506 884 
L 2209 2388 
Q 2438 2594 2547 2791 
Q 2656 2988 2656 3200 
Q 2656 3528 2436 3728 
Q 2216 3928 1850 3928 
Q 1569 3928 1234 3808 
Q 900 3688 519 3450 
L 519 4475 
Q 925 4609 1322 4679 
Q 1719 4750 2100 4750 
Q 2938 4750 3402 4381 
Q 3866 4013 3866 3353 
Q 3866 2972 3669 2642 
Q 3472 2313 2841 1759 
L 1844 884 
z
" transform="scale(0.015625)"/>
      <path id="DejaVuSans-Bold-34" d="M 2356 3675 
L 1038 1722 
L 2356 1722 
L 2356 3675 
z
M 2156 4666 
L 3494 4666 
L 3494 1722 
L 4159 1722 
L 4159 850 
L 3494 850 
L 3494 0 
L 2356 0 
L 2356 850 
L 288 850 
L 288 1881 
L 2156 4666 
z
" transform="scale(0.015625)"/>
      <path id="DejaVuSans-Bold-6c" d="M 538 4863 
L 1656 4863 
L 1656 0 
L 538 0 
L 538 4863 
z
" transform="scale(0.015625)"/>
      <path id="DejaVuSans-Bold-69" d="M 538 3500 
L 1656 3500 
L 1656 0 
L 538 0 
L 538 3500 
z
M 538 4863 
L 1656 4863 
L 1656 3950 
L 538 3950 
L 538 4863 
z
" transform="scale(0.015625)"/>
      <path id="DejaVuSans-Bold-74" d="M 1759 4494 
L 1759 3500 
L 2913 3500 
L 2913 2700 
L 1759 2700 
L 1759 1216 
Q 1759 972 1856 886 
Q 1953 800 2241 800 
L 2816 800 
L 2816 0 
L 1856 0 
Q 1194 0 917 276 
Q 641 553 641 1216 
L 641 2700 
L 84 2700 
L 84 3500 
L 641 3500 
L 641 4494 
L 1759 4494 
z
" transform="scale(0.015625)"/>
      <path id="DejaVuSans-Bold-73" d="M 3272 3391 
L 3272 2541 
Q 2913 2691 2578 2766 
Q 2244 2841 1947 2841 
Q 1628 2841 1473 2761 
Q 1319 2681 1319 2516 
Q 1319 2381 1436 2309 
Q 1553 2238 1856 2203 
L 2053 2175 
Q 2913 2066 3209 1816 
Q 3506 1566 3506 1031 
Q 3506 472 3093 190 
Q 2681 -91 1863 -91 
Q 1516 -91 1145 -36 
Q 775 19 384 128 
L 384 978 
Q 719 816 1070 734 
Q 1422 653 1784 653 
Q 2113 653 2278 743 
Q 2444 834 2444 1013 
Q 2444 1163 2330 1236 
Q 2216 1309 1875 1350 
L 1678 1375 
Q 931 1469 631 1722 
Q 331 1975 331 2491 
Q 331 3047 712 3315 
Q 1094 3584 1881 3584 
Q 2191 3584 2531 3537 
Q 2872 3491 3272 3391 
z
" transform="scale(0.015625)"/>
      <path id="DejaVuSans-Bold-41" d="M 3419 850 
L 1538 850 
L 1241 0 
L 31 0 
L 1759 4666 
L 3194 4666 
L 4922 0 
L 3713 0 
L 3419 850 
z
M 1838 1716 
L 3116 1716 
L 2478 3572 
L 1838 1716 
z
" transform="scale(0.015625)"/>
      <path id="DejaVuSans-Bold-30" d="M 2944 2338 
Q 2944 3213 2780 3570 
Q 2616 3928 2228 3928 
Q 1841 3928 1675 3570 
Q 1509 3213 1509 2338 
Q 1509 1453 1675 1090 
Q 1841 728 2228 728 
Q 2613 728 2778 1090 
Q 2944 1453 2944 2338 
z
M 4147 2328 
Q 4147 1169 3647 539 
Q 3147 -91 2228 -91 
Q 1306 -91 806 539 
Q 306 1169 306 2328 
Q 306 3491 806 4120 
Q 1306 4750 2228 4750 
Q 3147 4750 3647 4120 
Q 4147 3491 4147 2328 
z
" transform="scale(0.015625)"/>
      <path id="DejaVuSans-Bold-47" d="M 4781 347 
Q 4331 128 3847 18 
Q 3363 -91 2847 -91 
Q 1681 -91 1000 561 
Q 319 1213 319 2328 
Q 319 3456 1012 4103 
Q 1706 4750 2913 4750 
Q 3378 4750 3804 4662 
Q 4231 4575 4609 4403 
L 4609 3438 
Q 4219 3659 3833 3768 
Q 3447 3878 3059 3878 
Q 2341 3878 1952 3476 
Q 1563 3075 1563 2328 
Q 1563 1588 1938 1184 
Q 2313 781 3003 781 
Q 3191 781 3352 804 
Q 3513 828 3641 878 
L 3641 1784 
L 2906 1784 
L 2906 2591 
L 4781 2591 
L 4781 347 
z
" transform="scale(0.015625)"/>
      <path id="DejaVuSans-Bold-62" d="M 2400 722 
Q 2759 722 2948 984 
Q 3138 1247 3138 1747 
Q 3138 2247 2948 2509 
Q 2759 2772 2400 2772 
Q 2041 2772 1848 2508 
Q 1656 2244 1656 1747 
Q 1656 1250 1848 986 
Q 2041 722 2400 722 
z
M 1656 2988 
Q 1888 3294 2169 3439 
Q 2450 3584 2816 3584 
Q 3463 3584 3878 3070 
Q 4294 2556 4294 1747 
Q 4294 938 3878 423 
Q 3463 -91 2816 -91 
Q 2450 -91 2169 54 
Q 1888 200 1656 506 
L 1656 0 
L 538 0 
L 538 4863 
L 1656 4863 
L 1656 2988 
z
" transform="scale(0.015625)"/>
      <path id="DejaVuSans-Bold-61" d="M 2106 1575 
Q 1756 1575 1579 1456 
Q 1403 1338 1403 1106 
Q 1403 894 1545 773 
Q 1688 653 1941 653 
Q 2256 653 2472 879 
Q 2688 1106 2688 1447 
L 2688 1575 
L 2106 1575 
z
M 3816 1997 
L 3816 0 
L 2688 0 
L 2688 519 
Q 2463 200 2181 54 
Q 1900 -91 1497 -91 
Q 953 -91 614 226 
Q 275 544 275 1050 
Q 275 1666 698 1953 
Q 1122 2241 2028 2241 
L 2688 2241 
L 2688 2328 
Q 2688 2594 2478 2717 
Q 2269 2841 1825 2841 
Q 1466 2841 1156 2769 
Q 847 2697 581 2553 
L 581 3406 
Q 941 3494 1303 3539 
Q 1666 3584 2028 3584 
Q 2975 3584 3395 3211 
Q 3816 2838 3816 1997 
z
" transform="scale(0.015625)"/>
     </defs>
     <use xlink:href="#DejaVuSans-Bold-46"/>
     <use xlink:href="#DejaVuSans-Bold-31" transform="translate(68.310547 0)"/>
     <use xlink:href="#DejaVuSans-Bold-20" transform="translate(137.890625 0)"/>
     <use xlink:href="#DejaVuSans-Bold-53" transform="translate(172.705078 0)"/>
     <use xlink:href="#DejaVuSans-Bold-63" transform="translate(244.726562 0)"/>
     <use xlink:href="#DejaVuSans-Bold-6f" transform="translate(304.003906 0)"/>
     <use xlink:href="#DejaVuSans-Bold-72" transform="translate(372.705078 0)"/>
     <use xlink:href="#DejaVuSans-Bold-65" transform="translate(422.021484 0)"/>
     <use xlink:href="#DejaVuSans-Bold-20" transform="translate(489.84375 0)"/>
     <use xlink:href="#DejaVuSans-Bold-43" transform="translate(524.658203 0)"/>
     <use xlink:href="#DejaVuSans-Bold-6f" transform="translate(598.046875 0)"/>
     <use xlink:href="#DejaVuSans-Bold-6e" transform="translate(666.748047 0)"/>
     <use xlink:href="#DejaVuSans-Bold-76" transform="translate(737.939453 0)"/>
     <use xlink:href="#DejaVuSans-Bold-65" transform="translate(803.125 0)"/>
     <use xlink:href="#DejaVuSans-Bold-72" transform="translate(870.947266 0)"/>
     <use xlink:href="#DejaVuSans-Bold-67" transform="translate(920.263672 0)"/>
     <use xlink:href="#DejaVuSans-Bold-65" transform="translate(991.845703 0)"/>
     <use xlink:href="#DejaVuSans-Bold-6e" transform="translate(1059.667969 0)"/>
     <use xlink:href="#DejaVuSans-Bold-63" transform="translate(1130.859375 0)"/>
     <use xlink:href="#DejaVuSans-Bold-65" transform="translate(1190.136719 0)"/>
     <use xlink:href="#DejaVuSans-Bold-20" transform="translate(1257.958984 0)"/>
     <use xlink:href="#DejaVuSans-Bold-66" transform="translate(1292.773438 0)"/>
     <use xlink:href="#DejaVuSans-Bold-6f" transform="translate(1336.279297 0)"/>
     <use xlink:href="#DejaVuSans-Bold-72" transform="translate(1404.980469 0)"/>
     <use xlink:href="#DejaVuSans-Bold-20" transform="translate(1454.296875 0)"/>
     <use xlink:href="#DejaVuSans-Bold-32" transform="translate(1489.111328 0)"/>
     <use xlink:href="#DejaVuSans-Bold-34" transform="translate(1558.691406 0)"/>
     <use xlink:href="#DejaVuSans-Bold-20" transform="translate(1628.271484 0)"/>
     <use xlink:href="#DejaVuSans-Bold-43" transform="translate(1663.085938 0)"/>
     <use xlink:href="#DejaVuSans-Bold-6c" transform="translate(1736.474609 0)"/>
     <use xlink:href="#DejaVuSans-Bold-69" transform="translate(1770.751953 0)"/>
     <use xlink:href="#DejaVuSans-Bold-65" transform="translate(1805.029297 0)"/>
     <use xlink:href="#DejaVuSans-Bold-6e" transform="translate(1872.851562 0)"/>
     <use xlink:href="#DejaVuSans-Bold-74" transform="translate(1944.042969 0)"/>
     <use xlink:href="#DejaVuSans-Bold-73" transform="translate(1991.845703 0)"/>
     <use xlink:href="#DejaVuSans-Bold-20" transform="translate(2051.367188 0)"/>
     <use xlink:href="#DejaVuSans-Bold-41" transform="translate(2086.181641 0)"/>
     <use xlink:href="#DejaVuSans-Bold-63" transform="translate(2163.574219 0)"/>
     <use xlink:href="#DejaVuSans-Bold-72" transform="translate(2222.851562 0)"/>
     <use xlink:href="#DejaVuSans-Bold-6f" transform="translate(2272.167969 0)"/>
     <use xlink:href="#DejaVuSans-Bold-73" transform="translate(2340.869141 0)"/>
     <use xlink:href="#DejaVuSans-Bold-73" transform="translate(2400.390625 0)"/>
     <use xlink:href="#DejaVuSans-Bold-20" transform="translate(2459.912109 0)"/>
     <use xlink:href="#DejaVuSans-Bold-31" transform="translate(2494.726562 0)"/>
     <use xlink:href="#DejaVuSans-Bold-30" transform="translate(2564.306641 0)"/>
     <use xlink:href="#DejaVuSans-Bold-30" transform="translate(2633.886719 0)"/>
     <use xlink:href="#DejaVuSans-Bold-20" transform="translate(2703.466797 0)"/>
     <use xlink:href="#DejaVuSans-Bold-47" transform="translate(2738.28125 0)"/>
     <use xlink:href="#DejaVuSans-Bold-6c" transform="translate(2820.361328 0)"/>
     <use xlink:href="#DejaVuSans-Bold-6f" transform="translate(2854.638672 0)"/>
     <use xlink:href="#DejaVuSans-Bold-62" transform="translate(2923.339844 0)"/>
     <use xlink:href="#DejaVuSans-Bold-61" transform="translate(2994.921875 0)"/>
     <use xlink:href="#DejaVuSans-Bold-6c" transform="translate(3062.402344 0)"/>
     <use xlink:href="#DejaVuSans-Bold-20" transform="translate(3096.679688 0)"/>
     <use xlink:href="#DejaVuSans-Bold-52" transform="translate(3131.494141 0)"/>
     <use xlink:href="#DejaVuSans-Bold-6f" transform="translate(3208.496094 0)"/>
     <use xlink:href="#DejaVuSans-Bold-75" transform="translate(3277.197266 0)"/>
     <use xlink:href="#DejaVuSans-Bold-6e" transform="translate(3348.388672 0)"/>
     <use xlink:href="#DejaVuSans-Bold-64" transform="translate(3419.580078 0)"/>
     <use xlink:href="#DejaVuSans-Bold-73" transform="translate(3491.162109 0)"/>
    </g>
   </g>
   <g id="legend_1">
    <g id="patch_7">
     <path d="M 729.557013 500.686312 
L 819.003888 500.686312 
Q 821.403887 500.686312 821.403887 498.286312 
L 821.403887 32.237812 
Q 821.403887 29.837812 819.003888 29.837812 
L 729.557013 29.837812 
Q 727.157013 29.837812 727.157013 32.237812 
L 727.157013 498.286312 
Q 727.157013 500.686312 729.557013 500.686312 
z
" style="fill: #ffffff; opacity: 0.8; stroke: #cccccc; stroke-width: 1.5; stroke-linejoin: miter"/>
    </g>
    <g id="text_15">
     <!-- Clients -->
     <g style="fill: #262626" transform="translate(737.388325 51.050437) scale(0.216 -0.216)">
      <defs>
       <path id="DejaVuSans-43" d="M 4122 4306 
L 4122 3641 
Q 3803 3938 3442 4084 
Q 3081 4231 2675 4231 
Q 1875 4231 1450 3742 
Q 1025 3253 1025 2328 
Q 1025 1406 1450 917 
Q 1875 428 2675 428 
Q 3081 428 3442 575 
Q 3803 722 4122 1019 
L 4122 359 
Q 3791 134 3420 21 
Q 3050 -91 2638 -91 
Q 1578 -91 968 557 
Q 359 1206 359 2328 
Q 359 3453 968 4101 
Q 1578 4750 2638 4750 
Q 3056 4750 3426 4639 
Q 3797 4528 4122 4306 
z
" transform="scale(0.015625)"/>
       <path id="DejaVuSans-6c" d="M 603 4863 
L 1178 4863 
L 1178 0 
L 603 0 
L 603 4863 
z
" transform="scale(0.015625)"/>
       <path id="DejaVuSans-69" d="M 603 3500 
L 1178 3500 
L 1178 0 
L 603 0 
L 603 3500 
z
M 603 4863 
L 1178 4863 
L 1178 4134 
L 603 4134 
L 603 4863 
z
" transform="scale(0.015625)"/>
       <path id="DejaVuSans-65" d="M 3597 1894 
L 3597 1613 
L 953 1613 
Q 991 1019 1311 708 
Q 1631 397 2203 397 
Q 2534 397 2845 478 
Q 3156 559 3463 722 
L 3463 178 
Q 3153 47 2828 -22 
Q 2503 -91 2169 -91 
Q 1331 -91 842 396 
Q 353 884 353 1716 
Q 353 2575 817 3079 
Q 1281 3584 2069 3584 
Q 2775 3584 3186 3129 
Q 3597 2675 3597 1894 
z
M 3022 2063 
Q 3016 2534 2758 2815 
Q 2500 3097 2075 3097 
Q 1594 3097 1305 2825 
Q 1016 2553 972 2059 
L 3022 2063 
z
" transform="scale(0.015625)"/>
       <path id="DejaVuSans-6e" d="M 3513 2113 
L 3513 0 
L 2938 0 
L 2938 2094 
Q 2938 2591 2744 2837 
Q 2550 3084 2163 3084 
Q 1697 3084 1428 2787 
Q 1159 2491 1159 1978 
L 1159 0 
L 581 0 
L 581 3500 
L 1159 3500 
L 1159 2956 
Q 1366 3272 1645 3428 
Q 1925 3584 2291 3584 
Q 2894 3584 3203 3211 
Q 3513 2838 3513 2113 
z
" transform="scale(0.015625)"/>
       <path id="DejaVuSans-74" d="M 1172 4494 
L 1172 3500 
L 2356 3500 
L 2356 3053 
L 1172 3053 
L 1172 1153 
Q 1172 725 1289 603 
Q 1406 481 1766 481 
L 2356 481 
L 2356 0 
L 1766 0 
Q 1100 0 847 248 
Q 594 497 594 1153 
L 594 3053 
L 172 3053 
L 172 3500 
L 594 3500 
L 594 4494 
L 1172 4494 
z
" transform="scale(0.015625)"/>
       <path id="DejaVuSans-73" d="M 2834 3397 
L 2834 2853 
Q 2591 2978 2328 3040 
Q 2066 3103 1784 3103 
Q 1356 3103 1142 2972 
Q 928 2841 928 2578 
Q 928 2378 1081 2264 
Q 1234 2150 1697 2047 
L 1894 2003 
Q 2506 1872 2764 1633 
Q 3022 1394 3022 966 
Q 3022 478 2636 193 
Q 2250 -91 1575 -91 
Q 1294 -91 989 -36 
Q 684 19 347 128 
L 347 722 
Q 666 556 975 473 
Q 1284 391 1588 391 
Q 1994 391 2212 530 
Q 2431 669 2431 922 
Q 2431 1156 2273 1281 
Q 2116 1406 1581 1522 
L 1381 1569 
Q 847 1681 609 1914 
Q 372 2147 372 2553 
Q 372 3047 722 3315 
Q 1072 3584 1716 3584 
Q 2034 3584 2315 3537 
Q 2597 3491 2834 3397 
z
" transform="scale(0.015625)"/>
      </defs>
      <use xlink:href="#DejaVuSans-43"/>
      <use xlink:href="#DejaVuSans-6c" transform="translate(69.824219 0)"/>
      <use xlink:href="#DejaVuSans-69" transform="translate(97.607422 0)"/>
      <use xlink:href="#DejaVuSans-65" transform="translate(125.390625 0)"/>
      <use xlink:href="#DejaVuSans-6e" transform="translate(186.914062 0)"/>
      <use xlink:href="#DejaVuSans-74" transform="translate(250.292969 0)"/>
      <use xlink:href="#DejaVuSans-73" transform="translate(289.501953 0)"/>
     </g>
    </g>
    <g id="line2d_61">
     <path d="M 731.957013 66.460687 
L 743.957013 66.460687 
L 755.957013 66.460687 
" style="fill: none; stroke: #a6cee3; stroke-opacity: 0.9; stroke-width: 0.7; stroke-linecap: round"/>
     <g>
      <use xlink:href="#m849184cb32" x="743.957013" y="66.460687" style="fill: #a6cee3; fill-opacity: 0.9; stroke: #ffffff; stroke-opacity: 0.9; stroke-width: 0.75"/>
     </g>
    </g>
    <g id="text_16">
     <!-- 0 -->
     <g style="fill: #262626" transform="translate(765.557013 70.660687) scale(0.12 -0.12)">
      <use xlink:href="#DejaVuSans-30"/>
     </g>
    </g>
    <g id="line2d_62">
     <path d="M 731.957013 84.074437 
L 743.957013 84.074437 
L 755.957013 84.074437 
" style="fill: none; stroke: #1f78b4; stroke-opacity: 0.9; stroke-width: 0.7; stroke-linecap: round"/>
     <g>
      <use xlink:href="#m4bf51a5fce" x="743.957013" y="84.074437" style="fill: #1f78b4; fill-opacity: 0.9; stroke: #ffffff; stroke-opacity: 0.9; stroke-width: 0.75"/>
     </g>
    </g>
    <g id="text_17">
     <!-- 1 -->
     <g style="fill: #262626" transform="translate(765.557013 88.274437) scale(0.12 -0.12)">
      <use xlink:href="#DejaVuSans-31"/>
     </g>
    </g>
    <g id="line2d_63">
     <path d="M 731.957013 101.688187 
L 743.957013 101.688187 
L 755.957013 101.688187 
" style="fill: none; stroke: #b2df8a; stroke-opacity: 0.9; stroke-width: 0.7; stroke-linecap: round"/>
     <g>
      <use xlink:href="#m512a95096a" x="743.957013" y="101.688187" style="fill: #b2df8a; fill-opacity: 0.9; stroke: #ffffff; stroke-opacity: 0.9; stroke-width: 0.75"/>
     </g>
    </g>
    <g id="text_18">
     <!-- 2 -->
     <g style="fill: #262626" transform="translate(765.557013 105.888187) scale(0.12 -0.12)">
      <use xlink:href="#DejaVuSans-32"/>
     </g>
    </g>
    <g id="line2d_64">
     <path d="M 731.957013 119.301937 
L 743.957013 119.301937 
L 755.957013 119.301937 
" style="fill: none; stroke: #33a02c; stroke-opacity: 0.9; stroke-width: 0.7; stroke-linecap: round"/>
     <g>
      <use xlink:href="#mf94642d735" x="743.957013" y="119.301937" style="fill: #33a02c; fill-opacity: 0.9; stroke: #ffffff; stroke-opacity: 0.9; stroke-width: 0.75"/>
     </g>
    </g>
    <g id="text_19">
     <!-- 3 -->
     <g style="fill: #262626" transform="translate(765.557013 123.501937) scale(0.12 -0.12)">
      <use xlink:href="#DejaVuSans-33"/>
     </g>
    </g>
    <g id="line2d_65">
     <path d="M 731.957013 136.915687 
L 743.957013 136.915687 
L 755.957013 136.915687 
" style="fill: none; stroke: #fb9a99; stroke-opacity: 0.9; stroke-width: 0.7; stroke-linecap: round"/>
     <g>
      <use xlink:href="#mf594a98cef" x="743.957013" y="136.915687" style="fill: #fb9a99; fill-opacity: 0.9; stroke: #ffffff; stroke-opacity: 0.9; stroke-width: 0.75"/>
     </g>
    </g>
    <g id="text_20">
     <!-- 4 -->
     <g style="fill: #262626" transform="translate(765.557013 141.115687) scale(0.12 -0.12)">
      <use xlink:href="#DejaVuSans-34"/>
     </g>
    </g>
    <g id="line2d_66">
     <path d="M 731.957013 154.529437 
L 743.957013 154.529437 
L 755.957013 154.529437 
" style="fill: none; stroke: #e31a1c; stroke-opacity: 0.9; stroke-width: 0.7; stroke-linecap: round"/>
     <g>
      <use xlink:href="#mb0e711babf" x="743.957013" y="154.529437" style="fill: #e31a1c; fill-opacity: 0.9; stroke: #ffffff; stroke-opacity: 0.9; stroke-width: 0.75"/>
     </g>
    </g>
    <g id="text_21">
     <!-- 5 -->
     <g style="fill: #262626" transform="translate(765.557013 158.729437) scale(0.12 -0.12)">
      <use xlink:href="#DejaVuSans-35"/>
     </g>
    </g>
    <g id="line2d_67">
     <path d="M 731.957013 172.143187 
L 743.957013 172.143187 
L 755.957013 172.143187 
" style="fill: none; stroke: #fdbf6f; stroke-opacity: 0.9; stroke-width: 0.7; stroke-linecap: round"/>
     <g>
      <use xlink:href="#m14af24dec1" x="743.957013" y="172.143187" style="fill: #fdbf6f; fill-opacity: 0.9; stroke: #ffffff; stroke-opacity: 0.9; stroke-width: 0.75"/>
     </g>
    </g>
    <g id="text_22">
     <!-- 6 -->
     <g style="fill: #262626" transform="translate(765.557013 176.343187) scale(0.12 -0.12)">
      <use xlink:href="#DejaVuSans-36"/>
     </g>
    </g>
    <g id="line2d_68">
     <path d="M 731.957013 189.756937 
L 743.957013 189.756937 
L 755.957013 189.756937 
" style="fill: none; stroke: #ff7f00; stroke-opacity: 0.9; stroke-width: 0.7; stroke-linecap: round"/>
     <g>
      <use xlink:href="#me4f62c8bb1" x="743.957013" y="189.756937" style="fill: #ff7f00; fill-opacity: 0.9; stroke: #ffffff; stroke-opacity: 0.9; stroke-width: 0.75"/>
     </g>
    </g>
    <g id="text_23">
     <!-- 7 -->
     <g style="fill: #262626" transform="translate(765.557013 193.956937) scale(0.12 -0.12)">
      <defs>
       <path id="DejaVuSans-37" d="M 525 4666 
L 3525 4666 
L 3525 4397 
L 1831 0 
L 1172 0 
L 2766 4134 
L 525 4134 
L 525 4666 
z
" transform="scale(0.015625)"/>
      </defs>
      <use xlink:href="#DejaVuSans-37"/>
     </g>
    </g>
    <g id="line2d_69">
     <path d="M 731.957013 207.370687 
L 743.957013 207.370687 
L 755.957013 207.370687 
" style="fill: none; stroke: #cab2d6; stroke-opacity: 0.9; stroke-width: 0.7; stroke-linecap: round"/>
     <g>
      <use xlink:href="#mdd58d391aa" x="743.957013" y="207.370687" style="fill: #cab2d6; fill-opacity: 0.9; stroke: #ffffff; stroke-opacity: 0.9; stroke-width: 0.75"/>
     </g>
    </g>
    <g id="text_24">
     <!-- 8 -->
     <g style="fill: #262626" transform="translate(765.557013 211.570687) scale(0.12 -0.12)">
      <use xlink:href="#DejaVuSans-38"/>
     </g>
    </g>
    <g id="line2d_70">
     <path d="M 731.957013 224.984437 
L 743.957013 224.984437 
L 755.957013 224.984437 
" style="fill: none; stroke: #6a3d9a; stroke-opacity: 0.9; stroke-width: 0.7; stroke-linecap: round"/>
     <g>
      <use xlink:href="#m4623e3c5cc" x="743.957013" y="224.984437" style="fill: #6a3d9a; fill-opacity: 0.9; stroke: #ffffff; stroke-opacity: 0.9; stroke-width: 0.75"/>
     </g>
    </g>
    <g id="text_25">
     <!-- 9 -->
     <g style="fill: #262626" transform="translate(765.557013 229.184437) scale(0.12 -0.12)">
      <use xlink:href="#DejaVuSans-39"/>
     </g>
    </g>
    <g id="line2d_71">
     <path d="M 731.957013 242.598187 
L 743.957013 242.598187 
L 755.957013 242.598187 
" style="fill: none; stroke: #ffff99; stroke-opacity: 0.9; stroke-width: 0.7; stroke-linecap: round"/>
     <g>
      <use xlink:href="#m29e09fc5a0" x="743.957013" y="242.598187" style="fill: #ffff99; fill-opacity: 0.9; stroke: #ffffff; stroke-opacity: 0.9; stroke-width: 0.75"/>
     </g>
    </g>
    <g id="text_26">
     <!-- 10 -->
     <g style="fill: #262626" transform="translate(765.557013 246.798187) scale(0.12 -0.12)">
      <use xlink:href="#DejaVuSans-31"/>
      <use xlink:href="#DejaVuSans-30" transform="translate(63.623047 0)"/>
     </g>
    </g>
    <g id="line2d_72">
     <path d="M 731.957013 260.211937 
L 743.957013 260.211937 
L 755.957013 260.211937 
" style="fill: none; stroke: #b15928; stroke-opacity: 0.9; stroke-width: 0.7; stroke-linecap: round"/>
     <g>
      <use xlink:href="#m3c616e95c9" x="743.957013" y="260.211937" style="fill: #b15928; fill-opacity: 0.9; stroke: #ffffff; stroke-opacity: 0.9; stroke-width: 0.75"/>
     </g>
    </g>
    <g id="text_27">
     <!-- 11 -->
     <g style="fill: #262626" transform="translate(765.557013 264.411937) scale(0.12 -0.12)">
      <use xlink:href="#DejaVuSans-31"/>
      <use xlink:href="#DejaVuSans-31" transform="translate(63.623047 0)"/>
     </g>
    </g>
    <g id="line2d_73">
     <path d="M 731.957013 277.825687 
L 743.957013 277.825687 
L 755.957013 277.825687 
" style="fill: none; stroke: #a6cee3; stroke-opacity: 0.9; stroke-width: 0.7; stroke-linecap: round"/>
     <g>
      <use xlink:href="#m849184cb32" x="743.957013" y="277.825687" style="fill: #a6cee3; fill-opacity: 0.9; stroke: #ffffff; stroke-opacity: 0.9; stroke-width: 0.75"/>
     </g>
    </g>
    <g id="text_28">
     <!-- 12 -->
     <g style="fill: #262626" transform="translate(765.557013 282.025687) scale(0.12 -0.12)">
      <use xlink:href="#DejaVuSans-31"/>
      <use xlink:href="#DejaVuSans-32" transform="translate(63.623047 0)"/>
     </g>
    </g>
    <g id="line2d_74">
     <path d="M 731.957013 295.439437 
L 743.957013 295.439437 
L 755.957013 295.439437 
" style="fill: none; stroke: #1f78b4; stroke-opacity: 0.9; stroke-width: 0.7; stroke-linecap: round"/>
     <g>
      <use xlink:href="#m4bf51a5fce" x="743.957013" y="295.439437" style="fill: #1f78b4; fill-opacity: 0.9; stroke: #ffffff; stroke-opacity: 0.9; stroke-width: 0.75"/>
     </g>
    </g>
    <g id="text_29">
     <!-- 13 -->
     <g style="fill: #262626" transform="translate(765.557013 299.639437) scale(0.12 -0.12)">
      <use xlink:href="#DejaVuSans-31"/>
      <use xlink:href="#DejaVuSans-33" transform="translate(63.623047 0)"/>
     </g>
    </g>
    <g id="line2d_75">
     <path d="M 731.957013 313.053187 
L 743.957013 313.053187 
L 755.957013 313.053187 
" style="fill: none; stroke: #b2df8a; stroke-opacity: 0.9; stroke-width: 0.7; stroke-linecap: round"/>
     <g>
      <use xlink:href="#m512a95096a" x="743.957013" y="313.053187" style="fill: #b2df8a; fill-opacity: 0.9; stroke: #ffffff; stroke-opacity: 0.9; stroke-width: 0.75"/>
     </g>
    </g>
    <g id="text_30">
     <!-- 14 -->
     <g style="fill: #262626" transform="translate(765.557013 317.253187) scale(0.12 -0.12)">
      <use xlink:href="#DejaVuSans-31"/>
      <use xlink:href="#DejaVuSans-34" transform="translate(63.623047 0)"/>
     </g>
    </g>
    <g id="line2d_76">
     <path d="M 731.957013 330.666938 
L 743.957013 330.666938 
L 755.957013 330.666938 
" style="fill: none; stroke: #33a02c; stroke-opacity: 0.9; stroke-width: 0.7; stroke-linecap: round"/>
     <g>
      <use xlink:href="#mf94642d735" x="743.957013" y="330.666938" style="fill: #33a02c; fill-opacity: 0.9; stroke: #ffffff; stroke-opacity: 0.9; stroke-width: 0.75"/>
     </g>
    </g>
    <g id="text_31">
     <!-- 15 -->
     <g style="fill: #262626" transform="translate(765.557013 334.866938) scale(0.12 -0.12)">
      <use xlink:href="#DejaVuSans-31"/>
      <use xlink:href="#DejaVuSans-35" transform="translate(63.623047 0)"/>
     </g>
    </g>
    <g id="line2d_77">
     <path d="M 731.957013 348.280687 
L 743.957013 348.280687 
L 755.957013 348.280687 
" style="fill: none; stroke: #fb9a99; stroke-opacity: 0.9; stroke-width: 0.7; stroke-linecap: round"/>
     <g>
      <use xlink:href="#mf594a98cef" x="743.957013" y="348.280687" style="fill: #fb9a99; fill-opacity: 0.9; stroke: #ffffff; stroke-opacity: 0.9; stroke-width: 0.75"/>
     </g>
    </g>
    <g id="text_32">
     <!-- 16 -->
     <g style="fill: #262626" transform="translate(765.557013 352.480687) scale(0.12 -0.12)">
      <use xlink:href="#DejaVuSans-31"/>
      <use xlink:href="#DejaVuSans-36" transform="translate(63.623047 0)"/>
     </g>
    </g>
    <g id="line2d_78">
     <path d="M 731.957013 365.894437 
L 743.957013 365.894437 
L 755.957013 365.894437 
" style="fill: none; stroke: #e31a1c; stroke-opacity: 0.9; stroke-width: 0.7; stroke-linecap: round"/>
     <g>
      <use xlink:href="#mb0e711babf" x="743.957013" y="365.894437" style="fill: #e31a1c; fill-opacity: 0.9; stroke: #ffffff; stroke-opacity: 0.9; stroke-width: 0.75"/>
     </g>
    </g>
    <g id="text_33">
     <!-- 17 -->
     <g style="fill: #262626" transform="translate(765.557013 370.094437) scale(0.12 -0.12)">
      <use xlink:href="#DejaVuSans-31"/>
      <use xlink:href="#DejaVuSans-37" transform="translate(63.623047 0)"/>
     </g>
    </g>
    <g id="line2d_79">
     <path d="M 731.957013 383.508187 
L 743.957013 383.508187 
L 755.957013 383.508187 
" style="fill: none; stroke: #fdbf6f; stroke-opacity: 0.9; stroke-width: 0.7; stroke-linecap: round"/>
     <g>
      <use xlink:href="#m14af24dec1" x="743.957013" y="383.508187" style="fill: #fdbf6f; fill-opacity: 0.9; stroke: #ffffff; stroke-opacity: 0.9; stroke-width: 0.75"/>
     </g>
    </g>
    <g id="text_34">
     <!-- 18 -->
     <g style="fill: #262626" transform="translate(765.557013 387.708187) scale(0.12 -0.12)">
      <use xlink:href="#DejaVuSans-31"/>
      <use xlink:href="#DejaVuSans-38" transform="translate(63.623047 0)"/>
     </g>
    </g>
    <g id="line2d_80">
     <path d="M 731.957013 401.121937 
L 743.957013 401.121937 
L 755.957013 401.121937 
" style="fill: none; stroke: #ff7f00; stroke-opacity: 0.9; stroke-width: 0.7; stroke-linecap: round"/>
     <g>
      <use xlink:href="#me4f62c8bb1" x="743.957013" y="401.121937" style="fill: #ff7f00; fill-opacity: 0.9; stroke: #ffffff; stroke-opacity: 0.9; stroke-width: 0.75"/>
     </g>
    </g>
    <g id="text_35">
     <!-- 19 -->
     <g style="fill: #262626" transform="translate(765.557013 405.321937) scale(0.12 -0.12)">
      <use xlink:href="#DejaVuSans-31"/>
      <use xlink:href="#DejaVuSans-39" transform="translate(63.623047 0)"/>
     </g>
    </g>
    <g id="line2d_81">
     <path d="M 731.957013 418.735687 
L 743.957013 418.735687 
L 755.957013 418.735687 
" style="fill: none; stroke: #cab2d6; stroke-opacity: 0.9; stroke-width: 0.7; stroke-linecap: round"/>
     <g>
      <use xlink:href="#mdd58d391aa" x="743.957013" y="418.735687" style="fill: #cab2d6; fill-opacity: 0.9; stroke: #ffffff; stroke-opacity: 0.9; stroke-width: 0.75"/>
     </g>
    </g>
    <g id="text_36">
     <!-- 20 -->
     <g style="fill: #262626" transform="translate(765.557013 422.935687) scale(0.12 -0.12)">
      <use xlink:href="#DejaVuSans-32"/>
      <use xlink:href="#DejaVuSans-30" transform="translate(63.623047 0)"/>
     </g>
    </g>
    <g id="line2d_82">
     <path d="M 731.957013 436.349437 
L 743.957013 436.349437 
L 755.957013 436.349437 
" style="fill: none; stroke: #6a3d9a; stroke-opacity: 0.9; stroke-width: 0.7; stroke-linecap: round"/>
     <g>
      <use xlink:href="#m4623e3c5cc" x="743.957013" y="436.349437" style="fill: #6a3d9a; fill-opacity: 0.9; stroke: #ffffff; stroke-opacity: 0.9; stroke-width: 0.75"/>
     </g>
    </g>
    <g id="text_37">
     <!-- 21 -->
     <g style="fill: #262626" transform="translate(765.557013 440.549437) scale(0.12 -0.12)">
      <use xlink:href="#DejaVuSans-32"/>
      <use xlink:href="#DejaVuSans-31" transform="translate(63.623047 0)"/>
     </g>
    </g>
    <g id="line2d_83">
     <path d="M 731.957013 453.963187 
L 743.957013 453.963187 
L 755.957013 453.963187 
" style="fill: none; stroke: #ffff99; stroke-opacity: 0.9; stroke-width: 0.7; stroke-linecap: round"/>
     <g>
      <use xlink:href="#m29e09fc5a0" x="743.957013" y="453.963187" style="fill: #ffff99; fill-opacity: 0.9; stroke: #ffffff; stroke-opacity: 0.9; stroke-width: 0.75"/>
     </g>
    </g>
    <g id="text_38">
     <!-- 22 -->
     <g style="fill: #262626" transform="translate(765.557013 458.163187) scale(0.12 -0.12)">
      <use xlink:href="#DejaVuSans-32"/>
      <use xlink:href="#DejaVuSans-32" transform="translate(63.623047 0)"/>
     </g>
    </g>
    <g id="line2d_84">
     <path d="M 731.957013 471.576937 
L 743.957013 471.576937 
L 755.957013 471.576937 
" style="fill: none; stroke: #b15928; stroke-opacity: 0.9; stroke-width: 0.7; stroke-linecap: round"/>
     <g>
      <use xlink:href="#m3c616e95c9" x="743.957013" y="471.576937" style="fill: #b15928; fill-opacity: 0.9; stroke: #ffffff; stroke-opacity: 0.9; stroke-width: 0.75"/>
     </g>
    </g>
    <g id="text_39">
     <!-- 23 -->
     <g style="fill: #262626" transform="translate(765.557013 475.776937) scale(0.12 -0.12)">
      <use xlink:href="#DejaVuSans-32"/>
      <use xlink:href="#DejaVuSans-33" transform="translate(63.623047 0)"/>
     </g>
    </g>
    <g id="line2d_85">
     <path d="M 731.957013 489.190687 
L 743.957013 489.190687 
L 755.957013 489.190687 
" style="fill: none; stroke-dasharray: 5.18,2.24; stroke-dashoffset: 0; stroke: #000000; stroke-width: 1.4"/>
     <g>
      <use xlink:href="#m95ce63f2f7" x="743.957013" y="489.190687" style="stroke: #ffffff; stroke-width: 0.75; stroke-linejoin: miter"/>
     </g>
    </g>
    <g id="text_40">
     <!-- Mean F1 -->
     <g style="fill: #262626" transform="translate(765.557013 493.390687) scale(0.12 -0.12)">
      <defs>
       <path id="DejaVuSans-4d" d="M 628 4666 
L 1569 4666 
L 2759 1491 
L 3956 4666 
L 4897 4666 
L 4897 0 
L 4281 0 
L 4281 4097 
L 3078 897 
L 2444 897 
L 1241 4097 
L 1241 0 
L 628 0 
L 628 4666 
z
" transform="scale(0.015625)"/>
       <path id="DejaVuSans-61" d="M 2194 1759 
Q 1497 1759 1228 1600 
Q 959 1441 959 1056 
Q 959 750 1161 570 
Q 1363 391 1709 391 
Q 2188 391 2477 730 
Q 2766 1069 2766 1631 
L 2766 1759 
L 2194 1759 
z
M 3341 1997 
L 3341 0 
L 2766 0 
L 2766 531 
Q 2569 213 2275 61 
Q 1981 -91 1556 -91 
Q 1019 -91 701 211 
Q 384 513 384 1019 
Q 384 1609 779 1909 
Q 1175 2209 1959 2209 
L 2766 2209 
L 2766 2266 
Q 2766 2663 2505 2880 
Q 2244 3097 1772 3097 
Q 1472 3097 1187 3025 
Q 903 2953 641 2809 
L 641 3341 
Q 956 3463 1253 3523 
Q 1550 3584 1831 3584 
Q 2591 3584 2966 3190 
Q 3341 2797 3341 1997 
z
" transform="scale(0.015625)"/>
       <path id="DejaVuSans-20" transform="scale(0.015625)"/>
       <path id="DejaVuSans-46" d="M 628 4666 
L 3309 4666 
L 3309 4134 
L 1259 4134 
L 1259 2759 
L 3109 2759 
L 3109 2228 
L 1259 2228 
L 1259 0 
L 628 0 
L 628 4666 
z
" transform="scale(0.015625)"/>
      </defs>
      <use xlink:href="#DejaVuSans-4d"/>
      <use xlink:href="#DejaVuSans-65" transform="translate(86.279297 0)"/>
      <use xlink:href="#DejaVuSans-61" transform="translate(147.802734 0)"/>
      <use xlink:href="#DejaVuSans-6e" transform="translate(209.082031 0)"/>
      <use xlink:href="#DejaVuSans-20" transform="translate(272.460938 0)"/>
      <use xlink:href="#DejaVuSans-46" transform="translate(304.248047 0)"/>
      <use xlink:href="#DejaVuSans-31" transform="translate(361.767578 0)"/>
     </g>
    </g>
   </g>
  </g>
 </g>
 <defs>
  <clipPath id="p5b8eb72484">
   <rect x="81.335313" y="23.837812" width="609.354" height="445.584"/>
  </clipPath>
 </defs>
</svg>
