<?xml version="1.0" encoding="utf-8" standalone="no"?>
<!DOCTYPE svg PUBLIC "-//W3C//DTD SVG 1.1//EN"
  "http://www.w3.org/Graphics/SVG/1.1/DTD/svg11.dtd">
<svg xmlns:xlink="http://www.w3.org/1999/xlink" width="829.724325pt" height="512.364625pt" viewBox="0 0 829.724325 512.364625" xmlns="http://www.w3.org/2000/svg" version="1.1">
 <metadata>
  <rdf:RDF xmlns:dc="http://purl.org/dc/elements/1.1/" xmlns:cc="http://creativecommons.org/ns#" xmlns:rdf="http://www.w3.org/1999/02/22-rdf-syntax-ns#">
   <cc:Work>
    <dc:type rdf:resource="http://purl.org/dc/dcmitype/StillImage"/>
    <dc:date>2025-06-19T19:33:03.893118</dc:date>
    <dc:format>image/svg+xml</dc:format>
    <dc:creator>
     <cc:Agent>
      <dc:title>Matplotlib v3.10.0, https://matplotlib.org/</dc:title>
     </cc:Agent>
    </dc:creator>
   </cc:Work>
  </rdf:RDF>
 </metadata>
 <defs>
  <style type="text/css">*{stroke-linejoin: round; stroke-linecap: butt}</style>
 </defs>
 <g id="figure_1">
  <g id="patch_1">
   <path d="M 0 512.364625 
L 829.724325 512.364625 
L 829.724325 0 
L 0 0 
z
" style="fill: #ffffff"/>
  </g>
  <g id="axes_1">
   <g id="patch_2">
    <path d="M 64.109375 475.244 
L 700.043375 475.244 
L 700.043375 7.2 
L 64.109375 7.2 
z
" style="fill: #ffffff"/>
   </g>
   <g id="matplotlib.axis_1">
    <g id="xtick_1">
     <g id="text_1">
      <!-- 0 -->
      <g style="fill: #262626" transform="translate(57.847344 501.421187) scale(0.18 -0.18)">
       <defs>
        <path id="DejaVuSans-Bold-30" d="M 2944 2338 
Q 2944 3213 2780 3570 
Q 2616 3928 2228 3928 
Q 1841 3928 1675 3570 
Q 1509 3213 1509 2338 
Q 1509 1453 1675 1090 
Q 1841 728 2228 728 
Q 2613 728 2778 1090 
Q 2944 1453 2944 2338 
z
M 4147 2328 
Q 4147 1169 3647 539 
Q 3147 -91 2228 -91 
Q 1306 -91 806 539 
Q 306 1169 306 2328 
Q 306 3491 806 4120 
Q 1306 4750 2228 4750 
Q 3147 4750 3647 4120 
Q 4147 3491 4147 2328 
z
" transform="scale(0.015625)"/>
       </defs>
       <use xlink:href="#DejaVuSans-Bold-30"/>
      </g>
     </g>
    </g>
    <g id="xtick_2">
     <g id="text_2">
      <!-- 1 -->
      <g style="fill: #262626" transform="translate(159.596784 501.421187) scale(0.18 -0.18)">
       <defs>
        <path id="DejaVuSans-Bold-31" d="M 750 831 
L 1813 831 
L 1813 3847 
L 722 3622 
L 722 4441 
L 1806 4666 
L 2950 4666 
L 2950 831 
L 4013 831 
L 4013 0 
L 750 0 
L 750 831 
z
" transform="scale(0.015625)"/>
       </defs>
       <use xlink:href="#DejaVuSans-Bold-31"/>
      </g>
     </g>
    </g>
    <g id="xtick_3">
     <g id="text_3">
      <!-- 2 -->
      <g style="fill: #262626" transform="translate(261.346224 501.421187) scale(0.18 -0.18)">
       <defs>
        <path id="DejaVuSans-Bold-32" d="M 1844 884 
L 3897 884 
L 3897 0 
L 506 0 
L 506 884 
L 2209 2388 
Q 2438 2594 2547 2791 
Q 2656 2988 2656 3200 
Q 2656 3528 2436 3728 
Q 2216 3928 1850 3928 
Q 1569 3928 1234 3808 
Q 900 3688 519 3450 
L 519 4475 
Q 925 4609 1322 4679 
Q 1719 4750 2100 4750 
Q 2938 4750 3402 4381 
Q 3866 4013 3866 3353 
Q 3866 2972 3669 2642 
Q 3472 2313 2841 1759 
L 1844 884 
z
" transform="scale(0.015625)"/>
       </defs>
       <use xlink:href="#DejaVuSans-Bold-32"/>
      </g>
     </g>
    </g>
    <g id="xtick_4">
     <g id="text_4">
      <!-- 3 -->
      <g style="fill: #262626" transform="translate(363.095664 501.421187) scale(0.18 -0.18)">
       <defs>
        <path id="DejaVuSans-Bold-33" d="M 2981 2516 
Q 3453 2394 3698 2092 
Q 3944 1791 3944 1325 
Q 3944 631 3412 270 
Q 2881 -91 1863 -91 
Q 1503 -91 1142 -33 
Q 781 25 428 141 
L 428 1069 
Q 766 900 1098 814 
Q 1431 728 1753 728 
Q 2231 728 2486 893 
Q 2741 1059 2741 1369 
Q 2741 1688 2480 1852 
Q 2219 2016 1709 2016 
L 1228 2016 
L 1228 2791 
L 1734 2791 
Q 2188 2791 2409 2933 
Q 2631 3075 2631 3366 
Q 2631 3634 2415 3781 
Q 2200 3928 1806 3928 
Q 1516 3928 1219 3862 
Q 922 3797 628 3669 
L 628 4550 
Q 984 4650 1334 4700 
Q 1684 4750 2022 4750 
Q 2931 4750 3382 4451 
Q 3834 4153 3834 3553 
Q 3834 3144 3618 2883 
Q 3403 2622 2981 2516 
z
" transform="scale(0.015625)"/>
       </defs>
       <use xlink:href="#DejaVuSans-Bold-33"/>
      </g>
     </g>
    </g>
    <g id="xtick_5">
     <g id="text_5">
      <!-- 4 -->
      <g style="fill: #262626" transform="translate(464.845104 501.421187) scale(0.18 -0.18)">
       <defs>
        <path id="DejaVuSans-Bold-34" d="M 2356 3675 
L 1038 1722 
L 2356 1722 
L 2356 3675 
z
M 2156 4666 
L 3494 4666 
L 3494 1722 
L 4159 1722 
L 4159 850 
L 3494 850 
L 3494 0 
L 2356 0 
L 2356 850 
L 288 850 
L 288 1881 
L 2156 4666 
z
" transform="scale(0.015625)"/>
       </defs>
       <use xlink:href="#DejaVuSans-Bold-34"/>
      </g>
     </g>
    </g>
    <g id="xtick_6">
     <g id="text_6">
      <!-- 5 -->
      <g style="fill: #262626" transform="translate(566.594544 501.421187) scale(0.18 -0.18)">
       <defs>
        <path id="DejaVuSans-Bold-35" d="M 678 4666 
L 3669 4666 
L 3669 3781 
L 1638 3781 
L 1638 3059 
Q 1775 3097 1914 3117 
Q 2053 3138 2203 3138 
Q 3056 3138 3531 2711 
Q 4006 2284 4006 1522 
Q 4006 766 3489 337 
Q 2972 -91 2053 -91 
Q 1656 -91 1267 -14 
Q 878 63 494 219 
L 494 1166 
Q 875 947 1217 837 
Q 1559 728 1863 728 
Q 2300 728 2551 942 
Q 2803 1156 2803 1522 
Q 2803 1891 2551 2103 
Q 2300 2316 1863 2316 
Q 1603 2316 1309 2248 
Q 1016 2181 678 2041 
L 678 4666 
z
" transform="scale(0.015625)"/>
       </defs>
       <use xlink:href="#DejaVuSans-Bold-35"/>
      </g>
     </g>
    </g>
    <g id="xtick_7">
     <g id="text_7">
      <!-- 6 -->
      <g style="fill: #262626" transform="translate(668.343984 501.421187) scale(0.18 -0.18)">
       <defs>
        <path id="DejaVuSans-Bold-36" d="M 2316 2303 
Q 2000 2303 1842 2098 
Q 1684 1894 1684 1484 
Q 1684 1075 1842 870 
Q 2000 666 2316 666 
Q 2634 666 2792 870 
Q 2950 1075 2950 1484 
Q 2950 1894 2792 2098 
Q 2634 2303 2316 2303 
z
M 3803 4544 
L 3803 3681 
Q 3506 3822 3243 3889 
Q 2981 3956 2731 3956 
Q 2194 3956 1894 3657 
Q 1594 3359 1544 2772 
Q 1750 2925 1990 3001 
Q 2231 3078 2516 3078 
Q 3231 3078 3670 2659 
Q 4109 2241 4109 1563 
Q 4109 813 3618 361 
Q 3128 -91 2303 -91 
Q 1394 -91 895 523 
Q 397 1138 397 2266 
Q 397 3422 980 4083 
Q 1563 4744 2578 4744 
Q 2900 4744 3203 4694 
Q 3506 4644 3803 4544 
z
" transform="scale(0.015625)"/>
       </defs>
       <use xlink:href="#DejaVuSans-Bold-36"/>
      </g>
     </g>
    </g>
   </g>
   <g id="matplotlib.axis_2">
    <g id="ytick_1">
     <g id="text_8">
      <!-- 0.00 -->
      <g style="fill: #262626" transform="translate(7.2 482.082594) scale(0.18 -0.18)">
       <defs>
        <path id="DejaVuSans-Bold-2e" d="M 653 1209 
L 1778 1209 
L 1778 0 
L 653 0 
L 653 1209 
z
" transform="scale(0.015625)"/>
       </defs>
       <use xlink:href="#DejaVuSans-Bold-30"/>
       <use xlink:href="#DejaVuSans-Bold-2e" transform="translate(69.580078 0)"/>
       <use xlink:href="#DejaVuSans-Bold-30" transform="translate(107.568359 0)"/>
       <use xlink:href="#DejaVuSans-Bold-30" transform="translate(177.148438 0)"/>
      </g>
     </g>
    </g>
    <g id="ytick_2">
     <g id="text_9">
      <!-- 0.05 -->
      <g style="fill: #262626" transform="translate(7.2 414.446178) scale(0.18 -0.18)">
       <use xlink:href="#DejaVuSans-Bold-30"/>
       <use xlink:href="#DejaVuSans-Bold-2e" transform="translate(69.580078 0)"/>
       <use xlink:href="#DejaVuSans-Bold-30" transform="translate(107.568359 0)"/>
       <use xlink:href="#DejaVuSans-Bold-35" transform="translate(177.148438 0)"/>
      </g>
     </g>
    </g>
    <g id="ytick_3">
     <g id="text_10">
      <!-- 0.10 -->
      <g style="fill: #262626" transform="translate(7.2 346.809761) scale(0.18 -0.18)">
       <use xlink:href="#DejaVuSans-Bold-30"/>
       <use xlink:href="#DejaVuSans-Bold-2e" transform="translate(69.580078 0)"/>
       <use xlink:href="#DejaVuSans-Bold-31" transform="translate(107.568359 0)"/>
       <use xlink:href="#DejaVuSans-Bold-30" transform="translate(177.148438 0)"/>
      </g>
     </g>
    </g>
    <g id="ytick_4">
     <g id="text_11">
      <!-- 0.15 -->
      <g style="fill: #262626" transform="translate(7.2 279.173345) scale(0.18 -0.18)">
       <use xlink:href="#DejaVuSans-Bold-30"/>
       <use xlink:href="#DejaVuSans-Bold-2e" transform="translate(69.580078 0)"/>
       <use xlink:href="#DejaVuSans-Bold-31" transform="translate(107.568359 0)"/>
       <use xlink:href="#DejaVuSans-Bold-35" transform="translate(177.148438 0)"/>
      </g>
     </g>
    </g>
    <g id="ytick_5">
     <g id="text_12">
      <!-- 0.20 -->
      <g style="fill: #262626" transform="translate(7.2 211.536929) scale(0.18 -0.18)">
       <use xlink:href="#DejaVuSans-Bold-30"/>
       <use xlink:href="#DejaVuSans-Bold-2e" transform="translate(69.580078 0)"/>
       <use xlink:href="#DejaVuSans-Bold-32" transform="translate(107.568359 0)"/>
       <use xlink:href="#DejaVuSans-Bold-30" transform="translate(177.148438 0)"/>
      </g>
     </g>
    </g>
    <g id="ytick_6">
     <g id="text_13">
      <!-- 0.25 -->
      <g style="fill: #262626" transform="translate(7.2 143.900513) scale(0.18 -0.18)">
       <use xlink:href="#DejaVuSans-Bold-30"/>
       <use xlink:href="#DejaVuSans-Bold-2e" transform="translate(69.580078 0)"/>
       <use xlink:href="#DejaVuSans-Bold-32" transform="translate(107.568359 0)"/>
       <use xlink:href="#DejaVuSans-Bold-35" transform="translate(177.148438 0)"/>
      </g>
     </g>
    </g>
    <g id="ytick_7">
     <g id="text_14">
      <!-- 0.30 -->
      <g style="fill: #262626" transform="translate(7.2 76.264097) scale(0.18 -0.18)">
       <use xlink:href="#DejaVuSans-Bold-30"/>
       <use xlink:href="#DejaVuSans-Bold-2e" transform="translate(69.580078 0)"/>
       <use xlink:href="#DejaVuSans-Bold-33" transform="translate(107.568359 0)"/>
       <use xlink:href="#DejaVuSans-Bold-30" transform="translate(177.148438 0)"/>
      </g>
     </g>
    </g>
   </g>
   <g id="FillBetweenPolyCollection_1"/>
   <g id="FillBetweenPolyCollection_2"/>
   <g id="FillBetweenPolyCollection_3"/>
   <g id="FillBetweenPolyCollection_4"/>
   <g id="FillBetweenPolyCollection_5"/>
   <g id="FillBetweenPolyCollection_6"/>
   <g id="FillBetweenPolyCollection_7"/>
   <g id="FillBetweenPolyCollection_8"/>
   <g id="FillBetweenPolyCollection_9"/>
   <g id="FillBetweenPolyCollection_10"/>
   <g id="FillBetweenPolyCollection_11"/>
   <g id="FillBetweenPolyCollection_12"/>
   <g id="FillBetweenPolyCollection_13"/>
   <g id="FillBetweenPolyCollection_14"/>
   <g id="FillBetweenPolyCollection_15"/>
   <g id="FillBetweenPolyCollection_16"/>
   <g id="FillBetweenPolyCollection_17"/>
   <g id="FillBetweenPolyCollection_18"/>
   <g id="FillBetweenPolyCollection_19"/>
   <g id="FillBetweenPolyCollection_20"/>
   <g id="FillBetweenPolyCollection_21"/>
   <g id="FillBetweenPolyCollection_22"/>
   <g id="FillBetweenPolyCollection_23"/>
   <g id="FillBetweenPolyCollection_24"/>
   <g id="FillBetweenPolyCollection_25"/>
   <g id="line2d_1">
    <path d="M 165.858815 448.189434 
L 267.608255 448.189434 
L 369.357695 434.66215 
L 471.107135 380.553017 
L 572.856575 285.862035 
L 674.606015 218.225618 
" clip-path="url(#p91387a9172)" style="fill: none; stroke: #a6cee3; stroke-opacity: 0.99; stroke-width: 0.8; stroke-linecap: round"/>
   </g>
   <g id="line2d_2">
    <path d="M 165.858815 434.66215 
L 267.608255 434.66215 
L 369.357695 353.498451 
L 471.107135 339.971168 
L 572.856575 258.807468 
L 674.606015 231.752902 
" clip-path="url(#p91387a9172)" style="fill: none; stroke: #1f78b4; stroke-opacity: 0.99; stroke-width: 0.8; stroke-linecap: round"/>
   </g>
   <g id="line2d_3">
    <path d="M 165.858815 434.66215 
L 267.608255 434.66215 
L 369.357695 258.807468 
L 471.107135 191.171052 
L 572.856575 150.589202 
L 674.606015 110.007353 
" clip-path="url(#p91387a9172)" style="fill: none; stroke: #b2df8a; stroke-opacity: 0.99; stroke-width: 0.8; stroke-linecap: round"/>
   </g>
   <g id="line2d_4">
    <path d="M 165.858815 421.134867 
L 267.608255 421.134867 
L 369.357695 326.443884 
L 471.107135 245.280185 
L 572.856575 204.698335 
L 674.606015 123.534636 
" clip-path="url(#p91387a9172)" style="fill: none; stroke: #33a02c; stroke-opacity: 0.99; stroke-width: 0.8; stroke-linecap: round"/>
   </g>
   <g id="line2d_5">
    <path d="M 165.858815 434.66215 
L 267.608255 434.66215 
L 369.357695 339.971168 
L 471.107135 258.807468 
L 572.856575 245.280185 
L 674.606015 164.116486 
" clip-path="url(#p91387a9172)" style="fill: none; stroke: #fb9a99; stroke-opacity: 0.99; stroke-width: 0.8; stroke-linecap: round"/>
   </g>
   <g id="line2d_6">
    <path d="M 165.858815 448.189434 
L 267.608255 448.189434 
L 369.357695 407.607584 
L 471.107135 380.553017 
L 572.856575 353.498451 
L 674.606015 204.698335 
" clip-path="url(#p91387a9172)" style="fill: none; stroke: #e31a1c; stroke-opacity: 0.99; stroke-width: 0.8; stroke-linecap: round"/>
   </g>
   <g id="line2d_7">
    <path d="M 165.858815 448.189434 
L 267.608255 448.189434 
L 369.357695 407.607584 
L 471.107135 380.553017 
L 572.856575 258.807468 
L 674.606015 137.061919 
" clip-path="url(#p91387a9172)" style="fill: none; stroke: #fdbf6f; stroke-opacity: 0.99; stroke-width: 0.8; stroke-linecap: round"/>
   </g>
   <g id="line2d_8">
    <path d="M 165.858815 434.66215 
L 267.608255 434.66215 
L 369.357695 367.025734 
L 471.107135 285.862035 
L 572.856575 218.225618 
L 674.606015 164.116486 
" clip-path="url(#p91387a9172)" style="fill: none; stroke: #ff7f00; stroke-opacity: 0.99; stroke-width: 0.8; stroke-linecap: round"/>
   </g>
   <g id="line2d_9">
    <path d="M 165.858815 448.189434 
L 267.608255 448.189434 
L 369.357695 407.607584 
L 471.107135 218.225618 
L 572.856575 177.643769 
L 674.606015 55.89822 
" clip-path="url(#p91387a9172)" style="fill: none; stroke: #cab2d6; stroke-opacity: 0.99; stroke-width: 0.8; stroke-linecap: round"/>
   </g>
   <g id="line2d_10">
    <path d="M 165.858815 448.189434 
L 267.608255 448.189434 
L 369.357695 434.66215 
L 471.107135 326.443884 
L 572.856575 245.280185 
L 674.606015 123.534636 
" clip-path="url(#p91387a9172)" style="fill: none; stroke: #6a3d9a; stroke-opacity: 0.99; stroke-width: 0.8; stroke-linecap: round"/>
   </g>
   <g id="line2d_11">
    <path d="M 165.858815 394.080301 
L 267.608255 394.080301 
L 369.357695 367.025734 
L 471.107135 272.334751 
L 572.856575 231.752902 
L 674.606015 123.534636 
" clip-path="url(#p91387a9172)" style="fill: none; stroke: #ffff99; stroke-opacity: 0.99; stroke-width: 0.8; stroke-linecap: round"/>
   </g>
   <g id="line2d_12">
    <path d="M 165.858815 448.189434 
L 267.608255 448.189434 
L 369.357695 326.443884 
L 471.107135 231.752902 
L 572.856575 191.171052 
L 674.606015 96.480069 
" clip-path="url(#p91387a9172)" style="fill: none; stroke: #b15928; stroke-opacity: 0.99; stroke-width: 0.8; stroke-linecap: round"/>
   </g>
   <g id="line2d_13">
    <path d="M 165.858815 434.66215 
L 267.608255 434.66215 
L 369.357695 353.498451 
L 471.107135 299.389318 
L 572.856575 258.807468 
L 674.606015 137.061919 
" clip-path="url(#p91387a9172)" style="fill: none; stroke: #a6cee3; stroke-opacity: 0.99; stroke-width: 0.8; stroke-linecap: round"/>
   </g>
   <g id="line2d_14">
    <path d="M 165.858815 421.134867 
L 267.608255 421.134867 
L 369.357695 299.389318 
L 471.107135 258.807468 
L 572.856575 177.643769 
L 674.606015 96.480069 
" clip-path="url(#p91387a9172)" style="fill: none; stroke: #1f78b4; stroke-opacity: 0.99; stroke-width: 0.8; stroke-linecap: round"/>
   </g>
   <g id="line2d_15">
    <path d="M 165.858815 434.66215 
L 267.608255 434.66215 
L 369.357695 339.971168 
L 471.107135 312.916601 
L 572.856575 299.389318 
L 674.606015 137.061919 
" clip-path="url(#p91387a9172)" style="fill: none; stroke: #b2df8a; stroke-opacity: 0.99; stroke-width: 0.8; stroke-linecap: round"/>
   </g>
   <g id="line2d_16">
    <path d="M 165.858815 434.66215 
L 267.608255 434.66215 
L 369.357695 326.443884 
L 471.107135 258.807468 
L 572.856575 191.171052 
L 674.606015 96.480069 
" clip-path="url(#p91387a9172)" style="fill: none; stroke: #33a02c; stroke-opacity: 0.99; stroke-width: 0.8; stroke-linecap: round"/>
   </g>
   <g id="line2d_17">
    <path d="M 165.858815 421.134867 
L 267.608255 421.134867 
L 369.357695 339.971168 
L 471.107135 285.862035 
L 572.856575 204.698335 
L 674.606015 82.952786 
" clip-path="url(#p91387a9172)" style="fill: none; stroke: #fb9a99; stroke-opacity: 0.99; stroke-width: 0.8; stroke-linecap: round"/>
   </g>
   <g id="line2d_18">
    <path d="M 165.858815 434.66215 
L 267.608255 434.66215 
L 369.357695 380.553017 
L 471.107135 258.807468 
L 572.856575 177.643769 
L 674.606015 137.061919 
" clip-path="url(#p91387a9172)" style="fill: none; stroke: #e31a1c; stroke-opacity: 0.99; stroke-width: 0.8; stroke-linecap: round"/>
   </g>
   <g id="line2d_19">
    <path d="M 165.858815 448.189434 
L 267.608255 448.189434 
L 369.357695 434.66215 
L 471.107135 326.443884 
L 572.856575 245.280185 
L 674.606015 150.589202 
" clip-path="url(#p91387a9172)" style="fill: none; stroke: #fdbf6f; stroke-opacity: 0.99; stroke-width: 0.8; stroke-linecap: round"/>
   </g>
   <g id="line2d_20">
    <path d="M 165.858815 421.134867 
L 267.608255 421.134867 
L 369.357695 367.025734 
L 471.107135 299.389318 
L 572.856575 258.807468 
L 674.606015 137.061919 
" clip-path="url(#p91387a9172)" style="fill: none; stroke: #ff7f00; stroke-opacity: 0.99; stroke-width: 0.8; stroke-linecap: round"/>
   </g>
   <g id="line2d_21">
    <path d="M 165.858815 434.66215 
L 267.608255 434.66215 
L 369.357695 394.080301 
L 471.107135 299.389318 
L 572.856575 245.280185 
L 674.606015 204.698335 
" clip-path="url(#p91387a9172)" style="fill: none; stroke: #cab2d6; stroke-opacity: 0.99; stroke-width: 0.8; stroke-linecap: round"/>
   </g>
   <g id="line2d_22">
    <path d="M 165.858815 448.189434 
L 267.608255 448.189434 
L 369.357695 407.607584 
L 471.107135 326.443884 
L 572.856575 150.589202 
L 674.606015 28.843653 
" clip-path="url(#p91387a9172)" style="fill: none; stroke: #6a3d9a; stroke-opacity: 0.99; stroke-width: 0.8; stroke-linecap: round"/>
   </g>
   <g id="line2d_23">
    <path d="M 165.858815 461.716717 
L 267.608255 461.716717 
L 369.357695 407.607584 
L 471.107135 353.498451 
L 572.856575 231.752902 
L 674.606015 110.007353 
" clip-path="url(#p91387a9172)" style="fill: none; stroke: #ffff99; stroke-opacity: 0.99; stroke-width: 0.8; stroke-linecap: round"/>
   </g>
   <g id="line2d_24">
    <path d="M 165.858815 434.66215 
L 267.608255 434.66215 
L 369.357695 339.971168 
L 471.107135 258.807468 
L 572.856575 164.116486 
L 674.606015 110.007353 
" clip-path="url(#p91387a9172)" style="fill: none; stroke: #b15928; stroke-opacity: 0.99; stroke-width: 0.8; stroke-linecap: round"/>
   </g>
   <g id="line2d_25"/>
   <g id="line2d_26"/>
   <g id="line2d_27"/>
   <g id="line2d_28"/>
   <g id="line2d_29"/>
   <g id="line2d_30"/>
   <g id="line2d_31"/>
   <g id="line2d_32"/>
   <g id="line2d_33"/>
   <g id="line2d_34"/>
   <g id="line2d_35"/>
   <g id="line2d_36"/>
   <g id="line2d_37"/>
   <g id="line2d_38"/>
   <g id="line2d_39"/>
   <g id="line2d_40"/>
   <g id="line2d_41"/>
   <g id="line2d_42"/>
   <g id="line2d_43"/>
   <g id="line2d_44"/>
   <g id="line2d_45"/>
   <g id="line2d_46"/>
   <g id="line2d_47"/>
   <g id="line2d_48"/>
   <g id="line2d_49">
    <path d="M 165.858815 436.353061 
L 267.608255 436.353061 
L 369.357695 367.589371 
L 471.107135 293.75295 
L 572.856575 226.116534 
L 674.606015 132.552825 
" clip-path="url(#p91387a9172)" style="fill: none; stroke-dasharray: 3.7,1.6; stroke-dashoffset: 0; stroke: #000000"/>
   </g>
   <g id="patch_3">
    <path d="M 64.109375 475.244 
L 64.109375 7.2 
" style="fill: none; stroke: #262626; stroke-width: 1.875; stroke-linejoin: miter; stroke-linecap: square"/>
   </g>
   <g id="patch_4">
    <path d="M 700.043375 475.244 
L 700.043375 7.2 
" style="fill: none; stroke: #262626; stroke-width: 1.875; stroke-linejoin: miter; stroke-linecap: square"/>
   </g>
   <g id="patch_5">
    <path d="M 64.109375 475.244 
L 700.043375 475.244 
" style="fill: none; stroke: #262626; stroke-width: 1.875; stroke-linejoin: miter; stroke-linecap: square"/>
   </g>
   <g id="patch_6">
    <path d="M 64.109375 7.2 
L 700.043375 7.2 
" style="fill: none; stroke: #262626; stroke-width: 1.875; stroke-linejoin: miter; stroke-linecap: square"/>
   </g>
   <g id="legend_1">
    <g id="patch_7">
     <path d="M 740.940075 502.96225 
L 819.924325 502.96225 
Q 822.524325 502.96225 822.524325 500.36225 
L 822.524325 16.3 
Q 822.524325 13.7 819.924325 13.7 
L 740.940075 13.7 
Q 738.340075 13.7 738.340075 16.3 
L 738.340075 500.36225 
Q 738.340075 502.96225 740.940075 502.96225 
z
" style="fill: #ffffff; opacity: 0.8; stroke: #cccccc; stroke-width: 1.5; stroke-linejoin: miter"/>
    </g>
    <g id="text_15">
     <!-- Clients -->
     <g style="fill: #262626" transform="translate(743.540075 35.312625) scale(0.216 -0.216)">
      <defs>
       <path id="DejaVuSans-43" d="M 4122 4306 
L 4122 3641 
Q 3803 3938 3442 4084 
Q 3081 4231 2675 4231 
Q 1875 4231 1450 3742 
Q 1025 3253 1025 2328 
Q 1025 1406 1450 917 
Q 1875 428 2675 428 
Q 3081 428 3442 575 
Q 3803 722 4122 1019 
L 4122 359 
Q 3791 134 3420 21 
Q 3050 -91 2638 -91 
Q 1578 -91 968 557 
Q 359 1206 359 2328 
Q 359 3453 968 4101 
Q 1578 4750 2638 4750 
Q 3056 4750 3426 4639 
Q 3797 4528 4122 4306 
z
" transform="scale(0.015625)"/>
       <path id="DejaVuSans-6c" d="M 603 4863 
L 1178 4863 
L 1178 0 
L 603 0 
L 603 4863 
z
" transform="scale(0.015625)"/>
       <path id="DejaVuSans-69" d="M 603 3500 
L 1178 3500 
L 1178 0 
L 603 0 
L 603 3500 
z
M 603 4863 
L 1178 4863 
L 1178 4134 
L 603 4134 
L 603 4863 
z
" transform="scale(0.015625)"/>
       <path id="DejaVuSans-65" d="M 3597 1894 
L 3597 1613 
L 953 1613 
Q 991 1019 1311 708 
Q 1631 397 2203 397 
Q 2534 397 2845 478 
Q 3156 559 3463 722 
L 3463 178 
Q 3153 47 2828 -22 
Q 2503 -91 2169 -91 
Q 1331 -91 842 396 
Q 353 884 353 1716 
Q 353 2575 817 3079 
Q 1281 3584 2069 3584 
Q 2775 3584 3186 3129 
Q 3597 2675 3597 1894 
z
M 3022 2063 
Q 3016 2534 2758 2815 
Q 2500 3097 2075 3097 
Q 1594 3097 1305 2825 
Q 1016 2553 972 2059 
L 3022 2063 
z
" transform="scale(0.015625)"/>
       <path id="DejaVuSans-6e" d="M 3513 2113 
L 3513 0 
L 2938 0 
L 2938 2094 
Q 2938 2591 2744 2837 
Q 2550 3084 2163 3084 
Q 1697 3084 1428 2787 
Q 1159 2491 1159 1978 
L 1159 0 
L 581 0 
L 581 3500 
L 1159 3500 
L 1159 2956 
Q 1366 3272 1645 3428 
Q 1925 3584 2291 3584 
Q 2894 3584 3203 3211 
Q 3513 2838 3513 2113 
z
" transform="scale(0.015625)"/>
       <path id="DejaVuSans-74" d="M 1172 4494 
L 1172 3500 
L 2356 3500 
L 2356 3053 
L 1172 3053 
L 1172 1153 
Q 1172 725 1289 603 
Q 1406 481 1766 481 
L 2356 481 
L 2356 0 
L 1766 0 
Q 1100 0 847 248 
Q 594 497 594 1153 
L 594 3053 
L 172 3053 
L 172 3500 
L 594 3500 
L 594 4494 
L 1172 4494 
z
" transform="scale(0.015625)"/>
       <path id="DejaVuSans-73" d="M 2834 3397 
L 2834 2853 
Q 2591 2978 2328 3040 
Q 2066 3103 1784 3103 
Q 1356 3103 1142 2972 
Q 928 2841 928 2578 
Q 928 2378 1081 2264 
Q 1234 2150 1697 2047 
L 1894 2003 
Q 2506 1872 2764 1633 
Q 3022 1394 3022 966 
Q 3022 478 2636 193 
Q 2250 -91 1575 -91 
Q 1294 -91 989 -36 
Q 684 19 347 128 
L 347 722 
Q 666 556 975 473 
Q 1284 391 1588 391 
Q 1994 391 2212 530 
Q 2431 669 2431 922 
Q 2431 1156 2273 1281 
Q 2116 1406 1581 1522 
L 1381 1569 
Q 847 1681 609 1914 
Q 372 2147 372 2553 
Q 372 3047 722 3315 
Q 1072 3584 1716 3584 
Q 2034 3584 2315 3537 
Q 2597 3491 2834 3397 
z
" transform="scale(0.015625)"/>
      </defs>
      <use xlink:href="#DejaVuSans-43"/>
      <use xlink:href="#DejaVuSans-6c" transform="translate(69.824219 0)"/>
      <use xlink:href="#DejaVuSans-69" transform="translate(97.607422 0)"/>
      <use xlink:href="#DejaVuSans-65" transform="translate(125.390625 0)"/>
      <use xlink:href="#DejaVuSans-6e" transform="translate(186.914062 0)"/>
      <use xlink:href="#DejaVuSans-74" transform="translate(250.292969 0)"/>
      <use xlink:href="#DejaVuSans-73" transform="translate(289.501953 0)"/>
     </g>
    </g>
    <g id="line2d_50">
     <path d="M 753.187044 51.632719 
L 766.187044 51.632719 
L 779.187044 51.632719 
" style="fill: none; stroke: #a6cee3; stroke-opacity: 0.99; stroke-width: 0.8; stroke-linecap: round"/>
    </g>
    <g id="text_16">
     <!-- 0 -->
     <g style="fill: #262626" transform="translate(789.587044 56.182719) scale(0.13 -0.13)">
      <use xlink:href="#DejaVuSans-Bold-30"/>
     </g>
    </g>
    <g id="line2d_51">
     <path d="M 753.187044 70.714281 
L 766.187044 70.714281 
L 779.187044 70.714281 
" style="fill: none; stroke: #1f78b4; stroke-opacity: 0.99; stroke-width: 0.8; stroke-linecap: round"/>
    </g>
    <g id="text_17">
     <!-- 1 -->
     <g style="fill: #262626" transform="translate(789.587044 75.264281) scale(0.13 -0.13)">
      <use xlink:href="#DejaVuSans-Bold-31"/>
     </g>
    </g>
    <g id="line2d_52">
     <path d="M 753.187044 89.795844 
L 766.187044 89.795844 
L 779.187044 89.795844 
" style="fill: none; stroke: #b2df8a; stroke-opacity: 0.99; stroke-width: 0.8; stroke-linecap: round"/>
    </g>
    <g id="text_18">
     <!-- 2 -->
     <g style="fill: #262626" transform="translate(789.587044 94.345844) scale(0.13 -0.13)">
      <use xlink:href="#DejaVuSans-Bold-32"/>
     </g>
    </g>
    <g id="line2d_53">
     <path d="M 753.187044 108.877406 
L 766.187044 108.877406 
L 779.187044 108.877406 
" style="fill: none; stroke: #33a02c; stroke-opacity: 0.99; stroke-width: 0.8; stroke-linecap: round"/>
    </g>
    <g id="text_19">
     <!-- 3 -->
     <g style="fill: #262626" transform="translate(789.587044 113.427406) scale(0.13 -0.13)">
      <use xlink:href="#DejaVuSans-Bold-33"/>
     </g>
    </g>
    <g id="line2d_54">
     <path d="M 753.187044 127.958969 
L 766.187044 127.958969 
L 779.187044 127.958969 
" style="fill: none; stroke: #fb9a99; stroke-opacity: 0.99; stroke-width: 0.8; stroke-linecap: round"/>
    </g>
    <g id="text_20">
     <!-- 4 -->
     <g style="fill: #262626" transform="translate(789.587044 132.508969) scale(0.13 -0.13)">
      <use xlink:href="#DejaVuSans-Bold-34"/>
     </g>
    </g>
    <g id="line2d_55">
     <path d="M 753.187044 147.040531 
L 766.187044 147.040531 
L 779.187044 147.040531 
" style="fill: none; stroke: #e31a1c; stroke-opacity: 0.99; stroke-width: 0.8; stroke-linecap: round"/>
    </g>
    <g id="text_21">
     <!-- 5 -->
     <g style="fill: #262626" transform="translate(789.587044 151.590531) scale(0.13 -0.13)">
      <use xlink:href="#DejaVuSans-Bold-35"/>
     </g>
    </g>
    <g id="line2d_56">
     <path d="M 753.187044 166.122094 
L 766.187044 166.122094 
L 779.187044 166.122094 
" style="fill: none; stroke: #fdbf6f; stroke-opacity: 0.99; stroke-width: 0.8; stroke-linecap: round"/>
    </g>
    <g id="text_22">
     <!-- 6 -->
     <g style="fill: #262626" transform="translate(789.587044 170.672094) scale(0.13 -0.13)">
      <use xlink:href="#DejaVuSans-Bold-36"/>
     </g>
    </g>
    <g id="line2d_57">
     <path d="M 753.187044 185.203656 
L 766.187044 185.203656 
L 779.187044 185.203656 
" style="fill: none; stroke: #ff7f00; stroke-opacity: 0.99; stroke-width: 0.8; stroke-linecap: round"/>
    </g>
    <g id="text_23">
     <!-- 7 -->
     <g style="fill: #262626" transform="translate(789.587044 189.753656) scale(0.13 -0.13)">
      <defs>
       <path id="DejaVuSans-Bold-37" d="M 428 4666 
L 3944 4666 
L 3944 3988 
L 2125 0 
L 953 0 
L 2675 3781 
L 428 3781 
L 428 4666 
z
" transform="scale(0.015625)"/>
      </defs>
      <use xlink:href="#DejaVuSans-Bold-37"/>
     </g>
    </g>
    <g id="line2d_58">
     <path d="M 753.187044 204.285219 
L 766.187044 204.285219 
L 779.187044 204.285219 
" style="fill: none; stroke: #cab2d6; stroke-opacity: 0.99; stroke-width: 0.8; stroke-linecap: round"/>
    </g>
    <g id="text_24">
     <!-- 8 -->
     <g style="fill: #262626" transform="translate(789.587044 208.835219) scale(0.13 -0.13)">
      <defs>
       <path id="DejaVuSans-Bold-38" d="M 2228 2088 
Q 1891 2088 1709 1903 
Q 1528 1719 1528 1375 
Q 1528 1031 1709 848 
Q 1891 666 2228 666 
Q 2563 666 2741 848 
Q 2919 1031 2919 1375 
Q 2919 1722 2741 1905 
Q 2563 2088 2228 2088 
z
M 1350 2484 
Q 925 2613 709 2878 
Q 494 3144 494 3541 
Q 494 4131 934 4440 
Q 1375 4750 2228 4750 
Q 3075 4750 3515 4442 
Q 3956 4134 3956 3541 
Q 3956 3144 3739 2878 
Q 3522 2613 3097 2484 
Q 3572 2353 3814 2058 
Q 4056 1763 4056 1313 
Q 4056 619 3595 264 
Q 3134 -91 2228 -91 
Q 1319 -91 855 264 
Q 391 619 391 1313 
Q 391 1763 633 2058 
Q 875 2353 1350 2484 
z
M 1631 3419 
Q 1631 3141 1786 2991 
Q 1941 2841 2228 2841 
Q 2509 2841 2662 2991 
Q 2816 3141 2816 3419 
Q 2816 3697 2662 3845 
Q 2509 3994 2228 3994 
Q 1941 3994 1786 3844 
Q 1631 3694 1631 3419 
z
" transform="scale(0.015625)"/>
      </defs>
      <use xlink:href="#DejaVuSans-Bold-38"/>
     </g>
    </g>
    <g id="line2d_59">
     <path d="M 753.187044 223.366781 
L 766.187044 223.366781 
L 779.187044 223.366781 
" style="fill: none; stroke: #6a3d9a; stroke-opacity: 0.99; stroke-width: 0.8; stroke-linecap: round"/>
    </g>
    <g id="text_25">
     <!-- 9 -->
     <g style="fill: #262626" transform="translate(789.587044 227.916781) scale(0.13 -0.13)">
      <defs>
       <path id="DejaVuSans-Bold-39" d="M 641 103 
L 641 966 
Q 928 831 1190 764 
Q 1453 697 1709 697 
Q 2247 697 2547 995 
Q 2847 1294 2900 1881 
Q 2688 1725 2447 1647 
Q 2206 1569 1925 1569 
Q 1209 1569 770 1986 
Q 331 2403 331 3084 
Q 331 3838 820 4291 
Q 1309 4744 2131 4744 
Q 3044 4744 3544 4128 
Q 4044 3513 4044 2388 
Q 4044 1231 3459 570 
Q 2875 -91 1856 -91 
Q 1528 -91 1228 -42 
Q 928 6 641 103 
z
M 2125 2350 
Q 2441 2350 2600 2554 
Q 2759 2759 2759 3169 
Q 2759 3575 2600 3781 
Q 2441 3988 2125 3988 
Q 1809 3988 1650 3781 
Q 1491 3575 1491 3169 
Q 1491 2759 1650 2554 
Q 1809 2350 2125 2350 
z
" transform="scale(0.015625)"/>
      </defs>
      <use xlink:href="#DejaVuSans-Bold-39"/>
     </g>
    </g>
    <g id="line2d_60">
     <path d="M 753.187044 242.448344 
L 766.187044 242.448344 
L 779.187044 242.448344 
" style="fill: none; stroke: #ffff99; stroke-opacity: 0.99; stroke-width: 0.8; stroke-linecap: round"/>
    </g>
    <g id="text_26">
     <!-- 10 -->
     <g style="fill: #262626" transform="translate(789.587044 246.998344) scale(0.13 -0.13)">
      <use xlink:href="#DejaVuSans-Bold-31"/>
      <use xlink:href="#DejaVuSans-Bold-30" transform="translate(69.580078 0)"/>
     </g>
    </g>
    <g id="line2d_61">
     <path d="M 753.187044 261.529906 
L 766.187044 261.529906 
L 779.187044 261.529906 
" style="fill: none; stroke: #b15928; stroke-opacity: 0.99; stroke-width: 0.8; stroke-linecap: round"/>
    </g>
    <g id="text_27">
     <!-- 11 -->
     <g style="fill: #262626" transform="translate(789.587044 266.079906) scale(0.13 -0.13)">
      <use xlink:href="#DejaVuSans-Bold-31"/>
      <use xlink:href="#DejaVuSans-Bold-31" transform="translate(69.580078 0)"/>
     </g>
    </g>
    <g id="line2d_62">
     <path d="M 753.187044 280.611469 
L 766.187044 280.611469 
L 779.187044 280.611469 
" style="fill: none; stroke: #a6cee3; stroke-opacity: 0.99; stroke-width: 0.8; stroke-linecap: round"/>
    </g>
    <g id="text_28">
     <!-- 12 -->
     <g style="fill: #262626" transform="translate(789.587044 285.161469) scale(0.13 -0.13)">
      <use xlink:href="#DejaVuSans-Bold-31"/>
      <use xlink:href="#DejaVuSans-Bold-32" transform="translate(69.580078 0)"/>
     </g>
    </g>
    <g id="line2d_63">
     <path d="M 753.187044 299.693031 
L 766.187044 299.693031 
L 779.187044 299.693031 
" style="fill: none; stroke: #1f78b4; stroke-opacity: 0.99; stroke-width: 0.8; stroke-linecap: round"/>
    </g>
    <g id="text_29">
     <!-- 13 -->
     <g style="fill: #262626" transform="translate(789.587044 304.243031) scale(0.13 -0.13)">
      <use xlink:href="#DejaVuSans-Bold-31"/>
      <use xlink:href="#DejaVuSans-Bold-33" transform="translate(69.580078 0)"/>
     </g>
    </g>
    <g id="line2d_64">
     <path d="M 753.187044 318.774594 
L 766.187044 318.774594 
L 779.187044 318.774594 
" style="fill: none; stroke: #b2df8a; stroke-opacity: 0.99; stroke-width: 0.8; stroke-linecap: round"/>
    </g>
    <g id="text_30">
     <!-- 14 -->
     <g style="fill: #262626" transform="translate(789.587044 323.324594) scale(0.13 -0.13)">
      <use xlink:href="#DejaVuSans-Bold-31"/>
      <use xlink:href="#DejaVuSans-Bold-34" transform="translate(69.580078 0)"/>
     </g>
    </g>
    <g id="line2d_65">
     <path d="M 753.187044 337.856156 
L 766.187044 337.856156 
L 779.187044 337.856156 
" style="fill: none; stroke: #33a02c; stroke-opacity: 0.99; stroke-width: 0.8; stroke-linecap: round"/>
    </g>
    <g id="text_31">
     <!-- 15 -->
     <g style="fill: #262626" transform="translate(789.587044 342.406156) scale(0.13 -0.13)">
      <use xlink:href="#DejaVuSans-Bold-31"/>
      <use xlink:href="#DejaVuSans-Bold-35" transform="translate(69.580078 0)"/>
     </g>
    </g>
    <g id="line2d_66">
     <path d="M 753.187044 356.937719 
L 766.187044 356.937719 
L 779.187044 356.937719 
" style="fill: none; stroke: #fb9a99; stroke-opacity: 0.99; stroke-width: 0.8; stroke-linecap: round"/>
    </g>
    <g id="text_32">
     <!-- 16 -->
     <g style="fill: #262626" transform="translate(789.587044 361.487719) scale(0.13 -0.13)">
      <use xlink:href="#DejaVuSans-Bold-31"/>
      <use xlink:href="#DejaVuSans-Bold-36" transform="translate(69.580078 0)"/>
     </g>
    </g>
    <g id="line2d_67">
     <path d="M 753.187044 376.019281 
L 766.187044 376.019281 
L 779.187044 376.019281 
" style="fill: none; stroke: #e31a1c; stroke-opacity: 0.99; stroke-width: 0.8; stroke-linecap: round"/>
    </g>
    <g id="text_33">
     <!-- 17 -->
     <g style="fill: #262626" transform="translate(789.587044 380.569281) scale(0.13 -0.13)">
      <use xlink:href="#DejaVuSans-Bold-31"/>
      <use xlink:href="#DejaVuSans-Bold-37" transform="translate(69.580078 0)"/>
     </g>
    </g>
    <g id="line2d_68">
     <path d="M 753.187044 395.100844 
L 766.187044 395.100844 
L 779.187044 395.100844 
" style="fill: none; stroke: #fdbf6f; stroke-opacity: 0.99; stroke-width: 0.8; stroke-linecap: round"/>
    </g>
    <g id="text_34">
     <!-- 18 -->
     <g style="fill: #262626" transform="translate(789.587044 399.650844) scale(0.13 -0.13)">
      <use xlink:href="#DejaVuSans-Bold-31"/>
      <use xlink:href="#DejaVuSans-Bold-38" transform="translate(69.580078 0)"/>
     </g>
    </g>
    <g id="line2d_69">
     <path d="M 753.187044 414.182406 
L 766.187044 414.182406 
L 779.187044 414.182406 
" style="fill: none; stroke: #ff7f00; stroke-opacity: 0.99; stroke-width: 0.8; stroke-linecap: round"/>
    </g>
    <g id="text_35">
     <!-- 19 -->
     <g style="fill: #262626" transform="translate(789.587044 418.732406) scale(0.13 -0.13)">
      <use xlink:href="#DejaVuSans-Bold-31"/>
      <use xlink:href="#DejaVuSans-Bold-39" transform="translate(69.580078 0)"/>
     </g>
    </g>
    <g id="line2d_70">
     <path d="M 753.187044 433.263969 
L 766.187044 433.263969 
L 779.187044 433.263969 
" style="fill: none; stroke: #cab2d6; stroke-opacity: 0.99; stroke-width: 0.8; stroke-linecap: round"/>
    </g>
    <g id="text_36">
     <!-- 20 -->
     <g style="fill: #262626" transform="translate(789.587044 437.813969) scale(0.13 -0.13)">
      <use xlink:href="#DejaVuSans-Bold-32"/>
      <use xlink:href="#DejaVuSans-Bold-30" transform="translate(69.580078 0)"/>
     </g>
    </g>
    <g id="line2d_71">
     <path d="M 753.187044 452.345531 
L 766.187044 452.345531 
L 779.187044 452.345531 
" style="fill: none; stroke: #6a3d9a; stroke-opacity: 0.99; stroke-width: 0.8; stroke-linecap: round"/>
    </g>
    <g id="text_37">
     <!-- 21 -->
     <g style="fill: #262626" transform="translate(789.587044 456.895531) scale(0.13 -0.13)">
      <use xlink:href="#DejaVuSans-Bold-32"/>
      <use xlink:href="#DejaVuSans-Bold-31" transform="translate(69.580078 0)"/>
     </g>
    </g>
    <g id="line2d_72">
     <path d="M 753.187044 471.427094 
L 766.187044 471.427094 
L 779.187044 471.427094 
" style="fill: none; stroke: #ffff99; stroke-opacity: 0.99; stroke-width: 0.8; stroke-linecap: round"/>
    </g>
    <g id="text_38">
     <!-- 22 -->
     <g style="fill: #262626" transform="translate(789.587044 475.977094) scale(0.13 -0.13)">
      <use xlink:href="#DejaVuSans-Bold-32"/>
      <use xlink:href="#DejaVuSans-Bold-32" transform="translate(69.580078 0)"/>
     </g>
    </g>
    <g id="line2d_73">
     <path d="M 753.187044 490.508656 
L 766.187044 490.508656 
L 779.187044 490.508656 
" style="fill: none; stroke: #b15928; stroke-opacity: 0.99; stroke-width: 0.8; stroke-linecap: round"/>
    </g>
    <g id="text_39">
     <!-- 23 -->
     <g style="fill: #262626" transform="translate(789.587044 495.058656) scale(0.13 -0.13)">
      <use xlink:href="#DejaVuSans-Bold-32"/>
      <use xlink:href="#DejaVuSans-Bold-33" transform="translate(69.580078 0)"/>
     </g>
    </g>
   </g>
  </g>
 </g>
 <defs>
  <clipPath id="p91387a9172">
   <rect x="64.109375" y="7.2" width="635.934" height="468.044"/>
  </clipPath>
 </defs>
</svg>
