<?xml version="1.0" encoding="utf-8" standalone="no"?>
<!DOCTYPE svg PUBLIC "-//W3C//DTD SVG 1.1//EN"
  "http://www.w3.org/Graphics/SVG/1.1/DTD/svg11.dtd">
<svg xmlns:xlink="http://www.w3.org/1999/xlink" width="831.748375pt" height="542.904625pt" viewBox="0 0 831.748375 542.904625" xmlns="http://www.w3.org/2000/svg" version="1.1">
 <metadata>
  <rdf:RDF xmlns:dc="http://purl.org/dc/elements/1.1/" xmlns:cc="http://creativecommons.org/ns#" xmlns:rdf="http://www.w3.org/1999/02/22-rdf-syntax-ns#">
   <cc:Work>
    <dc:type rdf:resource="http://purl.org/dc/dcmitype/StillImage"/>
    <dc:date>2025-03-13T16:46:47.147020</dc:date>
    <dc:format>image/svg+xml</dc:format>
    <dc:creator>
     <cc:Agent>
      <dc:title>Matplotlib v3.10.0, https://matplotlib.org/</dc:title>
     </cc:Agent>
    </dc:creator>
   </cc:Work>
  </rdf:RDF>
 </metadata>
 <defs>
  <style type="text/css">*{stroke-linejoin: round; stroke-linecap: butt}</style>
 </defs>
 <g id="figure_1">
  <g id="patch_1">
   <path d="M 0 542.904625 
L 831.748375 542.904625 
L 831.748375 0 
L 0 0 
z
" style="fill: #ffffff"/>
  </g>
  <g id="axes_1">
   <g id="patch_2">
    <path d="M 60.154375 494.0415 
L 824.548375 494.0415 
L 824.548375 25.3575 
L 60.154375 25.3575 
z
" style="fill: #ffffff"/>
   </g>
   <g id="matplotlib.axis_1">
    <g id="xtick_1">
     <g id="text_1">
      <!-- 0 -->
      <g style="fill: #262626" transform="translate(102.960751 515.659625) scale(0.12 -0.12)">
       <defs>
        <path id="DejaVuSans-30" d="M 2034 4250 
Q 1547 4250 1301 3770 
Q 1056 3291 1056 2328 
Q 1056 1369 1301 889 
Q 1547 409 2034 409 
Q 2525 409 2770 889 
Q 3016 1369 3016 2328 
Q 3016 3291 2770 3770 
Q 2525 4250 2034 4250 
z
M 2034 4750 
Q 2819 4750 3233 4129 
Q 3647 3509 3647 2328 
Q 3647 1150 3233 529 
Q 2819 -91 2034 -91 
Q 1250 -91 836 529 
Q 422 1150 422 2328 
Q 422 3509 836 4129 
Q 1250 4750 2034 4750 
z
" transform="scale(0.015625)"/>
       </defs>
       <use xlink:href="#DejaVuSans-30"/>
      </g>
     </g>
    </g>
    <g id="xtick_2">
     <g id="text_2">
      <!-- 1 -->
      <g style="fill: #262626" transform="translate(132.657488 515.659625) scale(0.12 -0.12)">
       <defs>
        <path id="DejaVuSans-31" d="M 794 531 
L 1825 531 
L 1825 4091 
L 703 3866 
L 703 4441 
L 1819 4666 
L 2450 4666 
L 2450 531 
L 3481 531 
L 3481 0 
L 794 0 
L 794 531 
z
" transform="scale(0.015625)"/>
       </defs>
       <use xlink:href="#DejaVuSans-31"/>
      </g>
     </g>
    </g>
    <g id="xtick_3">
     <g id="text_3">
      <!-- 2 -->
      <g style="fill: #262626" transform="translate(162.354225 515.659625) scale(0.12 -0.12)">
       <defs>
        <path id="DejaVuSans-32" d="M 1228 531 
L 3431 531 
L 3431 0 
L 469 0 
L 469 531 
Q 828 903 1448 1529 
Q 2069 2156 2228 2338 
Q 2531 2678 2651 2914 
Q 2772 3150 2772 3378 
Q 2772 3750 2511 3984 
Q 2250 4219 1831 4219 
Q 1534 4219 1204 4116 
Q 875 4013 500 3803 
L 500 4441 
Q 881 4594 1212 4672 
Q 1544 4750 1819 4750 
Q 2544 4750 2975 4387 
Q 3406 4025 3406 3419 
Q 3406 3131 3298 2873 
Q 3191 2616 2906 2266 
Q 2828 2175 2409 1742 
Q 1991 1309 1228 531 
z
" transform="scale(0.015625)"/>
       </defs>
       <use xlink:href="#DejaVuSans-32"/>
      </g>
     </g>
    </g>
    <g id="xtick_4">
     <g id="text_4">
      <!-- 3 -->
      <g style="fill: #262626" transform="translate(192.050961 515.659625) scale(0.12 -0.12)">
       <defs>
        <path id="DejaVuSans-33" d="M 2597 2516 
Q 3050 2419 3304 2112 
Q 3559 1806 3559 1356 
Q 3559 666 3084 287 
Q 2609 -91 1734 -91 
Q 1441 -91 1130 -33 
Q 819 25 488 141 
L 488 750 
Q 750 597 1062 519 
Q 1375 441 1716 441 
Q 2309 441 2620 675 
Q 2931 909 2931 1356 
Q 2931 1769 2642 2001 
Q 2353 2234 1838 2234 
L 1294 2234 
L 1294 2753 
L 1863 2753 
Q 2328 2753 2575 2939 
Q 2822 3125 2822 3475 
Q 2822 3834 2567 4026 
Q 2313 4219 1838 4219 
Q 1578 4219 1281 4162 
Q 984 4106 628 3988 
L 628 4550 
Q 988 4650 1302 4700 
Q 1616 4750 1894 4750 
Q 2613 4750 3031 4423 
Q 3450 4097 3450 3541 
Q 3450 3153 3228 2886 
Q 3006 2619 2597 2516 
z
" transform="scale(0.015625)"/>
       </defs>
       <use xlink:href="#DejaVuSans-33"/>
      </g>
     </g>
    </g>
    <g id="xtick_5">
     <g id="text_5">
      <!-- 4 -->
      <g style="fill: #262626" transform="translate(221.747698 515.659625) scale(0.12 -0.12)">
       <defs>
        <path id="DejaVuSans-34" d="M 2419 4116 
L 825 1625 
L 2419 1625 
L 2419 4116 
z
M 2253 4666 
L 3047 4666 
L 3047 1625 
L 3713 1625 
L 3713 1100 
L 3047 1100 
L 3047 0 
L 2419 0 
L 2419 1100 
L 313 1100 
L 313 1709 
L 2253 4666 
z
" transform="scale(0.015625)"/>
       </defs>
       <use xlink:href="#DejaVuSans-34"/>
      </g>
     </g>
    </g>
    <g id="xtick_6">
     <g id="text_6">
      <!-- 5 -->
      <g style="fill: #262626" transform="translate(251.444434 515.659625) scale(0.12 -0.12)">
       <defs>
        <path id="DejaVuSans-35" d="M 691 4666 
L 3169 4666 
L 3169 4134 
L 1269 4134 
L 1269 2991 
Q 1406 3038 1543 3061 
Q 1681 3084 1819 3084 
Q 2600 3084 3056 2656 
Q 3513 2228 3513 1497 
Q 3513 744 3044 326 
Q 2575 -91 1722 -91 
Q 1428 -91 1123 -41 
Q 819 9 494 109 
L 494 744 
Q 775 591 1075 516 
Q 1375 441 1709 441 
Q 2250 441 2565 725 
Q 2881 1009 2881 1497 
Q 2881 1984 2565 2268 
Q 2250 2553 1709 2553 
Q 1456 2553 1204 2497 
Q 953 2441 691 2322 
L 691 4666 
z
" transform="scale(0.015625)"/>
       </defs>
       <use xlink:href="#DejaVuSans-35"/>
      </g>
     </g>
    </g>
    <g id="xtick_7">
     <g id="text_7">
      <!-- 6 -->
      <g style="fill: #262626" transform="translate(281.141171 515.659625) scale(0.12 -0.12)">
       <defs>
        <path id="DejaVuSans-36" d="M 2113 2584 
Q 1688 2584 1439 2293 
Q 1191 2003 1191 1497 
Q 1191 994 1439 701 
Q 1688 409 2113 409 
Q 2538 409 2786 701 
Q 3034 994 3034 1497 
Q 3034 2003 2786 2293 
Q 2538 2584 2113 2584 
z
M 3366 4563 
L 3366 3988 
Q 3128 4100 2886 4159 
Q 2644 4219 2406 4219 
Q 1781 4219 1451 3797 
Q 1122 3375 1075 2522 
Q 1259 2794 1537 2939 
Q 1816 3084 2150 3084 
Q 2853 3084 3261 2657 
Q 3669 2231 3669 1497 
Q 3669 778 3244 343 
Q 2819 -91 2113 -91 
Q 1303 -91 875 529 
Q 447 1150 447 2328 
Q 447 3434 972 4092 
Q 1497 4750 2381 4750 
Q 2619 4750 2861 4703 
Q 3103 4656 3366 4563 
z
" transform="scale(0.015625)"/>
       </defs>
       <use xlink:href="#DejaVuSans-36"/>
      </g>
     </g>
    </g>
    <g id="xtick_8">
     <g id="text_8">
      <!-- 7 -->
      <g style="fill: #262626" transform="translate(310.837908 515.659625) scale(0.12 -0.12)">
       <defs>
        <path id="DejaVuSans-37" d="M 525 4666 
L 3525 4666 
L 3525 4397 
L 1831 0 
L 1172 0 
L 2766 4134 
L 525 4134 
L 525 4666 
z
" transform="scale(0.015625)"/>
       </defs>
       <use xlink:href="#DejaVuSans-37"/>
      </g>
     </g>
    </g>
    <g id="xtick_9">
     <g id="text_9">
      <!-- 8 -->
      <g style="fill: #262626" transform="translate(340.534644 515.659625) scale(0.12 -0.12)">
       <defs>
        <path id="DejaVuSans-38" d="M 2034 2216 
Q 1584 2216 1326 1975 
Q 1069 1734 1069 1313 
Q 1069 891 1326 650 
Q 1584 409 2034 409 
Q 2484 409 2743 651 
Q 3003 894 3003 1313 
Q 3003 1734 2745 1975 
Q 2488 2216 2034 2216 
z
M 1403 2484 
Q 997 2584 770 2862 
Q 544 3141 544 3541 
Q 544 4100 942 4425 
Q 1341 4750 2034 4750 
Q 2731 4750 3128 4425 
Q 3525 4100 3525 3541 
Q 3525 3141 3298 2862 
Q 3072 2584 2669 2484 
Q 3125 2378 3379 2068 
Q 3634 1759 3634 1313 
Q 3634 634 3220 271 
Q 2806 -91 2034 -91 
Q 1263 -91 848 271 
Q 434 634 434 1313 
Q 434 1759 690 2068 
Q 947 2378 1403 2484 
z
M 1172 3481 
Q 1172 3119 1398 2916 
Q 1625 2713 2034 2713 
Q 2441 2713 2670 2916 
Q 2900 3119 2900 3481 
Q 2900 3844 2670 4047 
Q 2441 4250 2034 4250 
Q 1625 4250 1398 4047 
Q 1172 3844 1172 3481 
z
" transform="scale(0.015625)"/>
       </defs>
       <use xlink:href="#DejaVuSans-38"/>
      </g>
     </g>
    </g>
    <g id="xtick_10">
     <g id="text_10">
      <!-- 9 -->
      <g style="fill: #262626" transform="translate(370.231381 515.659625) scale(0.12 -0.12)">
       <defs>
        <path id="DejaVuSans-39" d="M 703 97 
L 703 672 
Q 941 559 1184 500 
Q 1428 441 1663 441 
Q 2288 441 2617 861 
Q 2947 1281 2994 2138 
Q 2813 1869 2534 1725 
Q 2256 1581 1919 1581 
Q 1219 1581 811 2004 
Q 403 2428 403 3163 
Q 403 3881 828 4315 
Q 1253 4750 1959 4750 
Q 2769 4750 3195 4129 
Q 3622 3509 3622 2328 
Q 3622 1225 3098 567 
Q 2575 -91 1691 -91 
Q 1453 -91 1209 -44 
Q 966 3 703 97 
z
M 1959 2075 
Q 2384 2075 2632 2365 
Q 2881 2656 2881 3163 
Q 2881 3666 2632 3958 
Q 2384 4250 1959 4250 
Q 1534 4250 1286 3958 
Q 1038 3666 1038 3163 
Q 1038 2656 1286 2365 
Q 1534 2075 1959 2075 
z
" transform="scale(0.015625)"/>
       </defs>
       <use xlink:href="#DejaVuSans-39"/>
      </g>
     </g>
    </g>
    <g id="xtick_11">
     <g id="text_11">
      <!-- 10 -->
      <g style="fill: #262626" transform="translate(396.110617 515.659625) scale(0.12 -0.12)">
       <use xlink:href="#DejaVuSans-31"/>
       <use xlink:href="#DejaVuSans-30" transform="translate(63.623047 0)"/>
      </g>
     </g>
    </g>
    <g id="xtick_12">
     <g id="text_12">
      <!-- 11 -->
      <g style="fill: #262626" transform="translate(425.807354 515.659625) scale(0.12 -0.12)">
       <use xlink:href="#DejaVuSans-31"/>
       <use xlink:href="#DejaVuSans-31" transform="translate(63.623047 0)"/>
      </g>
     </g>
    </g>
    <g id="xtick_13">
     <g id="text_13">
      <!-- 12 -->
      <g style="fill: #262626" transform="translate(455.504091 515.659625) scale(0.12 -0.12)">
       <use xlink:href="#DejaVuSans-31"/>
       <use xlink:href="#DejaVuSans-32" transform="translate(63.623047 0)"/>
      </g>
     </g>
    </g>
    <g id="xtick_14">
     <g id="text_14">
      <!-- 13 -->
      <g style="fill: #262626" transform="translate(485.200827 515.659625) scale(0.12 -0.12)">
       <use xlink:href="#DejaVuSans-31"/>
       <use xlink:href="#DejaVuSans-33" transform="translate(63.623047 0)"/>
      </g>
     </g>
    </g>
    <g id="xtick_15">
     <g id="text_15">
      <!-- 14 -->
      <g style="fill: #262626" transform="translate(514.897564 515.659625) scale(0.12 -0.12)">
       <use xlink:href="#DejaVuSans-31"/>
       <use xlink:href="#DejaVuSans-34" transform="translate(63.623047 0)"/>
      </g>
     </g>
    </g>
    <g id="xtick_16">
     <g id="text_16">
      <!-- 15 -->
      <g style="fill: #262626" transform="translate(544.5943 515.659625) scale(0.12 -0.12)">
       <use xlink:href="#DejaVuSans-31"/>
       <use xlink:href="#DejaVuSans-35" transform="translate(63.623047 0)"/>
      </g>
     </g>
    </g>
    <g id="xtick_17">
     <g id="text_17">
      <!-- 16 -->
      <g style="fill: #262626" transform="translate(574.291037 515.659625) scale(0.12 -0.12)">
       <use xlink:href="#DejaVuSans-31"/>
       <use xlink:href="#DejaVuSans-36" transform="translate(63.623047 0)"/>
      </g>
     </g>
    </g>
    <g id="xtick_18">
     <g id="text_18">
      <!-- 17 -->
      <g style="fill: #262626" transform="translate(603.987774 515.659625) scale(0.12 -0.12)">
       <use xlink:href="#DejaVuSans-31"/>
       <use xlink:href="#DejaVuSans-37" transform="translate(63.623047 0)"/>
      </g>
     </g>
    </g>
    <g id="xtick_19">
     <g id="text_19">
      <!-- 18 -->
      <g style="fill: #262626" transform="translate(633.68451 515.659625) scale(0.12 -0.12)">
       <use xlink:href="#DejaVuSans-31"/>
       <use xlink:href="#DejaVuSans-38" transform="translate(63.623047 0)"/>
      </g>
     </g>
    </g>
    <g id="xtick_20">
     <g id="text_20">
      <!-- 19 -->
      <g style="fill: #262626" transform="translate(663.381247 515.659625) scale(0.12 -0.12)">
       <use xlink:href="#DejaVuSans-31"/>
       <use xlink:href="#DejaVuSans-39" transform="translate(63.623047 0)"/>
      </g>
     </g>
    </g>
    <g id="xtick_21">
     <g id="text_21">
      <!-- 20 -->
      <g style="fill: #262626" transform="translate(693.077983 515.659625) scale(0.12 -0.12)">
       <use xlink:href="#DejaVuSans-32"/>
       <use xlink:href="#DejaVuSans-30" transform="translate(63.623047 0)"/>
      </g>
     </g>
    </g>
    <g id="xtick_22">
     <g id="text_22">
      <!-- 21 -->
      <g style="fill: #262626" transform="translate(722.77472 515.659625) scale(0.12 -0.12)">
       <use xlink:href="#DejaVuSans-32"/>
       <use xlink:href="#DejaVuSans-31" transform="translate(63.623047 0)"/>
      </g>
     </g>
    </g>
    <g id="xtick_23">
     <g id="text_23">
      <!-- 22 -->
      <g style="fill: #262626" transform="translate(752.471457 515.659625) scale(0.12 -0.12)">
       <use xlink:href="#DejaVuSans-32"/>
       <use xlink:href="#DejaVuSans-32" transform="translate(63.623047 0)"/>
      </g>
     </g>
    </g>
    <g id="xtick_24">
     <g id="text_24">
      <!-- 23 -->
      <g style="fill: #262626" transform="translate(782.168193 515.659625) scale(0.12 -0.12)">
       <use xlink:href="#DejaVuSans-32"/>
       <use xlink:href="#DejaVuSans-33" transform="translate(63.623047 0)"/>
      </g>
     </g>
    </g>
    <g id="text_25">
     <!-- Client ID -->
     <g style="fill: #262626" transform="translate(412.406688 532.793063) scale(0.14 -0.14)">
      <defs>
       <path id="DejaVuSans-43" d="M 4122 4306 
L 4122 3641 
Q 3803 3938 3442 4084 
Q 3081 4231 2675 4231 
Q 1875 4231 1450 3742 
Q 1025 3253 1025 2328 
Q 1025 1406 1450 917 
Q 1875 428 2675 428 
Q 3081 428 3442 575 
Q 3803 722 4122 1019 
L 4122 359 
Q 3791 134 3420 21 
Q 3050 -91 2638 -91 
Q 1578 -91 968 557 
Q 359 1206 359 2328 
Q 359 3453 968 4101 
Q 1578 4750 2638 4750 
Q 3056 4750 3426 4639 
Q 3797 4528 4122 4306 
z
" transform="scale(0.015625)"/>
       <path id="DejaVuSans-6c" d="M 603 4863 
L 1178 4863 
L 1178 0 
L 603 0 
L 603 4863 
z
" transform="scale(0.015625)"/>
       <path id="DejaVuSans-69" d="M 603 3500 
L 1178 3500 
L 1178 0 
L 603 0 
L 603 3500 
z
M 603 4863 
L 1178 4863 
L 1178 4134 
L 603 4134 
L 603 4863 
z
" transform="scale(0.015625)"/>
       <path id="DejaVuSans-65" d="M 3597 1894 
L 3597 1613 
L 953 1613 
Q 991 1019 1311 708 
Q 1631 397 2203 397 
Q 2534 397 2845 478 
Q 3156 559 3463 722 
L 3463 178 
Q 3153 47 2828 -22 
Q 2503 -91 2169 -91 
Q 1331 -91 842 396 
Q 353 884 353 1716 
Q 353 2575 817 3079 
Q 1281 3584 2069 3584 
Q 2775 3584 3186 3129 
Q 3597 2675 3597 1894 
z
M 3022 2063 
Q 3016 2534 2758 2815 
Q 2500 3097 2075 3097 
Q 1594 3097 1305 2825 
Q 1016 2553 972 2059 
L 3022 2063 
z
" transform="scale(0.015625)"/>
       <path id="DejaVuSans-6e" d="M 3513 2113 
L 3513 0 
L 2938 0 
L 2938 2094 
Q 2938 2591 2744 2837 
Q 2550 3084 2163 3084 
Q 1697 3084 1428 2787 
Q 1159 2491 1159 1978 
L 1159 0 
L 581 0 
L 581 3500 
L 1159 3500 
L 1159 2956 
Q 1366 3272 1645 3428 
Q 1925 3584 2291 3584 
Q 2894 3584 3203 3211 
Q 3513 2838 3513 2113 
z
" transform="scale(0.015625)"/>
       <path id="DejaVuSans-74" d="M 1172 4494 
L 1172 3500 
L 2356 3500 
L 2356 3053 
L 1172 3053 
L 1172 1153 
Q 1172 725 1289 603 
Q 1406 481 1766 481 
L 2356 481 
L 2356 0 
L 1766 0 
Q 1100 0 847 248 
Q 594 497 594 1153 
L 594 3053 
L 172 3053 
L 172 3500 
L 594 3500 
L 594 4494 
L 1172 4494 
z
" transform="scale(0.015625)"/>
       <path id="DejaVuSans-20" transform="scale(0.015625)"/>
       <path id="DejaVuSans-49" d="M 628 4666 
L 1259 4666 
L 1259 0 
L 628 0 
L 628 4666 
z
" transform="scale(0.015625)"/>
       <path id="DejaVuSans-44" d="M 1259 4147 
L 1259 519 
L 2022 519 
Q 2988 519 3436 956 
Q 3884 1394 3884 2338 
Q 3884 3275 3436 3711 
Q 2988 4147 2022 4147 
L 1259 4147 
z
M 628 4666 
L 1925 4666 
Q 3281 4666 3915 4102 
Q 4550 3538 4550 2338 
Q 4550 1131 3912 565 
Q 3275 0 1925 0 
L 628 0 
L 628 4666 
z
" transform="scale(0.015625)"/>
      </defs>
      <use xlink:href="#DejaVuSans-43"/>
      <use xlink:href="#DejaVuSans-6c" transform="translate(69.824219 0)"/>
      <use xlink:href="#DejaVuSans-69" transform="translate(97.607422 0)"/>
      <use xlink:href="#DejaVuSans-65" transform="translate(125.390625 0)"/>
      <use xlink:href="#DejaVuSans-6e" transform="translate(186.914062 0)"/>
      <use xlink:href="#DejaVuSans-74" transform="translate(250.292969 0)"/>
      <use xlink:href="#DejaVuSans-20" transform="translate(289.501953 0)"/>
      <use xlink:href="#DejaVuSans-49" transform="translate(321.289062 0)"/>
      <use xlink:href="#DejaVuSans-44" transform="translate(350.78125 0)"/>
     </g>
    </g>
   </g>
   <g id="matplotlib.axis_2">
    <g id="ytick_1">
     <g id="text_26">
      <!-- 0 -->
      <g style="fill: #262626" transform="translate(40.019375 498.600563) scale(0.12 -0.12)">
       <use xlink:href="#DejaVuSans-30"/>
      </g>
     </g>
    </g>
    <g id="ytick_2">
     <g id="text_27">
      <!-- 20 -->
      <g style="fill: #262626" transform="translate(32.384375 409.32742) scale(0.12 -0.12)">
       <use xlink:href="#DejaVuSans-32"/>
       <use xlink:href="#DejaVuSans-30" transform="translate(63.623047 0)"/>
      </g>
     </g>
    </g>
    <g id="ytick_3">
     <g id="text_28">
      <!-- 40 -->
      <g style="fill: #262626" transform="translate(32.384375 320.054277) scale(0.12 -0.12)">
       <use xlink:href="#DejaVuSans-34"/>
       <use xlink:href="#DejaVuSans-30" transform="translate(63.623047 0)"/>
      </g>
     </g>
    </g>
    <g id="ytick_4">
     <g id="text_29">
      <!-- 60 -->
      <g style="fill: #262626" transform="translate(32.384375 230.781134) scale(0.12 -0.12)">
       <use xlink:href="#DejaVuSans-36"/>
       <use xlink:href="#DejaVuSans-30" transform="translate(63.623047 0)"/>
      </g>
     </g>
    </g>
    <g id="ytick_5">
     <g id="text_30">
      <!-- 80 -->
      <g style="fill: #262626" transform="translate(32.384375 141.507991) scale(0.12 -0.12)">
       <use xlink:href="#DejaVuSans-38"/>
       <use xlink:href="#DejaVuSans-30" transform="translate(63.623047 0)"/>
      </g>
     </g>
    </g>
    <g id="ytick_6">
     <g id="text_31">
      <!-- 100 -->
      <g style="fill: #262626" transform="translate(24.749375 52.234848) scale(0.12 -0.12)">
       <use xlink:href="#DejaVuSans-31"/>
       <use xlink:href="#DejaVuSans-30" transform="translate(63.623047 0)"/>
       <use xlink:href="#DejaVuSans-30" transform="translate(127.246094 0)"/>
      </g>
     </g>
    </g>
    <g id="text_32">
     <!-- Global Round -->
     <g style="fill: #262626" transform="translate(17.837813 306.402625) rotate(-90) scale(0.14 -0.14)">
      <defs>
       <path id="DejaVuSans-47" d="M 3809 666 
L 3809 1919 
L 2778 1919 
L 2778 2438 
L 4434 2438 
L 4434 434 
Q 4069 175 3628 42 
Q 3188 -91 2688 -91 
Q 1594 -91 976 548 
Q 359 1188 359 2328 
Q 359 3472 976 4111 
Q 1594 4750 2688 4750 
Q 3144 4750 3555 4637 
Q 3966 4525 4313 4306 
L 4313 3634 
Q 3963 3931 3569 4081 
Q 3175 4231 2741 4231 
Q 1884 4231 1454 3753 
Q 1025 3275 1025 2328 
Q 1025 1384 1454 906 
Q 1884 428 2741 428 
Q 3075 428 3337 486 
Q 3600 544 3809 666 
z
" transform="scale(0.015625)"/>
       <path id="DejaVuSans-6f" d="M 1959 3097 
Q 1497 3097 1228 2736 
Q 959 2375 959 1747 
Q 959 1119 1226 758 
Q 1494 397 1959 397 
Q 2419 397 2687 759 
Q 2956 1122 2956 1747 
Q 2956 2369 2687 2733 
Q 2419 3097 1959 3097 
z
M 1959 3584 
Q 2709 3584 3137 3096 
Q 3566 2609 3566 1747 
Q 3566 888 3137 398 
Q 2709 -91 1959 -91 
Q 1206 -91 779 398 
Q 353 888 353 1747 
Q 353 2609 779 3096 
Q 1206 3584 1959 3584 
z
" transform="scale(0.015625)"/>
       <path id="DejaVuSans-62" d="M 3116 1747 
Q 3116 2381 2855 2742 
Q 2594 3103 2138 3103 
Q 1681 3103 1420 2742 
Q 1159 2381 1159 1747 
Q 1159 1113 1420 752 
Q 1681 391 2138 391 
Q 2594 391 2855 752 
Q 3116 1113 3116 1747 
z
M 1159 2969 
Q 1341 3281 1617 3432 
Q 1894 3584 2278 3584 
Q 2916 3584 3314 3078 
Q 3713 2572 3713 1747 
Q 3713 922 3314 415 
Q 2916 -91 2278 -91 
Q 1894 -91 1617 61 
Q 1341 213 1159 525 
L 1159 0 
L 581 0 
L 581 4863 
L 1159 4863 
L 1159 2969 
z
" transform="scale(0.015625)"/>
       <path id="DejaVuSans-61" d="M 2194 1759 
Q 1497 1759 1228 1600 
Q 959 1441 959 1056 
Q 959 750 1161 570 
Q 1363 391 1709 391 
Q 2188 391 2477 730 
Q 2766 1069 2766 1631 
L 2766 1759 
L 2194 1759 
z
M 3341 1997 
L 3341 0 
L 2766 0 
L 2766 531 
Q 2569 213 2275 61 
Q 1981 -91 1556 -91 
Q 1019 -91 701 211 
Q 384 513 384 1019 
Q 384 1609 779 1909 
Q 1175 2209 1959 2209 
L 2766 2209 
L 2766 2266 
Q 2766 2663 2505 2880 
Q 2244 3097 1772 3097 
Q 1472 3097 1187 3025 
Q 903 2953 641 2809 
L 641 3341 
Q 956 3463 1253 3523 
Q 1550 3584 1831 3584 
Q 2591 3584 2966 3190 
Q 3341 2797 3341 1997 
z
" transform="scale(0.015625)"/>
       <path id="DejaVuSans-52" d="M 2841 2188 
Q 3044 2119 3236 1894 
Q 3428 1669 3622 1275 
L 4263 0 
L 3584 0 
L 2988 1197 
Q 2756 1666 2539 1819 
Q 2322 1972 1947 1972 
L 1259 1972 
L 1259 0 
L 628 0 
L 628 4666 
L 2053 4666 
Q 2853 4666 3247 4331 
Q 3641 3997 3641 3322 
Q 3641 2881 3436 2590 
Q 3231 2300 2841 2188 
z
M 1259 4147 
L 1259 2491 
L 2053 2491 
Q 2509 2491 2742 2702 
Q 2975 2913 2975 3322 
Q 2975 3731 2742 3939 
Q 2509 4147 2053 4147 
L 1259 4147 
z
" transform="scale(0.015625)"/>
       <path id="DejaVuSans-75" d="M 544 1381 
L 544 3500 
L 1119 3500 
L 1119 1403 
Q 1119 906 1312 657 
Q 1506 409 1894 409 
Q 2359 409 2629 706 
Q 2900 1003 2900 1516 
L 2900 3500 
L 3475 3500 
L 3475 0 
L 2900 0 
L 2900 538 
Q 2691 219 2414 64 
Q 2138 -91 1772 -91 
Q 1169 -91 856 284 
Q 544 659 544 1381 
z
M 1991 3584 
L 1991 3584 
z
" transform="scale(0.015625)"/>
       <path id="DejaVuSans-64" d="M 2906 2969 
L 2906 4863 
L 3481 4863 
L 3481 0 
L 2906 0 
L 2906 525 
Q 2725 213 2448 61 
Q 2172 -91 1784 -91 
Q 1150 -91 751 415 
Q 353 922 353 1747 
Q 353 2572 751 3078 
Q 1150 3584 1784 3584 
Q 2172 3584 2448 3432 
Q 2725 3281 2906 2969 
z
M 947 1747 
Q 947 1113 1208 752 
Q 1469 391 1925 391 
Q 2381 391 2643 752 
Q 2906 1113 2906 1747 
Q 2906 2381 2643 2742 
Q 2381 3103 1925 3103 
Q 1469 3103 1208 2742 
Q 947 2381 947 1747 
z
" transform="scale(0.015625)"/>
      </defs>
      <use xlink:href="#DejaVuSans-47"/>
      <use xlink:href="#DejaVuSans-6c" transform="translate(77.490234 0)"/>
      <use xlink:href="#DejaVuSans-6f" transform="translate(105.273438 0)"/>
      <use xlink:href="#DejaVuSans-62" transform="translate(166.455078 0)"/>
      <use xlink:href="#DejaVuSans-61" transform="translate(229.931641 0)"/>
      <use xlink:href="#DejaVuSans-6c" transform="translate(291.210938 0)"/>
      <use xlink:href="#DejaVuSans-20" transform="translate(318.994141 0)"/>
      <use xlink:href="#DejaVuSans-52" transform="translate(350.78125 0)"/>
      <use xlink:href="#DejaVuSans-6f" transform="translate(415.763672 0)"/>
      <use xlink:href="#DejaVuSans-75" transform="translate(476.945312 0)"/>
      <use xlink:href="#DejaVuSans-6e" transform="translate(540.324219 0)"/>
      <use xlink:href="#DejaVuSans-64" transform="translate(603.703125 0)"/>
     </g>
    </g>
   </g>
   <g id="patch_3">
    <path d="M 94.899557 494.0415 
L 118.656946 494.0415 
L 118.656946 221.758414 
L 94.899557 221.758414 
z
" clip-path="url(#p2f17fe1572)" style="fill: #54ccc0; stroke: #ffffff; stroke-width: 1.5; stroke-linejoin: miter"/>
   </g>
   <g id="patch_4">
    <path d="M 183.989767 494.0415 
L 207.747156 494.0415 
L 207.747156 315.495214 
L 183.989767 315.495214 
z
" clip-path="url(#p2f17fe1572)" style="fill: #54ccc0; stroke: #ffffff; stroke-width: 1.5; stroke-linejoin: miter"/>
   </g>
   <g id="patch_5">
    <path d="M 243.38324 494.0415 
L 267.140629 494.0415 
L 267.140629 87.8487 
L 243.38324 87.8487 
z
" clip-path="url(#p2f17fe1572)" style="fill: #54ccc0; stroke: #ffffff; stroke-width: 1.5; stroke-linejoin: miter"/>
   </g>
   <g id="patch_6">
    <path d="M 362.170186 494.0415 
L 385.927575 494.0415 
L 385.927575 96.776014 
L 362.170186 96.776014 
z
" clip-path="url(#p2f17fe1572)" style="fill: #54ccc0; stroke: #ffffff; stroke-width: 1.5; stroke-linejoin: miter"/>
   </g>
   <g id="patch_7">
    <path d="M 391.866923 494.0415 
L 415.624312 494.0415 
L 415.624312 275.3223 
L 391.866923 275.3223 
z
" clip-path="url(#p2f17fe1572)" style="fill: #54ccc0; stroke: #ffffff; stroke-width: 1.5; stroke-linejoin: miter"/>
   </g>
   <g id="patch_8">
    <path d="M 480.957133 494.0415 
L 504.714522 494.0415 
L 504.714522 244.0767 
L 480.957133 244.0767 
z
" clip-path="url(#p2f17fe1572)" style="fill: #54ccc0; stroke: #ffffff; stroke-width: 1.5; stroke-linejoin: miter"/>
   </g>
   <g id="patch_9">
    <path d="M 540.350606 494.0415 
L 564.107995 494.0415 
L 564.107995 74.457729 
L 540.350606 74.457729 
z
" clip-path="url(#p2f17fe1572)" style="fill: #54ccc0; stroke: #ffffff; stroke-width: 1.5; stroke-linejoin: miter"/>
   </g>
   <g id="patch_10">
    <path d="M 599.744079 494.0415 
L 623.501468 494.0415 
L 623.501468 181.5855 
L 599.744079 181.5855 
z
" clip-path="url(#p2f17fe1572)" style="fill: #54ccc0; stroke: #ffffff; stroke-width: 1.5; stroke-linejoin: miter"/>
   </g>
   <g id="patch_11">
    <path d="M 629.440816 494.0415 
L 653.198205 494.0415 
L 653.198205 257.467671 
L 629.440816 257.467671 
z
" clip-path="url(#p2f17fe1572)" style="fill: #54ccc0; stroke: #ffffff; stroke-width: 1.5; stroke-linejoin: miter"/>
   </g>
   <g id="line2d_1">
    <path clip-path="url(#p2f17fe1572)" style="fill: none; stroke: #424242; stroke-width: 3.375; stroke-linecap: round"/>
   </g>
   <g id="line2d_2">
    <path clip-path="url(#p2f17fe1572)" style="fill: none; stroke: #424242; stroke-width: 3.375; stroke-linecap: round"/>
   </g>
   <g id="line2d_3">
    <path clip-path="url(#p2f17fe1572)" style="fill: none; stroke: #424242; stroke-width: 3.375; stroke-linecap: round"/>
   </g>
   <g id="line2d_4">
    <path clip-path="url(#p2f17fe1572)" style="fill: none; stroke: #424242; stroke-width: 3.375; stroke-linecap: round"/>
   </g>
   <g id="line2d_5">
    <path clip-path="url(#p2f17fe1572)" style="fill: none; stroke: #424242; stroke-width: 3.375; stroke-linecap: round"/>
   </g>
   <g id="line2d_6">
    <path clip-path="url(#p2f17fe1572)" style="fill: none; stroke: #424242; stroke-width: 3.375; stroke-linecap: round"/>
   </g>
   <g id="line2d_7">
    <path clip-path="url(#p2f17fe1572)" style="fill: none; stroke: #424242; stroke-width: 3.375; stroke-linecap: round"/>
   </g>
   <g id="line2d_8">
    <path clip-path="url(#p2f17fe1572)" style="fill: none; stroke: #424242; stroke-width: 3.375; stroke-linecap: round"/>
   </g>
   <g id="line2d_9">
    <path clip-path="url(#p2f17fe1572)" style="fill: none; stroke: #424242; stroke-width: 3.375; stroke-linecap: round"/>
   </g>
   <g id="line2d_10">
    <path d="M 106.778251 221.758414 
L 106.778251 47.675786 
" clip-path="url(#p2f17fe1572)" style="fill: none; stroke-dasharray: 9.6,2.4,1.5,2.4; stroke-dashoffset: 0; stroke: #000000; stroke-width: 1.5"/>
   </g>
   <g id="line2d_11">
    <path d="M 136.474988 494.0415 
L 136.474988 47.675786 
" clip-path="url(#p2f17fe1572)" style="fill: none; stroke-dasharray: 4.48,1.12,0.7,1.12; stroke-dashoffset: 0; stroke: #808080; stroke-opacity: 0.7; stroke-width: 0.7"/>
   </g>
   <g id="line2d_12">
    <path d="M 166.171725 494.0415 
L 166.171725 47.675786 
" clip-path="url(#p2f17fe1572)" style="fill: none; stroke-dasharray: 4.48,1.12,0.7,1.12; stroke-dashoffset: 0; stroke: #808080; stroke-opacity: 0.7; stroke-width: 0.7"/>
   </g>
   <g id="line2d_13">
    <path d="M 195.868461 315.495214 
L 195.868461 47.675786 
" clip-path="url(#p2f17fe1572)" style="fill: none; stroke-dasharray: 9.6,2.4,1.5,2.4; stroke-dashoffset: 0; stroke: #000000; stroke-width: 1.5"/>
   </g>
   <g id="line2d_14">
    <path d="M 225.565198 494.0415 
L 225.565198 47.675786 
" clip-path="url(#p2f17fe1572)" style="fill: none; stroke-dasharray: 4.48,1.12,0.7,1.12; stroke-dashoffset: 0; stroke: #808080; stroke-opacity: 0.7; stroke-width: 0.7"/>
   </g>
   <g id="line2d_15">
    <path d="M 255.261934 87.8487 
L 255.261934 47.675786 
" clip-path="url(#p2f17fe1572)" style="fill: none; stroke-dasharray: 9.6,2.4,1.5,2.4; stroke-dashoffset: 0; stroke: #000000; stroke-width: 1.5"/>
   </g>
   <g id="line2d_16">
    <path d="M 284.958671 494.0415 
L 284.958671 47.675786 
" clip-path="url(#p2f17fe1572)" style="fill: none; stroke-dasharray: 4.48,1.12,0.7,1.12; stroke-dashoffset: 0; stroke: #808080; stroke-opacity: 0.7; stroke-width: 0.7"/>
   </g>
   <g id="line2d_17">
    <path d="M 314.655408 494.0415 
L 314.655408 47.675786 
" clip-path="url(#p2f17fe1572)" style="fill: none; stroke-dasharray: 4.48,1.12,0.7,1.12; stroke-dashoffset: 0; stroke: #808080; stroke-opacity: 0.7; stroke-width: 0.7"/>
   </g>
   <g id="line2d_18">
    <path d="M 344.352144 494.0415 
L 344.352144 47.675786 
" clip-path="url(#p2f17fe1572)" style="fill: none; stroke-dasharray: 4.48,1.12,0.7,1.12; stroke-dashoffset: 0; stroke: #808080; stroke-opacity: 0.7; stroke-width: 0.7"/>
   </g>
   <g id="line2d_19">
    <path d="M 374.048881 96.776014 
L 374.048881 47.675786 
" clip-path="url(#p2f17fe1572)" style="fill: none; stroke-dasharray: 9.6,2.4,1.5,2.4; stroke-dashoffset: 0; stroke: #000000; stroke-width: 1.5"/>
   </g>
   <g id="line2d_20">
    <path d="M 403.745617 275.3223 
L 403.745617 47.675786 
" clip-path="url(#p2f17fe1572)" style="fill: none; stroke-dasharray: 9.6,2.4,1.5,2.4; stroke-dashoffset: 0; stroke: #000000; stroke-width: 1.5"/>
   </g>
   <g id="line2d_21">
    <path d="M 433.442354 494.0415 
L 433.442354 47.675786 
" clip-path="url(#p2f17fe1572)" style="fill: none; stroke-dasharray: 4.48,1.12,0.7,1.12; stroke-dashoffset: 0; stroke: #808080; stroke-opacity: 0.7; stroke-width: 0.7"/>
   </g>
   <g id="line2d_22">
    <path d="M 463.139091 494.0415 
L 463.139091 47.675786 
" clip-path="url(#p2f17fe1572)" style="fill: none; stroke-dasharray: 4.48,1.12,0.7,1.12; stroke-dashoffset: 0; stroke: #808080; stroke-opacity: 0.7; stroke-width: 0.7"/>
   </g>
   <g id="line2d_23">
    <path d="M 492.835827 244.0767 
L 492.835827 47.675786 
" clip-path="url(#p2f17fe1572)" style="fill: none; stroke-dasharray: 9.6,2.4,1.5,2.4; stroke-dashoffset: 0; stroke: #000000; stroke-width: 1.5"/>
   </g>
   <g id="line2d_24">
    <path d="M 522.532564 494.0415 
L 522.532564 47.675786 
" clip-path="url(#p2f17fe1572)" style="fill: none; stroke-dasharray: 4.48,1.12,0.7,1.12; stroke-dashoffset: 0; stroke: #808080; stroke-opacity: 0.7; stroke-width: 0.7"/>
   </g>
   <g id="line2d_25">
    <path d="M 552.2293 74.457729 
L 552.2293 47.675786 
" clip-path="url(#p2f17fe1572)" style="fill: none; stroke-dasharray: 9.6,2.4,1.5,2.4; stroke-dashoffset: 0; stroke: #000000; stroke-width: 1.5"/>
   </g>
   <g id="line2d_26">
    <path d="M 581.926037 494.0415 
L 581.926037 47.675786 
" clip-path="url(#p2f17fe1572)" style="fill: none; stroke-dasharray: 4.48,1.12,0.7,1.12; stroke-dashoffset: 0; stroke: #808080; stroke-opacity: 0.7; stroke-width: 0.7"/>
   </g>
   <g id="line2d_27">
    <path d="M 611.622774 181.5855 
L 611.622774 47.675786 
" clip-path="url(#p2f17fe1572)" style="fill: none; stroke-dasharray: 9.6,2.4,1.5,2.4; stroke-dashoffset: 0; stroke: #000000; stroke-width: 1.5"/>
   </g>
   <g id="line2d_28">
    <path d="M 641.31951 257.467671 
L 641.31951 47.675786 
" clip-path="url(#p2f17fe1572)" style="fill: none; stroke-dasharray: 9.6,2.4,1.5,2.4; stroke-dashoffset: 0; stroke: #000000; stroke-width: 1.5"/>
   </g>
   <g id="line2d_29">
    <path d="M 671.016247 494.0415 
L 671.016247 47.675786 
" clip-path="url(#p2f17fe1572)" style="fill: none; stroke-dasharray: 4.48,1.12,0.7,1.12; stroke-dashoffset: 0; stroke: #808080; stroke-opacity: 0.7; stroke-width: 0.7"/>
   </g>
   <g id="line2d_30">
    <path d="M 700.712983 494.0415 
L 700.712983 47.675786 
" clip-path="url(#p2f17fe1572)" style="fill: none; stroke-dasharray: 4.48,1.12,0.7,1.12; stroke-dashoffset: 0; stroke: #808080; stroke-opacity: 0.7; stroke-width: 0.7"/>
   </g>
   <g id="line2d_31">
    <path d="M 730.40972 494.0415 
L 730.40972 47.675786 
" clip-path="url(#p2f17fe1572)" style="fill: none; stroke-dasharray: 4.48,1.12,0.7,1.12; stroke-dashoffset: 0; stroke: #808080; stroke-opacity: 0.7; stroke-width: 0.7"/>
   </g>
   <g id="line2d_32">
    <path d="M 760.106457 494.0415 
L 760.106457 47.675786 
" clip-path="url(#p2f17fe1572)" style="fill: none; stroke-dasharray: 4.48,1.12,0.7,1.12; stroke-dashoffset: 0; stroke: #808080; stroke-opacity: 0.7; stroke-width: 0.7"/>
   </g>
   <g id="line2d_33">
    <path d="M 789.803193 494.0415 
L 789.803193 47.675786 
" clip-path="url(#p2f17fe1572)" style="fill: none; stroke-dasharray: 4.48,1.12,0.7,1.12; stroke-dashoffset: 0; stroke: #808080; stroke-opacity: 0.7; stroke-width: 0.7"/>
   </g>
   <g id="line2d_34"/>
   <g id="line2d_35">
    <path d="M 60.154375 194.976471 
L 824.548375 194.976471 
" clip-path="url(#p2f17fe1572)" style="fill: none; stroke-dasharray: 8.325,3.6; stroke-dashoffset: 0; stroke: #0000ff; stroke-opacity: 0.5; stroke-width: 2.25"/>
   </g>
   <g id="patch_12">
    <path d="M 60.154375 494.0415 
L 60.154375 25.3575 
" style="fill: none; stroke: #262626; stroke-width: 1.875; stroke-linejoin: miter; stroke-linecap: square"/>
   </g>
   <g id="patch_13">
    <path d="M 824.548375 494.0415 
L 824.548375 25.3575 
" style="fill: none; stroke: #262626; stroke-width: 1.875; stroke-linejoin: miter; stroke-linecap: square"/>
   </g>
   <g id="patch_14">
    <path d="M 60.154375 494.0415 
L 824.548375 494.0415 
" style="fill: none; stroke: #262626; stroke-width: 1.875; stroke-linejoin: miter; stroke-linecap: square"/>
   </g>
   <g id="patch_15">
    <path d="M 60.154375 25.3575 
L 824.548375 25.3575 
" style="fill: none; stroke: #262626; stroke-width: 1.875; stroke-linejoin: miter; stroke-linecap: square"/>
   </g>
   <g id="text_33">
    <!-- CS = 39 -->
    <g transform="translate(120.316036 210.44713) rotate(-90) scale(0.1 -0.1)">
     <defs>
      <path id="DejaVuSans-53" d="M 3425 4513 
L 3425 3897 
Q 3066 4069 2747 4153 
Q 2428 4238 2131 4238 
Q 1616 4238 1336 4038 
Q 1056 3838 1056 3469 
Q 1056 3159 1242 3001 
Q 1428 2844 1947 2747 
L 2328 2669 
Q 3034 2534 3370 2195 
Q 3706 1856 3706 1288 
Q 3706 609 3251 259 
Q 2797 -91 1919 -91 
Q 1588 -91 1214 -16 
Q 841 59 441 206 
L 441 856 
Q 825 641 1194 531 
Q 1563 422 1919 422 
Q 2459 422 2753 634 
Q 3047 847 3047 1241 
Q 3047 1584 2836 1778 
Q 2625 1972 2144 2069 
L 1759 2144 
Q 1053 2284 737 2584 
Q 422 2884 422 3419 
Q 422 4038 858 4394 
Q 1294 4750 2059 4750 
Q 2388 4750 2728 4690 
Q 3069 4631 3425 4513 
z
" transform="scale(0.015625)"/>
      <path id="DejaVuSans-3d" d="M 678 2906 
L 4684 2906 
L 4684 2381 
L 678 2381 
L 678 2906 
z
M 678 1631 
L 4684 1631 
L 4684 1100 
L 678 1100 
L 678 1631 
z
" transform="scale(0.015625)"/>
     </defs>
     <use xlink:href="#DejaVuSans-43"/>
     <use xlink:href="#DejaVuSans-53" transform="translate(69.824219 0)"/>
     <use xlink:href="#DejaVuSans-20" transform="translate(133.300781 0)"/>
     <use xlink:href="#DejaVuSans-3d" transform="translate(165.087891 0)"/>
     <use xlink:href="#DejaVuSans-20" transform="translate(248.876953 0)"/>
     <use xlink:href="#DejaVuSans-33" transform="translate(280.664062 0)"/>
     <use xlink:href="#DejaVuSans-39" transform="translate(344.287109 0)"/>
    </g>
   </g>
   <g id="text_34">
    <!-- No Computation Saved -->
    <g style="fill: #808080" transform="translate(145.558262 451.484616) rotate(-90) scale(0.1 -0.1)">
     <defs>
      <path id="DejaVuSans-4e" d="M 628 4666 
L 1478 4666 
L 3547 763 
L 3547 4666 
L 4159 4666 
L 4159 0 
L 3309 0 
L 1241 3903 
L 1241 0 
L 628 0 
L 628 4666 
z
" transform="scale(0.015625)"/>
      <path id="DejaVuSans-6d" d="M 3328 2828 
Q 3544 3216 3844 3400 
Q 4144 3584 4550 3584 
Q 5097 3584 5394 3201 
Q 5691 2819 5691 2113 
L 5691 0 
L 5113 0 
L 5113 2094 
Q 5113 2597 4934 2840 
Q 4756 3084 4391 3084 
Q 3944 3084 3684 2787 
Q 3425 2491 3425 1978 
L 3425 0 
L 2847 0 
L 2847 2094 
Q 2847 2600 2669 2842 
Q 2491 3084 2119 3084 
Q 1678 3084 1418 2786 
Q 1159 2488 1159 1978 
L 1159 0 
L 581 0 
L 581 3500 
L 1159 3500 
L 1159 2956 
Q 1356 3278 1631 3431 
Q 1906 3584 2284 3584 
Q 2666 3584 2933 3390 
Q 3200 3197 3328 2828 
z
" transform="scale(0.015625)"/>
      <path id="DejaVuSans-70" d="M 1159 525 
L 1159 -1331 
L 581 -1331 
L 581 3500 
L 1159 3500 
L 1159 2969 
Q 1341 3281 1617 3432 
Q 1894 3584 2278 3584 
Q 2916 3584 3314 3078 
Q 3713 2572 3713 1747 
Q 3713 922 3314 415 
Q 2916 -91 2278 -91 
Q 1894 -91 1617 61 
Q 1341 213 1159 525 
z
M 3116 1747 
Q 3116 2381 2855 2742 
Q 2594 3103 2138 3103 
Q 1681 3103 1420 2742 
Q 1159 2381 1159 1747 
Q 1159 1113 1420 752 
Q 1681 391 2138 391 
Q 2594 391 2855 752 
Q 3116 1113 3116 1747 
z
" transform="scale(0.015625)"/>
      <path id="DejaVuSans-76" d="M 191 3500 
L 800 3500 
L 1894 563 
L 2988 3500 
L 3597 3500 
L 2284 0 
L 1503 0 
L 191 3500 
z
" transform="scale(0.015625)"/>
     </defs>
     <use xlink:href="#DejaVuSans-4e"/>
     <use xlink:href="#DejaVuSans-6f" transform="translate(74.804688 0)"/>
     <use xlink:href="#DejaVuSans-20" transform="translate(135.986328 0)"/>
     <use xlink:href="#DejaVuSans-43" transform="translate(167.773438 0)"/>
     <use xlink:href="#DejaVuSans-6f" transform="translate(237.597656 0)"/>
     <use xlink:href="#DejaVuSans-6d" transform="translate(298.779297 0)"/>
     <use xlink:href="#DejaVuSans-70" transform="translate(396.191406 0)"/>
     <use xlink:href="#DejaVuSans-75" transform="translate(459.667969 0)"/>
     <use xlink:href="#DejaVuSans-74" transform="translate(523.046875 0)"/>
     <use xlink:href="#DejaVuSans-61" transform="translate(562.255859 0)"/>
     <use xlink:href="#DejaVuSans-74" transform="translate(623.535156 0)"/>
     <use xlink:href="#DejaVuSans-69" transform="translate(662.744141 0)"/>
     <use xlink:href="#DejaVuSans-6f" transform="translate(690.527344 0)"/>
     <use xlink:href="#DejaVuSans-6e" transform="translate(751.708984 0)"/>
     <use xlink:href="#DejaVuSans-20" transform="translate(815.087891 0)"/>
     <use xlink:href="#DejaVuSans-53" transform="translate(846.875 0)"/>
     <use xlink:href="#DejaVuSans-61" transform="translate(910.351562 0)"/>
     <use xlink:href="#DejaVuSans-76" transform="translate(971.630859 0)"/>
     <use xlink:href="#DejaVuSans-65" transform="translate(1030.810547 0)"/>
     <use xlink:href="#DejaVuSans-64" transform="translate(1092.333984 0)"/>
    </g>
   </g>
   <g id="text_35">
    <!-- No Computation Saved -->
    <g style="fill: #808080" transform="translate(175.254999 451.484616) rotate(-90) scale(0.1 -0.1)">
     <use xlink:href="#DejaVuSans-4e"/>
     <use xlink:href="#DejaVuSans-6f" transform="translate(74.804688 0)"/>
     <use xlink:href="#DejaVuSans-20" transform="translate(135.986328 0)"/>
     <use xlink:href="#DejaVuSans-43" transform="translate(167.773438 0)"/>
     <use xlink:href="#DejaVuSans-6f" transform="translate(237.597656 0)"/>
     <use xlink:href="#DejaVuSans-6d" transform="translate(298.779297 0)"/>
     <use xlink:href="#DejaVuSans-70" transform="translate(396.191406 0)"/>
     <use xlink:href="#DejaVuSans-75" transform="translate(459.667969 0)"/>
     <use xlink:href="#DejaVuSans-74" transform="translate(523.046875 0)"/>
     <use xlink:href="#DejaVuSans-61" transform="translate(562.255859 0)"/>
     <use xlink:href="#DejaVuSans-74" transform="translate(623.535156 0)"/>
     <use xlink:href="#DejaVuSans-69" transform="translate(662.744141 0)"/>
     <use xlink:href="#DejaVuSans-6f" transform="translate(690.527344 0)"/>
     <use xlink:href="#DejaVuSans-6e" transform="translate(751.708984 0)"/>
     <use xlink:href="#DejaVuSans-20" transform="translate(815.087891 0)"/>
     <use xlink:href="#DejaVuSans-53" transform="translate(846.875 0)"/>
     <use xlink:href="#DejaVuSans-61" transform="translate(910.351562 0)"/>
     <use xlink:href="#DejaVuSans-76" transform="translate(971.630859 0)"/>
     <use xlink:href="#DejaVuSans-65" transform="translate(1030.810547 0)"/>
     <use xlink:href="#DejaVuSans-64" transform="translate(1092.333984 0)"/>
    </g>
   </g>
   <g id="text_36">
    <!-- CS = 60 -->
    <g transform="translate(209.406246 304.18393) rotate(-90) scale(0.1 -0.1)">
     <use xlink:href="#DejaVuSans-43"/>
     <use xlink:href="#DejaVuSans-53" transform="translate(69.824219 0)"/>
     <use xlink:href="#DejaVuSans-20" transform="translate(133.300781 0)"/>
     <use xlink:href="#DejaVuSans-3d" transform="translate(165.087891 0)"/>
     <use xlink:href="#DejaVuSans-20" transform="translate(248.876953 0)"/>
     <use xlink:href="#DejaVuSans-36" transform="translate(280.664062 0)"/>
     <use xlink:href="#DejaVuSans-30" transform="translate(344.287109 0)"/>
    </g>
   </g>
   <g id="text_37">
    <!-- No Computation Saved -->
    <g style="fill: #808080" transform="translate(234.648472 451.484616) rotate(-90) scale(0.1 -0.1)">
     <use xlink:href="#DejaVuSans-4e"/>
     <use xlink:href="#DejaVuSans-6f" transform="translate(74.804688 0)"/>
     <use xlink:href="#DejaVuSans-20" transform="translate(135.986328 0)"/>
     <use xlink:href="#DejaVuSans-43" transform="translate(167.773438 0)"/>
     <use xlink:href="#DejaVuSans-6f" transform="translate(237.597656 0)"/>
     <use xlink:href="#DejaVuSans-6d" transform="translate(298.779297 0)"/>
     <use xlink:href="#DejaVuSans-70" transform="translate(396.191406 0)"/>
     <use xlink:href="#DejaVuSans-75" transform="translate(459.667969 0)"/>
     <use xlink:href="#DejaVuSans-74" transform="translate(523.046875 0)"/>
     <use xlink:href="#DejaVuSans-61" transform="translate(562.255859 0)"/>
     <use xlink:href="#DejaVuSans-74" transform="translate(623.535156 0)"/>
     <use xlink:href="#DejaVuSans-69" transform="translate(662.744141 0)"/>
     <use xlink:href="#DejaVuSans-6f" transform="translate(690.527344 0)"/>
     <use xlink:href="#DejaVuSans-6e" transform="translate(751.708984 0)"/>
     <use xlink:href="#DejaVuSans-20" transform="translate(815.087891 0)"/>
     <use xlink:href="#DejaVuSans-53" transform="translate(846.875 0)"/>
     <use xlink:href="#DejaVuSans-61" transform="translate(910.351562 0)"/>
     <use xlink:href="#DejaVuSans-76" transform="translate(971.630859 0)"/>
     <use xlink:href="#DejaVuSans-65" transform="translate(1030.810547 0)"/>
     <use xlink:href="#DejaVuSans-64" transform="translate(1092.333984 0)"/>
    </g>
   </g>
   <g id="text_38">
    <!-- CS = 9 -->
    <g transform="translate(268.799719 76.537416) rotate(-90) scale(0.1 -0.1)">
     <use xlink:href="#DejaVuSans-43"/>
     <use xlink:href="#DejaVuSans-53" transform="translate(69.824219 0)"/>
     <use xlink:href="#DejaVuSans-20" transform="translate(133.300781 0)"/>
     <use xlink:href="#DejaVuSans-3d" transform="translate(165.087891 0)"/>
     <use xlink:href="#DejaVuSans-20" transform="translate(248.876953 0)"/>
     <use xlink:href="#DejaVuSans-39" transform="translate(280.664062 0)"/>
    </g>
   </g>
   <g id="text_39">
    <!-- No Computation Saved -->
    <g style="fill: #808080" transform="translate(294.041945 451.484616) rotate(-90) scale(0.1 -0.1)">
     <use xlink:href="#DejaVuSans-4e"/>
     <use xlink:href="#DejaVuSans-6f" transform="translate(74.804688 0)"/>
     <use xlink:href="#DejaVuSans-20" transform="translate(135.986328 0)"/>
     <use xlink:href="#DejaVuSans-43" transform="translate(167.773438 0)"/>
     <use xlink:href="#DejaVuSans-6f" transform="translate(237.597656 0)"/>
     <use xlink:href="#DejaVuSans-6d" transform="translate(298.779297 0)"/>
     <use xlink:href="#DejaVuSans-70" transform="translate(396.191406 0)"/>
     <use xlink:href="#DejaVuSans-75" transform="translate(459.667969 0)"/>
     <use xlink:href="#DejaVuSans-74" transform="translate(523.046875 0)"/>
     <use xlink:href="#DejaVuSans-61" transform="translate(562.255859 0)"/>
     <use xlink:href="#DejaVuSans-74" transform="translate(623.535156 0)"/>
     <use xlink:href="#DejaVuSans-69" transform="translate(662.744141 0)"/>
     <use xlink:href="#DejaVuSans-6f" transform="translate(690.527344 0)"/>
     <use xlink:href="#DejaVuSans-6e" transform="translate(751.708984 0)"/>
     <use xlink:href="#DejaVuSans-20" transform="translate(815.087891 0)"/>
     <use xlink:href="#DejaVuSans-53" transform="translate(846.875 0)"/>
     <use xlink:href="#DejaVuSans-61" transform="translate(910.351562 0)"/>
     <use xlink:href="#DejaVuSans-76" transform="translate(971.630859 0)"/>
     <use xlink:href="#DejaVuSans-65" transform="translate(1030.810547 0)"/>
     <use xlink:href="#DejaVuSans-64" transform="translate(1092.333984 0)"/>
    </g>
   </g>
   <g id="text_40">
    <!-- No Computation Saved -->
    <g style="fill: #808080" transform="translate(323.738682 451.484616) rotate(-90) scale(0.1 -0.1)">
     <use xlink:href="#DejaVuSans-4e"/>
     <use xlink:href="#DejaVuSans-6f" transform="translate(74.804688 0)"/>
     <use xlink:href="#DejaVuSans-20" transform="translate(135.986328 0)"/>
     <use xlink:href="#DejaVuSans-43" transform="translate(167.773438 0)"/>
     <use xlink:href="#DejaVuSans-6f" transform="translate(237.597656 0)"/>
     <use xlink:href="#DejaVuSans-6d" transform="translate(298.779297 0)"/>
     <use xlink:href="#DejaVuSans-70" transform="translate(396.191406 0)"/>
     <use xlink:href="#DejaVuSans-75" transform="translate(459.667969 0)"/>
     <use xlink:href="#DejaVuSans-74" transform="translate(523.046875 0)"/>
     <use xlink:href="#DejaVuSans-61" transform="translate(562.255859 0)"/>
     <use xlink:href="#DejaVuSans-74" transform="translate(623.535156 0)"/>
     <use xlink:href="#DejaVuSans-69" transform="translate(662.744141 0)"/>
     <use xlink:href="#DejaVuSans-6f" transform="translate(690.527344 0)"/>
     <use xlink:href="#DejaVuSans-6e" transform="translate(751.708984 0)"/>
     <use xlink:href="#DejaVuSans-20" transform="translate(815.087891 0)"/>
     <use xlink:href="#DejaVuSans-53" transform="translate(846.875 0)"/>
     <use xlink:href="#DejaVuSans-61" transform="translate(910.351562 0)"/>
     <use xlink:href="#DejaVuSans-76" transform="translate(971.630859 0)"/>
     <use xlink:href="#DejaVuSans-65" transform="translate(1030.810547 0)"/>
     <use xlink:href="#DejaVuSans-64" transform="translate(1092.333984 0)"/>
    </g>
   </g>
   <g id="text_41">
    <!-- No Computation Saved -->
    <g style="fill: #808080" transform="translate(353.435419 451.484616) rotate(-90) scale(0.1 -0.1)">
     <use xlink:href="#DejaVuSans-4e"/>
     <use xlink:href="#DejaVuSans-6f" transform="translate(74.804688 0)"/>
     <use xlink:href="#DejaVuSans-20" transform="translate(135.986328 0)"/>
     <use xlink:href="#DejaVuSans-43" transform="translate(167.773438 0)"/>
     <use xlink:href="#DejaVuSans-6f" transform="translate(237.597656 0)"/>
     <use xlink:href="#DejaVuSans-6d" transform="translate(298.779297 0)"/>
     <use xlink:href="#DejaVuSans-70" transform="translate(396.191406 0)"/>
     <use xlink:href="#DejaVuSans-75" transform="translate(459.667969 0)"/>
     <use xlink:href="#DejaVuSans-74" transform="translate(523.046875 0)"/>
     <use xlink:href="#DejaVuSans-61" transform="translate(562.255859 0)"/>
     <use xlink:href="#DejaVuSans-74" transform="translate(623.535156 0)"/>
     <use xlink:href="#DejaVuSans-69" transform="translate(662.744141 0)"/>
     <use xlink:href="#DejaVuSans-6f" transform="translate(690.527344 0)"/>
     <use xlink:href="#DejaVuSans-6e" transform="translate(751.708984 0)"/>
     <use xlink:href="#DejaVuSans-20" transform="translate(815.087891 0)"/>
     <use xlink:href="#DejaVuSans-53" transform="translate(846.875 0)"/>
     <use xlink:href="#DejaVuSans-61" transform="translate(910.351562 0)"/>
     <use xlink:href="#DejaVuSans-76" transform="translate(971.630859 0)"/>
     <use xlink:href="#DejaVuSans-65" transform="translate(1030.810547 0)"/>
     <use xlink:href="#DejaVuSans-64" transform="translate(1092.333984 0)"/>
    </g>
   </g>
   <g id="text_42">
    <!-- CS = 11 -->
    <g transform="translate(387.586666 85.46473) rotate(-90) scale(0.1 -0.1)">
     <use xlink:href="#DejaVuSans-43"/>
     <use xlink:href="#DejaVuSans-53" transform="translate(69.824219 0)"/>
     <use xlink:href="#DejaVuSans-20" transform="translate(133.300781 0)"/>
     <use xlink:href="#DejaVuSans-3d" transform="translate(165.087891 0)"/>
     <use xlink:href="#DejaVuSans-20" transform="translate(248.876953 0)"/>
     <use xlink:href="#DejaVuSans-31" transform="translate(280.664062 0)"/>
     <use xlink:href="#DejaVuSans-31" transform="translate(344.287109 0)"/>
    </g>
   </g>
   <g id="text_43">
    <!-- CS = 51 -->
    <g transform="translate(417.283402 264.011016) rotate(-90) scale(0.1 -0.1)">
     <use xlink:href="#DejaVuSans-43"/>
     <use xlink:href="#DejaVuSans-53" transform="translate(69.824219 0)"/>
     <use xlink:href="#DejaVuSans-20" transform="translate(133.300781 0)"/>
     <use xlink:href="#DejaVuSans-3d" transform="translate(165.087891 0)"/>
     <use xlink:href="#DejaVuSans-20" transform="translate(248.876953 0)"/>
     <use xlink:href="#DejaVuSans-35" transform="translate(280.664062 0)"/>
     <use xlink:href="#DejaVuSans-31" transform="translate(344.287109 0)"/>
    </g>
   </g>
   <g id="text_44">
    <!-- No Computation Saved -->
    <g style="fill: #808080" transform="translate(442.525628 451.484616) rotate(-90) scale(0.1 -0.1)">
     <use xlink:href="#DejaVuSans-4e"/>
     <use xlink:href="#DejaVuSans-6f" transform="translate(74.804688 0)"/>
     <use xlink:href="#DejaVuSans-20" transform="translate(135.986328 0)"/>
     <use xlink:href="#DejaVuSans-43" transform="translate(167.773438 0)"/>
     <use xlink:href="#DejaVuSans-6f" transform="translate(237.597656 0)"/>
     <use xlink:href="#DejaVuSans-6d" transform="translate(298.779297 0)"/>
     <use xlink:href="#DejaVuSans-70" transform="translate(396.191406 0)"/>
     <use xlink:href="#DejaVuSans-75" transform="translate(459.667969 0)"/>
     <use xlink:href="#DejaVuSans-74" transform="translate(523.046875 0)"/>
     <use xlink:href="#DejaVuSans-61" transform="translate(562.255859 0)"/>
     <use xlink:href="#DejaVuSans-74" transform="translate(623.535156 0)"/>
     <use xlink:href="#DejaVuSans-69" transform="translate(662.744141 0)"/>
     <use xlink:href="#DejaVuSans-6f" transform="translate(690.527344 0)"/>
     <use xlink:href="#DejaVuSans-6e" transform="translate(751.708984 0)"/>
     <use xlink:href="#DejaVuSans-20" transform="translate(815.087891 0)"/>
     <use xlink:href="#DejaVuSans-53" transform="translate(846.875 0)"/>
     <use xlink:href="#DejaVuSans-61" transform="translate(910.351562 0)"/>
     <use xlink:href="#DejaVuSans-76" transform="translate(971.630859 0)"/>
     <use xlink:href="#DejaVuSans-65" transform="translate(1030.810547 0)"/>
     <use xlink:href="#DejaVuSans-64" transform="translate(1092.333984 0)"/>
    </g>
   </g>
   <g id="text_45">
    <!-- No Computation Saved -->
    <g style="fill: #808080" transform="translate(472.222365 451.484616) rotate(-90) scale(0.1 -0.1)">
     <use xlink:href="#DejaVuSans-4e"/>
     <use xlink:href="#DejaVuSans-6f" transform="translate(74.804688 0)"/>
     <use xlink:href="#DejaVuSans-20" transform="translate(135.986328 0)"/>
     <use xlink:href="#DejaVuSans-43" transform="translate(167.773438 0)"/>
     <use xlink:href="#DejaVuSans-6f" transform="translate(237.597656 0)"/>
     <use xlink:href="#DejaVuSans-6d" transform="translate(298.779297 0)"/>
     <use xlink:href="#DejaVuSans-70" transform="translate(396.191406 0)"/>
     <use xlink:href="#DejaVuSans-75" transform="translate(459.667969 0)"/>
     <use xlink:href="#DejaVuSans-74" transform="translate(523.046875 0)"/>
     <use xlink:href="#DejaVuSans-61" transform="translate(562.255859 0)"/>
     <use xlink:href="#DejaVuSans-74" transform="translate(623.535156 0)"/>
     <use xlink:href="#DejaVuSans-69" transform="translate(662.744141 0)"/>
     <use xlink:href="#DejaVuSans-6f" transform="translate(690.527344 0)"/>
     <use xlink:href="#DejaVuSans-6e" transform="translate(751.708984 0)"/>
     <use xlink:href="#DejaVuSans-20" transform="translate(815.087891 0)"/>
     <use xlink:href="#DejaVuSans-53" transform="translate(846.875 0)"/>
     <use xlink:href="#DejaVuSans-61" transform="translate(910.351562 0)"/>
     <use xlink:href="#DejaVuSans-76" transform="translate(971.630859 0)"/>
     <use xlink:href="#DejaVuSans-65" transform="translate(1030.810547 0)"/>
     <use xlink:href="#DejaVuSans-64" transform="translate(1092.333984 0)"/>
    </g>
   </g>
   <g id="text_46">
    <!-- CS = 44 -->
    <g transform="translate(506.373612 232.765416) rotate(-90) scale(0.1 -0.1)">
     <use xlink:href="#DejaVuSans-43"/>
     <use xlink:href="#DejaVuSans-53" transform="translate(69.824219 0)"/>
     <use xlink:href="#DejaVuSans-20" transform="translate(133.300781 0)"/>
     <use xlink:href="#DejaVuSans-3d" transform="translate(165.087891 0)"/>
     <use xlink:href="#DejaVuSans-20" transform="translate(248.876953 0)"/>
     <use xlink:href="#DejaVuSans-34" transform="translate(280.664062 0)"/>
     <use xlink:href="#DejaVuSans-34" transform="translate(344.287109 0)"/>
    </g>
   </g>
   <g id="text_47">
    <!-- No Computation Saved -->
    <g style="fill: #808080" transform="translate(531.615838 451.484616) rotate(-90) scale(0.1 -0.1)">
     <use xlink:href="#DejaVuSans-4e"/>
     <use xlink:href="#DejaVuSans-6f" transform="translate(74.804688 0)"/>
     <use xlink:href="#DejaVuSans-20" transform="translate(135.986328 0)"/>
     <use xlink:href="#DejaVuSans-43" transform="translate(167.773438 0)"/>
     <use xlink:href="#DejaVuSans-6f" transform="translate(237.597656 0)"/>
     <use xlink:href="#DejaVuSans-6d" transform="translate(298.779297 0)"/>
     <use xlink:href="#DejaVuSans-70" transform="translate(396.191406 0)"/>
     <use xlink:href="#DejaVuSans-75" transform="translate(459.667969 0)"/>
     <use xlink:href="#DejaVuSans-74" transform="translate(523.046875 0)"/>
     <use xlink:href="#DejaVuSans-61" transform="translate(562.255859 0)"/>
     <use xlink:href="#DejaVuSans-74" transform="translate(623.535156 0)"/>
     <use xlink:href="#DejaVuSans-69" transform="translate(662.744141 0)"/>
     <use xlink:href="#DejaVuSans-6f" transform="translate(690.527344 0)"/>
     <use xlink:href="#DejaVuSans-6e" transform="translate(751.708984 0)"/>
     <use xlink:href="#DejaVuSans-20" transform="translate(815.087891 0)"/>
     <use xlink:href="#DejaVuSans-53" transform="translate(846.875 0)"/>
     <use xlink:href="#DejaVuSans-61" transform="translate(910.351562 0)"/>
     <use xlink:href="#DejaVuSans-76" transform="translate(971.630859 0)"/>
     <use xlink:href="#DejaVuSans-65" transform="translate(1030.810547 0)"/>
     <use xlink:href="#DejaVuSans-64" transform="translate(1092.333984 0)"/>
    </g>
   </g>
   <g id="text_48">
    <!-- CS = 6 -->
    <g transform="translate(565.767085 63.146445) rotate(-90) scale(0.1 -0.1)">
     <use xlink:href="#DejaVuSans-43"/>
     <use xlink:href="#DejaVuSans-53" transform="translate(69.824219 0)"/>
     <use xlink:href="#DejaVuSans-20" transform="translate(133.300781 0)"/>
     <use xlink:href="#DejaVuSans-3d" transform="translate(165.087891 0)"/>
     <use xlink:href="#DejaVuSans-20" transform="translate(248.876953 0)"/>
     <use xlink:href="#DejaVuSans-36" transform="translate(280.664062 0)"/>
    </g>
   </g>
   <g id="text_49">
    <!-- No Computation Saved -->
    <g style="fill: #808080" transform="translate(591.009311 451.484616) rotate(-90) scale(0.1 -0.1)">
     <use xlink:href="#DejaVuSans-4e"/>
     <use xlink:href="#DejaVuSans-6f" transform="translate(74.804688 0)"/>
     <use xlink:href="#DejaVuSans-20" transform="translate(135.986328 0)"/>
     <use xlink:href="#DejaVuSans-43" transform="translate(167.773438 0)"/>
     <use xlink:href="#DejaVuSans-6f" transform="translate(237.597656 0)"/>
     <use xlink:href="#DejaVuSans-6d" transform="translate(298.779297 0)"/>
     <use xlink:href="#DejaVuSans-70" transform="translate(396.191406 0)"/>
     <use xlink:href="#DejaVuSans-75" transform="translate(459.667969 0)"/>
     <use xlink:href="#DejaVuSans-74" transform="translate(523.046875 0)"/>
     <use xlink:href="#DejaVuSans-61" transform="translate(562.255859 0)"/>
     <use xlink:href="#DejaVuSans-74" transform="translate(623.535156 0)"/>
     <use xlink:href="#DejaVuSans-69" transform="translate(662.744141 0)"/>
     <use xlink:href="#DejaVuSans-6f" transform="translate(690.527344 0)"/>
     <use xlink:href="#DejaVuSans-6e" transform="translate(751.708984 0)"/>
     <use xlink:href="#DejaVuSans-20" transform="translate(815.087891 0)"/>
     <use xlink:href="#DejaVuSans-53" transform="translate(846.875 0)"/>
     <use xlink:href="#DejaVuSans-61" transform="translate(910.351562 0)"/>
     <use xlink:href="#DejaVuSans-76" transform="translate(971.630859 0)"/>
     <use xlink:href="#DejaVuSans-65" transform="translate(1030.810547 0)"/>
     <use xlink:href="#DejaVuSans-64" transform="translate(1092.333984 0)"/>
    </g>
   </g>
   <g id="text_50">
    <!-- CS = 30 -->
    <g transform="translate(625.160558 170.274216) rotate(-90) scale(0.1 -0.1)">
     <use xlink:href="#DejaVuSans-43"/>
     <use xlink:href="#DejaVuSans-53" transform="translate(69.824219 0)"/>
     <use xlink:href="#DejaVuSans-20" transform="translate(133.300781 0)"/>
     <use xlink:href="#DejaVuSans-3d" transform="translate(165.087891 0)"/>
     <use xlink:href="#DejaVuSans-20" transform="translate(248.876953 0)"/>
     <use xlink:href="#DejaVuSans-33" transform="translate(280.664062 0)"/>
     <use xlink:href="#DejaVuSans-30" transform="translate(344.287109 0)"/>
    </g>
   </g>
   <g id="text_51">
    <!-- CS = 47 -->
    <g transform="translate(654.857295 246.156387) rotate(-90) scale(0.1 -0.1)">
     <use xlink:href="#DejaVuSans-43"/>
     <use xlink:href="#DejaVuSans-53" transform="translate(69.824219 0)"/>
     <use xlink:href="#DejaVuSans-20" transform="translate(133.300781 0)"/>
     <use xlink:href="#DejaVuSans-3d" transform="translate(165.087891 0)"/>
     <use xlink:href="#DejaVuSans-20" transform="translate(248.876953 0)"/>
     <use xlink:href="#DejaVuSans-34" transform="translate(280.664062 0)"/>
     <use xlink:href="#DejaVuSans-37" transform="translate(344.287109 0)"/>
    </g>
   </g>
   <g id="text_52">
    <!-- No Computation Saved -->
    <g style="fill: #808080" transform="translate(680.099521 451.484616) rotate(-90) scale(0.1 -0.1)">
     <use xlink:href="#DejaVuSans-4e"/>
     <use xlink:href="#DejaVuSans-6f" transform="translate(74.804688 0)"/>
     <use xlink:href="#DejaVuSans-20" transform="translate(135.986328 0)"/>
     <use xlink:href="#DejaVuSans-43" transform="translate(167.773438 0)"/>
     <use xlink:href="#DejaVuSans-6f" transform="translate(237.597656 0)"/>
     <use xlink:href="#DejaVuSans-6d" transform="translate(298.779297 0)"/>
     <use xlink:href="#DejaVuSans-70" transform="translate(396.191406 0)"/>
     <use xlink:href="#DejaVuSans-75" transform="translate(459.667969 0)"/>
     <use xlink:href="#DejaVuSans-74" transform="translate(523.046875 0)"/>
     <use xlink:href="#DejaVuSans-61" transform="translate(562.255859 0)"/>
     <use xlink:href="#DejaVuSans-74" transform="translate(623.535156 0)"/>
     <use xlink:href="#DejaVuSans-69" transform="translate(662.744141 0)"/>
     <use xlink:href="#DejaVuSans-6f" transform="translate(690.527344 0)"/>
     <use xlink:href="#DejaVuSans-6e" transform="translate(751.708984 0)"/>
     <use xlink:href="#DejaVuSans-20" transform="translate(815.087891 0)"/>
     <use xlink:href="#DejaVuSans-53" transform="translate(846.875 0)"/>
     <use xlink:href="#DejaVuSans-61" transform="translate(910.351562 0)"/>
     <use xlink:href="#DejaVuSans-76" transform="translate(971.630859 0)"/>
     <use xlink:href="#DejaVuSans-65" transform="translate(1030.810547 0)"/>
     <use xlink:href="#DejaVuSans-64" transform="translate(1092.333984 0)"/>
    </g>
   </g>
   <g id="text_53">
    <!-- No Computation Saved -->
    <g style="fill: #808080" transform="translate(709.796258 451.484616) rotate(-90) scale(0.1 -0.1)">
     <use xlink:href="#DejaVuSans-4e"/>
     <use xlink:href="#DejaVuSans-6f" transform="translate(74.804688 0)"/>
     <use xlink:href="#DejaVuSans-20" transform="translate(135.986328 0)"/>
     <use xlink:href="#DejaVuSans-43" transform="translate(167.773438 0)"/>
     <use xlink:href="#DejaVuSans-6f" transform="translate(237.597656 0)"/>
     <use xlink:href="#DejaVuSans-6d" transform="translate(298.779297 0)"/>
     <use xlink:href="#DejaVuSans-70" transform="translate(396.191406 0)"/>
     <use xlink:href="#DejaVuSans-75" transform="translate(459.667969 0)"/>
     <use xlink:href="#DejaVuSans-74" transform="translate(523.046875 0)"/>
     <use xlink:href="#DejaVuSans-61" transform="translate(562.255859 0)"/>
     <use xlink:href="#DejaVuSans-74" transform="translate(623.535156 0)"/>
     <use xlink:href="#DejaVuSans-69" transform="translate(662.744141 0)"/>
     <use xlink:href="#DejaVuSans-6f" transform="translate(690.527344 0)"/>
     <use xlink:href="#DejaVuSans-6e" transform="translate(751.708984 0)"/>
     <use xlink:href="#DejaVuSans-20" transform="translate(815.087891 0)"/>
     <use xlink:href="#DejaVuSans-53" transform="translate(846.875 0)"/>
     <use xlink:href="#DejaVuSans-61" transform="translate(910.351562 0)"/>
     <use xlink:href="#DejaVuSans-76" transform="translate(971.630859 0)"/>
     <use xlink:href="#DejaVuSans-65" transform="translate(1030.810547 0)"/>
     <use xlink:href="#DejaVuSans-64" transform="translate(1092.333984 0)"/>
    </g>
   </g>
   <g id="text_54">
    <!-- No Computation Saved -->
    <g style="fill: #808080" transform="translate(739.492994 451.484616) rotate(-90) scale(0.1 -0.1)">
     <use xlink:href="#DejaVuSans-4e"/>
     <use xlink:href="#DejaVuSans-6f" transform="translate(74.804688 0)"/>
     <use xlink:href="#DejaVuSans-20" transform="translate(135.986328 0)"/>
     <use xlink:href="#DejaVuSans-43" transform="translate(167.773438 0)"/>
     <use xlink:href="#DejaVuSans-6f" transform="translate(237.597656 0)"/>
     <use xlink:href="#DejaVuSans-6d" transform="translate(298.779297 0)"/>
     <use xlink:href="#DejaVuSans-70" transform="translate(396.191406 0)"/>
     <use xlink:href="#DejaVuSans-75" transform="translate(459.667969 0)"/>
     <use xlink:href="#DejaVuSans-74" transform="translate(523.046875 0)"/>
     <use xlink:href="#DejaVuSans-61" transform="translate(562.255859 0)"/>
     <use xlink:href="#DejaVuSans-74" transform="translate(623.535156 0)"/>
     <use xlink:href="#DejaVuSans-69" transform="translate(662.744141 0)"/>
     <use xlink:href="#DejaVuSans-6f" transform="translate(690.527344 0)"/>
     <use xlink:href="#DejaVuSans-6e" transform="translate(751.708984 0)"/>
     <use xlink:href="#DejaVuSans-20" transform="translate(815.087891 0)"/>
     <use xlink:href="#DejaVuSans-53" transform="translate(846.875 0)"/>
     <use xlink:href="#DejaVuSans-61" transform="translate(910.351562 0)"/>
     <use xlink:href="#DejaVuSans-76" transform="translate(971.630859 0)"/>
     <use xlink:href="#DejaVuSans-65" transform="translate(1030.810547 0)"/>
     <use xlink:href="#DejaVuSans-64" transform="translate(1092.333984 0)"/>
    </g>
   </g>
   <g id="text_55">
    <!-- No Computation Saved -->
    <g style="fill: #808080" transform="translate(769.189731 451.484616) rotate(-90) scale(0.1 -0.1)">
     <use xlink:href="#DejaVuSans-4e"/>
     <use xlink:href="#DejaVuSans-6f" transform="translate(74.804688 0)"/>
     <use xlink:href="#DejaVuSans-20" transform="translate(135.986328 0)"/>
     <use xlink:href="#DejaVuSans-43" transform="translate(167.773438 0)"/>
     <use xlink:href="#DejaVuSans-6f" transform="translate(237.597656 0)"/>
     <use xlink:href="#DejaVuSans-6d" transform="translate(298.779297 0)"/>
     <use xlink:href="#DejaVuSans-70" transform="translate(396.191406 0)"/>
     <use xlink:href="#DejaVuSans-75" transform="translate(459.667969 0)"/>
     <use xlink:href="#DejaVuSans-74" transform="translate(523.046875 0)"/>
     <use xlink:href="#DejaVuSans-61" transform="translate(562.255859 0)"/>
     <use xlink:href="#DejaVuSans-74" transform="translate(623.535156 0)"/>
     <use xlink:href="#DejaVuSans-69" transform="translate(662.744141 0)"/>
     <use xlink:href="#DejaVuSans-6f" transform="translate(690.527344 0)"/>
     <use xlink:href="#DejaVuSans-6e" transform="translate(751.708984 0)"/>
     <use xlink:href="#DejaVuSans-20" transform="translate(815.087891 0)"/>
     <use xlink:href="#DejaVuSans-53" transform="translate(846.875 0)"/>
     <use xlink:href="#DejaVuSans-61" transform="translate(910.351562 0)"/>
     <use xlink:href="#DejaVuSans-76" transform="translate(971.630859 0)"/>
     <use xlink:href="#DejaVuSans-65" transform="translate(1030.810547 0)"/>
     <use xlink:href="#DejaVuSans-64" transform="translate(1092.333984 0)"/>
    </g>
   </g>
   <g id="text_56">
    <!-- No Computation Saved -->
    <g style="fill: #808080" transform="translate(798.886468 451.484616) rotate(-90) scale(0.1 -0.1)">
     <use xlink:href="#DejaVuSans-4e"/>
     <use xlink:href="#DejaVuSans-6f" transform="translate(74.804688 0)"/>
     <use xlink:href="#DejaVuSans-20" transform="translate(135.986328 0)"/>
     <use xlink:href="#DejaVuSans-43" transform="translate(167.773438 0)"/>
     <use xlink:href="#DejaVuSans-6f" transform="translate(237.597656 0)"/>
     <use xlink:href="#DejaVuSans-6d" transform="translate(298.779297 0)"/>
     <use xlink:href="#DejaVuSans-70" transform="translate(396.191406 0)"/>
     <use xlink:href="#DejaVuSans-75" transform="translate(459.667969 0)"/>
     <use xlink:href="#DejaVuSans-74" transform="translate(523.046875 0)"/>
     <use xlink:href="#DejaVuSans-61" transform="translate(562.255859 0)"/>
     <use xlink:href="#DejaVuSans-74" transform="translate(623.535156 0)"/>
     <use xlink:href="#DejaVuSans-69" transform="translate(662.744141 0)"/>
     <use xlink:href="#DejaVuSans-6f" transform="translate(690.527344 0)"/>
     <use xlink:href="#DejaVuSans-6e" transform="translate(751.708984 0)"/>
     <use xlink:href="#DejaVuSans-20" transform="translate(815.087891 0)"/>
     <use xlink:href="#DejaVuSans-53" transform="translate(846.875 0)"/>
     <use xlink:href="#DejaVuSans-61" transform="translate(910.351562 0)"/>
     <use xlink:href="#DejaVuSans-76" transform="translate(971.630859 0)"/>
     <use xlink:href="#DejaVuSans-65" transform="translate(1030.810547 0)"/>
     <use xlink:href="#DejaVuSans-64" transform="translate(1092.333984 0)"/>
    </g>
   </g>
   <g id="text_57">
    <!-- Global Round vs. Client ID with Computation Saved through Early Stopping -->
    <g style="fill: #262626" transform="translate(142.223875 19.3575) scale(0.16 -0.16)">
     <defs>
      <path id="DejaVuSans-73" d="M 2834 3397 
L 2834 2853 
Q 2591 2978 2328 3040 
Q 2066 3103 1784 3103 
Q 1356 3103 1142 2972 
Q 928 2841 928 2578 
Q 928 2378 1081 2264 
Q 1234 2150 1697 2047 
L 1894 2003 
Q 2506 1872 2764 1633 
Q 3022 1394 3022 966 
Q 3022 478 2636 193 
Q 2250 -91 1575 -91 
Q 1294 -91 989 -36 
Q 684 19 347 128 
L 347 722 
Q 666 556 975 473 
Q 1284 391 1588 391 
Q 1994 391 2212 530 
Q 2431 669 2431 922 
Q 2431 1156 2273 1281 
Q 2116 1406 1581 1522 
L 1381 1569 
Q 847 1681 609 1914 
Q 372 2147 372 2553 
Q 372 3047 722 3315 
Q 1072 3584 1716 3584 
Q 2034 3584 2315 3537 
Q 2597 3491 2834 3397 
z
" transform="scale(0.015625)"/>
      <path id="DejaVuSans-2e" d="M 684 794 
L 1344 794 
L 1344 0 
L 684 0 
L 684 794 
z
" transform="scale(0.015625)"/>
      <path id="DejaVuSans-77" d="M 269 3500 
L 844 3500 
L 1563 769 
L 2278 3500 
L 2956 3500 
L 3675 769 
L 4391 3500 
L 4966 3500 
L 4050 0 
L 3372 0 
L 2619 2869 
L 1863 0 
L 1184 0 
L 269 3500 
z
" transform="scale(0.015625)"/>
      <path id="DejaVuSans-68" d="M 3513 2113 
L 3513 0 
L 2938 0 
L 2938 2094 
Q 2938 2591 2744 2837 
Q 2550 3084 2163 3084 
Q 1697 3084 1428 2787 
Q 1159 2491 1159 1978 
L 1159 0 
L 581 0 
L 581 4863 
L 1159 4863 
L 1159 2956 
Q 1366 3272 1645 3428 
Q 1925 3584 2291 3584 
Q 2894 3584 3203 3211 
Q 3513 2838 3513 2113 
z
" transform="scale(0.015625)"/>
      <path id="DejaVuSans-72" d="M 2631 2963 
Q 2534 3019 2420 3045 
Q 2306 3072 2169 3072 
Q 1681 3072 1420 2755 
Q 1159 2438 1159 1844 
L 1159 0 
L 581 0 
L 581 3500 
L 1159 3500 
L 1159 2956 
Q 1341 3275 1631 3429 
Q 1922 3584 2338 3584 
Q 2397 3584 2469 3576 
Q 2541 3569 2628 3553 
L 2631 2963 
z
" transform="scale(0.015625)"/>
      <path id="DejaVuSans-67" d="M 2906 1791 
Q 2906 2416 2648 2759 
Q 2391 3103 1925 3103 
Q 1463 3103 1205 2759 
Q 947 2416 947 1791 
Q 947 1169 1205 825 
Q 1463 481 1925 481 
Q 2391 481 2648 825 
Q 2906 1169 2906 1791 
z
M 3481 434 
Q 3481 -459 3084 -895 
Q 2688 -1331 1869 -1331 
Q 1566 -1331 1297 -1286 
Q 1028 -1241 775 -1147 
L 775 -588 
Q 1028 -725 1275 -790 
Q 1522 -856 1778 -856 
Q 2344 -856 2625 -561 
Q 2906 -266 2906 331 
L 2906 616 
Q 2728 306 2450 153 
Q 2172 0 1784 0 
Q 1141 0 747 490 
Q 353 981 353 1791 
Q 353 2603 747 3093 
Q 1141 3584 1784 3584 
Q 2172 3584 2450 3431 
Q 2728 3278 2906 2969 
L 2906 3500 
L 3481 3500 
L 3481 434 
z
" transform="scale(0.015625)"/>
      <path id="DejaVuSans-45" d="M 628 4666 
L 3578 4666 
L 3578 4134 
L 1259 4134 
L 1259 2753 
L 3481 2753 
L 3481 2222 
L 1259 2222 
L 1259 531 
L 3634 531 
L 3634 0 
L 628 0 
L 628 4666 
z
" transform="scale(0.015625)"/>
      <path id="DejaVuSans-79" d="M 2059 -325 
Q 1816 -950 1584 -1140 
Q 1353 -1331 966 -1331 
L 506 -1331 
L 506 -850 
L 844 -850 
Q 1081 -850 1212 -737 
Q 1344 -625 1503 -206 
L 1606 56 
L 191 3500 
L 800 3500 
L 1894 763 
L 2988 3500 
L 3597 3500 
L 2059 -325 
z
" transform="scale(0.015625)"/>
     </defs>
     <use xlink:href="#DejaVuSans-47"/>
     <use xlink:href="#DejaVuSans-6c" transform="translate(77.490234 0)"/>
     <use xlink:href="#DejaVuSans-6f" transform="translate(105.273438 0)"/>
     <use xlink:href="#DejaVuSans-62" transform="translate(166.455078 0)"/>
     <use xlink:href="#DejaVuSans-61" transform="translate(229.931641 0)"/>
     <use xlink:href="#DejaVuSans-6c" transform="translate(291.210938 0)"/>
     <use xlink:href="#DejaVuSans-20" transform="translate(318.994141 0)"/>
     <use xlink:href="#DejaVuSans-52" transform="translate(350.78125 0)"/>
     <use xlink:href="#DejaVuSans-6f" transform="translate(415.763672 0)"/>
     <use xlink:href="#DejaVuSans-75" transform="translate(476.945312 0)"/>
     <use xlink:href="#DejaVuSans-6e" transform="translate(540.324219 0)"/>
     <use xlink:href="#DejaVuSans-64" transform="translate(603.703125 0)"/>
     <use xlink:href="#DejaVuSans-20" transform="translate(667.179688 0)"/>
     <use xlink:href="#DejaVuSans-76" transform="translate(698.966797 0)"/>
     <use xlink:href="#DejaVuSans-73" transform="translate(758.146484 0)"/>
     <use xlink:href="#DejaVuSans-2e" transform="translate(810.246094 0)"/>
     <use xlink:href="#DejaVuSans-20" transform="translate(842.033203 0)"/>
     <use xlink:href="#DejaVuSans-43" transform="translate(873.820312 0)"/>
     <use xlink:href="#DejaVuSans-6c" transform="translate(943.644531 0)"/>
     <use xlink:href="#DejaVuSans-69" transform="translate(971.427734 0)"/>
     <use xlink:href="#DejaVuSans-65" transform="translate(999.210938 0)"/>
     <use xlink:href="#DejaVuSans-6e" transform="translate(1060.734375 0)"/>
     <use xlink:href="#DejaVuSans-74" transform="translate(1124.113281 0)"/>
     <use xlink:href="#DejaVuSans-20" transform="translate(1163.322266 0)"/>
     <use xlink:href="#DejaVuSans-49" transform="translate(1195.109375 0)"/>
     <use xlink:href="#DejaVuSans-44" transform="translate(1224.601562 0)"/>
     <use xlink:href="#DejaVuSans-20" transform="translate(1301.603516 0)"/>
     <use xlink:href="#DejaVuSans-77" transform="translate(1333.390625 0)"/>
     <use xlink:href="#DejaVuSans-69" transform="translate(1415.177734 0)"/>
     <use xlink:href="#DejaVuSans-74" transform="translate(1442.960938 0)"/>
     <use xlink:href="#DejaVuSans-68" transform="translate(1482.169922 0)"/>
     <use xlink:href="#DejaVuSans-20" transform="translate(1545.548828 0)"/>
     <use xlink:href="#DejaVuSans-43" transform="translate(1577.335938 0)"/>
     <use xlink:href="#DejaVuSans-6f" transform="translate(1647.160156 0)"/>
     <use xlink:href="#DejaVuSans-6d" transform="translate(1708.341797 0)"/>
     <use xlink:href="#DejaVuSans-70" transform="translate(1805.753906 0)"/>
     <use xlink:href="#DejaVuSans-75" transform="translate(1869.230469 0)"/>
     <use xlink:href="#DejaVuSans-74" transform="translate(1932.609375 0)"/>
     <use xlink:href="#DejaVuSans-61" transform="translate(1971.818359 0)"/>
     <use xlink:href="#DejaVuSans-74" transform="translate(2033.097656 0)"/>
     <use xlink:href="#DejaVuSans-69" transform="translate(2072.306641 0)"/>
     <use xlink:href="#DejaVuSans-6f" transform="translate(2100.089844 0)"/>
     <use xlink:href="#DejaVuSans-6e" transform="translate(2161.271484 0)"/>
     <use xlink:href="#DejaVuSans-20" transform="translate(2224.650391 0)"/>
     <use xlink:href="#DejaVuSans-53" transform="translate(2256.4375 0)"/>
     <use xlink:href="#DejaVuSans-61" transform="translate(2319.914062 0)"/>
     <use xlink:href="#DejaVuSans-76" transform="translate(2381.193359 0)"/>
     <use xlink:href="#DejaVuSans-65" transform="translate(2440.373047 0)"/>
     <use xlink:href="#DejaVuSans-64" transform="translate(2501.896484 0)"/>
     <use xlink:href="#DejaVuSans-20" transform="translate(2565.373047 0)"/>
     <use xlink:href="#DejaVuSans-74" transform="translate(2597.160156 0)"/>
     <use xlink:href="#DejaVuSans-68" transform="translate(2636.369141 0)"/>
     <use xlink:href="#DejaVuSans-72" transform="translate(2699.748047 0)"/>
     <use xlink:href="#DejaVuSans-6f" transform="translate(2738.611328 0)"/>
     <use xlink:href="#DejaVuSans-75" transform="translate(2799.792969 0)"/>
     <use xlink:href="#DejaVuSans-67" transform="translate(2863.171875 0)"/>
     <use xlink:href="#DejaVuSans-68" transform="translate(2926.648438 0)"/>
     <use xlink:href="#DejaVuSans-20" transform="translate(2990.027344 0)"/>
     <use xlink:href="#DejaVuSans-45" transform="translate(3021.814453 0)"/>
     <use xlink:href="#DejaVuSans-61" transform="translate(3084.998047 0)"/>
     <use xlink:href="#DejaVuSans-72" transform="translate(3146.277344 0)"/>
     <use xlink:href="#DejaVuSans-6c" transform="translate(3187.390625 0)"/>
     <use xlink:href="#DejaVuSans-79" transform="translate(3215.173828 0)"/>
     <use xlink:href="#DejaVuSans-20" transform="translate(3274.353516 0)"/>
     <use xlink:href="#DejaVuSans-53" transform="translate(3306.140625 0)"/>
     <use xlink:href="#DejaVuSans-74" transform="translate(3369.617188 0)"/>
     <use xlink:href="#DejaVuSans-6f" transform="translate(3408.826172 0)"/>
     <use xlink:href="#DejaVuSans-70" transform="translate(3470.007812 0)"/>
     <use xlink:href="#DejaVuSans-70" transform="translate(3533.484375 0)"/>
     <use xlink:href="#DejaVuSans-69" transform="translate(3596.960938 0)"/>
     <use xlink:href="#DejaVuSans-6e" transform="translate(3624.744141 0)"/>
     <use xlink:href="#DejaVuSans-67" transform="translate(3688.123047 0)"/>
    </g>
   </g>
   <g id="legend_1">
    <g id="patch_16">
     <path d="M 68.554375 70.185 
L 359.768125 70.185 
Q 362.168125 70.185 362.168125 67.785 
L 362.168125 33.7575 
Q 362.168125 31.3575 359.768125 31.3575 
L 68.554375 31.3575 
Q 66.154375 31.3575 66.154375 33.7575 
L 66.154375 67.785 
Q 66.154375 70.185 68.554375 70.185 
z
" style="fill: #ffffff; opacity: 0.8; stroke: #cccccc; stroke-width: 1.5; stroke-linejoin: miter"/>
    </g>
    <g id="line2d_36">
     <path d="M 70.954375 41.075625 
L 82.954375 41.075625 
L 94.954375 41.075625 
" style="fill: none; stroke-dasharray: 14.4,3.6,2.25,3.6; stroke-dashoffset: 0; stroke: #000000; stroke-width: 2.25"/>
    </g>
    <g id="text_58">
     <!-- CS = Computation Saved (Server Rounds) -->
     <g style="fill: #262626" transform="translate(104.554375 45.275625) scale(0.12 -0.12)">
      <defs>
       <path id="DejaVuSans-28" d="M 1984 4856 
Q 1566 4138 1362 3434 
Q 1159 2731 1159 2009 
Q 1159 1288 1364 580 
Q 1569 -128 1984 -844 
L 1484 -844 
Q 1016 -109 783 600 
Q 550 1309 550 2009 
Q 550 2706 781 3412 
Q 1013 4119 1484 4856 
L 1984 4856 
z
" transform="scale(0.015625)"/>
       <path id="DejaVuSans-29" d="M 513 4856 
L 1013 4856 
Q 1481 4119 1714 3412 
Q 1947 2706 1947 2009 
Q 1947 1309 1714 600 
Q 1481 -109 1013 -844 
L 513 -844 
Q 928 -128 1133 580 
Q 1338 1288 1338 2009 
Q 1338 2731 1133 3434 
Q 928 4138 513 4856 
z
" transform="scale(0.015625)"/>
      </defs>
      <use xlink:href="#DejaVuSans-43"/>
      <use xlink:href="#DejaVuSans-53" transform="translate(69.824219 0)"/>
      <use xlink:href="#DejaVuSans-20" transform="translate(133.300781 0)"/>
      <use xlink:href="#DejaVuSans-3d" transform="translate(165.087891 0)"/>
      <use xlink:href="#DejaVuSans-20" transform="translate(248.876953 0)"/>
      <use xlink:href="#DejaVuSans-43" transform="translate(280.664062 0)"/>
      <use xlink:href="#DejaVuSans-6f" transform="translate(350.488281 0)"/>
      <use xlink:href="#DejaVuSans-6d" transform="translate(411.669922 0)"/>
      <use xlink:href="#DejaVuSans-70" transform="translate(509.082031 0)"/>
      <use xlink:href="#DejaVuSans-75" transform="translate(572.558594 0)"/>
      <use xlink:href="#DejaVuSans-74" transform="translate(635.9375 0)"/>
      <use xlink:href="#DejaVuSans-61" transform="translate(675.146484 0)"/>
      <use xlink:href="#DejaVuSans-74" transform="translate(736.425781 0)"/>
      <use xlink:href="#DejaVuSans-69" transform="translate(775.634766 0)"/>
      <use xlink:href="#DejaVuSans-6f" transform="translate(803.417969 0)"/>
      <use xlink:href="#DejaVuSans-6e" transform="translate(864.599609 0)"/>
      <use xlink:href="#DejaVuSans-20" transform="translate(927.978516 0)"/>
      <use xlink:href="#DejaVuSans-53" transform="translate(959.765625 0)"/>
      <use xlink:href="#DejaVuSans-61" transform="translate(1023.242188 0)"/>
      <use xlink:href="#DejaVuSans-76" transform="translate(1084.521484 0)"/>
      <use xlink:href="#DejaVuSans-65" transform="translate(1143.701172 0)"/>
      <use xlink:href="#DejaVuSans-64" transform="translate(1205.224609 0)"/>
      <use xlink:href="#DejaVuSans-20" transform="translate(1268.701172 0)"/>
      <use xlink:href="#DejaVuSans-28" transform="translate(1300.488281 0)"/>
      <use xlink:href="#DejaVuSans-53" transform="translate(1339.501953 0)"/>
      <use xlink:href="#DejaVuSans-65" transform="translate(1402.978516 0)"/>
      <use xlink:href="#DejaVuSans-72" transform="translate(1464.501953 0)"/>
      <use xlink:href="#DejaVuSans-76" transform="translate(1505.615234 0)"/>
      <use xlink:href="#DejaVuSans-65" transform="translate(1564.794922 0)"/>
      <use xlink:href="#DejaVuSans-72" transform="translate(1626.318359 0)"/>
      <use xlink:href="#DejaVuSans-20" transform="translate(1667.431641 0)"/>
      <use xlink:href="#DejaVuSans-52" transform="translate(1699.21875 0)"/>
      <use xlink:href="#DejaVuSans-6f" transform="translate(1764.201172 0)"/>
      <use xlink:href="#DejaVuSans-75" transform="translate(1825.382812 0)"/>
      <use xlink:href="#DejaVuSans-6e" transform="translate(1888.761719 0)"/>
      <use xlink:href="#DejaVuSans-64" transform="translate(1952.140625 0)"/>
      <use xlink:href="#DejaVuSans-73" transform="translate(2015.617188 0)"/>
      <use xlink:href="#DejaVuSans-29" transform="translate(2067.716797 0)"/>
     </g>
    </g>
    <g id="line2d_37">
     <path d="M 70.954375 58.689375 
L 82.954375 58.689375 
L 94.954375 58.689375 
" style="fill: none; stroke-dasharray: 8.325,3.6; stroke-dashoffset: 0; stroke: #0000ff; stroke-opacity: 0.5; stroke-width: 2.25"/>
    </g>
    <g id="text_59">
     <!-- Mean Global Round value: 67 -->
     <g style="fill: #262626" transform="translate(104.554375 62.889375) scale(0.12 -0.12)">
      <defs>
       <path id="DejaVuSans-4d" d="M 628 4666 
L 1569 4666 
L 2759 1491 
L 3956 4666 
L 4897 4666 
L 4897 0 
L 4281 0 
L 4281 4097 
L 3078 897 
L 2444 897 
L 1241 4097 
L 1241 0 
L 628 0 
L 628 4666 
z
" transform="scale(0.015625)"/>
       <path id="DejaVuSans-3a" d="M 750 794 
L 1409 794 
L 1409 0 
L 750 0 
L 750 794 
z
M 750 3309 
L 1409 3309 
L 1409 2516 
L 750 2516 
L 750 3309 
z
" transform="scale(0.015625)"/>
      </defs>
      <use xlink:href="#DejaVuSans-4d"/>
      <use xlink:href="#DejaVuSans-65" transform="translate(86.279297 0)"/>
      <use xlink:href="#DejaVuSans-61" transform="translate(147.802734 0)"/>
      <use xlink:href="#DejaVuSans-6e" transform="translate(209.082031 0)"/>
      <use xlink:href="#DejaVuSans-20" transform="translate(272.460938 0)"/>
      <use xlink:href="#DejaVuSans-47" transform="translate(304.248047 0)"/>
      <use xlink:href="#DejaVuSans-6c" transform="translate(381.738281 0)"/>
      <use xlink:href="#DejaVuSans-6f" transform="translate(409.521484 0)"/>
      <use xlink:href="#DejaVuSans-62" transform="translate(470.703125 0)"/>
      <use xlink:href="#DejaVuSans-61" transform="translate(534.179688 0)"/>
      <use xlink:href="#DejaVuSans-6c" transform="translate(595.458984 0)"/>
      <use xlink:href="#DejaVuSans-20" transform="translate(623.242188 0)"/>
      <use xlink:href="#DejaVuSans-52" transform="translate(655.029297 0)"/>
      <use xlink:href="#DejaVuSans-6f" transform="translate(720.011719 0)"/>
      <use xlink:href="#DejaVuSans-75" transform="translate(781.193359 0)"/>
      <use xlink:href="#DejaVuSans-6e" transform="translate(844.572266 0)"/>
      <use xlink:href="#DejaVuSans-64" transform="translate(907.951172 0)"/>
      <use xlink:href="#DejaVuSans-20" transform="translate(971.427734 0)"/>
      <use xlink:href="#DejaVuSans-76" transform="translate(1003.214844 0)"/>
      <use xlink:href="#DejaVuSans-61" transform="translate(1062.394531 0)"/>
      <use xlink:href="#DejaVuSans-6c" transform="translate(1123.673828 0)"/>
      <use xlink:href="#DejaVuSans-75" transform="translate(1151.457031 0)"/>
      <use xlink:href="#DejaVuSans-65" transform="translate(1214.835938 0)"/>
      <use xlink:href="#DejaVuSans-3a" transform="translate(1276.359375 0)"/>
      <use xlink:href="#DejaVuSans-20" transform="translate(1310.050781 0)"/>
      <use xlink:href="#DejaVuSans-36" transform="translate(1341.837891 0)"/>
      <use xlink:href="#DejaVuSans-37" transform="translate(1405.460938 0)"/>
     </g>
    </g>
   </g>
  </g>
 </g>
 <defs>
  <clipPath id="p2f17fe1572">
   <rect x="60.154375" y="25.3575" width="764.394" height="468.684"/>
  </clipPath>
 </defs>
</svg>
