<?xml version="1.0" standalone="no"?>
<!DOCTYPE svg PUBLIC "-//W3C//DTD SVG 20010904//EN"
 "http://www.w3.org/TR/2001/REC-SVG-20010904/DTD/svg10.dtd">
<svg version="1.0" xmlns="http://www.w3.org/2000/svg"
 width="512.000000pt" height="512.000000pt" viewBox="0 0 512.000000 512.000000"
 preserveAspectRatio="xMidYMid meet">
<metadata>
Created by potrace 1.14, written by Peter Selinger 2001-2017
</metadata>
<g transform="translate(0.000000,512.000000) scale(0.100000,-0.100000)"
fill="currentColor" stroke="none">
<path d="M2476 4410 c-26 -33 -50 -60 -54 -60 -4 0 -42 14 -86 31 l-79 30
-142 -61 -142 -61 -28 -80 c-15 -43 -32 -83 -39 -87 -6 -4 -56 -9 -111 -12
l-100 -5 -82 -175 c-45 -96 -82 -182 -82 -190 -1 -9 20 -49 45 -90 26 -41 48
-80 51 -87 2 -6 -18 -45 -45 -86 l-51 -74 23 -156 c12 -87 26 -160 30 -164 4
-5 49 -22 99 -39 l92 -31 3 -105 3 -104 155 -89 155 -88 57 16 c31 9 64 19 73
22 12 4 32 -13 73 -62 l56 -67 0 -393 0 -393 -90 0 -90 0 0 45 0 45 -175 0
-175 0 0 -95 0 -95 175 0 175 0 0 -45 0 -45 90 0 90 0 0 -280 0 -280 -425 0
-425 0 0 -95 0 -95 190 0 190 0 0 -85 0 -85 560 0 560 0 0 85 0 85 180 0 180
0 0 95 0 95 -415 0 -415 0 0 370 0 370 130 0 130 0 0 70 0 69 -127 3 -128 3
-3 328 -2 327 101 0 101 0 67 58 66 59 55 -23 c30 -13 63 -23 72 -24 24 0 332
110 339 122 4 6 12 50 19 99 10 65 17 90 29 93 9 3 55 8 103 11 l86 7 68 164
67 164 -42 89 c-22 49 -41 92 -41 96 0 4 25 43 57 87 l56 80 -43 152 c-23 83
-47 165 -51 182 -8 27 -15 32 -62 43 -30 6 -70 16 -90 22 l-37 10 0 67 c0 37
-3 77 -6 89 -4 16 -52 51 -149 112 l-142 89 -84 -21 -83 -20 -56 61 -56 62
-175 0 -176 0 -47 -60z m375 -195 c35 -41 69 -75 74 -75 6 0 52 11 103 25 l93
25 67 -42 c37 -23 69 -43 71 -45 2 -1 7 -51 10 -110 l6 -108 97 -25 c53 -14
99 -28 103 -32 4 -4 18 -44 31 -89 l24 -82 -63 -91 -64 -91 49 -104 48 -104
-27 -69 c-14 -38 -34 -73 -42 -77 -9 -5 -54 -12 -101 -15 -136 -11 -124 -1
-144 -131 l-18 -113 -84 -30 -84 -30 -89 35 -90 36 -82 -77 -82 -76 -108 0
-108 0 -68 81 c-52 62 -72 79 -88 76 -11 -2 -54 -15 -96 -27 l-76 -23 -69 39
-69 40 -2 59 c-2 33 -5 88 -9 122 l-6 63 -101 32 c-56 17 -105 36 -108 41 -4
6 -10 39 -14 74 l-7 64 62 95 63 94 -57 94 c-31 52 -56 99 -56 104 0 6 18 49
40 96 l39 86 63 0 c35 0 86 3 115 6 l52 7 22 66 c46 138 50 144 122 175 l65
27 113 -44 113 -44 25 31 c14 17 45 55 69 84 l44 52 83 0 83 0 63 -75z"/>
<path d="M2382 3797 l-82 -82 0 -150 0 -150 83 -83 82 -82 235 0 235 0 88 81
87 81 0 152 0 151 -83 83 -82 82 -240 0 -240 0 -83 -83z m523 -137 c27 -28 28
-32 22 -100 -5 -60 -10 -73 -33 -94 -26 -22 -38 -24 -189 -29 l-160 -5 -32 31
c-31 29 -33 35 -33 101 0 62 3 73 27 98 l27 28 171 0 171 0 29 -30z"/>
<path d="M2790 1980 l0 -90 225 0 225 0 0 90 0 90 -225 0 -225 0 0 -90z"/>
</g>
</svg>
